<svg xmlns="http://www.w3.org/2000/svg" width="11.228" height="7.719" viewBox="0 0 11.228 7.719">
  <g id="_002-email" data-name="002-email" transform="translate(0 0)">
    <g id="Group_14944" data-name="Group 14944" transform="translate(7.443 1.423)">
      <g id="Group_14943" data-name="Group 14943">
        <path id="Path_26531" data-name="Path 26531" d="M339.392,147.39l3.785,2.393V144.9Z" transform="translate(-339.392 -144.896)" fill="#7a69d4"/>
      </g>
    </g>
    <g id="Group_14946" data-name="Group 14946" transform="translate(0 1.423)">
      <g id="Group_14945" data-name="Group 14945">
        <path id="Path_26532" data-name="Path 26532" d="M0,144.9v4.887l3.785-2.393Z" transform="translate(0 -144.896)" fill="#7a69d4"/>
      </g>
    </g>
    <g id="Group_14948" data-name="Group 14948" transform="translate(0.021)">
      <g id="Group_14947" data-name="Group 14947">
        <path id="Path_26533" data-name="Path 26533" d="M11.465,80H1.641a.693.693,0,0,0-.681.6l5.593,3.685L12.146,80.6A.693.693,0,0,0,11.465,80Z" transform="translate(-0.96 -80)" fill="#7a69d4"/>
      </g>
    </g>
    <g id="Group_14950" data-name="Group 14950" transform="translate(0.022 4.34)">
      <g id="Group_14949" data-name="Group 14949">
        <path id="Path_26534" data-name="Path 26534" d="M7.8,277.921l-.993.654a.353.353,0,0,1-.386,0l-.993-.655-4.406,2.787a.692.692,0,0,0,.679.592h9.825a.692.692,0,0,0,.679-.592Z" transform="translate(-1.024 -277.92)" fill="#7a69d4"/>
      </g>
    </g>
  </g>
</svg>
