<svg id="_003-google-docs" data-name="003-google-docs" xmlns="http://www.w3.org/2000/svg" width="9.672" height="12.698" viewBox="0 0 9.672 12.698">
  <path id="Path_26535" data-name="Path 26535" d="M62.116,12.7h7.44a1.117,1.117,0,0,0,1.116-1.116V3.72h-2.6A1.117,1.117,0,0,1,66.952,2.6V0H62.116A1.117,1.117,0,0,0,61,1.116V11.582A1.117,1.117,0,0,0,62.116,12.7ZM63.6,5.233h4.464a.372.372,0,0,1,0,.744H63.6a.372.372,0,1,1,0-.744Zm0,1.488h4.464a.372.372,0,0,1,0,.744H63.6a.372.372,0,1,1,0-.744Zm0,1.488h4.464a.372.372,0,0,1,0,.744H63.6a.372.372,0,1,1,0-.744Zm0,1.488H66.58a.372.372,0,0,1,0,.744H63.6a.372.372,0,1,1,0-.744Z" transform="translate(-61)" fill="#7a69d4"/>
  <path id="Path_26536" data-name="Path 26536" d="M331.372,11.547h2.386L331,8.789v2.386A.372.372,0,0,0,331.372,11.547Z" transform="translate(-324.304 -8.571)" fill="#7a69d4"/>
</svg>
