<svg xmlns="http://www.w3.org/2000/svg" width="52" height="52" viewBox="0 0 52 52">
  <g id="activation-ico" transform="translate(-33 -33)">
    <g id="Group_67913" data-name="Group 67913" transform="translate(33 33)">
      <path id="Path_47573" data-name="Path 47573" d="M59.1,33A26,26,0,1,1,33,59.1,26.058,26.058,0,0,1,59.1,33Zm5.258,4.479A21.956,21.956,0,0,1,59.1,80.715,21.984,21.984,0,0,1,37.09,58.708,21.755,21.755,0,0,1,53.644,37.479V40.79a18.794,18.794,0,1,0,10.712,0Zm-7.4-2.142h4.09V48.191h-4.09Z" transform="translate(-33 -33)" fill="#1da1f2" fill-rule="evenodd"/>
    </g>
  </g>
</svg>
