<svg xmlns="http://www.w3.org/2000/svg" width="23" height="23" viewBox="0 0 23 23">
  <g id="Add_User" data-name="Add User" transform="translate(-1 -1)">
    <g id="Group_67906" data-name="Group 67906" transform="translate(1 1)">
      <path id="Path_47561" data-name="Path 47561" d="M13.314,9.625A4.313,4.313,0,1,0,9,5.313,4.317,4.317,0,0,0,13.314,9.625Zm0-7.187a2.875,2.875,0,1,1-2.875,2.875A2.878,2.878,0,0,1,13.314,2.438Z" transform="translate(-3.251 -1)"/>
      <path id="Path_47562" data-name="Path 47562" d="M18.25,16.156a5.746,5.746,0,0,0-.881.075A10.054,10.054,0,0,0,1,24.063v.1a3.572,3.572,0,0,0,3.594,3.493H17.531a3.069,3.069,0,0,0,.309-.021c.136.01.272.021.41.021a5.75,5.75,0,0,0,0-11.5ZM4.594,26.219a2.13,2.13,0,0,1-2.156-2.063v-.093a8.617,8.617,0,0,1,13.23-7.286,5.732,5.732,0,0,0-1.208,9.442Zm13.656,0a4.313,4.313,0,1,1,4.313-4.312A4.317,4.317,0,0,1,18.25,26.219Z" transform="translate(-1 -4.656)"/>
      <path id="Path_47563" data-name="Path 47563" d="M26.031,23.156H24.594V21.719a.719.719,0,0,0-1.437,0v1.438H21.719a.719.719,0,0,0,0,1.438h1.438v1.438a.719.719,0,0,0,1.438,0V24.594h1.438a.719.719,0,0,0,0-1.437Z" transform="translate(-6.625 -6.625)"/>
    </g>
  </g>
</svg>
