<svg id="Group_68153" data-name="Group 68153" xmlns="http://www.w3.org/2000/svg" width="33.18" height="27.393" viewBox="0 0 33.18 27.393">
  <path id="Path_48723" data-name="Path 48723" d="M36.473,18.858H25.439l-1.2-1.852A4,4,0,0,0,20.77,15H12.012C9.736,15,8,17.546,8,19.745V37.84a4.645,4.645,0,0,0,4.707,4.553H36.473A4.653,4.653,0,0,0,41.18,37.8V23.449A4.653,4.653,0,0,0,36.473,18.858ZM38.865,37.8a2.332,2.332,0,0,1-2.392,2.276H12.707A2.357,2.357,0,0,1,10.315,37.8V19.707c0-1.08.926-2.431,1.7-2.431H20.77a1.611,1.611,0,0,1,1.466.849l.039.039,1.582,2.431h0c.039.039.077.077.077.116s.039.039.039.077l.077.077c.039.039.077.039.077.077a.038.038,0,0,1,.039.039.2.2,0,0,0,.154.077c.039,0,.039,0,.077.039.039,0,.116.039.154.039H36.434a2.357,2.357,0,0,1,2.392,2.276V37.8Z" transform="translate(-8 -15)" fill="#7a69d4"/>
  <path id="Path_48724" data-name="Path 48724" d="M38.546,68.3H22.457a1.157,1.157,0,0,0,0,2.315H38.546a1.157,1.157,0,0,0,0-2.315Z" transform="translate(-16.169 -47.736)" fill="#7a69d4"/>
</svg>
