<svg xmlns="http://www.w3.org/2000/svg" width="22.003" height="19.48" viewBox="0 0 22.003 19.48">
  <path id="Cloud_upload" data-name="Cloud upload" d="M449.774,1779.015c-.618-2.635-2.519-6.115-6.777-6.115-3.27,0-4.875,1.49-5.647,2.74a5.763,5.763,0,0,0-.664,1.555,6.118,6.118,0,0,0-.766,11.66,9.987,9.987,0,0,0,3.577.75h.5v-1.52h-.5s-6,0-6-5.06c0-4.05,4.5-4.555,4.5-4.555s0-4.05,5-4.05,5.5,6.075,5.5,6.075a3.7,3.7,0,0,1,.416-.02,3.289,3.289,0,0,1,3.584,3.565c0,4.045-6,4.045-6,4.045h-1v1.52h1c2.594,0,7.5-1.165,7.5-5.565A4.682,4.682,0,0,0,449.774,1779.015Zm-4.2,3.9a.75.75,0,0,0,1.06.04.763.763,0,0,0,.042-1.07l-3-3.295a.742.742,0,0,0-.734-.21.752.752,0,0,0-.727.2l-3.25,3.355a.767.767,0,0,0,.01,1.075.75.75,0,0,0,1.06-.01l1.965-2.03v10.67a.75.75,0,0,0,1.5,0v-10.995Z" transform="translate(-431.995 -1772.9)" fill="#7a69d4" fill-rule="evenodd"/>
</svg>
