<svg xmlns="http://www.w3.org/2000/svg" width="75.038" height="51.296" viewBox="0 0 75.038 51.296">
  <g id="computer" transform="translate(0 -81)">
    <path id="Path_13" data-name="Path 13" d="M362.648,90.38V85.4A4.532,4.532,0,0,0,358.1,81H341.4a4.4,4.4,0,0,0-4.4,4.4V90.38Z" transform="translate(-287.61)" fill="#7a69d4"/>
    <path id="Path_14" data-name="Path 14" d="M337,175v33.122a4.4,4.4,0,0,0,4.4,4.4H358.1a4.532,4.532,0,0,0,4.543-4.4V175Zm13.39,28.044a2.2,2.2,0,1,1,1.517-2.533,2.2,2.2,0,0,1-1.517,2.533Zm0-9.38a2.2,2.2,0,1,1,1.517-2.533,2.2,2.2,0,0,1-1.517,2.533Z" transform="translate(-287.61 -80.223)" fill="#7a69d4"/>
    <path id="Path_15" data-name="Path 15" d="M40.011,81H4.4A4.4,4.4,0,0,0,0,85.4v29.751a4.4,4.4,0,0,0,4.4,4.4H40.011a4.4,4.4,0,0,0,4.4-4.4V85.4A4.4,4.4,0,0,0,40.011,81Z" fill="#7a69d4"/>
    <path id="Path_16" data-name="Path 16" d="M82.648,377.957H77.811V374H64.035v3.957H59.2a2.2,2.2,0,0,0,0,4.4H82.648a2.2,2.2,0,0,0,0-4.4Z" transform="translate(-48.646 -250.058)" fill="#7a69d4"/>
  </g>
</svg>
