<svg xmlns="http://www.w3.org/2000/svg" width="54.614" height="51.296" viewBox="0 0 54.614 51.296">
  <g id="contact-ico" transform="translate(-6.614 -9.277)">
    <path id="Path_47584" data-name="Path 47584" d="M36.619,45.723a2.683,2.683,0,0,0-3.587-.378,35.444,35.444,0,0,1-3.02,2.391C27.936,49.247,25.8,45.66,25.8,45.66l-3.838-6.166s-1.007-1.447-2.139-3.209h0c-.692-1.07-1.447-2.2-2.014-3.209-1.447-2.894-.629-3.9-.629-3.9.44-1.07,3.272-1.888,4.593-2.769a2.725,2.725,0,0,0,1.07-3.461L18.686,14.7a2.163,2.163,0,0,0-2.831-1.2,16.1,16.1,0,0,0-3.964,2.076,8.371,8.371,0,0,0-1.2.881c-3.146,2.2-5.034,5.223-3.587,12.018,1.384,7.047,7.3,16.045,7.3,16.045S20.322,53.463,26.3,57.616a15.989,15.989,0,0,0,5.852,2.769,7.81,7.81,0,0,0,1.7.189,9.206,9.206,0,0,0,5.223-1.825,17.158,17.158,0,0,0,3.461-2.831,2.176,2.176,0,0,0,0-3.083Zm9.312-20.135h-.126a1.209,1.209,0,0,1-.755-.252l-7.11-4.971v9.187H53.734V20.429L46.686,25.4A1.675,1.675,0,0,1,45.931,25.588Zm4.593-6.041H41.212l4.656,3.209ZM58.138,15.4a15.438,15.438,0,1,0-8.62,24.288,1.729,1.729,0,0,1,1.258.126l3.587,1.762a1.175,1.175,0,0,0,1.7-1.007l.252-4.027a1.874,1.874,0,0,1,.5-1.133A15.355,15.355,0,0,0,58.138,15.4ZM56.376,30.937a1.329,1.329,0,0,1-1.321,1.321H36.682a1.329,1.329,0,0,1-1.321-1.321V18.227a1.329,1.329,0,0,1,1.321-1.321H55.055a1.329,1.329,0,0,1,1.321,1.321v12.71Z" transform="translate(0 0)" fill="#1da1f2"/>
  </g>
</svg>
