<svg xmlns="http://www.w3.org/2000/svg" width="66.147" height="70.44" viewBox="0 0 66.147 70.44">
  <g id="desk-app-ico" transform="translate(-157 -1571)">
    <path id="blob" d="M-9.291-54.609c5.223,11.6,5.8,23.19.94,31.7C-13.261-14.392-23.6-9.064-34.779-8.594s-23.086-4.022-30.032-13.684c-6.894-9.663-8.722-24.5-2.768-36.561C-61.626-70.853-47.785-80.1-36.033-78.9-24.229-77.747-14.462-66.2-9.291-54.609Z" transform="translate(228.167 1650.001)" fill="#7a69d4"/>
    <g id="noun_Computer_3716515" transform="translate(164 1580)">
      <g id="Group_1" data-name="Group 1" transform="translate(9 10)">
        <path id="Path_7" data-name="Path 7" d="M9,60.5A2.507,2.507,0,0,0,11.5,63H40.662a2.507,2.507,0,0,0,2.5-2.5V58H9Zm17.081-1.042A1.042,1.042,0,1,1,25.039,60.5,1.031,1.031,0,0,1,26.081,59.458Z" transform="translate(-9 -38.003)" fill="#fff"/>
        <path id="Path_8" data-name="Path 8" d="M40.662,10H11.5A2.507,2.507,0,0,0,9,12.5V28.331H43.162V12.5A2.507,2.507,0,0,0,40.662,10Z" transform="translate(-9 -10)" fill="#fff"/>
        <path id="Path_9" data-name="Path 9" d="M45.248,78.166H44a2.507,2.507,0,0,1-2.5-2.5V74H34v1.666a2.507,2.507,0,0,1-2.5,2.5H30.25A1.228,1.228,0,0,0,29,79.416a1.253,1.253,0,0,0,1.25,1.25h15a1.253,1.253,0,0,0,1.25-1.25A1.228,1.228,0,0,0,45.248,78.166Z" transform="translate(-20.668 -47.337)" fill="#fff"/>
      </g>
    </g>
  </g>
</svg>
