<svg xmlns="http://www.w3.org/2000/svg" width="33.75" height="45" viewBox="0 0 33.75 45">
  <g id="noun_recieve_2384633" transform="translate(-4 3)">
    <g id="Group_67973" data-name="Group 67973" transform="translate(4 -3)">
      <path id="Path_47851" data-name="Path 47851" d="M19.75,33.159V2.125a1.125,1.125,0,0,1,2.25,0V33.159l7.079-7.08a1.125,1.125,0,0,1,1.591,1.591l-9,9a1.126,1.126,0,0,1-1.591,0l-9-9a1.125,1.125,0,1,1,1.591-1.591ZM35.5,16.75H27.625a1.125,1.125,0,0,1,0-2.25h9a1.125,1.125,0,0,1,1.125,1.125v29.25A1.125,1.125,0,0,1,36.625,46H5.125A1.125,1.125,0,0,1,4,44.875V15.625A1.125,1.125,0,0,1,5.125,14.5h9a1.125,1.125,0,1,1,0,2.25H6.25v27H35.5Z" transform="translate(-4 -1)" fill="#7a69d4"/>
    </g>
  </g>
</svg>
