<svg xmlns="http://www.w3.org/2000/svg" width="20.699" height="20.699" viewBox="0 0 20.699 20.699">
  <g id="edit_2_" data-name="edit (2)" transform="translate(-8 -8)">
    <path id="Path_55" data-name="Path 55" d="M27.837,14.9a.863.863,0,0,0-.862.862v10.35a.863.863,0,0,1-.862.862H10.587a.863.863,0,0,1-.862-.862V10.587a.863.863,0,0,1,.862-.862h10.35a.862.862,0,0,0,0-1.725H10.587A2.59,2.59,0,0,0,8,10.587V26.112A2.59,2.59,0,0,0,10.587,28.7H26.112A2.59,2.59,0,0,0,28.7,26.112V15.762A.863.863,0,0,0,27.837,14.9Z" fill="#7a69d4"/>
    <path id="Path_56" data-name="Path 56" d="M24,18.5v2.439a.863.863,0,0,0,.862.862H27.3a.863.863,0,0,0,.61-.253l9.382-9.382a1.727,1.727,0,0,0,0-2.439l-1.22-1.22a1.727,1.727,0,0,0-2.439,0l-9.382,9.382A.863.863,0,0,0,24,18.5ZM34.854,9.726l1.22,1.22-1.22,1.22-1.22-1.22Zm-9.129,9.13,6.69-6.691,1.22,1.22-6.691,6.691h-1.22Z" transform="translate(-9.1 -0.002)" fill="#7a69d4"/>
  </g>
</svg>
