<svg id="email" xmlns="http://www.w3.org/2000/svg" width="24" height="24" viewBox="0 0 24 24">
  <g id="Group">
    <rect id="Rectangle" width="24" height="24" fill="none"/>
    <g id="_126516" data-name="126516" transform="translate(2.4 4.8)">
      <path id="Combined_Shape" data-name="Combined Shape" d="M2.348,14.288A2.325,2.325,0,0,1,0,11.992V2.3A2.325,2.325,0,0,1,2.348,0H16.856a2.354,2.354,0,0,1,1.678.693A2.258,2.258,0,0,1,19.2,2.3v9.693a2.325,2.325,0,0,1-2.348,2.3ZM1.073,2.3v9.693a1.263,1.263,0,0,0,1.275,1.247H16.856a1.263,1.263,0,0,0,1.275-1.247h0V2.3a1.263,1.263,0,0,0-1.275-1.247H2.348A1.263,1.263,0,0,0,1.073,2.3Zm14.992,9.613L11.3,7.5,9.968,8.665a.537.537,0,0,1-.356.135.545.545,0,0,1-.357-.131l-1.3-1.133-4.79,4.373a.542.542,0,0,1-.364.139.555.555,0,0,1-.392-.166.515.515,0,0,1,.024-.739L7.151,6.833,2.413,2.7a.512.512,0,0,1-.044-.738.543.543,0,0,1,.757-.042L8.252,6.4a.869.869,0,0,1,.087.073s0,.008.008.012l1.26,1.1,6.458-5.656a.547.547,0,0,1,.757.039.516.516,0,0,1-.04.738L12.1,6.8l4.7,4.357a.516.516,0,0,1,.02.739.547.547,0,0,1-.757.019Z" fill="#7a69d4"/>
    </g>
  </g>
</svg>
