 <svg xmlns="http://www.w3.org/2000/svg" width="344" height="362.274" viewBox="0 0 344 362.274">
                <g id="Pay_attention-cuate" data-name="Pay attention-cuate" transform="translate(-38.04)">
                  <g id="freepik--background-complete--inject-87" transform="translate(38.503 44.753)">
                    <path id="Path_51572" data-name="Path 51572" d="M409.733,69.625l10.655-.227,5.4-.089c1.8,0,3.619,0,5.429-.049h.365v9.851h-.406l-10.728-.057c-3.579,0-7.157-.089-10.744-.13h-.219v-.219c0-1.542.073-3.075.105-4.593Zm0,0,.114,4.585c.041,1.509.1,3.011.114,4.5l-.227-.227c3.587-.041,7.165-.122,10.744-.13l10.744-.049-.406.406.049-9.08.357.357c-1.769,0-3.53,0-5.307-.041l-5.34-.081Z" transform="translate(-108.531 -57.81)" fill="#ebebeb"/>
                    <path id="Path_51573" data-name="Path 51573" d="M424.5,55.515l10.655-.227,5.4-.089c1.81-.041,3.619,0,5.429-.049h.365v.365l.041,9.08V65h-.438l-10.744-.057c-3.579,0-7.157-.089-10.744-.13h-.219V64.6c0-1.542.073-3.075.106-4.593Zm0,0,.122,4.585c0,1.509.089,3.011.105,4.5l-.227-.227c3.587-.041,7.165-.122,10.744-.13l10.711-.049-.4.406.041-9.08.357.325H440.65l-5.34-.089Z" transform="translate(-111.313 -55.15)" fill="#ebebeb"/>
                    <path id="Path_51574" data-name="Path 51574" d="M394.953,55.515l10.655-.227,5.4-.089c1.8-.041,3.619,0,5.429-.049h.357v.365l.065,9.08V65h-.406l-10.744-.057c-3.579,0-7.165-.089-10.744-.13h-.219V64.6c0-1.542.065-3.075.106-4.593Zm0,0,.114,4.585c0,1.509.089,3.011.106,4.5l-.219-.227c3.579-.041,7.165-.122,10.744-.13l10.744-.049-.406.406.049-9.08.357.357h-5.307l-5.339-.089Z" transform="translate(-105.752 -55.15)" fill="#ebebeb"/>
                    <path id="Path_51575" data-name="Path 51575" d="M292.4,371.385l10.647-.227,5.4-.089c1.81-.041,3.627,0,5.437-.049h.357v.365l.049,9.08v.406h-.406l-10.744-.057c-3.579,0-7.165-.089-10.744-.13h-.227v-.219c0-1.542.065-3.076.105-4.593Zm0,0,.114,4.585c.041,1.517.089,3.011.105,4.5l-.219-.219c3.579-.049,7.165-.13,10.744-.138l10.744-.049-.406.406.041-9.08.365.357c-1.769,0-3.538,0-5.315-.041l-5.339-.089Z" transform="translate(-86.413 -114.7)" fill="#ebebeb"/>
                    <path id="Path_51576" data-name="Path 51576" d="M307.167,357.281l10.647-.227,5.4-.065c1.8-.041,3.619,0,5.429-.049H329v.365l.041,9.08v.406h-.406l-10.728-.065c-3.579,0-7.165-.1-10.744-.138h-.227v-.219c0-1.542.065-3.076.105-4.593Zm0,0,.114,4.585c.041,1.517.089,3.011.105,4.5l-.219-.219c3.579-.049,7.165-.13,10.744-.138l10.744-.049-.406.406.041-9.08.365.357c-1.769,0-3.538,0-5.315-.041l-5.331-.089Z" transform="translate(-89.197 -112.045)" fill="#ebebeb"/>
                    <path id="Path_51577" data-name="Path 51577" d="M277.627,357.275l10.647-.227,5.4-.089c1.81-.041,3.627,0,5.437-.049h.357v.365l.049,9.08v.406h-.406l-10.744-.041c-3.587,0-7.165-.1-10.744-.138H277.4v-.219c0-1.542.073-3.075.105-4.593Zm0,0,.114,4.585c0,1.517.089,3.011.105,4.5l-.219-.219c3.579-.049,7.157-.13,10.744-.138l10.744-.049-.406.406v-9.08l.365.357c-1.769,0-3.538,0-5.315-.041l-5.339-.089Z" transform="translate(-83.628 -112.04)" fill="#ebebeb"/>
                    <path id="Path_51578" data-name="Path 51578" d="M63.683,55.515l10.647-.227,5.4-.089c1.81-.041,3.627,0,5.437-.049h.357v.365l.049,9.08V65h-.406l-10.72-.057c-3.587,0-7.165-.089-10.744-.13H63.48V64.6c0-1.542.073-3.075.105-4.593Zm0,0L63.8,60.1c0,1.509.089,3.011.105,4.5l-.219-.227c3.579-.041,7.157-.122,10.744-.13l10.744-.049-.406.406.041-9.08.365.357H79.856l-5.34-.089Z" transform="translate(-43.299 -55.15)" fill="#ebebeb"/>
                    <path id="Path_51579" data-name="Path 51579" d="M130.947,272.057l10.655-.227,5.4-.089c1.8-.041,3.619,0,5.429-.041h.365v.365l.041,9.08v.406h-.414l-10.744-.049c-3.579,0-7.157-.089-10.744-.138h-.219v-.219c0-1.542.073-3.076.105-4.585Zm0,0,.122,4.593c0,1.509.089,3,.105,4.487l-.227-.219c3.587-.041,7.165-.13,10.744-.138l10.744-.049-.406.406.049-9.08.357.365c-1.769,0-3.53,0-5.307-.049l-5.34-.089Z" transform="translate(-55.975 -95.975)" fill="#ebebeb"/>
                    <path id="Path_51580" data-name="Path 51580" d="M63.683,357.467l10.647-.227,5.4-.089c1.81-.041,3.627,0,5.437-.041h.357v.365l.049,9.08v.406h-.406l-10.72-.057c-3.587,0-7.165-.089-10.744-.138H63.48v-.219c0-1.542.073-3.067.105-4.585Zm0,0,.114,4.593c0,1.509.089,3,.105,4.487l-.219-.219c3.579-.041,7.157-.13,10.744-.13l10.744-.057-.406.406.041-9.08.365.365c-1.769,0-3.538,0-5.315-.049l-5.34-.089Z" transform="translate(-43.299 -112.077)" fill="#ebebeb"/>
                    <path id="Path_51581" data-name="Path 51581" d="M48.947,343.357l10.647-.227,5.4-.089c1.81-.041,3.619,0,5.437-.041h.357v.365l.049,9.08v.406h-.406L59.691,352.8c-3.587,0-7.165-.089-10.744-.13H48.72v-.219c0-1.542.073-3.067.105-4.585Zm0,0,.114,4.593c0,1.509.089,3,.105,4.487l-.219-.219c3.579-.041,7.157-.13,10.744-.13l10.744-.057-.406.406v-9.08l.365.365c-1.777,0-3.538,0-5.315-.049l-5.34-.089Z" transform="translate(-40.516 -109.417)" fill="#ebebeb"/>
                    <path id="Path_51582" data-name="Path 51582" d="M424.5,357.455l10.655-.227,5.4-.089c1.81,0,3.619,0,5.429-.049h.365v.365l.041,9.08v.406h-.438l-10.744-.049c-3.579,0-7.157-.1-10.744-.138h-.219v-.219c0-1.542.073-3.076.106-4.585Zm0,0,.122,4.585c0,1.517.089,3.011.105,4.5l-.227-.219c3.587,0,7.165-.13,10.744-.138l10.744-.049-.4.406.041-9.08.357.365c-1.769,0-3.53,0-5.307-.049l-5.339-.089Z" transform="translate(-111.313 -112.074)" fill="#ebebeb"/>
                    <path id="Path_51583" data-name="Path 51583" d="M321.224,134.166l-10.647.227-5.4.089c-1.81.041-3.619,0-5.437.049h-.357v-.365l-.049-9.08v-.406h.406l10.744.049c3.587,0,7.165.1,10.744.138h.227v.219c0,1.542-.073,3.075-.105,4.585Zm0,0-.114-4.585c0-1.517-.089-3.011-.105-4.5l.219.219c-3.579,0-7.157.13-10.744.138l-10.744.049.406-.406-.041,9.08-.365-.365c1.777,0,3.538,0,5.315.049l5.339.089Z" transform="translate(-87.763 -68.258)" fill="#ebebeb"/>
                    <path id="Path_51584" data-name="Path 51584" d="M306.454,148.276l-10.647.227-5.4.089c-1.81,0-3.627,0-5.437.049h-.357v-.365l-.049-9.08v-.406h.406l10.744.049c3.587,0,7.165.1,10.744.138h.227v.219c0,1.542-.073,3.075-.114,4.585Zm0,0-.114-4.585c0-1.517-.089-3.011-.105-4.5l.219.219c-3.579.041-7.157.13-10.744.138l-10.744.049.406-.406-.041,9.08-.365-.365c1.769,0,3.538,0,5.315.049l5.339.089Z" transform="translate(-84.978 -70.918)" fill="#ebebeb"/>
                    <rect id="Rectangle_153" data-name="Rectangle 153" width="79.508" height="85.602" transform="translate(110.791 306.997) rotate(180)" fill="#ebebeb"/>
                    <rect id="Rectangle_154" data-name="Rectangle 154" width="87.217" height="4.082" transform="translate(114.645 221.403) rotate(180)" fill="#dbdbdb"/>
                    <rect id="Rectangle_155" data-name="Rectangle 155" width="27.428" height="4.082" transform="translate(27.428 221.403) rotate(180)" fill="#ebebeb"/>
                    <rect id="Rectangle_156" data-name="Rectangle 156" width="26.941" height="85.602" transform="translate(31.282 306.997) rotate(180)" fill="#dbdbdb"/>
                    <rect id="Rectangle_157" data-name="Rectangle 157" width="62.191" height="35.064" transform="translate(102.132 272.225) rotate(180)" fill="none" stroke="#c7c7c7" stroke-miterlimit="10" stroke-width="0.25"/>
                    <rect id="Rectangle_158" data-name="Rectangle 158" width="12.148" height="6.979" transform="translate(79.752 254.357) rotate(180)" fill="#c7c7c7"/>
                    <rect id="Rectangle_159" data-name="Rectangle 159" width="12.148" height="5.932" transform="translate(76.157 253.829) rotate(180)" fill="none" stroke="#c7c7c7" stroke-miterlimit="10" stroke-width="0.25"/>
                  </g>
                  <g id="freepik--Plant--inject-87" transform="translate(312.748 238.329)">
                    <path id="Path_51585" data-name="Path 51585" d="M430.252,331.272c-13.69,13.406-15.986,34.139-13.1,52.3.073.414.706.3.706-.089,0-4.13-.122-8.228-.114-12.31.081-.187.138-.365.219-.552,3.57-2.6,6.857-5.534,8.926-9.559,2.28-4.5,3.181-9.567,4.934-14.266.162-.446-.316-.316-.633-.081-8.326,6.143-10.979,12.748-13.373,21.585a73.33,73.33,0,0,1,1.436-13.73c1.793-8.383,5.356-16.692,11.361-22.908C430.844,331.394,430.487,331.037,430.252,331.272Z" transform="translate(-384.014 -300.768)" fill="#455a64"/>
                    <path id="Path_51586" data-name="Path 51586" d="M435.634,330.341c2.361.073,3.83,3.838,5.68,4.942a1.761,1.761,0,0,0,2.6-.414c1.818-2.532-.674-5.68-3.027-7.417,1.68.69,3.076,1.9,4.869,2.248a1.7,1.7,0,0,0,2.2-1.323c.811-3.465-3.538-5-6.492-5.072,1.444-1.006,5.583-3.733,3.384-5.08s-7.084,2.556-8.667,3.846c-2.329,1.883-5.1,4.707-5.21,7.66C430.806,333.181,433.825,331.063,435.634,330.341Z" transform="translate(-386.824 -298.27)" fill="#7a69d4"/>
                    <path id="Path_51587" data-name="Path 51587" d="M435.634,330.341c2.361.073,3.83,3.838,5.68,4.942a1.761,1.761,0,0,0,2.6-.414c1.818-2.532-.674-5.68-3.027-7.417,1.68.69,3.076,1.9,4.869,2.248a1.7,1.7,0,0,0,2.2-1.323c.811-3.465-3.538-5-6.492-5.072,1.444-1.006,5.583-3.733,3.384-5.08s-7.084,2.556-8.667,3.846c-2.329,1.883-5.1,4.707-5.21,7.66C430.806,333.181,433.825,331.063,435.634,330.341Z" transform="translate(-386.824 -298.27)" opacity="0.1"/>
                    <path id="Path_51588" data-name="Path 51588" d="M434.909,331.654c3.011-1.363,8.8.6,9.291-.536,1-2.321-3.627-3.911-6.119-4.22,2.3-.625,6.695-1.623,6.565-3.83-.17-2.71-6.751-.381-10.087,2.175-4.2,3.246-4.179,6.329-3.481,6.954C432.028,333.05,434.414,331.881,434.909,331.654Z" transform="translate(-386.78 -299.007)" fill="#7a69d4"/>
                    <path id="Path_51589" data-name="Path 51589" d="M394.9,329.643c14.193,12.87,17.276,33.506,15.085,51.764-.065.414-.706.325-.714-.065-.162-4.13-.195-8.228-.357-12.31l-.235-.544c-3.668-2.434-7.06-5.266-9.251-9.21-2.434-4.406-3.546-9.437-5.469-14.063-.179-.446.3-.333.625-.114,8.553,5.818,11.458,12.326,14.185,21.1a73.846,73.846,0,0,0-1.972-13.681c-2.118-8.309-5.989-16.473-12.245-22.462C394.318,329.789,394.659,329.408,394.9,329.643Z" transform="translate(-379.841 -300.461)" fill="#455a64"/>
                    <path id="Path_51590" data-name="Path 51590" d="M389.091,328.9c-2.353.17-3.684,3.984-5.477,5.153a1.761,1.761,0,0,1-2.613-.308c-1.915-2.434.463-5.68,2.735-7.531-1.623.755-2.994,2.021-4.788,2.434a1.7,1.7,0,0,1-2.248-1.233c-.933-3.424,3.351-5.128,6.321-5.315-1.485-.949-5.721-3.522-3.579-4.942s7.214,2.248,8.837,3.5c2.394,1.8,5.283,4.512,5.494,7.466C394.049,331.575,390.957,329.555,389.091,328.9Z" transform="translate(-376.569 -298.06)" fill="#7a69d4"/>
                    <path id="Path_51591" data-name="Path 51591" d="M389.091,328.9c-2.353.17-3.684,3.984-5.477,5.153a1.761,1.761,0,0,1-2.613-.308c-1.915-2.434.463-5.68,2.735-7.531-1.623.755-2.994,2.021-4.788,2.434a1.7,1.7,0,0,1-2.248-1.233c-.933-3.424,3.351-5.128,6.321-5.315-1.485-.949-5.721-3.522-3.579-4.942s7.214,2.248,8.837,3.5c2.394,1.8,5.283,4.512,5.494,7.466C394.049,331.575,390.957,329.555,389.091,328.9Z" transform="translate(-376.569 -298.06)" opacity="0.1"/>
                    <path id="Path_51592" data-name="Path 51592" d="M390.564,330.175c-3.059-1.25-8.764.941-9.3-.179-1.087-2.28,3.473-4.057,5.956-4.455-2.321-.536-6.76-1.355-6.711-3.579.065-2.71,6.735-.633,10.168,1.793,4.317,3.059,4.414,6.167,3.741,6.816C393.5,331.49,391.067,330.386,390.564,330.175Z" transform="translate(-377.312 -298.786)" fill="#7a69d4"/>
                    <path id="Path_51593" data-name="Path 51593" d="M410.051,360.357a139.25,139.25,0,0,0,4.406,20.352.5.5,0,1,0,.99-.195c-.925-6.273-2.629-12.432-3.562-18.7a94.447,94.447,0,0,1-1.087-19.2c.6-10.549,3.465-21.812,10.363-30.081.154-.195-.17-.471-.325-.292-13.8,16.1-11.612,35.843-11.6,37.612-1.956-6.67-3.968-14.306-11.361-21.1-.316-.292-.568-.146-.511.349,1.323,12.359,4.755,18.818,11.929,25.423Q409.605,357.476,410.051,360.357Z" transform="translate(-380.489 -297.183)" fill="#455a64"/>
                    <path id="Path_51594" data-name="Path 51594" d="M425.53,310.895c2.483-1.1,5.908,2.061,8.366,2.28a2.042,2.042,0,0,0,2.491-1.737c.609-3.546-3.554-5.542-6.873-6.175,2.085-.13,4.139.43,6.192-.13a1.964,1.964,0,0,0,1.623-2.475c-.917-3.992-6.191-3.408-9.324-1.98,1-1.769,3.911-6.687.958-6.971s-6.062,6.216-7.06,8.35c-1.469,3.132-2.921,7.457-1.55,10.549C421.951,316.283,424.02,312.558,425.53,310.895Z" transform="translate(-384.72 -293.699)" fill="#7a69d4"/>
                    <path id="Path_51595" data-name="Path 51595" d="M425.53,310.895c2.483-1.1,5.908,2.061,8.366,2.28a2.042,2.042,0,0,0,2.491-1.737c.609-3.546-3.554-5.542-6.873-6.175,2.085-.13,4.139.43,6.192-.13a1.964,1.964,0,0,0,1.623-2.475c-.917-3.992-6.191-3.408-9.324-1.98,1-1.769,3.911-6.687.958-6.971s-6.062,6.216-7.06,8.35c-1.469,3.132-2.921,7.457-1.55,10.549C421.951,316.283,424.02,312.558,425.53,310.895Z" transform="translate(-384.72 -293.699)" opacity="0.1"/>
                    <path id="Path_51596" data-name="Path 51596" d="M425.156,312.681c2.434-2.937,9.421-3.806,9.364-5.234-.138-2.913-5.737-2.232-8.48-1.3,2.077-1.8,6.143-5.047,4.869-7.3-1.534-2.727-7.2,3-9.372,7.3-2.735,5.461-1.144,8.667-.105,8.967C422.868,315.578,424.751,313.168,425.156,312.681Z" transform="translate(-384.761 -294.536)" fill="#7a69d4"/>
                    <path id="Path_51597" data-name="Path 51597" d="M400.4,376.127l-6.094,46.522h37.076c-.763-4.122-7.66-46.579-7.66-46.579Z" transform="translate(-379.914 -309.228)" fill="#7a69d4"/>
                  </g>
                  <g id="freepik--Table--inject-87" transform="translate(38.04 351.352)">
                    <path id="Path_51598" data-name="Path 51598" d="M38.04,433.386l43-.2,43-.073,86-.13,86,.13,43,.073,43,.2-43,.195-43,.073-86,.13-86-.13-43-.073Z" transform="translate(-38.04 -432.98)" fill="#263238"/>
                  </g>
                  <g id="freepik--Sign--inject-87" transform="translate(58.148 54.101)">
                    <rect id="Rectangle_160" data-name="Rectangle 160" width="102.935" height="134.161" fill="#455a64"/>
                    <path id="Path_51599" data-name="Path 51599" d="M158.7,155.536H74.14l42.278-74.1Z" transform="translate(-64.954 -69.455)" fill="#7a69d4"/>
                    <path id="Path_51600" data-name="Path 51600" d="M154.025,153.695H81.65L117.834,90.27Zm-69.584-1.623h66.784L117.834,93.548Z" transform="translate(-66.37 -71.119)" fill="#263238"/>
                    <path id="Path_51601" data-name="Path 51601" d="M121.94,137.24V113.78h6.987v23.46Zm0,13.917v-7.871h6.987v7.871Z" transform="translate(-73.966 -75.551)" fill="#263238"/>
                    <path id="Path_51602" data-name="Path 51602" d="M78.3,185.56h1.834l4.057,10.663H82.061l-.99-2.654H77.346l-.982,2.654H74.23Zm2.434,6.549-1.477-4.2-1.534,4.2Z" transform="translate(-64.971 -89.084)" fill="#fff"/>
                    <path id="Path_51603" data-name="Path 51603" d="M94.428,187.378H91.019v8.845H88.958v-8.845H85.55V185.56h8.878Z" transform="translate(-67.105 -89.084)" fill="#fff"/>
                    <path id="Path_51604" data-name="Path 51604" d="M105.926,187.378h-3.408v8.845h-2.061v-8.845H97V185.56h8.926Z" transform="translate(-69.264 -89.084)" fill="#fff"/>
                    <path id="Path_51605" data-name="Path 51605" d="M116.989,194.405v1.818H109.58V185.56h7.3v1.818h-5.2v2.6h4.5V191.6h-4.5v2.775Z" transform="translate(-71.635 -89.084)" fill="#fff"/>
                    <path id="Path_51606" data-name="Path 51606" d="M122.779,189.39v6.833H120.71V185.56h1.623l5.559,7v-6.987h2.069v10.647h-1.712Z" transform="translate(-73.734 -89.084)" fill="#fff"/>
                    <path id="Path_51607" data-name="Path 51607" d="M142.6,187.378h-3.408v8.845h-2.053v-8.845H133.72V185.56H142.6Z" transform="translate(-76.187 -89.084)" fill="#fff"/>
                    <path id="Path_51608" data-name="Path 51608" d="M146.29,196.223V185.56h2.077v10.663Z" transform="translate(-78.556 -89.084)" fill="#fff"/>
                    <path id="Path_51609" data-name="Path 51609" d="M156,196.285a4.8,4.8,0,0,1-2.126-.463,5.241,5.241,0,0,1-1.623-1.217,5.5,5.5,0,0,1-1.063-1.737,5.68,5.68,0,0,1-.373-2,5.46,5.46,0,0,1,.4-2.044,5.793,5.793,0,0,1,1.1-1.729,5.47,5.47,0,0,1,1.664-1.193,4.983,4.983,0,0,1,2.085-.446,4.658,4.658,0,0,1,2.11.479,5.185,5.185,0,0,1,1.623,1.242,5.567,5.567,0,0,1,1.055,1.737,5.51,5.51,0,0,1-1.1,5.737,5.185,5.185,0,0,1-1.623,1.185A4.983,4.983,0,0,1,156,196.285Zm-3.1-5.413a4.357,4.357,0,0,0,.211,1.338,3.863,3.863,0,0,0,.609,1.145,3.141,3.141,0,0,0,.982.811,3.027,3.027,0,0,0,2.645,0,3.165,3.165,0,0,0,.974-.811,3.627,3.627,0,0,0,.6-1.152,4.228,4.228,0,0,0,0-2.637,3.571,3.571,0,0,0-.617-1.136,2.978,2.978,0,0,0-.974-.811,3.043,3.043,0,0,0-2.637,0,2.962,2.962,0,0,0-.974.811,3.587,3.587,0,0,0-.6,1.144A4.421,4.421,0,0,0,152.9,190.872Z" transform="translate(-79.408 -89.065)" fill="#fff"/>
                    <path id="Path_51610" data-name="Path 51610" d="M167.659,189.39v6.833H165.59V185.56h1.623l5.559,7v-6.987h2.077v10.647h-1.7Z" transform="translate(-82.195 -89.084)" fill="#fff"/>
                    <path id="Path_51611" data-name="Path 51611" d="M93.52,214.763V204.1h4.52a2.978,2.978,0,0,1,1.363.308,3.408,3.408,0,0,1,1.071.811,3.822,3.822,0,0,1,.706,1.136,3.473,3.473,0,0,1,.252,1.29,3.684,3.684,0,0,1-.235,1.315,3.757,3.757,0,0,1-.674,1.128,3.343,3.343,0,0,1-1.055.811,3.132,3.132,0,0,1-1.355.3H95.589v3.57Zm2.069-5.388h2.434a1.193,1.193,0,0,0,.949-.471,1.891,1.891,0,0,0,.381-1.258,2.029,2.029,0,0,0-.122-.73,1.623,1.623,0,0,0-.308-.552,1.25,1.25,0,0,0-.463-.333,1.225,1.225,0,0,0-.536-.114H95.589Z" transform="translate(-68.608 -92.579)" fill="#fff"/>
                    <path id="Path_51612" data-name="Path 51612" d="M105.05,214.763V204.1h2.077v8.845h5.437v1.818Z" transform="translate(-70.781 -92.579)" fill="#fff"/>
                    <path id="Path_51613" data-name="Path 51613" d="M123.279,212.945v1.818H115.87V204.1h7.3v1.818h-5.2v2.564h4.5v1.688h-4.5v2.775Z" transform="translate(-72.821 -92.579)" fill="#fff"/>
                    <path id="Path_51614" data-name="Path 51614" d="M129.784,204.1h1.842l4.057,10.663h-2.134l-1-2.629h-3.725l-.982,2.654H125.71Zm2.434,6.549-1.517-4.2-1.509,4.2Z" transform="translate(-74.676 -92.579)" fill="#fff"/>
                    <path id="Path_51615" data-name="Path 51615" d="M145.4,206.865a2.158,2.158,0,0,0-.381-.284,5.681,5.681,0,0,0-.674-.357,6.4,6.4,0,0,0-.868-.292,3.691,3.691,0,0,0-.941-.114,2.134,2.134,0,0,0-1.282.308,1.071,1.071,0,0,0-.422.893.9.9,0,0,0,.162.544,1.339,1.339,0,0,0,.454.381,3.644,3.644,0,0,0,.763.3c.3.1.657.187,1.055.292a14.07,14.07,0,0,1,1.42.446,4.057,4.057,0,0,1,1.087.6,2.532,2.532,0,0,1,.682.868,2.816,2.816,0,0,1,.235,1.233,3.141,3.141,0,0,1-.316,1.469,2.767,2.767,0,0,1-.876.982,3.757,3.757,0,0,1-1.258.552,6.492,6.492,0,0,1-1.5.17,8.187,8.187,0,0,1-2.37-.357,7.441,7.441,0,0,1-2.1-1.022l.917-1.793a2.5,2.5,0,0,0,.487.357,7.137,7.137,0,0,0,.811.438,6.038,6.038,0,0,0,1.063.365,4.964,4.964,0,0,0,1.2.146c1.144,0,1.712-.365,1.712-1.1a.909.909,0,0,0-.195-.584,1.68,1.68,0,0,0-.552-.422,5.129,5.129,0,0,0-.876-.325l-1.136-.333a8.689,8.689,0,0,1-1.331-.463,3.327,3.327,0,0,1-.941-.584,2.166,2.166,0,0,1-.56-.811,2.645,2.645,0,0,1-.195-1.063,3.368,3.368,0,0,1,.3-1.436,2.962,2.962,0,0,1,.811-1.055,3.757,3.757,0,0,1,1.242-.641,5.079,5.079,0,0,1,1.517-.219,5.906,5.906,0,0,1,2.077.357,7.628,7.628,0,0,1,1.623.811Z" transform="translate(-77.044 -92.553)" fill="#fff"/>
                    <path id="Path_51616" data-name="Path 51616" d="M157.989,212.945v1.818H150.58V204.1h7.3v1.818h-5.2v2.564h4.5v1.688h-4.5v2.775Z" transform="translate(-79.365 -92.579)" fill="#fff"/>
                    <circle id="Ellipse_1285" data-name="Ellipse 1285" cx="1.834" cy="1.834" r="1.834" transform="translate(2.751 4.723)" fill="#fff"/>
                    <path id="Path_51617" data-name="Path 51617" d="M185.409,71.295a1.866,1.866,0,1,1-.544-1.325A1.875,1.875,0,0,1,185.409,71.295Z" transform="translate(-85.224 -67.188)" fill="#fff"/>
                    <circle id="Ellipse_1286" data-name="Ellipse 1286" cx="1.834" cy="1.834" r="1.834" transform="translate(2.751 128.253)" fill="#fff"/>
                    <circle id="Ellipse_1287" data-name="Ellipse 1287" cx="1.834" cy="1.834" r="1.834" transform="translate(94.65 128.253)" fill="#fff"/>
                  </g>
                  <g id="freepik--Speaker--inject-87" transform="translate(248.934)">
                    <path id="Path_51618" data-name="Path 51618" d="M334.1,72.66c1.793.933,3.546,1.948,5.283,2.978s3.441,2.11,5.145,3.189,3.384,2.207,5.039,3.368L352,83.939c.811.609,1.623,1.193,2.434,1.826-.909-.454-1.785-.966-2.67-1.444l-2.613-1.534c-1.745-1.022-3.449-2.1-5.153-3.189s-3.384-2.207-5.031-3.368S335.69,73.91,334.1,72.66Z" transform="translate(-304.749 -13.698)" fill="#263238"/>
                    <path id="Path_51619" data-name="Path 51619" d="M355.549,141.53c-2.061.982-4.163,1.874-6.265,2.743s-4.22,1.7-6.346,2.524-4.268,1.623-6.427,2.313l-3.246,1.1c-1.087.325-2.167.69-3.246,1,1.031-.5,2.077-.949,3.116-1.42l3.149-1.331c2.094-.884,4.22-1.7,6.346-2.516s4.268-1.623,6.427-2.313S353.358,142.163,355.549,141.53Z" transform="translate(-303.98 -26.682)" fill="#263238"/>
                    <path id="Path_51620" data-name="Path 51620" d="M308.89,139.735c3.246-.893,6.492-1.688,9.738-2.434s6.492-1.509,9.794-2.223,6.54-1.388,9.835-2.012l4.934-.933c1.623-.276,3.295-.584,4.95-.811-1.623.454-3.246.852-4.869,1.274l-4.869,1.185c-3.246.811-6.492,1.5-9.794,2.215s-6.54,1.388-9.835,2.012S312.225,139.216,308.89,139.735Z" transform="translate(-299.996 -24.757)" fill="#263238"/>
                    <path id="Path_51621" data-name="Path 51621" d="M311.64,77.82c3.157,1.258,6.265,2.613,9.372,3.984s6.192,2.775,9.275,4.2,6.143,2.889,9.178,4.4l4.56,2.264c1.509.811,3.027,1.55,4.52,2.361-1.582-.625-3.14-1.306-4.707-1.956l-4.666-2.029c-3.116-1.363-6.192-2.783-9.275-4.212s-6.143-2.889-9.178-4.4S314.634,79.419,311.64,77.82Z" transform="translate(-300.515 -14.671)" fill="#263238"/>
                    <path id="Path_51622" data-name="Path 51622" d="M344.955,115.247c-3.919.211-7.839.316-11.75.414s-7.839.105-11.758.17-7.839,0-11.758-.049l-5.875-.1c-1.964-.065-3.919-.1-5.883-.195,1.956-.114,3.919-.17,5.875-.252l5.883-.162c3.919-.089,7.831-.105,11.75-.162s7.839,0,11.758,0S341.035,115.076,344.955,115.247Z" transform="translate(-297.93 -21.66)" fill="#263238"/>
                    <rect id="Rectangle_161" data-name="Rectangle 161" width="16.619" height="116.081" transform="translate(116.487)" fill="#7a69d4"/>
                    <path id="Path_51623" data-name="Path 51623" d="M441.661,89.556v32.329l-23.232,2.783L382.74,144.534V66.9l35.689,19.881Z" transform="translate(-313.919 -12.612)" fill="#7a69d4"/>
                    <ellipse id="Ellipse_1288" data-name="Ellipse 1288" cx="12.537" cy="39.008" rx="12.537" ry="39.008" transform="translate(55.026 54.101)" fill="#7a69d4"/>
                    <ellipse id="Ellipse_1289" data-name="Ellipse 1289" cx="10.265" cy="34.626" rx="10.265" ry="34.626" transform="translate(56.649 57.809)" opacity="0.2"/>
                    <path id="Path_51624" data-name="Path 51624" d="M388.014,111.593c0,2.548-.081,5.023-.243,7.409a7.652,7.652,0,0,1-4.869,1.737,7.75,7.75,0,0,1-7.741-7.75v-3.66a7.741,7.741,0,0,1,12.57-6.062C387.9,105.978,388.014,108.72,388.014,111.593Z" transform="translate(-312.49 -19.15)" fill="#7a69d4"/>
                    <rect id="Rectangle_162" data-name="Rectangle 162" width="16.692" height="42.359" transform="translate(113.501 71.377)" fill="#7a69d4"/>
                    <rect id="Rectangle_163" data-name="Rectangle 163" width="16.692" height="42.359" transform="translate(113.501 71.377)" opacity="0.2"/>
                    <path id="Path_51625" data-name="Path 51625" d="M387.031,73.46a24.206,24.206,0,0,1,4.106,7.741,55.825,55.825,0,0,1,2.207,8.456c.292,1.436.454,2.889.665,4.341s.317,2.913.414,4.366.2,2.921.235,4.382.081,2.929.073,4.39a95.506,95.506,0,0,1-1.542,17.463,49.4,49.4,0,0,1-2.378,8.456,20.483,20.483,0,0,1-4.593,7.4,21.561,21.561,0,0,0,4.212-7.547,50.02,50.02,0,0,0,2.1-8.423,101.77,101.77,0,0,0,1.355-17.317A104.528,104.528,0,0,0,392.7,89.8a55.034,55.034,0,0,0-1.956-8.472,25.156,25.156,0,0,0-3.717-7.871Z" transform="translate(-314.575 -13.849)" opacity="0.2"/>
                  </g>
                  <g id="freepik--Character--inject-87" transform="translate(50.804 101.78)">
                    <path id="Path_51626" data-name="Path 51626" d="M275.026,416.542H209.694c-1.306-14.12-2.54-27.687-3.595-39.373h0l-.17-1.81h0c-1.875-20.749-3.149-35.08-3.149-35.08h62.483a1.18,1.18,0,0,1,0,.187C265.637,343.3,270.067,377.778,275.026,416.542Z" transform="translate(-81.862 -165.932)" fill="#37474f"/>
                    <path id="Path_51627" data-name="Path 51627" d="M221.315,418.423h-.974q-2.556-24.271-4.634-48.632h0c-.122-1.453-.252-2.913-.381-4.374-.43-5.007-.852-10.038-1.266-15.045,0-.154.219-.154.243,0,.463,4.439.917,8.861,1.355,13.3h0q.227,2.434.479,4.869h0C217.809,385.185,219.464,401.812,221.315,418.423Z" transform="translate(-83.989 -167.813)" fill="#263238"/>
                    <path id="Path_51628" data-name="Path 51628" d="M252.7,340.254l-8.407,55.391h0L244,397.512v.041l-.755,4.974h0l-.065.349-.195,1.339h0L241.119,416.5H197.543c-2.183-12.294-4.285-24.174-6.151-34.755h0c-.073-.4-.138-.811-.211-1.16-4.163-23.533-7.141-40.355-7.141-40.355Z" transform="translate(-78.329 -165.922)" fill="#263238"/>
                    <path id="Path_51629" data-name="Path 51629" d="M257.618,340.184v.243c-.495,3.246-5.875,37.871-14.809,60.6h0c-.057.187-.13.365-.211.56,0,0-1.258.389-3.53,1.29-.885.349-1.931.811-3.124,1.3h0l-1.282.576h0c-2.5,1.12-5.494,2.564-8.926,4.406a1.939,1.939,0,0,0-.26.13l-.26.138-1.031.568h0v.4h0c-.065.868-.227,2.986-.463,6.1H161.97c4.009-40.574,7.677-76.335,7.677-76.335Z" transform="translate(-74.168 -165.909)" fill="#37474f"/>
                    <path id="Path_51630" data-name="Path 51630" d="M178.564,352.014c-1.7,22.242-3.335,44.485-5.112,66.7h-.811q2.816-33.335,5.437-66.679C178.069,351.689,178.612,351.689,178.564,352.014Z" transform="translate(-76.18 -168.098)" fill="#263238"/>
                    <path id="Path_51631" data-name="Path 51631" d="M260.12,413.855a137.277,137.277,0,0,0-21.561,10.038c-.268.154-.089.576.2.446,7.263-3.116,14.671-6.1,21.748-9.616a.479.479,0,0,0-.389-.868Z" transform="translate(-88.583 -179.798)" fill="#263238"/>
                    <path id="Path_51632" data-name="Path 51632" d="M264.559,352.4c0-.252-.454-.308-.454-.041.057,8.626-.495,16.229-1.217,24.271-.341,3.741-3.351,24.409-9.835,22.908-1.087-.252-1.623-1.323-1.81-2.962-.2-1.972.536-4.382.86-6.338.722-4.333,1.3-8.675,1.672-13.048a118.947,118.947,0,0,0-.268-24.45.211.211,0,0,0-.414,0c0,11.3-.292,22.575-1.98,33.765-.811,5.38-3.522,13.47,2.11,14.3s9.429-12.716,10.127-16.424C265.305,374.042,265.37,362.868,264.559,352.4Z" transform="translate(-90.716 -168.176)" fill="#263238"/>
                    <path id="Path_51633" data-name="Path 51633" d="M253.521,411.109a36,36,0,0,0-1.461,4.285,9.738,9.738,0,0,0-.6,3.522c0,.235.325.252.446.1a12.473,12.473,0,0,0,1.509-3.424c.495-1.323,1.014-2.645,1.469-3.984a.725.725,0,1,0-1.363-.495Z" transform="translate(-91.039 -179.195)" fill="#263238"/>
                    <path id="Path_51634" data-name="Path 51634" d="M211.757,360.135a11.888,11.888,0,0,0-.276-2.686.138.138,0,0,0-.26,0,10.551,10.551,0,0,0-.308,2.321c-.089.885-.211,1.777-.3,2.67a40.572,40.572,0,0,1-.949,5.4,19.248,19.248,0,0,1-4.958,8.926,25.846,25.846,0,0,1-8.374,5.518c-3.481,1.477-7.149,2.029-10.752,3.084a.138.138,0,0,0,.041.268,31.055,31.055,0,0,0,11.645-2.313,24.872,24.872,0,0,0,8.74-5.575,19.419,19.419,0,0,0,5.055-9.153,27.021,27.021,0,0,0,.7-5.421A23.677,23.677,0,0,0,211.757,360.135Z" transform="translate(-78.602 -169.151)" fill="#263238"/>
                    <path id="Path_51635" data-name="Path 51635" d="M243.638,240.8c11.572,13.146,46.692,47.423,74.136,59.538,10.679,4.715,23.654,2.215,28.913-3.092,18.583-18.737-57.5-53.095-57.5-53.095-.73.519-13.308-9.064-35.616-16.651C232.188,220.229,236.432,232.644,243.638,240.8Z" transform="translate(-88.459 -144.255)" fill="#d3766a"/>
                    <path id="Path_51636" data-name="Path 51636" d="M296.487,245.648,289,286.514s-33.92-29.408-45.735-44.217c-12.31-15.418-9.5-23.654,14.785-13.965A400.993,400.993,0,0,1,296.487,245.648Z" transform="translate(-88.149 -144.04)" fill="#7a69d4"/>
                    <path id="Path_51637" data-name="Path 51637" d="M294.71,283.565c.081-1.039.308-2.085.487-3.116s.357-2.126.527-3.189c.357-2.15.755-4.3,1.16-6.443.811-4.293,1.623-8.577,2.491-12.854.243-1.169.495-2.345.763-3.514s.665-2.434.949-3.66c0-.081.13-.041.114,0-.17,1.063-.243,2.15-.414,3.246s-.349,2.191-.544,3.286c-.39,2.142-.811,4.293-1.209,6.435-.811,4.212-1.623,8.431-2.564,12.627-.26,1.177-.527,2.345-.811,3.514s-.471,2.491-.852,3.684a.065.065,0,0,1-.1-.016Z" transform="translate(-99.193 -149.051)" fill="#263238"/>
                    <path id="Path_51638" data-name="Path 51638" d="M291.031,276.957l-2,10.914s-33.928-29.408-45.735-44.209c-3.96-4.974-6.354-9.194-6.971-12.3C245.857,239.239,276.238,264.517,291.031,276.957Z" transform="translate(-88.187 -145.397)" fill="#263238"/>
                    <path id="Path_51639" data-name="Path 51639" d="M307.011,176.167c-1.972-2.223-15.686-20.433-27.282-26.365-6.143-3.14-24.012-9.868-26.389-6.37-2.167,3.2,2.272,6.24,2.272,6.24s-8.009-2.881-10.971,1.623,4.8,9.235,4.8,9.235-8.447-2.361-11.085,2.313,5.964,8.115,5.964,8.115-7.612-2.524-8.172,2.248c-.665,5.729,13.9,8.788,19.987,13.414,1.38,1.047,26.478,23.273,26.478,23.273Z" transform="translate(-88.148 -128.635)" fill="#d3766a"/>
                    <path id="Path_51640" data-name="Path 51640" d="M246.187,177.87c10.7,2.272,15,5.12,22.721,12.635.146.154.406-.041.26-.211-6.889-8.05-11.758-12.4-22.892-12.984C245.725,177.285,245.676,177.724,246.187,177.87Z" transform="translate(-89.978 -135.207)" fill="#263238"/>
                    <path id="Path_51641" data-name="Path 51641" d="M252.457,164.955c10.914,3.327,15.6,6.378,24.255,13.657.122.105.308-.089.195-.2-7.9-7.855-12.854-12.083-24.2-13.982C252.2,164.338,251.962,164.8,252.457,164.955Z" transform="translate(-91.176 -132.777)" fill="#263238"/>
                    <path id="Path_51642" data-name="Path 51642" d="M260.541,151.718c10.338,3.992,15.613,7.109,23.111,15.256a.2.2,0,0,0,.316-.252c-6.841-9.056-13.4-12.984-23.273-15.3C260.022,151.263,259.892,151.466,260.541,151.718Z" transform="translate(-92.672 -130.316)" fill="#263238"/>
                    <path id="Path_51643" data-name="Path 51643" d="M286.858,228.147s-12.919-4.609-18.145-7.879-20.23-22.648-16.229-26.129c5.169-4.487,16.027,4.991,20.741,10.33,0,0,11.937-10.395,21.2-5.275S286.858,228.147,286.858,228.147Z" transform="translate(-91.106 -138.159)" fill="#d3766a"/>
                    <path id="Path_51644" data-name="Path 51644" d="M254.918,193.363c7.66-.7,13.4,6.711,18.356,11.547a.633.633,0,0,0,1.031-.154c5.291-4.057,13.933-8.115,20.611-6a.162.162,0,0,0,.122-.292c-6.849-3.246-15.661.081-21.18,4.869-5.007-5.039-11.085-12.213-18.948-10.03Z" transform="translate(-91.69 -138.147)" fill="#263238"/>
                    <path id="Path_51645" data-name="Path 51645" d="M342,287.861c6.021,3.246,11.547,3.822,16.806-1.477,18.575-18.721-36.378-100.469-45.094-106.084-4.731-3.035-32.345,35.039-26.162,42.659,2.54,3.124,10.858,12.675,10.858,12.675C297.646,236.154,325.228,278.724,342,287.861Z" transform="translate(-97.674 -135.739)" fill="#d3766a"/>
                    <path id="Path_51646" data-name="Path 51646" d="M337.231,295.885c-1.282-1.469-2.434-3.027-3.652-4.56s-2.434-3.035-3.66-4.569c-2.378-3.043-4.869-6.045-7.222-9.089q-7.149-9.137-13.965-18.534c-1.274-1.761-2.548-3.522-3.806-5.291s-2.654-3.522-3.9-5.331c-.138-.195-.43,0-.3.227,1.031,1.623,1.988,3.368,3.035,5.015S305.883,257,307,258.622q3.246,4.8,6.719,9.47c4.585,6.232,9.381,12.31,14.452,18.177,1.428,1.623,2.921,3.246,4.382,4.869s3.1,3.181,4.593,4.82C337.182,296.023,337.287,295.958,337.231,295.885Z" transform="translate(-100.321 -148.616)" fill="#263238"/>
                    <path id="Path_51647" data-name="Path 51647" d="M264.912,351.584,162.35,358.076S173.143,260.35,208.839,224.5c4.406-4.431,17.374-4.926,23.63-.454C248.934,235.787,265.164,351.219,264.912,351.584Z" transform="translate(-74.24 -143.43)" fill="#7a69d4"/>
                    <path id="Path_51648" data-name="Path 51648" d="M250.275,273.319a44.8,44.8,0,0,0-6.24,4.057c-1.144.876-2.248,1.81-3.319,2.783-.284.252-.56.511-.811.771-1.282,1.193-2.524,2.434-3.749,3.7a53.013,53.013,0,0,1-8.188,7.36,17.7,17.7,0,0,1-5.072,2.386,17.893,17.893,0,0,1-5.55.641l-2.767-.276c-.9-.195-1.8-.43-2.694-.641a20.364,20.364,0,0,1-2.589-.974,22.883,22.883,0,0,1-2.434-1.242,73.591,73.591,0,0,1-8.115-5.721l-.763-.576-.544-.406a40.9,40.9,0,0,0-8.626-5.193,22.624,22.624,0,0,0-4.057-1.315l.438-1.144a25,25,0,0,1,4.057,1.542,47.632,47.632,0,0,1,8.52,5.591l.592.463.682.527a60.487,60.487,0,0,0,8.163,5.68,20.546,20.546,0,0,0,10.216,2.694,16.57,16.57,0,0,0,5.169-.811,17.853,17.853,0,0,0,4.634-2.394,56.567,56.567,0,0,0,7.766-7.352c.974-1.031,1.964-2.061,2.978-3.067.227-.227.454-.454.682-.665a56.923,56.923,0,0,1,4.309-3.83,43.665,43.665,0,0,1,6.914-4.487Zm8.837,41.385a37.563,37.563,0,0,0-5.128-.219,42.294,42.294,0,0,0-10.939,1.7,74.557,74.557,0,0,0-10.241,3.976,57.069,57.069,0,0,1-9.973,3.854,20.3,20.3,0,0,1-2.686.43,3.444,3.444,0,0,0-.706.049,16.019,16.019,0,0,1-6.906-1.209,20.49,20.49,0,0,1-8.423-6.362,42.418,42.418,0,0,1-3.246-4.625q-.365-.584-.706-1.169c-.649-1.1-1.282-2.207-1.915-3.311a51.123,51.123,0,0,0-6.143-9.04l-.325-.341a18.839,18.839,0,0,0-1.339-1.331h0a25.082,25.082,0,0,0-7.352-4.7,25.754,25.754,0,0,0-2.856-.974c-.154.5-.316,1-.471,1.5a24.514,24.514,0,0,1,2.783.868,23.962,23.962,0,0,1,7.238,4.22,18.93,18.93,0,0,1,1.4,1.274l.187.187a42.918,42.918,0,0,1,6.411,8.65c.592.99,1.169,1.988,1.761,2.986l.7,1.177a48,48,0,0,0,3.392,5.039c.576.706,1.2,1.38,1.8,2.069a23.413,23.413,0,0,0,2.021,1.883,21.508,21.508,0,0,0,2.256,1.623l2.434,1.306a18.07,18.07,0,0,0,5.38,1.509,15.787,15.787,0,0,0,2.97.065,3.171,3.171,0,0,0,.73-.057,18.667,18.667,0,0,0,1.907-.292,52.855,52.855,0,0,0,10.354-3.708,74.114,74.114,0,0,1,10.07-3.716,43.7,43.7,0,0,1,10.476-1.582,34.594,34.594,0,0,1,5.437.2c-.122-.641-.235-1.274-.357-1.915Zm-7.3-35.194a24.092,24.092,0,0,1-9.738.811q-.682-.073-1.363-.195c-.722-.122-1.436-.268-2.15-.438a54.7,54.7,0,0,1-6.849-2.207,86.238,86.238,0,0,0-10.3-3.579c-.893-.2-1.8-.341-2.7-.511a22.183,22.183,0,0,0-2.751-.219,19.758,19.758,0,0,0-2.767.138l-2.735.495a17.2,17.2,0,0,0-9.373,5.859,33.9,33.9,0,0,0-3.408,4.966c-.105.17-.211.341-.308.519-.73,1.282-1.42,2.572-2.1,3.855a82.392,82.392,0,0,1-4.8,8.074h0l-.657.909-.122.17a44,44,0,0,1-7.238,7.75,30.129,30.129,0,0,1-7.766,4.958c-.179.69-.357,1.371-.519,2.061a29.447,29.447,0,0,0,9.519-5.542,43.066,43.066,0,0,0,7.53-8.115l.592-.852a80.346,80.346,0,0,0,4.966-8.626c.641-1.225,1.258-2.434,1.907-3.66l.276-.511a34.5,34.5,0,0,1,3.246-5.047,18.431,18.431,0,0,1,3.781-3.587,16.953,16.953,0,0,1,4.747-2.223,20.506,20.506,0,0,1,10.549-.243,66.187,66.187,0,0,1,10.225,3.514c2.085.811,4.2,1.663,6.378,2.321.657.195,1.323.381,2,.544s1.363.308,2.053.422a25.156,25.156,0,0,0,10.208-.373q-.17-.706-.333-1.42Zm10.549,53.419-3.311,1.144a60.048,60.048,0,0,1-10.387,2.735,31.226,31.226,0,0,1-10.549-.089,24.157,24.157,0,0,1-9.665-4.106,41.6,41.6,0,0,1-7.238-6.906l-.487-.56-.592-.706a74.047,74.047,0,0,0-6.719-7.384c-.69-.6-1.42-1.16-2.126-1.745a23.044,23.044,0,0,0-2.3-1.517,19.248,19.248,0,0,0-2.5-1.209l-2.637-.876a19.186,19.186,0,0,0-3.676-.584h-1.874a17.789,17.789,0,0,0-5.477,1.225,52.9,52.9,0,0,0-9.592,5.4,73.946,73.946,0,0,1-9.291,5.356c-.811.373-1.623.722-2.434,1.055-.17.755-.333,1.5-.487,2.248a39.909,39.909,0,0,0,3.733-1.623,75.215,75.215,0,0,0,9.429-5.68,57.217,57.217,0,0,1,9.178-5.477,18.289,18.289,0,0,1,5.039-1.331,13.725,13.725,0,0,1,1.826-.073h.665a18.585,18.585,0,0,1,2.743.381A20.417,20.417,0,0,1,213,317.471a58.264,58.264,0,0,1,6.435,6.962l.852,1.031.2.243a49.356,49.356,0,0,0,7.368,7.652,24.961,24.961,0,0,0,9.965,4.771,29.213,29.213,0,0,0,11.085.3,55.556,55.556,0,0,0,10.549-3c1.031-.381,2.045-.771,3.059-1.169Z" transform="translate(-75.873 -152.95)" fill="#fff"/>
                    <path id="Path_51649" data-name="Path 51649" d="M243.027,235.99c-6,1.006-15.564-8.7-19.094-16.286-.235-.519.876-5.761,1.939-12.172.625-3.9,1.225-8.269,1.493-12.294.049-.811,24.831,7.79,24.831,7.79s-3.059,8.236-3.457,15.256a9.264,9.264,0,0,0,.065,1.623,1.447,1.447,0,0,1,0,.276C249.137,223.436,248.829,235.008,243.027,235.99Z" transform="translate(-85.844 -138.577)" fill="#d3766a"/>
                    <path id="Path_51650" data-name="Path 51650" d="M247.185,220.2a15.585,15.585,0,0,0,2.6,0,2.671,2.671,0,0,0,0-.276,8.592,8.592,0,0,1-.057-1.623c.414-7.011,3.441-15.28,3.441-15.28s-20.108-7-24.166-7.79C229.495,199.912,232.327,218.893,247.185,220.2Z" transform="translate(-86.805 -138.586)" fill="#263238"/>
                    <path id="Path_51651" data-name="Path 51651" d="M216.461,162.363c-.73,9.34,9.494,33.611,16.968,37.863,10.833,6.183,25.789,3.692,30.325-8.7,4.406-12.01-9.478-43.4-17.568-46.976C234.273,139.268,217.549,148.551,216.461,162.363Z" transform="translate(-84.434 -128.748)" fill="#d3766a"/>
                    <path id="Path_51652" data-name="Path 51652" d="M251.313,179.588c-.041-.057-.1.13-.065.195.73,1.623,1.3,3.595.041,4.747,0,0,0,.122.057.089C253.049,183.612,252.27,181,251.313,179.588Z" transform="translate(-90.998 -135.635)" fill="#263238"/>
                    <path id="Path_51653" data-name="Path 51653" d="M248.348,178.213c-2.71.893-.722,6.265,1.793,5.437S250.628,177.467,248.348,178.213Z" transform="translate(-90.208 -135.364)" fill="#263238"/>
                    <path id="Path_51654" data-name="Path 51654" d="M262.59,174.653c0-.073.162,0,.187.1.56,1.68,1.485,3.514,3.2,3.506a.049.049,0,1,1,0,.1C264.067,178.775,262.858,176.333,262.59,174.653Z" transform="translate(-93.138 -134.701)" fill="#263238"/>
                    <path id="Path_51655" data-name="Path 51655" d="M263.42,171.8c2.6-1.193,4.8,4.057,2.386,5.193S261.237,172.8,263.42,171.8Z" transform="translate(-93.124 -134.136)" fill="#263238"/>
                    <path id="Path_51656" data-name="Path 51656" d="M245.434,176.276a22.021,22.021,0,0,0,2.037-1.169,3.822,3.822,0,0,0,1.85-1.623,1.209,1.209,0,0,0-.463-1.4,2.994,2.994,0,0,0-3.027.243,4.39,4.39,0,0,0-2.15,2.337,1.29,1.29,0,0,0,1.753,1.615Z" transform="translate(-89.558 -134.165)" fill="#263238"/>
                    <path id="Path_51657" data-name="Path 51657" d="M262.769,164.8a22.58,22.58,0,0,1-2.337.243,3.757,3.757,0,0,1-2.434-.219,1.209,1.209,0,0,1-.454-1.4,3.027,3.027,0,0,1,2.613-1.574,4.406,4.406,0,0,1,3.108.649,1.29,1.29,0,0,1-.495,2.3Z" transform="translate(-92.173 -132.281)" fill="#263238"/>
                    <path id="Path_51658" data-name="Path 51658" d="M255.145,198.437a2.7,2.7,0,0,0,1.761.463,4.771,4.771,0,0,0,1.623-1.079c.049,0,.122,0,.105.057a2.434,2.434,0,0,1-1.769,1.712,1.9,1.9,0,0,1-1.85-.99A.109.109,0,0,1,255.145,198.437Z" transform="translate(-91.706 -139.074)" fill="#263238"/>
                    <path id="Path_51659" data-name="Path 51659" d="M255.044,186.835a6.062,6.062,0,0,0,4.715,1.12,7.612,7.612,0,0,0,2.069-.665,1.784,1.784,0,0,0,.373-.187l.341-.187a.454.454,0,0,0,.2-.5h0a.754.754,0,0,0-.081-.162h0l-.057-.146c-.438-1.29-1.29-3.189-1.29-3.189.56.057,3.343.252,3.051-.406-2.378-5.421-5.031-11.442-8.545-16.327a.162.162,0,0,0-.284.154c2.086,5.3,5.08,10.192,7.3,15.475a10.646,10.646,0,0,0-2.978.179c-.162.122,1.7,3.652,1.85,4.244a.121.121,0,0,1,0,.065c-2.053,1.071-3.911,1.022-6.54.349C254.995,186.576,254.9,186.738,255.044,186.835Z" transform="translate(-91.702 -133.096)" fill="#263238"/>
                    <path id="Path_51660" data-name="Path 51660" d="M260.839,191.732a7.141,7.141,0,0,1-1.923,3.084,3.246,3.246,0,0,1-1.793.811c-1.453.138-1.939-1.071-2.085-2.2a7.48,7.48,0,0,1,0-1.818,9.3,9.3,0,0,0,5.8.122Z" transform="translate(-91.703 -137.903)" fill="#263238"/>
                    <path id="Path_51661" data-name="Path 51661" d="M258.929,195.205a3.246,3.246,0,0,1-1.793.811c-1.453.138-1.939-1.071-2.086-2.2A3.3,3.3,0,0,1,258.929,195.205Z" transform="translate(-91.716 -138.293)" fill="#ff97b8"/>
                    <path id="Path_51662" data-name="Path 51662" d="M246.742,153.117a9.665,9.665,0,0,1-6.492,6.784,9.833,9.833,0,0,1-9.381-1.98c-.073-.065-.179.049-.105.114a9.416,9.416,0,0,0,16.229-4.853.13.13,0,1,0-.252-.065Z" transform="translate(-87.133 -130.628)" fill="#263238"/>
                    <path id="Path_51663" data-name="Path 51663" d="M227.153,134.973a10.41,10.41,0,0,0-8.05,8.285,14.3,14.3,0,0,0,.592,7.109.076.076,0,0,0,.146-.041c-.966-3.725-.422-8.2,2.053-11.231a8.7,8.7,0,0,1,9.665-3.019,8.87,8.87,0,0,1,4.642,3.6.171.171,0,0,0,.292-.179A9.024,9.024,0,0,0,227.153,134.973Z" transform="translate(-84.901 -127.204)" fill="#263238"/>
                    <path id="Path_51664" data-name="Path 51664" d="M263.586,128.951a11.653,11.653,0,0,0-7.206-3.473c-3.79-.39-6.962,1.477-10.079,3.392a.077.077,0,1,0,.081.13c2.654-1.623,5.445-3.116,8.642-3.043a11.474,11.474,0,0,1,7.206,2.7,11.182,11.182,0,0,1,1.883,14.509,11.361,11.361,0,0,1-7.652,4.723c-.122,0-.13.2,0,.187a11.409,11.409,0,0,0,7.125-19.126Z" transform="translate(-90.06 -125.426)" fill="#263238"/>
                    <path id="Path_51665" data-name="Path 51665" d="M215.923,161.5s-2.865-7.246-2.029-10.257,4.642-5.38,4.642-5.38-.406-7.068,5.112-10.1c4.95-2.727,10.5.187,10.5.187s3.822-10.306,13.8-10.054c9.437.227,13.876,12.375,8.172,19.557-4,5.039-13.308,3.814-13.308,3.814-.633.422-5.607,7.977-13.868,4.268,0,0-3.051,5.956-7.027,4.617C221.879,158.145,219.007,161.6,215.923,161.5Z" transform="translate(-83.929 -125.512)" fill="#263238"/>
                    <path id="Path_51666" data-name="Path 51666" d="M218.677,157.74c1.4,3.725,5.323,14.4,5.047,17.252s-.682,10.208-1.761,11.206c-3.449-7.831-5.875-16.351-5.5-21.1a18.574,18.574,0,0,1,2.215-7.36Z" transform="translate(-84.434 -131.518)" fill="#263238" opacity="0.2"/>
                    <path id="Path_51667" data-name="Path 51667" d="M224.56,189.7s-7.66-6.76-10.866-3.83,3.944,13.69,8.667,14.249a4.544,4.544,0,0,0,5.34-3.806Z" transform="translate(-83.769 -136.682)" fill="#d3766a"/>
                    <path id="Path_51668" data-name="Path 51668" d="M216.488,189.767c-.073,0-.065.114,0,.122,3.335.495,5.624,2.921,7.449,5.575-1.177-.909-2.556-1.225-3.806.219-.065.073.041.179.122.138a2.8,2.8,0,0,1,3.246.227,13.494,13.494,0,0,1,2.012,2.069c.211.235.665,0,.487-.316l-.049-.065C225.073,193.84,220.74,189.134,216.488,189.767Z" transform="translate(-84.437 -137.545)" fill="#263238"/>
                    <path id="Path_51669" data-name="Path 51669" d="M261.08,153.34a56.592,56.592,0,0,1,7.1,12.618,77.2,77.2,0,0,1,4.293,13.884,36.674,36.674,0,0,1,.933,7.238,19.62,19.62,0,0,1-1.055,7.238,14.606,14.606,0,0,1-4.1,6.029,20.7,20.7,0,0,1-6.265,3.619,21.812,21.812,0,0,0,6-3.919,14.054,14.054,0,0,0,3.773-5.932,20.505,20.505,0,0,0,.909-7.019,36.158,36.158,0,0,0-.99-7.084,82.636,82.636,0,0,0-4.057-13.8,71.048,71.048,0,0,0-2.921-6.589A52.693,52.693,0,0,0,261.08,153.34Z" transform="translate(-92.853 -130.688)" fill="#263238"/>
                    <path id="Path_51670" data-name="Path 51670" d="M184.2,243.115c-22.08,29.659-58.945,106.968-64.358,118.329-3.676,7.717,36.638,28.045,38.35,22.437,2.191-7.19,38.245-102.018,43.292-136.612C204.254,228.3,191.847,232.85,184.2,243.115Z" transform="translate(-66.182 -145.938)" fill="#d3766a"/>
                    <path id="Path_51671" data-name="Path 51671" d="M146.87,408.487c-.933,6.995-5.68,21.1-9.218,23.216s-22.1,1.688-31.445,1.688-11.2-2.6-11.044-5.826,19.784-3.838,19.784-3.838-26.211,7.514-32.808,8.748-21.78,5.055-23.979-.414c-.99-2.434,3.173-4.958,3.173-4.958s-6.378,1.866-7.393-1.306c-1.152-3.6,3.911-5.591,3.911-5.591s-3.976.811-4.057-2.134c-.2-6.573,24.726-9.8,24.726-9.8s-19.1,9.3-19.694,3.936c-.811-7.417,38.269-15.556,42.343-18.786a76.677,76.677,0,0,0,8.293-8.058Z" transform="translate(-53.77 -174.43)" fill="#d3766a"/>
                    <path id="Path_51672" data-name="Path 51672" d="M104.95,437.452a2.857,2.857,0,0,1,.885-2.5,7.9,7.9,0,0,1,2.28-1.485,31.289,31.289,0,0,1,5.356-1.737c3.692-.933,7.466-1.623,11.231-2.572a45.807,45.807,0,0,0-11.547,1.3,21.342,21.342,0,0,0-5.518,2.11,7.531,7.531,0,0,0-2.3,1.98,2.978,2.978,0,0,0-.389,2.905Z" transform="translate(-63.378 -182.686)" fill="#263238"/>
                    <path id="Path_51673" data-name="Path 51673" d="M63.09,434.6c2.694-.657,5.348-1.42,8.009-2.183s5.291-1.582,7.928-2.378l7.9-2.475q3.944-1.217,7.92-2.434a62.24,62.24,0,0,0-8.188,1.461c-2.7.617-5.364,1.388-8.017,2.191s-5.266,1.7-7.855,2.678S65.606,433.431,63.09,434.6Z" transform="translate(-55.527 -181.928)" fill="#263238"/>
                    <path id="Path_51674" data-name="Path 51674" d="M87.7,417.06a51.7,51.7,0,0,0-7.563,1.047,70.59,70.59,0,0,0-7.384,1.907,65.9,65.9,0,0,0-7.165,2.678,54.2,54.2,0,0,0-6.792,3.5c2.434-.811,4.763-1.761,7.157-2.556s4.771-1.623,7.182-2.361,4.82-1.469,7.246-2.183S85.254,417.725,87.7,417.06Z" transform="translate(-54.718 -180.407)" fill="#263238"/>
                    <path id="Path_51675" data-name="Path 51675" d="M84.3,409.35a47,47,0,0,0-12.034,2.54,46.426,46.426,0,0,0-11.077,5.364c3.879-1.38,7.644-2.84,11.5-4.122S80.389,410.608,84.3,409.35Z" transform="translate(-55.169 -178.953)" fill="#263238"/>
                    <path id="Path_51676" data-name="Path 51676" d="M199.575,292.111,158.06,291.9s23-38.553,35.5-52.746c13.032-14.834,21.618-13.511,16.351,12.1A409.742,409.742,0,0,1,199.575,292.111Z" transform="translate(-73.431 -145.068)" fill="#7a69d4"/>
                    <path id="Path_51677" data-name="Path 51677" d="M166.514,298.165c1.039-.1,2.1-.057,3.149-.065l3.246-.041h6.549c4.358.049,8.723.081,13.081.2,1.2,0,2.434.065,3.6.13s2.507.227,3.765.292c.081,0,.065.114,0,.122-1.079,0-2.159.13-3.246.154s-2.215.041-3.327.041c-2.175,0-4.358,0-6.54-.065-4.293-.081-8.594-.138-12.886-.308l-3.595-.154a32.7,32.7,0,0,1-3.781-.195.065.065,0,0,1-.016-.114Z" transform="translate(-75.02 -157.972)" fill="#263238"/>
                    <path id="Path_51678" data-name="Path 51678" d="M214.276,281.04a12.472,12.472,0,0,0,1.874-4.423s-.041-.041-.049,0a25.838,25.838,0,0,1-1.712,3.952c.138-.576.268-1.144.406-1.72.471-2.069.958-4.139,1.331-6.224,0,0-.041-.049-.057,0-1.071,3.546-1.98,7.141-2.978,10.711s-1.988,7.246-2.97,10.874c-.544,1.98-1.087,3.96-1.574,5.948-.682.049-2,.073-2.6.122-.162,0-.179.292,0,.3a19.474,19.474,0,0,0,3.043-.065C211.119,294.08,212.75,287.532,214.276,281.04Z" transform="translate(-82.436 -153.173)" fill="#263238"/>
                    <path id="Path_51679" data-name="Path 51679" d="M219.828,227.415a35.348,35.348,0,0,0,11.466,14.355,19.419,19.419,0,0,0,8.4,3.725,8.358,8.358,0,0,0,4.78-.487,9.324,9.324,0,0,0,3.441-3.246,17.682,17.682,0,0,0,2.24-4.869,41.27,41.27,0,0,0,1.315-5.875.057.057,0,1,1,.114,0c-.276,1.883-.389,3.781-.811,5.64a18.843,18.843,0,0,1-1.68,4.755,11.45,11.45,0,0,1-3.067,3.717,7.425,7.425,0,0,1-4.739,1.428,17.5,17.5,0,0,1-9.178-3.059,30.787,30.787,0,0,1-7.125-6.492,32.662,32.662,0,0,1-5.323-9.535C219.6,227.35,219.779,227.3,219.828,227.415Z" transform="translate(-85.042 -144.641)" fill="#263238"/>
                  </g>
                </g>
              </svg>
              