<svg xmlns="http://www.w3.org/2000/svg" xmlns:xlink="http://www.w3.org/1999/xlink" width="21" height="17" viewBox="0 0 21 17">
  <defs>
    <clipPath id="clip-path">
      <path id="_Color" data-name="↳ 🎨Color" d="M0,8C0,4.841,4.48,0,10,0S20,4.841,20,8c0,3.086-4.576,8-10,8S0,11.086,0,8Zm5.981-.016a4,4,0,1,0,4-4A4.006,4.006,0,0,0,5.981,7.984ZM8,8a2,2,0,1,1,2,2A2,2,0,0,1,8,8Z" transform="translate(2 4)" fill="#1da1f2" stroke="rgba(0,0,0,0)" stroke-width="1"/>
    </clipPath>
  </defs>
  <g id="eye-ico" transform="translate(-1.5 -3.5)">
    <path id="_Color-2" data-name="↳ 🎨Color" d="M0,8C0,4.841,4.48,0,10,0S20,4.841,20,8c0,3.086-4.576,8-10,8S0,11.086,0,8Zm5.981-.016a4,4,0,1,0,4-4A4.006,4.006,0,0,0,5.981,7.984ZM8,8a2,2,0,1,1,2,2A2,2,0,0,1,8,8Z" transform="translate(2 4)" fill="#1da1f2" stroke="rgba(0,0,0,0)" stroke-width="1"/>
  </g>
</svg>
