<svg id="faq-ico" xmlns="http://www.w3.org/2000/svg" width="68.563" height="51.296" viewBox="0 0 68.563 51.296">
  <path id="Path_47574" data-name="Path 47574" d="M38.046,40.292A18.757,18.757,0,0,1,47,24.326V16.74a2.251,2.251,0,0,0-2.24-2.24H4.74A2.251,2.251,0,0,0,2.5,16.74V63.556A2.251,2.251,0,0,0,4.74,65.8H44.765A2.251,2.251,0,0,0,47,63.556v-7.3A18.85,18.85,0,0,1,38.046,40.292ZM33.422,55.464H14.782a2.24,2.24,0,1,1,0-4.479h18.64a2.251,2.251,0,0,1,2.24,2.24A2.162,2.162,0,0,1,33.422,55.464ZM12.542,40.148a2.251,2.251,0,0,1,2.24-2.24h14.16a2.24,2.24,0,1,1,0,4.479H14.782A2.251,2.251,0,0,1,12.542,40.148ZM33.422,29.311H14.782a2.24,2.24,0,0,1,0-4.479h18.64a2.251,2.251,0,0,1,2.24,2.24A2.162,2.162,0,0,1,33.422,29.311Z" transform="translate(-2.5 -14.5)" fill="#1da1f2"/>
  <path id="Path_47575" data-name="Path 47575" d="M72.3,30.4a14.269,14.269,0,1,0,14.16,14.3A14.169,14.169,0,0,0,72.3,30.4ZM72.16,53.808a1.951,1.951,0,1,1,1.951-1.951A1.943,1.943,0,0,1,72.16,53.808Zm2.384-8.092c-.939.795-.939,1.156-.939,1.3v.722a.648.648,0,0,1-.65.65H71.149a.648.648,0,0,1-.65-.65v-.722a4.734,4.734,0,0,1,2.1-3.757c1.011-.795,2.1-1.734,2.1-2.673,0-1.373-.65-1.951-2.24-1.951-2.456,0-2.456,1.806-2.456,1.878V40.8a.648.648,0,0,1-.65.65H67.392a.648.648,0,0,1-.65-.65v-.289c0-2.023,1.517-5.057,5.635-5.057,3.974,0,5.419,2.673,5.419,5.13C77.8,43.116,75.773,44.777,74.545,45.716Z" transform="translate(-17.903 -18.913)" fill="#1da1f2"/>
</svg>
