<svg id="Group_68247" data-name="Group 68247" xmlns="http://www.w3.org/2000/svg" width="25.625" height="21.156" viewBox="0 0 25.625 21.156">
  <path id="Path_48723" data-name="Path 48723" d="M29.99,17.98H21.468l-.924-1.43A3.091,3.091,0,0,0,17.863,15H11.1C9.341,15,8,16.967,8,18.665V32.64a3.588,3.588,0,0,0,3.635,3.516H29.99a3.593,3.593,0,0,0,3.635-3.546V21.525A3.593,3.593,0,0,0,29.99,17.98Zm1.847,14.63a1.8,1.8,0,0,1-1.847,1.758H11.635A1.82,1.82,0,0,1,9.788,32.61V18.635c0-.834.715-1.877,1.311-1.877h6.764a1.245,1.245,0,0,1,1.132.656l.03.03,1.222,1.877h0c.03.03.06.06.06.089s.03.03.03.06l.06.06c.03.03.06.03.06.06a.029.029,0,0,1,.03.03.155.155,0,0,0,.119.06c.03,0,.03,0,.06.03.03,0,.089.03.119.03H29.96A1.82,1.82,0,0,1,31.807,21.5V32.61Z" transform="translate(-8 -15)" fill="#fff"/>
  <path id="Path_48724" data-name="Path 48724" d="M34.619,68.3H22.194a.894.894,0,0,0,0,1.788H34.619a.894.894,0,0,0,0-1.788Z" transform="translate(-17.337 -52.418)" fill="#fff"/>
</svg>
