<?xml version="1.0" encoding="utf-8"?>
<!-- Generator: Adobe Illustrator 24.3.0, SVG Export Plug-In . SVG Version: 6.00 Build 0)  -->
<svg version="1.1" id="Layer_1" xmlns="http://www.w3.org/2000/svg" xmlns:xlink="http://www.w3.org/1999/xlink" x="0px" y="0px"
	 viewBox="0 0 65 65" style="enable-background:new 0 0 65 65;" xml:space="preserve">
<style type="text/css">
	.st0{fill:#7A69D4;}
	.st1{fill:#7A69D4;stroke:#FFFFFF;stroke-miterlimit:10;}
</style>
<path class="st0" d="M31.37,47.95"/>
<circle class="st0" cx="17.99" cy="25.97" r="9.17"/>
<path class="st0" d="M17.99,36.39c8.69,0,17.4,5.95,16.92,9.35c-0.53,3.78-12.46,4.44-17.09,4.42c-0.98,0-16.15-0.15-16.75-4.42
	C0.59,42.35,9.29,36.39,17.99,36.39z"/>
<circle class="st0" cx="46.89" cy="27.15" r="9.17"/>
<path class="st0" d="M46.89,37.57c8.69,0,17.4,5.95,16.92,9.35c-0.53,3.78-12.46,4.44-17.09,4.42c-0.98,0-16.15-0.15-16.75-4.42
	C29.49,43.53,38.19,37.57,46.89,37.57z"/>
<path class="st0" d="M40.16,55.07"/>
<circle class="st1" cx="32.5" cy="22.76" r="11.9"/>
<path class="st1" d="M32.5,36.28c11.27,0,22.57,7.72,21.95,12.13c-0.69,4.91-16.16,5.76-22.18,5.74c-1.27,0-20.95-0.19-21.73-5.74
	C9.93,44,21.22,36.27,32.5,36.28z"/>
</svg>
