<svg xmlns="http://www.w3.org/2000/svg" width="181.283" height="168.35" viewBox="0 0 181.283 168.35">
  <g id="Group_67933" data-name="Group 67933" transform="translate(-548.007 -133.81)">
    <g id="Group_14973" data-name="Group 14973" transform="translate(548.007 133.81)" opacity="0.15">
      <path id="Path_26540" data-name="Path 26540" d="M593.975,302.16a90.643,90.643,0,1,1,94.6-.747Z" transform="translate(-550.023 -133.81)" fill="#fff"/>
    </g>
    <g id="Group_14980" data-name="Group 14980" transform="translate(569.356 155.572)">
      <g id="Group_14979" data-name="Group 14979" transform="translate(0)">
        <path id="Path_26546" data-name="Path 26546" d="M704.265,231.586c-1.808-5.752-3.282-11.616-4.743-17.463.167-.1.334-.2.495-.3a12.511,12.511,0,0,0,3.485-3.46l.1.071c6.951,9.486,13.955,19.068,18.764,29.8a16.57,16.57,0,0,1,1.545,4.85A6.474,6.474,0,0,1,722.7,249.9c-1.664,2.016-4.731,2.321-7.184,1.36-.03-.012-.065-.023-.095-.036-.173-.071-.34-.149-.507-.232-3.413-1.719-5.34-5.382-6.832-8.9C706.628,238.656,705.381,235.142,704.265,231.586Z" transform="translate(-604.72 -172.647)" fill="#fff"/>
        <path id="Path_26547" data-name="Path 26547" d="M641.3,281c-.406-7.768-.949-21.073-1.348-28.734-1.677,1.945-9.624,11.032-15.2,14.647a3.415,3.415,0,0,0,.866-1.038c.889-1.635.339-3.645-.3-5.387a71.33,71.33,0,0,0-3.932-8.7q6.515-9.37,13.018-18.74,7.983-2.175,15.954-4.349c-.006.179-.012.352-.018.531a47.748,47.748,0,0,0,9.891,8.8,46.717,46.717,0,0,0,5.961-8.31c.024-.042.047-.078.071-.12l.042-.185c.394.25,10.859-.06,10.859-.06l9.665,6.324c1.116,3.556,2.363,7.07,3.818,10.507,1.492,3.52,3.419,7.183,6.832,8.9.167.083.334.161.507.232-1.313-.459-15.357-5.363-19.134-5.572h-.006c-.029-.047-.155-.161-.185-.2v-.006c-.018-.005-.018-.005,0,.006-.3,8.794-.555,21.234-.847,30.022l.382.066a30.891,30.891,0,0,1,5.125,4.659,37.163,37.163,0,0,1,4.738,6.783l-.9.388a134.216,134.216,0,0,1-53.827,4.648c.418-1.205.883-2.4,1.385-3.574a57.285,57.285,0,0,1,6.574-11.527Z" transform="translate(-587.293 -176.737)" fill="#fff"/>
        <path id="Path_26548" data-name="Path 26548" d="M697.459,343.313H632.923a58.213,58.213,0,0,1,.871-20.172l.382.078a136.893,136.893,0,0,0,59.531-4.917c.137.406.274.812.4,1.217C696.511,327.186,697.161,335.282,697.459,343.313Z" transform="translate(-589.752 -196.725)" fill="#fff"/>
        <path id="Path_26549" data-name="Path 26549" d="M703.873,181.21s3.383,1.343,2.255,6.223a64.423,64.423,0,0,1-3.311,8.955,7.119,7.119,0,0,0-3.24-1.98,5.142,5.142,0,0,0-2.959-.2c1.033-2.1.352-2.44-2.512-3.561a1.665,1.665,0,0,1-1.067-1.867c.185-2.387,3.138-6.163,4.617-7.571C699.667,179.294,703.873,181.21,703.873,181.21Zm-2.948,2.267a2.341,2.341,0,0,0,.06-.579,1.21,1.21,0,0,0-.394-.925,1.593,1.593,0,0,0-1.664.03,6.714,6.714,0,0,0-2.434,2.142,16.07,16.07,0,0,0-1.569,2.87,2.826,2.826,0,0,0-.214,2.619,1.857,1.857,0,0,0,2.058.626,4.063,4.063,0,0,0,1.837-1.343A9.436,9.436,0,0,0,700.925,183.477Z" transform="translate(-603.272 -165.955)" fill="#1da1f2"/>
        <path id="Path_26550" data-name="Path 26550" d="M690.921,308.98a46.111,46.111,0,0,1,3.18,7.243,136.892,136.892,0,0,1-59.531,4.917l-.382-.078a58.943,58.943,0,0,1,2.011-7.046,134.216,134.216,0,0,0,53.827-4.648Z" transform="translate(-590.146 -194.646)" fill="#1da1f2"/>
        <path id="Path_26551" data-name="Path 26551" d="M699.212,212.032a7.218,7.218,0,0,1-1.08.525,109.773,109.773,0,0,0,5.823-11.569c.047.048.089.1.131.144a4.689,4.689,0,0,1,1.062,2.446l-.036.006a12.56,12.56,0,0,1-5.405,8.144C699.546,211.836,699.379,211.937,699.212,212.032Z" transform="translate(-604.41 -170.557)" fill="#f2b481"/>
        <path id="Path_26552" data-name="Path 26552" d="M701.335,183.876a9.436,9.436,0,0,1-2.321,5.441,4.063,4.063,0,0,1-1.837,1.343,1.857,1.857,0,0,1-2.058-.626,2.826,2.826,0,0,1,.214-2.619,16.071,16.071,0,0,1,1.569-2.87,6.714,6.714,0,0,1,2.434-2.142,1.593,1.593,0,0,1,1.664-.03,1.21,1.21,0,0,1,.394.925A2.341,2.341,0,0,1,701.335,183.876Z" transform="translate(-603.682 -166.354)" fill="#fff"/>
        <path id="Path_26553" data-name="Path 26553" d="M696.238,198.146a5.142,5.142,0,0,1,2.959.2,7.119,7.119,0,0,1,3.24,1.98,109.773,109.773,0,0,1-5.823,11.569,5.206,5.206,0,0,1-2.124.394,3.31,3.31,0,0,1-3.031-2.1c-.005-.012-.005-.018-.012-.03a5.182,5.182,0,0,1,.268-2.917l1.36-4.653a12.257,12.257,0,0,1,.925-2.47,4.053,4.053,0,0,1,1.849-1.826C695.975,198.236,696.106,198.188,696.238,198.146Z" transform="translate(-602.891 -169.892)" fill="#f2b481"/>
        <path id="Path_26554" data-name="Path 26554" d="M687.89,213.651a1.978,1.978,0,0,0,.74-.764,3.31,3.31,0,0,0,3.031,2.1,5.206,5.206,0,0,0,2.124-.394,26.573,26.573,0,0,1-5.024,6.61,6.159,6.159,0,0,1-10.082-2.786,10.171,10.171,0,0,1,1.921-6.563c.006.006.006,0,.012-.012.316-.287.626-.585.925-.9a4,4,0,0,1,1.969-.787C687.293,209.731,685.868,212.827,687.89,213.651Zm-2.643-.615a1.27,1.27,0,0,0-.042-1.265.965.965,0,0,0-.733-.322,2,2,0,0,0-.806.179,5.99,5.99,0,0,0-2.625,2.183,10.194,10.194,0,0,0-1.378,3.162,1.987,1.987,0,0,0,.023,1.461,1.361,1.361,0,0,0,1.426.567,3.041,3.041,0,0,0,1.408-.8A8.676,8.676,0,0,0,685.247,213.036Z" transform="translate(-600.063 -172.593)" fill="#1da1f2"/>
        <path id="Path_26555" data-name="Path 26555" d="M695.11,255.517v.006C695.092,255.512,695.092,255.512,695.11,255.517Z" transform="translate(-603.733 -182.719)" fill="#f9a138"/>
        <path id="Path_26556" data-name="Path 26556" d="M633.011,218.127q-6.506,9.37-13.018,18.74c-1.354-2.589-2.846-5.113-4.409-7.606l.084-.054a5.854,5.854,0,0,1,.1-5.167c1.038-2.165,2.8-4.056,3.162-6.432.668-4.415-3.765-8.5-2.876-12.881.6-2.947,3.389-4.856,6-6.36s5.483-3.144,6.491-5.978c.745-2.106.286-4.415.148-6.641a22.616,22.616,0,1,1,45.188-1.1v.012a23.112,23.112,0,0,1-6.509,15.512,5.282,5.282,0,0,0-.925.9c-.006.012-.006.018-.012.012a21.384,21.384,0,0,1-4.564,3.258c-.042-.155-.084-.3-.126-.459l.1-.03a15.7,15.7,0,0,0,6.044-13.131h.047a7.127,7.127,0,0,0,2.739-6.324,3.876,3.876,0,0,0-.74-2.035,2.072,2.072,0,0,0-1.921-.817,1.449,1.449,0,0,0-1.193,1.527l-.137.012a25.751,25.751,0,0,0-8.2-13.042l-.155.018a6.258,6.258,0,0,1-2.392,5.185,16.641,16.641,0,0,1-5.489,2.745,22.665,22.665,0,0,0-5.638,2.47,6.917,6.917,0,0,0-3.18,4.85l-.358-.036a4.7,4.7,0,0,0-1.479-1,1.815,1.815,0,0,0-1.712.179,2.493,2.493,0,0,0-.561,2.41,7.839,7.839,0,0,0,1.426,3.568,4.625,4.625,0,0,0,3.1,1.82,15.433,15.433,0,0,0,7.3,11.073q-.18,5.227-.364,10.458Q640.982,215.952,633.011,218.127Z" transform="translate(-585.891 -161.82)" fill="#404553"/>
        <path id="Path_26557" data-name="Path 26557" d="M685.5,213.419a8.676,8.676,0,0,1-2.726,5.167,3.041,3.041,0,0,1-1.408.8,1.361,1.361,0,0,1-1.426-.567,1.987,1.987,0,0,1-.023-1.461,10.194,10.194,0,0,1,1.378-3.162,5.99,5.99,0,0,1,2.625-2.183,2,2,0,0,1,.806-.179.965.965,0,0,1,.733.322A1.27,1.27,0,0,1,685.5,213.419Z" transform="translate(-600.318 -172.976)" fill="#fff"/>
        <path id="Path_26558" data-name="Path 26558" d="M666.169,197.046l-.113-.005a75.881,75.881,0,0,0-9.068,1l.024.161a7.286,7.286,0,0,0,1.64,2.9,4.355,4.355,0,0,0,2.966,1.378,4.26,4.26,0,0,0,3.412-1.8A6.378,6.378,0,0,0,666.169,197.046Zm-17.725-2.44a4.625,4.625,0,0,1-3.1-1.82,7.839,7.839,0,0,1-1.426-3.568,2.493,2.493,0,0,1,.561-2.41,1.815,1.815,0,0,1,1.712-.179,4.7,4.7,0,0,1,1.479,1l.358.036a6.917,6.917,0,0,1,3.18-4.85,22.665,22.665,0,0,1,5.638-2.47,16.641,16.641,0,0,0,5.489-2.745,6.258,6.258,0,0,0,2.392-5.185l.155-.018a25.751,25.751,0,0,1,8.2,13.042l.137-.012a1.449,1.449,0,0,1,1.193-1.527,2.072,2.072,0,0,1,1.921.817,3.876,3.876,0,0,1,.74,2.035,7.127,7.127,0,0,1-2.739,6.324h-.047a15.7,15.7,0,0,1-6.044,13.131l-.1.03c.042.155.084.3.126.459q1.44,5.208,2.875,10.423l.06.037a46.717,46.717,0,0,1-5.961,8.31,47.748,47.748,0,0,1-9.891-8.8c.005-.179.012-.352.018-.531q.178-5.226.364-10.458A15.433,15.433,0,0,1,648.444,194.606Z" transform="translate(-592.302 -164.18)" fill="#f2b481"/>
        <path id="Path_26561" data-name="Path 26561" d="M614.874,251.351a71.33,71.33,0,0,1,3.932,8.7c.638,1.742,1.187,3.753.3,5.387a3.414,3.414,0,0,1-.865,1.038.032.032,0,0,1-.024.019c-.364.232-.722.447-1.062.632a6.4,6.4,0,0,1-3.5.335,11.481,11.481,0,0,1-6.247-3.694,27.119,27.119,0,0,1-4-6.175c-4.958-9.725-8.114-20.249-11.246-30.7l.107-.143a8.73,8.73,0,0,0,1.581.841,26.582,26.582,0,0,0,5.018,6.6,6.065,6.065,0,0,0,6.229,1.3c1.814,2.727,3.639,5.465,5.369,8.252C612.028,246.238,613.52,248.762,614.874,251.351Z" transform="translate(-580.772 -176.304)" fill="#fff"/>
        <path id="Path_26562" data-name="Path 26562" d="M624.328,278.543c.34-.185.7-.4,1.062-.632A4.136,4.136,0,0,1,624.328,278.543Z" transform="translate(-587.947 -187.715)" fill="#f9a138"/>
        <path id="Path_26563" data-name="Path 26563" d="M605.58,234.447a6.065,6.065,0,0,1-6.229-1.3,26.582,26.582,0,0,1-5.017-6.6,5.166,5.166,0,0,0,2.118.382,3.313,3.313,0,0,0,3.031-2.095,1.949,1.949,0,0,0,.734.758c2.034-.817.6-3.914,4.39-3.491,3.861.424,5.1,6.11,4.827,8.257C609.285,231.56,607.782,233.606,605.58,234.447Zm2.846-4.069a1.973,1.973,0,0,0,.024-1.455,10.147,10.147,0,0,0-1.378-3.168,5.963,5.963,0,0,0-2.625-2.184,2.109,2.109,0,0,0-.806-.179.966.966,0,0,0-.733.322,1.27,1.27,0,0,0-.042,1.265,8.694,8.694,0,0,0,2.726,5.167,3.048,3.048,0,0,0,1.409.8A1.36,1.36,0,0,0,608.426,230.378Z" transform="translate(-581.256 -175.258)" fill="#1da1f2"/>
        <path id="Path_26564" data-name="Path 26564" d="M605.273,225.36a1.27,1.27,0,0,1,.042-1.265.966.966,0,0,1,.733-.322,2.108,2.108,0,0,1,.806.179,5.963,5.963,0,0,1,2.625,2.184,10.147,10.147,0,0,1,1.378,3.168,1.973,1.973,0,0,1-.024,1.455,1.36,1.36,0,0,1-1.426.567,3.048,3.048,0,0,1-1.409-.8A8.693,8.693,0,0,1,605.273,225.36Z" transform="translate(-583.664 -175.639)" fill="#fff"/>
        <path id="Path_26565" data-name="Path 26565" d="M597.811,222.132a3.313,3.313,0,0,1-3.031,2.095,5.167,5.167,0,0,1-2.118-.382,107.689,107.689,0,0,1-5.823-11.586,7.265,7.265,0,0,1,3.24-1.975,5.121,5.121,0,0,1,2.953-.2c.131.042.263.09.388.144a4.081,4.081,0,0,1,1.85,1.826,12.251,12.251,0,0,1,.924,2.47l1.36,4.653a5.193,5.193,0,0,1,.268,2.924C597.817,222.115,597.817,222.121,597.811,222.132Z" transform="translate(-579.585 -172.555)" fill="#f2b481"/>
        <path id="Path_26566" data-name="Path 26566" d="M590.976,193.151c2.011,1.921,6.742,8.191,3.55,9.438-2.864,1.122-3.544,1.461-2.512,3.561a5.121,5.121,0,0,0-2.953.2,7.265,7.265,0,0,0-3.24,1.975,63.737,63.737,0,0,1-3.317-8.95c-1.128-4.88,2.255-6.223,2.255-6.223S588.965,191.235,590.976,193.151Zm2.947,8.424a2.826,2.826,0,0,0-.214-2.62,16.309,16.309,0,0,0-1.569-2.869,6.713,6.713,0,0,0-2.434-2.142,1.593,1.593,0,0,0-1.664-.03,1.225,1.225,0,0,0-.394.931,2.317,2.317,0,0,0,.06.573,9.443,9.443,0,0,0,2.327,5.447,4.043,4.043,0,0,0,1.837,1.336A1.85,1.85,0,0,0,593.923,201.575Z" transform="translate(-578.566 -168.619)" fill="#1da1f2"/>
        <path id="Path_26567" data-name="Path 26567" d="M589.249,195.817a2.322,2.322,0,0,1-.06-.573,1.225,1.225,0,0,1,.394-.931,1.593,1.593,0,0,1,1.664.03,6.713,6.713,0,0,1,2.434,2.142,16.312,16.312,0,0,1,1.569,2.869,2.826,2.826,0,0,1,.214,2.62,1.85,1.85,0,0,1-2.052.626,4.043,4.043,0,0,1-1.837-1.336A9.444,9.444,0,0,1,589.249,195.817Z" transform="translate(-580.109 -169.018)" fill="#fff"/>
        <path id="Path_26568" data-name="Path 26568" d="M592.318,224.509a8.729,8.729,0,0,1-1.581-.841,12.527,12.527,0,0,1-5.405-8.144l-.036-.006a4.682,4.682,0,0,1,1.062-2.446,1.412,1.412,0,0,1,.137-.149A107.678,107.678,0,0,0,592.318,224.509Z" transform="translate(-579.24 -173.219)" fill="#f2b481"/>
      </g>
    </g>
  </g>
</svg>
