<svg xmlns="http://www.w3.org/2000/svg" width="28" height="27" viewBox="0 0 28 27">
  <g id="Group_14951" data-name="Group 14951" transform="translate(0 -0.5)">
    <rect id="Rectangle_3011" data-name="Rectangle 3011" width="28" height="27" rx="6" transform="translate(0 0.5)" fill="#fff" opacity="0.1"/>
    <g id="_001-global" data-name="001-global" transform="translate(8.375 7.773)">
      <path id="Path_26515" data-name="Path 26515" d="M231.816,346.487c.854-.121,1.6-1.012,2.073-2.329a10.137,10.137,0,0,0-2.073-.244Zm0,0" transform="translate(-225.146 -333.95)" fill="#1da1f2"/>
      <path id="Path_26516" data-name="Path 26516" d="M279.671,359.635c.05-.015.1-.029.151-.046l.125-.043c.049-.017.1-.034.147-.053l.124-.049.142-.06.122-.056.137-.067.12-.062.133-.074.117-.069.129-.08.114-.075c.042-.028.084-.058.125-.087l.11-.08.121-.095.106-.086c.04-.033.078-.067.117-.1s.068-.06.1-.091.075-.072.112-.109.065-.063.1-.1l.017-.019a6.713,6.713,0,0,0-1.367-.526,4.951,4.951,0,0,1-1.275,2.071l.049-.012Zm0,0" transform="translate(-271.128 -347.307)" fill="#1da1f2"/>
      <path id="Path_26517" data-name="Path 26517" d="M338.354,231.684h-2.393a10.351,10.351,0,0,1-.4,2.761,6.94,6.94,0,0,1,1.514.6A5.575,5.575,0,0,0,338.354,231.684Zm0,0" transform="translate(-325.793 -224.879)" fill="#1da1f2"/>
      <path id="Path_26518" data-name="Path 26518" d="M231.816,111.6h2.592a9.983,9.983,0,0,0-.393-2.663,10.511,10.511,0,0,1-2.2.262Zm0,0" transform="translate(-225.092 -105.787)" fill="#1da1f2"/>
      <path id="Path_26519" data-name="Path 26519" d="M231.816.316V2.889a10.142,10.142,0,0,0,2.073-.244c-.471-1.316-1.22-2.207-2.073-2.329Zm0,0" transform="translate(-225.146 -0.316)" fill="#1da1f2"/>
      <path id="Path_26520" data-name="Path 26520" d="M231.816,234.084a10.514,10.514,0,0,1,2.2.262,9.984,9.984,0,0,0,.393-2.663h-2.592Zm0,0" transform="translate(-225.092 -224.964)" fill="#1da1f2"/>
      <path id="Path_26521" data-name="Path 26521" d="M337.073,80.844a6.939,6.939,0,0,1-1.514.6,10.35,10.35,0,0,1,.4,2.761h2.393A5.577,5.577,0,0,0,337.073,80.844Zm0,0" transform="translate(-325.792 -78.475)" fill="#1da1f2"/>
      <path id="Path_26522" data-name="Path 26522" d="M282.1,8.341l-.017-.019c-.032-.033-.064-.064-.1-.1s-.074-.073-.112-.109-.067-.06-.1-.091-.077-.069-.117-.1-.07-.057-.1-.085-.081-.065-.122-.1l-.109-.08c-.042-.03-.084-.06-.126-.088l-.113-.074c-.043-.028-.086-.055-.13-.081l-.116-.068-.134-.074-.12-.062c-.046-.023-.092-.046-.14-.067l-.122-.056c-.047-.021-.095-.04-.143-.06l-.124-.049c-.048-.019-.1-.036-.147-.053l-.125-.043c-.05-.016-.1-.031-.151-.046l-.125-.036-.049-.012a4.952,4.952,0,0,1,1.275,2.071,6.7,6.7,0,0,0,1.369-.527Zm0,0" transform="translate(-271.09 -6.635)" fill="#1da1f2"/>
      <path id="Path_26523" data-name="Path 26523" d="M0,84.207H2.393a10.353,10.353,0,0,1,.4-2.761,6.932,6.932,0,0,1-1.514-.6A5.576,5.576,0,0,0,0,84.207Zm0,0" transform="translate(0 -78.475)" fill="#1da1f2"/>
      <path id="Path_26524" data-name="Path 26524" d="M134.768,346.487v-2.573a10.139,10.139,0,0,0-2.073.244C133.166,345.474,133.914,346.365,134.768,346.487Zm0,0" transform="translate(-128.877 -333.95)" fill="#1da1f2"/>
      <path id="Path_26525" data-name="Path 26525" d="M114.513,231.684h-2.592a9.98,9.98,0,0,0,.393,2.663,10.506,10.506,0,0,1,2.2-.262Zm0,0" transform="translate(-108.675 -224.965)" fill="#1da1f2"/>
      <path id="Path_26526" data-name="Path 26526" d="M134.768.316c-.854.121-1.6,1.012-2.073,2.329a10.129,10.129,0,0,0,2.073.244Zm0,0" transform="translate(-128.877 -0.316)" fill="#1da1f2"/>
      <path id="Path_26527" data-name="Path 26527" d="M114.513,109.2a10.51,10.51,0,0,1-2.2-.262,9.98,9.98,0,0,0-.393,2.663h2.592Zm0,0" transform="translate(-108.675 -105.787)" fill="#1da1f2"/>
      <path id="Path_26528" data-name="Path 26528" d="M64.833,6.789l-.049.012-.126.036-.15.045-.126.043-.146.053-.124.049-.142.06-.122.056-.137.067-.12.062-.133.074-.118.069-.129.08-.114.075c-.042.028-.084.058-.125.087l-.11.08c-.041.031-.08.063-.121.095s-.071.057-.106.086-.078.067-.116.1-.069.06-.1.091-.075.072-.112.109-.065.063-.1.1l-.017.019a6.7,6.7,0,0,0,1.367.526,4.95,4.95,0,0,1,1.275-2.07Zm0,0" transform="translate(-60.64 -6.628)" fill="#1da1f2"/>
      <path id="Path_26529" data-name="Path 26529" d="M62.343,358.2c.037.037.074.073.112.109s.067.06.1.091.077.069.117.1l.1.085c.04.032.08.065.122.1l.109.08c.042.03.084.06.126.089l.113.074c.043.028.086.055.13.081l.116.068.134.074.12.062c.046.023.092.045.14.068l.122.055c.047.021.095.04.143.06l.124.049c.048.019.1.036.147.053l.125.043c.05.016.1.031.151.046l.125.036.049.012a4.953,4.953,0,0,1-1.275-2.071,6.7,6.7,0,0,0-1.367.526l.017.019C62.278,358.139,62.31,358.171,62.343,358.2Zm0,0" transform="translate(-60.678 -347.258)" fill="#1da1f2"/>
      <path id="Path_26530" data-name="Path 26530" d="M1.281,235.046a6.94,6.94,0,0,1,1.514-.6,10.353,10.353,0,0,1-.4-2.761H0A5.576,5.576,0,0,0,1.281,235.046Zm0,0" transform="translate(0 -224.878)" fill="#1da1f2"/>
    </g>
  </g>
</svg>
