<svg xmlns="http://www.w3.org/2000/svg" width="29" height="29" viewBox="0 0 29 29">
  <g id="Group_14953" data-name="Group 14953" transform="translate(0 0.072)">
    <rect id="Rectangle_3011" data-name="Rectangle 3011" width="29" height="29" rx="6" transform="translate(0 -0.072)" fill="#fff" opacity="0.1"/>
    <g id="_003-google-docs" data-name="003-google-docs" transform="translate(9.819 8.094)">
      <path id="Path_26535" data-name="Path 26535" d="M62.116,12.7h7.44a1.117,1.117,0,0,0,1.116-1.116V3.72h-2.6A1.117,1.117,0,0,1,66.952,2.6V0H62.116A1.117,1.117,0,0,0,61,1.116V11.582A1.117,1.117,0,0,0,62.116,12.7ZM63.6,5.233h4.464a.372.372,0,0,1,0,.744H63.6a.372.372,0,1,1,0-.744Zm0,1.488h4.464a.372.372,0,0,1,0,.744H63.6a.372.372,0,1,1,0-.744Zm0,1.488h4.464a.372.372,0,0,1,0,.744H63.6a.372.372,0,1,1,0-.744Zm0,1.488H66.58a.372.372,0,0,1,0,.744H63.6a.372.372,0,1,1,0-.744Z" transform="translate(-61)" fill="#1da1f2"/>
      <path id="Path_26536" data-name="Path 26536" d="M331.372,11.547h2.386L331,8.789v2.386A.372.372,0,0,0,331.372,11.547Z" transform="translate(-324.304 -8.571)" fill="#1da1f2"/>
    </g>
  </g>
</svg>
