<svg xmlns="http://www.w3.org/2000/svg" width="24.139" height="24.139" viewBox="0 0 24.139 24.139">
  <path id="History" d="M12.07,6.035v6.471l4.3,4.314L15.311,17.88l-4.75-4.738V6.035ZM23.2,7.367A12.058,12.058,0,0,1,12.07,24.139a11.846,11.846,0,0,1-3.96-.672A12,12,0,0,1,4.7,21.629a12.222,12.222,0,0,1-2.628-2.805A11.67,11.67,0,0,1,.448,15.287l1.45-.4a10.3,10.3,0,0,0,1.456,3.135,10.716,10.716,0,0,0,2.328,2.452,10.563,10.563,0,0,0,2.982,1.591,10.555,10.555,0,0,0,6.206.189,10.617,10.617,0,0,0,7.384-7.378,10.6,10.6,0,0,0,0-5.6,10.605,10.605,0,0,0-7.384-7.384,10.521,10.521,0,0,0-5.77.053A10.637,10.637,0,0,0,4.178,5.062,10.359,10.359,0,0,0,2.534,7.543h3.5V9.052H0V3.017H1.509v3.23q.2-.377.436-.737t.5-.7A12.07,12.07,0,0,1,5.033,2.263,12.23,12.23,0,0,1,8.369.578,11.915,11.915,0,0,1,12.07,0,12.121,12.121,0,0,1,23.2,7.367Z"/>
</svg>
