<svg xmlns="http://www.w3.org/2000/svg" width="25.655" height="24.69" viewBox="0 0 25.655 24.69">
  <g id="home" transform="translate(23.324 -10.104)">
    <g id="Group_62892" data-name="Group 62892" transform="translate(-23 10.492)">
      <path id="Path_43718" data-name="Path 43718" d="M24.8,21.559,14.588,11.284l-.04-.039a2.937,2.937,0,0,0-3.918-.008l-.041.038L.288,21.556a.98.98,0,0,0,1.384,1.387l.777-.776v8.459a3.923,3.923,0,0,0,3.919,3.919H9.9a.98.98,0,0,0,.98-.98V25.58H14.3v7.985a.98.98,0,0,0,.98.98h3.429a3.923,3.923,0,0,0,3.919-3.919.98.98,0,0,0-1.959,0,1.962,1.962,0,0,1-1.959,1.959H16.263V24.6a.98.98,0,0,0-.98-.98H9.9a.98.98,0,0,0-.98.98v7.984H6.368a1.962,1.962,0,0,1-1.959-1.959V20.241q0-.015,0-.029l7.541-7.527a.979.979,0,0,1,1.271,0l7.451,7.5v5.539a.98.98,0,1,0,1.959,0V22.16l.775.78a.98.98,0,0,0,1.39-1.381Z" transform="translate(0 -10.492)" fill="#263238" stroke="#fff" stroke-width="0.5"/>
    </g>
  </g>
</svg>
