<svg xmlns="http://www.w3.org/2000/svg" width="20.001" height="20" viewBox="0 0 20.001 20">
  <g id="ic_search_normal" transform="translate(-2 -2)">
    <path id="Fill" d="M18.949,20a1.041,1.041,0,0,1-.751-.305l-3.054-3.042a9.406,9.406,0,1,1,1.5-1.484L19.689,18.2a1.065,1.065,0,0,1,.011,1.495A1.092,1.092,0,0,1,18.949,20ZM9.364,2.105a7.221,7.221,0,1,0,7.25,7.222A7.244,7.244,0,0,0,9.364,2.105Zm4.5,7.292a1,1,0,0,1-.969-.756,3.513,3.513,0,0,0-2.707-2.574,1,1,0,1,1,.391-1.961,5.522,5.522,0,0,1,4.256,4.046,1,1,0,0,1-.725,1.214A1,1,0,0,1,13.863,9.4Z" transform="translate(2 2)" fill="#9393aa"/>
  </g>
</svg>
