<svg xmlns="http://www.w3.org/2000/svg" width="27.525" height="49.723" viewBox="0 0 27.525 49.723">
  <g id="img_consult_mange" transform="translate(-12)">
    <g id="video" transform="translate(12)">
      <path id="Combined_Shape" data-name="Combined Shape" d="M4.588,49.723A4.515,4.515,0,0,1,0,45.283V4.736A4.663,4.663,0,0,1,4.588,0h18.35a4.663,4.663,0,0,1,4.587,4.736V45.283a4.515,4.515,0,0,1-4.587,4.439Zm21.161-7.991V7.1H1.776V41.731Z" transform="translate(0)" fill="#7a69d4"/>
      <path id="Path" d="M3.441,1.665A1.693,1.693,0,0,0,1.72,0,1.693,1.693,0,0,0,0,1.665,1.693,1.693,0,0,0,1.72,3.33a1.694,1.694,0,0,0,1.72-1.665Z" transform="translate(12.042 44.062)" fill="#7a69d4"/>
    </g>
  </g>
</svg>
