<svg xmlns="http://www.w3.org/2000/svg" width="54.9" height="51.295" viewBox="0 0 54.9 51.295">
  <g id="legal" transform="translate(-22.077 -37.435)">
    <path id="Path_47576" data-name="Path 47576" d="M151.987,37.624a.469.469,0,0,0-.657-.1l-13.173,9.816a.469.469,0,0,0-.1.657l2.1,2.823a.469.469,0,0,0,.657.1l12.231-9.115h0l.941-.7a.469.469,0,0,0,.1-.657Z" transform="translate(-102.291)" fill="#1da1f2"/>
    <path id="Path_47577" data-name="Path 47577" d="M263.453,216.038a.466.466,0,0,0,.088.348l2.1,2.823a.469.469,0,0,0,.657.1l13.173-9.816h0a.469.469,0,0,0,.1-.657l-2.1-2.823a.469.469,0,0,0-.657-.1l-13.173,9.817A.467.467,0,0,0,263.453,216.038Z" transform="translate(-213.047 -148.626)" fill="#1da1f2"/>
    <rect id="Rectangle_2094" data-name="Rectangle 2094" width="12.673" height="17.367" transform="translate(40.877 50.927) rotate(-36.693)" fill="#1da1f2"/>
    <path id="Path_47578" data-name="Path 47578" d="M22.266,315.024a.469.469,0,0,0-.1.657l2.8,3.764a.469.469,0,0,0,.657.1l3.2-2.384-3.366-4.517Z" transform="translate(0 -242.911)" fill="#1da1f2"/>
    <rect id="Rectangle_2095" data-name="Rectangle 2095" width="20.776" height="5.633" transform="translate(26.594 68.888) rotate(-36.693)" fill="#1da1f2"/>
    <path id="Path_47579" data-name="Path 47579" d="M235.611,398.5a.7.7,0,0,0,.315-.075l5.6-2.809a.7.7,0,1,0-.631-1.259l-5.6,2.809a.7.7,0,0,0,.316,1.334Z" transform="translate(-187.854 -314.969)" fill="#1da1f2"/>
    <path id="Path_47580" data-name="Path 47580" d="M224.465,340.915l6.882,2.462a.7.7,0,0,0,.474-1.326l-6.882-2.462a.7.7,0,0,0-.474,1.326Z" transform="translate(-178.227 -266.661)" fill="#1da1f2"/>
    <path id="Path_47581" data-name="Path 47581" d="M411.836,249.511l-5.432,3.734a.7.7,0,1,0,.8,1.16l5.432-3.734a.7.7,0,1,0-.8-1.16Z" transform="translate(-338.959 -187.081)" fill="#1da1f2"/>
    <path id="Path_47582" data-name="Path 47582" d="M417.017,315.591a.7.7,0,0,0,.576.812l5.957,1.012a.7.7,0,1,0,.236-1.388l-5.957-1.012A.7.7,0,0,0,417.017,315.591Z" transform="translate(-348.587 -244.998)" fill="#1da1f2"/>
    <path id="Path_47583" data-name="Path 47583" d="M238.625,448.084h28.163a.7.7,0,1,0,0-1.408h-4.224v-1.643a.469.469,0,0,0-.469-.469H243.319a.469.469,0,0,0-.469.469v1.643h-4.224a.7.7,0,1,0,0,1.408Z" transform="translate(-190.516 -359.354)" fill="#1da1f2"/>
  </g>
</svg>
