<svg xmlns="http://www.w3.org/2000/svg" width="17.938" height="21.156" viewBox="0 0 17.938 21.156">
  <g id="noun_Music_2916122" transform="translate(-14.983 -6)">
    <g id="Group_68234" data-name="Group 68234" transform="translate(14.983 6)">
      <path id="Path_50621" data-name="Path 50621" d="M74.675,17.789V6L87.938,9.227V23.811c0,4.446-7.546,4.472-7.546,0,0-2.338,2.414-3.786,4.675-3.328V13.8c-2.515-.61-5.005-1.22-7.521-1.8v9.1c0,4.472-7.546,4.5-7.546,0C70,18.78,72.414,17.307,74.675,17.789Zm-.889.94a2.866,2.866,0,0,1,1.906.686V7.321c3.76.915,7.5,1.8,11.23,2.719V23.811c0,3.1-5.488,3.1-5.488,0,0-2.134,2.973-3.151,4.65-1.7V12.987c-3.176-.762-6.377-1.55-9.553-2.312V21.092c0,3.125-5.488,3.125-5.488,0A2.576,2.576,0,0,1,73.786,18.73Z" transform="translate(-70 -6)" fill="#fff" fill-rule="evenodd"/>
    </g>
  </g>
</svg>
