<svg id="noun_Block_User_2059379" data-name="noun_Block User_2059379" xmlns="http://www.w3.org/2000/svg" width="51" height="51" viewBox="0 0 51 51">
  <g id="Group_68105" data-name="Group 68105">
    <g id="Group_68104" data-name="Group 68104">
      <path id="Path_48858" data-name="Path 48858" d="M25.5,39.313a13.793,13.793,0,0,1,6.171-11.5A1.088,1.088,0,0,0,32,27.455a6.151,6.151,0,0,0,.933-3.015,1.73,1.73,0,0,1,.257-1.094,1.058,1.058,0,0,0,.729-.635,15.9,15.9,0,0,0,1.139-4.647,1.039,1.039,0,0,0-.032-.257A2.747,2.747,0,0,0,34,16.258V10.625C34,7.2,32.955,5.8,31.854,4.983,31.643,3.334,29.878,0,23.375,0,16.792,0,12.75,6.188,12.75,10.625v5.633a2.747,2.747,0,0,0-1.031,1.547,1.039,1.039,0,0,0-.032.257,15.863,15.863,0,0,0,1.139,4.645.907.907,0,0,0,.646.61c.117.057.34.368.34,1.12,0,2.019,1.515,4.263,3.141,5.755-.223,1.392-1.26,5.062-3.477,5.988L4.046,39.323c-2.59.863-3.459,3.035-4.014,5.251A1.069,1.069,0,0,0,0,44.833v5.1A1.063,1.063,0,0,0,1.063,51H28.911a1.062,1.062,0,0,0,.744-1.821A13.705,13.705,0,0,1,25.5,39.313Z" fill="#7a69d4"/>
      <path id="Path_48859" data-name="Path 48859" d="M24.688,13A11.688,11.688,0,1,0,36.375,24.688,11.7,11.7,0,0,0,24.688,13Zm5,15.185a1.064,1.064,0,0,1-1.5,1.5l-3.5-3.5-3.5,3.5a1.062,1.062,0,1,1-1.5-1.5l3.5-3.5-3.5-3.5a1.062,1.062,0,1,1,1.5-1.5l3.5,3.5,3.5-3.5a1.062,1.062,0,0,1,1.5,1.5l-3.5,3.5Z" transform="translate(14.625 14.625)" fill="#7a69d4"/>
    </g>
  </g>
</svg>
