<svg xmlns="http://www.w3.org/2000/svg" width="69.612" height="49.723" viewBox="0 0 69.612 49.723">
  <g id="noun_Cloud_Sync_275213" data-name="noun_Cloud Sync_275213" transform="translate(-3 -5)">
    <g id="Group_67962" data-name="Group 67962" transform="translate(3 5)">
      <g id="Group_67961" data-name="Group 67961">
        <path id="Path_47842" data-name="Path 47842" d="M282.7,414.723a14.917,14.917,0,0,0,0-29.833,13.625,13.625,0,0,0-5.285.983,24.866,24.866,0,1,0-24.548,28.85Zm-25.459-21.875c1.54,0,1.96-.95.958-2.094l-7.014-8.017a1.177,1.177,0,0,0-1.8,0l-7.014,8.017c-1.011,1.156-.588,2.094.961,2.094H247.5V405.4a1.366,1.366,0,0,0,1.406,1.367h2.757a1.4,1.4,0,0,0,1.406-1.367V392.848Zm19.492,5.566c1.54,0,1.96.949.958,2.094l-7.014,8.016a1.175,1.175,0,0,1-1.8,0l-7.014-8.016c-1.011-1.156-.588-2.094.961-2.094h4.168V385.859a1.366,1.366,0,0,1,1.406-1.367h2.757a1.4,1.4,0,0,1,1.406,1.367v12.555Z" transform="translate(-228 -365)" fill="#7a69d4" fill-rule="evenodd"/>
      </g>
    </g>
  </g>
</svg>
