<svg xmlns="http://www.w3.org/2000/svg" width="38.472" height="51.296" viewBox="0 0 38.472 51.296">
  <g id="noun_recieve_2384633" transform="translate(-4 -1)">
    <g id="Group_67973" data-name="Group 67973" transform="translate(4 1)">
      <path id="Path_47851" data-name="Path 47851" d="M21.953,37.658V2.282a1.282,1.282,0,0,1,2.565,0V37.658l8.07-8.07A1.283,1.283,0,0,1,34.4,31.4L24.143,41.661a1.283,1.283,0,0,1-1.814,0L12.07,31.4a1.282,1.282,0,0,1,1.814-1.814Zm17.953-18.7H30.93a1.282,1.282,0,0,1,0-2.565H41.189a1.282,1.282,0,0,1,1.282,1.282V51.013A1.283,1.283,0,0,1,41.189,52.3H5.282A1.282,1.282,0,0,1,4,51.013V17.671a1.282,1.282,0,0,1,1.282-1.282H15.542a1.282,1.282,0,1,1,0,2.565H6.565V49.731H39.907Z" transform="translate(-4 -1)" fill="#7a69d4"/>
    </g>
  </g>
</svg>
