<svg xmlns="http://www.w3.org/2000/svg" width="50.966" height="49.723" viewBox="0 0 50.966 49.723">
  <g id="noun_Computer_3716515" transform="translate(-9 -10)">
    <g id="Group_1" data-name="Group 1" transform="translate(9 10)">
      <path id="Path_7" data-name="Path 7" d="M9,61.729a3.74,3.74,0,0,0,3.729,3.729H56.236a3.74,3.74,0,0,0,3.729-3.729V58H9Zm25.483-1.554a1.554,1.554,0,1,1-1.554,1.554A1.539,1.539,0,0,1,34.483,60.175Z" transform="translate(-9 -28.166)" fill="#7a69d4"/>
      <path id="Path_8" data-name="Path 8" d="M56.236,10H12.729A3.74,3.74,0,0,0,9,13.729V37.347H59.966V13.729A3.74,3.74,0,0,0,56.236,10Z" transform="translate(-9 -10)" fill="#7a69d4"/>
      <path id="Path_9" data-name="Path 9" d="M53.24,80.215H51.375a3.74,3.74,0,0,1-3.729-3.729V74H36.458v2.486a3.74,3.74,0,0,1-3.729,3.729H30.865A1.831,1.831,0,0,0,29,82.08a1.87,1.87,0,0,0,1.865,1.865H53.24A1.87,1.87,0,0,0,55.1,82.08,1.831,1.831,0,0,0,53.24,80.215Z" transform="translate(-16.569 -34.222)" fill="#7a69d4"/>
    </g>
  </g>
</svg>
