<svg xmlns="http://www.w3.org/2000/svg" width="81.125" height="51.296" viewBox="0 0 81.125 51.296">
  <g id="noun_Laptop_3426828" transform="translate(-1.026 -11.68)">
    <g id="Group_67975" data-name="Group 67975" transform="translate(1.026 11.68)">
      <path id="Path_47857" data-name="Path 47857" d="M49.1,46.087a.958.958,0,0,1-.923.993H33.87a.962.962,0,0,1-.928-.993v-1.9H1.027v3.174a2.537,2.537,0,0,0,2.449,2.612H79.708a2.531,2.531,0,0,0,2.442-2.612V44.187H49.1Z" transform="translate(-1.026 1.322)" fill="#7a69d4"/>
      <path id="Path_47858" data-name="Path 47858" d="M72.6,15.645a3.968,3.968,0,0,0-3.973-3.965H9.675a3.965,3.965,0,0,0-3.969,3.965V54.923H72.6Zm-4.113,34.5H9.815V17.463H68.486Z" transform="translate(0.846 -11.68)" fill="#7a69d4"/>
    </g>
  </g>
</svg>
