<svg xmlns="http://www.w3.org/2000/svg" width="26.584" height="26.584" viewBox="0 0 26.584 26.584">
  <g id="noun_Power_3660729" transform="translate(-1.5 -1.5)">
    <path id="Path_47565" data-name="Path 47565" d="M14.792,1.5A13.292,13.292,0,1,0,28.084,14.792,13.307,13.307,0,0,0,14.792,1.5Zm0,25.319A12.026,12.026,0,1,1,26.819,14.792,12.04,12.04,0,0,1,14.792,26.819Z"/>
    <path id="Path_47566" data-name="Path 47566" d="M17.842,6.394a.633.633,0,1,0-.629,1.1,6.962,6.962,0,1,1-6.966,0,.633.633,0,1,0-.63-1.1,8.229,8.229,0,1,0,8.226,0Z" transform="translate(1.064 1.279)"/>
    <path id="Path_47567" data-name="Path 47567" d="M12.133,9.564a.633.633,0,0,0,.633-.633v-3.8a.633.633,0,1,0-1.266,0v3.8A.633.633,0,0,0,12.133,9.564Z" transform="translate(2.659 0.798)"/>
  </g>
</svg>
