<svg xmlns="http://www.w3.org/2000/svg" width="53.735" height="49.723" viewBox="0 0 53.735 49.723">
  <g id="noun_talk_2902525" transform="translate(-5.002 -8.362)">
    <path id="Path_48862" data-name="Path 48862" d="M8.169,41.243A21.619,21.619,0,1,1,47.026,22.836,19.145,19.145,0,0,0,25.8,51.582a21.5,21.5,0,0,1-10.44-3.149L5.927,51.565a.7.7,0,0,1-.889-.889Zm50.568.068a16.691,16.691,0,0,1-2.456,8.74l2.427,7.313a.546.546,0,0,1-.69.69l-7.313-2.427a16.772,16.772,0,1,1,8.031-14.315Zm-11.1,0a2.388,2.388,0,1,0,2.388-2.388A2.388,2.388,0,0,0,47.638,41.312Zm-11.344,0A2.388,2.388,0,1,0,33.905,43.7,2.388,2.388,0,0,0,36.294,41.312Zm8.06,0A2.388,2.388,0,1,0,41.966,43.7,2.388,2.388,0,0,0,44.354,41.312Z" transform="translate(0 0)" fill="#7a69d4"/>
  </g>
</svg>
