<svg xmlns="http://www.w3.org/2000/svg" width="66.147" height="70.44" viewBox="0 0 66.147 70.44">
  <g id="receive-mail" transform="translate(-155 -970)">
    <path id="blob" d="M-9.291-54.609c5.223,11.6,5.8,23.19.94,31.7C-13.261-14.392-23.6-9.064-34.779-8.594s-23.086-4.022-30.032-13.684c-6.894-9.663-8.722-24.5-2.768-36.561C-61.626-70.853-47.785-80.1-36.033-78.9-24.229-77.747-14.462-66.2-9.291-54.609Z" transform="translate(226.167 1049.001)" fill="#7a69d4"/>
    <g id="noun_Mail_1092220" transform="translate(172 989.019)">
      <g id="Group_67915" data-name="Group 67915" transform="translate(0 -0.019)">
        <path id="Path_47586" data-name="Path 47586" d="M32.2,119a3.47,3.47,0,0,1,.422,1.795v14.676a4.215,4.215,0,0,1-4.118,4.223H4.118A4.215,4.215,0,0,1,0,135.471V120.795A3.47,3.47,0,0,1,.422,119l12.353,10.242a5.86,5.86,0,0,0,7.074,0Z" transform="translate(0 -106.434)" fill="#fff" fill-rule="evenodd"/>
        <path id="Path_47587" data-name="Path 47587" d="M20.012,14.343,16,10.964,28.353.828a3.649,3.649,0,0,1,4.54-.106L45.247,10.964l-4.012,3.379V11.809a2.143,2.143,0,0,0-2.112-2.217h-17a2.143,2.143,0,0,0-2.112,2.217Z" transform="translate(-14.311 0.019)" fill="#fff" fill-rule="evenodd"/>
        <path id="Path_47588" data-name="Path 47588" d="M98.3,114.056a.529.529,0,1,1,0-1.056h10.875a.529.529,0,1,1,0,1.056Z" transform="translate(-87.429 -101.067)" fill="#fff"/>
        <path id="Path_47589" data-name="Path 47589" d="M98.3,155.056a.529.529,0,1,1,0-1.056h10.875a.529.529,0,1,1,0,1.056Z" transform="translate(-87.429 -137.738)" fill="#fff"/>
        <path id="Path_47590" data-name="Path 47590" d="M98.3,135.056a.529.529,0,1,1,0-1.056h10.875a.529.529,0,1,1,0,1.056Z" transform="translate(-87.429 -119.85)" fill="#fff"/>
      </g>
    </g>
  </g>
</svg>
