<svg xmlns="http://www.w3.org/2000/svg" width="59.394" height="52" viewBox="0 0 59.394 52">
  <g id="reset-ico" transform="translate(-1.048 -2.911)">
    <g id="Layer_28" data-name="Layer 28" transform="translate(1.048 2.911)">
      <path id="Path_47564" data-name="Path 47564" d="M5.761,23.889l-4.49-8.722a1.99,1.99,0,1,1,3.536-1.828l2.344,4.57a26.186,26.186,0,0,1,48.8,3.795A1.987,1.987,0,0,1,52.132,22.8a22.212,22.212,0,0,0-41.484-3l6.517-2.265a1.989,1.989,0,0,1,1.311,3.755L8.165,24.942a2.483,2.483,0,0,1-.636,0A1.987,1.987,0,0,1,5.761,23.889ZM60.238,42.6l-4.47-8.821a1.987,1.987,0,0,0-2.444-.894L43.033,36.505a1.989,1.989,0,0,0,1.311,3.755l6.536-2.285a22.153,22.153,0,0,1-41.5-3.1,1.987,1.987,0,0,0-3.815,1.073,26.106,26.106,0,0,0,48.8,3.834L56.7,44.373A1.977,1.977,0,0,0,60.238,42.6Z" transform="translate(-1.048 -2.911)" fill="#1da1f2"/>
    </g>
  </g>
</svg>
