<svg xmlns="http://www.w3.org/2000/svg" width="26.598" height="23.287" viewBox="0 0 26.598 23.287">
  <g id="reset" transform="translate(-1.048 -2.911)">
    <g id="Layer_28" data-name="Layer 28" transform="translate(1.048 2.911)">
      <path id="Path_47564" data-name="Path 47564" d="M3.158,12.306,1.148,8.4a.891.891,0,1,1,1.584-.819l1.05,2.046a11.727,11.727,0,0,1,21.852,1.7.89.89,0,0,1-1.708.489A9.947,9.947,0,0,0,5.347,10.473L8.265,9.459a.891.891,0,0,1,.587,1.682L4.235,12.777a1.112,1.112,0,0,1-.285,0A.89.89,0,0,1,3.158,12.306Zm24.4,8.381-2-3.95a.89.89,0,0,0-1.094-.4L19.85,17.955a.891.891,0,0,0,.587,1.682l2.927-1.023A9.92,9.92,0,0,1,4.778,17.226a.89.89,0,0,0-1.708.48,11.691,11.691,0,0,0,21.852,1.717l1.05,2.055a.885.885,0,0,0,1.584-.792Z" transform="translate(-1.048 -2.911)"/>
    </g>
  </g>
</svg>
