<svg xmlns="http://www.w3.org/2000/svg" width="343.999" height="295.217" viewBox="0 0 343.999 295.217">
  <g id="Search-rafiki_1_" data-name="Search-rafiki (1)" transform="translate(-56.11 -94.77)">
    <g id="freepik--Shadow--inject-187" transform="translate(56.11 369.904)">
      <ellipse id="Ellipse_1220" data-name="Ellipse 1220" cx="172" cy="10.042" rx="172" ry="10.042" fill="#f5f5f5"/>
    </g>
    <g id="freepik--Character--inject-187" transform="translate(83.462 94.77)">
      <path id="Path_49338" data-name="Path 49338" d="M128.183,193.7c-.781,1.774-1.641,3.69-2.4,5.562s-1.535,3.8-2.218,5.713a81.038,81.038,0,0,0-3.362,11.47l-.257,1.419-.089.532a1.841,1.841,0,0,1-.053.523,21.762,21.762,0,0,0,.053,2.59,52.254,52.254,0,0,0,.887,5.881c.745,4.019,1.694,8.161,2.661,12.242l-4.551,1.774a82.19,82.19,0,0,1-5.4-12.056,50.565,50.565,0,0,1-1.881-6.627,23.784,23.784,0,0,1-.5-3.779c0-.355,0-.692,0-1.073a5.308,5.308,0,0,1,.062-1.056l.177-1.774a55.888,55.888,0,0,1,1.215-6.786c.5-2.218,1.135-4.373,1.774-6.5s1.437-4.223,2.28-6.281c.417-1.029.887-2.049,1.3-3.069a33.988,33.988,0,0,1,1.455-3.087Z" transform="translate(-89.668 -105.445)" fill="#e4897b"/>
      <path id="Path_49339" data-name="Path 49339" d="M124.061,244.69l3.46,3.38-7.549,3.548s-1.827-3.2-.559-6.094Z" transform="translate(-90.558 -111.696)" fill="#e4897b"/>
      <path id="Path_49340" data-name="Path 49340" d="M130.445,253.53l-6.378,2.608-3.956-4.125,7.54-3.513Z" transform="translate(-90.687 -112.127)" fill="#e4897b"/>
      <path id="Path_49341" data-name="Path 49341" d="M270.187,233.862a63.871,63.871,0,1,1,70.6-56.393A63.871,63.871,0,0,1,270.187,233.862Z" transform="translate(-101.224 -96.096)" fill="#fafafa" opacity="0.4"/>
      <path id="Path_49342" data-name="Path 49342" d="M316.689,120.485,219.552,198.1c-.408-.887-.807-1.774-1.18-2.661a63.2,63.2,0,0,1-4.622-18.168h0l83.9-67.038a63.117,63.117,0,0,1,19.037,10.255Z" transform="translate(-101.259 -96.516)" fill="#fafafa" opacity="0.4"/>
      <path id="Path_49343" data-name="Path 49343" d="M340.64,156.863l-91.327,72.964a63.747,63.747,0,0,1-21.973-18.877l99.719-79.679a63.871,63.871,0,0,1,13.581,25.593Z" transform="translate(-102.794 -98.891)" fill="#fafafa" opacity="0.4"/>
      <path id="Path_49344" data-name="Path 49344" d="M204.283,144.971l-.843-.284a77.78,77.78,0,0,1,5.482-12.464l.772.426a77.117,77.117,0,0,0-5.411,12.322Zm10.769-20.7-.719-.523a76.912,76.912,0,0,1,27.828-23.251l.4.8a76.06,76.06,0,0,0-27.509,23Zm97.217-21.761a74.165,74.165,0,0,0-8.977-4.072l.319-.834a75.953,75.953,0,0,1,9.066,4.152Z" transform="translate(-100.095 -95.09)" fill="#7a69d4"/>
      <path id="Path_49345" data-name="Path 49345" d="M204.283,144.971l-.843-.284a77.78,77.78,0,0,1,5.482-12.464l.772.426a77.117,77.117,0,0,0-5.411,12.322Zm10.769-20.7-.719-.523a76.912,76.912,0,0,1,27.828-23.251l.4.8a76.06,76.06,0,0,0-27.509,23Zm97.217-21.761a74.165,74.165,0,0,0-8.977-4.072l.319-.834a75.953,75.953,0,0,1,9.066,4.152Z" transform="translate(-100.095 -95.09)" opacity="0.3"/>
      <path id="Path_49346" data-name="Path 49346" d="M331.275,136.437a73.629,73.629,0,0,0-135.416,57.422c-5.926,2.076-11.781,4.3-17.6,6.6q-12.588,4.994-24.945,10.432c-8.232,3.646-16.429,7.363-24.546,11.248-4.072,1.907-8.09,3.921-12.144,5.873A17.556,17.556,0,0,0,111,231.871a16.988,16.988,0,0,0-2.28,2.99,15.3,15.3,0,0,0-1.774,4.107,11.284,11.284,0,0,0,6.5,13.173,15.577,15.577,0,0,0,4.311,1.118,16.746,16.746,0,0,0,3.77,0,17.529,17.529,0,0,0,6.476-2.12c4.019-2.031,8.064-3.992,12.056-6.077,7.984-4.072,15.968-8.321,23.854-12.632S179.7,223.6,187.4,218.973c5.323-3.22,10.7-6.511,15.968-9.953a73.629,73.629,0,0,0,127.929-72.582Zm-40.328,84.745a58.132,58.132,0,1,1,26.391-77.87,58.132,58.132,0,0,1-26.391,77.87Z" transform="translate(-89.161 -94.77)" fill="#7a69d4"/>
      <path id="Path_49347" data-name="Path 49347" d="M331.275,136.437a73.629,73.629,0,0,0-135.416,57.422c-5.926,2.076-11.781,4.3-17.6,6.6q-12.588,4.994-24.945,10.432c-8.232,3.646-16.429,7.363-24.546,11.248-4.072,1.907-8.09,3.921-12.144,5.873A17.556,17.556,0,0,0,111,231.871a16.988,16.988,0,0,0-2.28,2.99,15.3,15.3,0,0,0-1.774,4.107,11.284,11.284,0,0,0,6.5,13.173,15.577,15.577,0,0,0,4.311,1.118,16.746,16.746,0,0,0,3.77,0,17.529,17.529,0,0,0,6.476-2.12c4.019-2.031,8.064-3.992,12.056-6.077,7.984-4.072,15.968-8.321,23.854-12.632S179.7,223.6,187.4,218.973c5.323-3.22,10.7-6.511,15.968-9.953a73.629,73.629,0,0,0,127.929-72.582Zm-40.328,84.745a58.132,58.132,0,1,1,26.391-77.87,58.132,58.132,0,0,1-26.391,77.87Z" transform="translate(-89.161 -94.77)" opacity="0.3"/>
      <path id="Path_49348" data-name="Path 49348" d="M158,158.429c0,.523.275.949.621.949s.621-.426.621-.949-.275-.949-.621-.949S158,157.941,158,158.429Z" transform="translate(-94.965 -101.85)" fill="#263238"/>
      <path id="Path_49349" data-name="Path 49349" d="M158.28,159.62a18.922,18.922,0,0,0,2.51,4.5,3.025,3.025,0,0,1-2.51.47Z" transform="translate(-94.997 -102.092)" fill="#de5753"/>
      <path id="Path_49350" data-name="Path 49350" d="M155.89,155.11a.328.328,0,0,1-.257-.124.319.319,0,0,1,.071-.435,3.043,3.043,0,0,1,2.777-.47.31.31,0,1,1-.222.577,2.422,2.422,0,0,0-2.191.4A.319.319,0,0,1,155.89,155.11Z" transform="translate(-94.691 -101.45)" fill="#263238"/>
      <path id="Path_49351" data-name="Path 49351" d="M137.613,163c.887,4.764,1.863,13.5-1.473,16.686,0,0,1.3,4.835,10.166,4.835,9.758,0,4.648-4.835,4.648-4.835-5.323-1.277-5.172-5.216-4.249-8.924Z" transform="translate(-92.497 -102.474)" fill="#e4897b"/>
      <path id="Path_49352" data-name="Path 49352" d="M131.559,183.763c1.056-1.641-.719-5.624-.719-5.624s15.684-3.948,22.1,2.111c1.331,1.251-.142,3.1-.142,3.1Z" transform="translate(-91.899 -104.04)" fill="#7a69d4"/>
      <path id="Path_49353" data-name="Path 49353" d="M131.559,183.763c1.056-1.641-.719-5.624-.719-5.624s15.684-3.948,22.1,2.111c1.331,1.251-.142,3.1-.142,3.1Z" transform="translate(-91.899 -104.04)" opacity="0.1"/>
      <path id="Path_49354" data-name="Path 49354" d="M102.074,388.4c-.825,0-2.147-1.375-2.537-1.889a.151.151,0,0,1,0-.169.16.16,0,0,1,.142-.08c.1,0,2.271.2,2.865.967a.718.718,0,0,1,.142.585.639.639,0,0,1-.461.577Zm-2.058-1.774c.648.745,1.685,1.588,2.129,1.481,0,0,.177-.044.231-.328a.4.4,0,0,0-.089-.337,4.143,4.143,0,0,0-2.271-.834Z" transform="translate(-88.362 -127.68)" fill="#7a69d4"/>
      <path id="Path_49355" data-name="Path 49355" d="M100.111,386.438a2.373,2.373,0,0,1-.479,0,.142.142,0,0,1-.124-.1.177.177,0,0,1,0-.16c.062-.053,1.366-1.41,2.351-1.41h0a.834.834,0,0,1,.63.266.506.506,0,0,1,.124.621C102.355,386.154,101,386.438,100.111,386.438Zm-.115-.31c.887,0,2.173-.275,2.386-.665,0,0,.062-.115-.08-.257a.523.523,0,0,0-.408-.169h0a3.753,3.753,0,0,0-1.9,1.091Z" transform="translate(-88.359 -127.512)" fill="#7a69d4"/>
      <path id="Path_49356" data-name="Path 49356" d="M168.12,411.168a11.757,11.757,0,0,1-2-.186.142.142,0,0,1-.115-.142.16.16,0,0,1,.071-.16c.1-.053,2.369-1.357,3.46-1.056a.763.763,0,0,1,.488.355.585.585,0,0,1,0,.674C169.761,411.052,168.954,411.168,168.12,411.168Zm-1.5-.417c1.206.177,2.856.169,3.158-.257.044-.053.08-.151,0-.337a.5.5,0,0,0-.3-.222A5.566,5.566,0,0,0,166.621,410.751Z" transform="translate(-95.868 -130.313)" fill="#7a69d4"/>
      <path id="Path_49357" data-name="Path 49357" d="M166.15,410.8a.159.159,0,0,1-.089,0,.142.142,0,0,1-.062-.151,4.329,4.329,0,0,1,1.011-2.51,1.109,1.109,0,0,1,.887-.257.512.512,0,0,1,.577.426c.115.736-1.437,2.147-2.227,2.5Zm1.588-2.661a.807.807,0,0,0-.532.2,3.549,3.549,0,0,0-.887,2.014c.8-.488,1.863-1.588,1.774-2.031,0,0,0-.151-.3-.177Z" transform="translate(-95.868 -130.119)" fill="#7a69d4"/>
      <path id="Path_49358" data-name="Path 49358" d="M158.09,409.07h6.52l.648-15.09h-6.52Z" transform="translate(-94.975 -128.551)" fill="#e4897b"/>
      <path id="Path_49359" data-name="Path 49359" d="M92.64,380.5l5.447,3.566L110.116,373.9l-5.456-3.575Z" transform="translate(-87.586 -125.881)" fill="#e4897b"/>
      <path id="Path_49360" data-name="Path 49360" d="M98.34,384.823l-5.66-4.64a.559.559,0,0,0-.71,0L87.3,383.848a.958.958,0,0,0,0,1.5c2,1.588,3.06,2.262,5.553,4.3,1.535,1.251,5.323,5.083,7.461,6.813s4.1-.133,3.389-1.029a22.35,22.35,0,0,1-4.8-9.625,1.606,1.606,0,0,0-.568-.985Z" transform="translate(-86.943 -126.979)" fill="#263238"/>
      <path id="Path_49361" data-name="Path 49361" d="M164.249,410.14h-7.1a.577.577,0,0,0-.559.444l-1.286,5.793a.949.949,0,0,0,.94,1.162c2.564-.044,6.272-.2,9.5-.2,3.77,0,7.035.2,11.452.2,2.661,0,3.424-2.706,2.3-2.945-5.092-1.118-9.261-1.233-13.661-3.956A3.051,3.051,0,0,0,164.249,410.14Z" transform="translate(-94.658 -130.376)" fill="#263238"/>
      <path id="Path_49362" data-name="Path 49362" d="M120.531,183.907c-5.651,2.661-8.871,20.492-8.871,20.492l13.812,5.509a102.75,102.75,0,0,0,4.888-15.214C132.258,186.48,126.315,181.157,120.531,183.907Z" transform="translate(-89.733 -104.752)" fill="#263238"/>
      <path id="Path_49363" data-name="Path 49363" d="M129.2,195.235c-3.415,3.46-4.977,10.237-5.66,14.646l3.309,1.322a103.526,103.526,0,0,0,4.79-14.77C131.346,194.551,130.619,193.8,129.2,195.235Z" transform="translate(-91.074 -106.028)" fill="#203048"/>
      <path id="Path_49364" data-name="Path 49364" d="M159.494,183.6s6.937,7.842.39,56.331H125.03c-.24-5.323,3.123-31.448-2.04-56.659a89.205,89.205,0,0,1,11.665-1.473,124.958,124.958,0,0,1,14.815,0,65.813,65.813,0,0,1,10.024,1.8Z" transform="translate(-91.012 -104.572)" fill="#263238"/>
      <path id="Path_49365" data-name="Path 49365" d="M166.8,203.792l-5.873-10.122a51.727,51.727,0,0,0-1.375,14.433c.16,3.477,3.344,16.358,6.21,18.239A204.79,204.79,0,0,0,166.8,203.792Z" transform="translate(-95.134 -105.936)" fill="#203048"/>
      <path id="Path_49366" data-name="Path 49366" d="M167.417,191.67c.887,4.311,1.774,8.729,2.723,13.058s1.934,8.676,3.078,12.872c.293,1.038.568,2.1.887,3.1l.24.763.115.381V221.8c-.062-.08-.133-.089-.08,0a2.972,2.972,0,0,0,1.348.843,15.823,15.823,0,0,0,2.581.719,69.006,69.006,0,0,0,12.686.825l.843,4.826c-1.189.381-2.3.656-3.469.931s-2.324.506-3.5.683a37.905,37.905,0,0,1-7.39.5,20.058,20.058,0,0,1-4.081-.532,11.879,11.879,0,0,1-4.684-2.173,8.56,8.56,0,0,1-2.191-2.661c-.142-.266-.266-.568-.381-.825l-.16-.417-.328-.887c-.452-1.127-.825-2.235-1.233-3.344-1.5-4.435-2.75-8.915-3.85-13.386s-2.049-8.933-2.839-13.519Z" transform="translate(-94.935 -105.71)" fill="#e4897b"/>
      <path id="Path_49367" data-name="Path 49367" d="M154.293,188.565c-1.836,5.952,5.606,23.7,5.606,23.7l14.823-3.726s-.568-9.226-3.948-16.544C165.683,180.963,156.493,181.424,154.293,188.565Z" transform="translate(-94.514 -104.779)" fill="#263238"/>
      <path id="Path_49368" data-name="Path 49368" d="M194.55,228.3l7.381-.186-3.548,7.682s-3.007.4-5.473-3.655l-2.6-3.1,2.99-.594a6.671,6.671,0,0,1,1.251-.142Z" transform="translate(-98.613 -109.825)" fill="#e4897b"/>
      <path id="Path_49369" data-name="Path 49369" d="M207.616,229.538l-4.223,6.369-3.983-.115,3.548-7.682Z" transform="translate(-99.64 -109.825)" fill="#e4897b"/>
      <path id="Path_49370" data-name="Path 49370" d="M165.3,393.98l-.337,7.78h-6.52l.337-7.78Z" transform="translate(-95.015 -128.551)" fill="#ce6f64"/>
      <path id="Path_49371" data-name="Path 49371" d="M105.4,370.33l5.456,3.575-6.21,5.234L99.2,375.573Z" transform="translate(-88.326 -125.881)" fill="#ce6f64"/>
      <path id="Path_49372" data-name="Path 49372" d="M138.257,156.075c.39,6.449.293,10.255,3.548,13.564,4.9,4.994,12.872,2.04,14.415-4.436,1.393-5.8.523-15.382-5.793-17.955a8.871,8.871,0,0,0-12.171,8.827Z" transform="translate(-92.734 -100.622)" fill="#e4897b"/>
      <path id="Path_49373" data-name="Path 49373" d="M129.674,154.014c1.606,5.881,5.385,12.659,10.273,13.094,6.068.532,8.809-5.74,9.607-12.215,3.637-2.493,1.73-5.234,5.376-5.58,4.684-.444,3.185-9.013-2.981-10.388,0,0,2.067,3.859-2.271,1.907a25.034,25.034,0,0,0-13.253-2.3s5.535,2.768.124,4-7.026,4.569-4.533,6.582A3.762,3.762,0,0,0,129.674,154.014Z" transform="translate(-91.744 -99.697)" fill="#263238"/>
      <path id="Path_49374" data-name="Path 49374" d="M147.939,158.144a7.292,7.292,0,0,0,1.836,4.32c1.419,1.57,2.9.594,3.149-1.313.231-1.712-.24-4.6-1.978-5.465S147.824,156.21,147.939,158.144Z" transform="translate(-93.828 -101.618)" fill="#e4897b"/>
      <path id="Path_49375" data-name="Path 49375" d="M144.635,247.359s6.352,46,1.348,64.43c-7.931,29.186-38.252,53.82-38.252,53.82L97.45,358.867s25.823-20.8,28.982-45.242c2.839-21.938-4.285-48.471-4.285-66.275Z" transform="translate(-88.129 -111.997)" fill="#7a69d4"/>
      <path id="Path_49376" data-name="Path 49376" d="M144.635,247.359s6.352,46,1.348,64.43c-7.931,29.186-38.252,53.82-38.252,53.82L97.45,358.867s25.823-20.8,28.982-45.242c2.839-21.938-4.285-48.471-4.285-66.275Z" transform="translate(-88.129 -111.997)" opacity="0.1"/>
      <path id="Path_49377" data-name="Path 49377" d="M152.892,276.323A42.936,42.936,0,0,0,147.33,271c1.082,14.93,1.969,37.045.985,52.756a67.786,67.786,0,0,0,3.3-9.288C154.054,305.464,153.8,289.913,152.892,276.323Z" transform="translate(-93.76 -114.667)" fill="#7a69d4"/>
      <path id="Path_49378" data-name="Path 49378" d="M152.892,276.323A42.936,42.936,0,0,0,147.33,271c1.082,14.93,1.969,37.045.985,52.756a67.786,67.786,0,0,0,3.3-9.288C154.054,305.464,153.8,289.913,152.892,276.323Z" transform="translate(-93.76 -114.667)" opacity="0.3"/>
      <path id="Path_49379" data-name="Path 49379" d="M111.774,377.1c.044,0-3.983,2.661-3.983,2.661L96.56,372.4l3.548-2.936Z" transform="translate(-88.028 -125.783)" fill="#7a69d4"/>
      <path id="Path_49380" data-name="Path 49380" d="M111.774,377.1c.044,0-3.983,2.661-3.983,2.661L96.56,372.4l3.548-2.936Z" transform="translate(-88.028 -125.783)" opacity="0.3"/>
      <path id="Path_49381" data-name="Path 49381" d="M161.664,247.36s9.811,41.6,10.5,61.485c.781,22.284-7,74.853-7,74.853H154.123s-1.357-52.978-1.845-73.274c-.541-22.133-13.528-63.064-13.528-63.064Z" transform="translate(-92.792 -111.998)" fill="#7a69d4"/>
      <path id="Path_49382" data-name="Path 49382" d="M161.664,247.36s9.811,41.6,10.5,61.485c.781,22.284-7,74.853-7,74.853H154.123s-1.357-52.978-1.845-73.274c-.541-22.133-13.528-63.064-13.528-63.064Z" transform="translate(-92.792 -111.998)" opacity="0.1"/>
      <path id="Path_49383" data-name="Path 49383" d="M169.085,396.1c.053,0-.621,4.577-.621,4.577H155.034l-.364-4.09Z" transform="translate(-94.589 -128.791)" fill="#7a69d4"/>
      <path id="Path_49384" data-name="Path 49384" d="M169.085,396.1c.053,0-.621,4.577-.621,4.577H155.034l-.364-4.09Z" transform="translate(-94.589 -128.791)" opacity="0.3"/>
    </g>
    <g id="freepik--character--inject-187-2" data-name="freepik--character--inject-187" transform="translate(275.693 150.29)">
      <path id="Path_49385" data-name="Path 49385" d="M355.408,202.29c.754.71,1.348,1.313,1.969,1.987s1.206,1.331,1.774,2.014c1.153,1.357,2.235,2.785,3.282,4.223a67.656,67.656,0,0,1,5.562,9.1l.328.648a6.255,6.255,0,0,1,.4.976,8.09,8.09,0,0,1,.39,2,9.756,9.756,0,0,1-.488,3.548,17.885,17.885,0,0,1-2.848,5.252,37.862,37.862,0,0,1-7.807,7.5l-2.209-2.537c1.038-1.215,2.12-2.519,3.087-3.823a32.6,32.6,0,0,0,2.661-3.992,13.864,13.864,0,0,0,1.615-3.921,4.063,4.063,0,0,0,.062-1.508,1.967,1.967,0,0,0-.16-.488,1.408,1.408,0,0,0-.115-.2l-.284-.479a93.2,93.2,0,0,0-5.562-8.081c-.985-1.3-2.04-2.555-3.1-3.788-.523-.621-1.065-1.224-1.606-1.827s-1.127-1.206-1.6-1.677Z" transform="translate(-308.959 -162.429)" fill="#e4897b"/>
      <path id="Path_49386" data-name="Path 49386" d="M356.517,240.452l-6.627-1.082,3.469,5.8s4.267-.151,5.482-2.661Z" transform="translate(-308.861 -166.615)" fill="#e4897b"/>
      <path id="Path_49387" data-name="Path 49387" d="M344.37,242.049l3.158,4.71,5.207-1.588-3.469-5.8Z" transform="translate(-308.238 -166.615)" fill="#e4897b"/>
      <path id="Path_49388" data-name="Path 49388" d="M356.8,411.066a1.907,1.907,0,0,1-1.268-.346.887.887,0,0,1-.257-.834.523.523,0,0,1,.31-.444c.772-.346,2.794.949,3.025,1.1a.16.16,0,0,1-.053.284,7.851,7.851,0,0,1-1.757.24Zm-.887-1.375a.639.639,0,0,0-.2,0,.231.231,0,0,0-.133.2.6.6,0,0,0,.16.559,3.191,3.191,0,0,0,2.369.115,5.845,5.845,0,0,0-2.2-.878Z" transform="translate(-309.467 -185.81)" fill="#7a69d4"/>
      <path id="Path_49389" data-name="Path 49389" d="M358.773,410.618h-.08c-.63-.364-1.845-1.774-1.694-2.546a.577.577,0,0,1,.532-.444.8.8,0,0,1,.665.213c.727.639.736,2.555.736,2.661a.169.169,0,0,1-.08.133Zm-1.135-2.661h-.071c-.2,0-.24.106-.257.186-.089.452.665,1.535,1.3,2.04a3.628,3.628,0,0,0-.612-2.094.506.506,0,0,0-.4-.133Z" transform="translate(-309.662 -185.611)" fill="#7a69d4"/>
      <path id="Path_49390" data-name="Path 49390" d="M322.678,411.066a2.458,2.458,0,0,1-1.606-.408.887.887,0,0,1-.293-.763.515.515,0,0,1,.266-.417c.825-.461,3.469.887,3.77,1.056a.177.177,0,0,1,.08.169.151.151,0,0,1-.124.124,11.058,11.058,0,0,1-2.094.24Zm-1.18-1.375a.55.55,0,0,0-.293.062.186.186,0,0,0-.107.169.577.577,0,0,0,.177.506c.408.364,1.5.426,2.972.177a8.632,8.632,0,0,0-2.75-.914Z" transform="translate(-305.574 -185.809)" fill="#7a69d4"/>
      <path id="Path_49391" data-name="Path 49391" d="M324.956,410.619h-.071c-.79-.355-2.36-1.774-2.235-2.546,0-.177.16-.4.594-.444a1.171,1.171,0,0,1,.887.275,4.389,4.389,0,0,1,.994,2.564.151.151,0,0,1-.062.142.168.168,0,0,1-.106.009Zm-1.588-2.661h-.1c-.284,0-.3.142-.311.177-.071.452.994,1.579,1.774,2.067a3.69,3.69,0,0,0-.887-2.049A.825.825,0,0,0,323.368,407.957Z" transform="translate(-305.785 -185.611)" fill="#7a69d4"/>
      <path id="Path_49392" data-name="Path 49392" d="M335.687,179.3c-.257,4.01-.949,12.153,2.129,14.406,0,0-.559,4.107-7.824,5.065-7.984,1.038-4.338-3.469-4.338-3.469,4.231-1.615,3.69-4.835,2.537-7.78Z" transform="translate(-306.031 -159.833)" fill="#e4897b"/>
      <path id="Path_49393" data-name="Path 49393" d="M318.1,171.1a.3.3,0,0,1-.231-.106,2.511,2.511,0,0,0-2.085-.887.31.31,0,0,1-.364-.266.319.319,0,0,1,.275-.355,3.114,3.114,0,0,1,2.661,1.118.319.319,0,0,1-.24.523Z" transform="translate(-304.969 -158.724)" fill="#263238"/>
      <path id="Path_49394" data-name="Path 49394" d="M316.7,175.74a14.442,14.442,0,0,1-1.446,3.637,2.289,2.289,0,0,0,1.943.106Z" transform="translate(-304.95 -159.431)" fill="#de5753"/>
      <path id="Path_49395" data-name="Path 49395" d="M317.119,174.528c.071.532-.151.994-.5,1.047s-.692-.355-.754-.887.151-.994.5-1.038S317.057,173.96,317.119,174.528Z" transform="translate(-305.019 -159.195)" fill="#263238"/>
      <path id="Path_49396" data-name="Path 49396" d="M316.442,173.634l-1.322-.2S315.9,174.344,316.442,173.634Z" transform="translate(-304.935 -159.17)" fill="#263238"/>
      <path id="Path_49397" data-name="Path 49397" d="M332.587,408.881h-6.653l-.444-15.391h6.653Z" transform="translate(-306.106 -184.015)" fill="#e4897b"/>
      <path id="Path_49398" data-name="Path 49398" d="M366.421,408.881h-6.653L357.63,393.49h6.653Z" transform="translate(-309.735 -184.015)" fill="#e4897b"/>
      <path id="Path_49399" data-name="Path 49399" d="M358.365,410h7.469a.523.523,0,0,1,.523.452l.887,5.917a1.065,1.065,0,0,1-1.065,1.18c-2.6-.044-3.859-.2-7.141-.2-2.023,0-4.977.2-7.762.2s-2.936-2.759-1.774-3.007c5.207-1.118,6.032-2.661,7.78-4.143A1.774,1.774,0,0,1,358.365,410Z" transform="translate(-308.74 -185.879)" fill="#263238"/>
      <path id="Path_49400" data-name="Path 49400" d="M324.368,410h7.461a.532.532,0,0,1,.532.452l.887,5.917a1.064,1.064,0,0,1-1.065,1.18c-2.6-.044-3.859-.2-7.141-.2-2.023,0-6.21.2-9,.2s-2.936-2.759-1.774-3.007c5.207-1.118,7.256-2.661,9.013-4.143A1.774,1.774,0,0,1,324.368,410Z" transform="translate(-304.763 -185.879)" fill="#263238"/>
      <path id="Path_49401" data-name="Path 49401" d="M325.49,393.49l.231,7.94h6.653l-.231-7.94Z" transform="translate(-306.106 -184.015)" fill="#ce6f64"/>
      <path id="Path_49402" data-name="Path 49402" d="M364.283,393.49H357.63l1.109,7.94h6.644Z" transform="translate(-309.735 -184.015)" fill="#ce6f64"/>
      <path id="Path_49403" data-name="Path 49403" d="M334.826,168.86c.452,6.582.781,9.359-2.076,13.147-4.3,5.686-12.481,4.808-14.894-1.508-2.173-5.686-2.546-15.489,3.5-18.931a9,9,0,0,1,13.466,7.292Z" transform="translate(-305.081 -157.696)" fill="#e4897b"/>
      <path id="Path_49404" data-name="Path 49404" d="M338.447,174.631c3.69,2.058,6.431-3.016,6.431-3.016s-6.618.719-6.023-3.22c.781-5.225-2.963-11.577-12.348-10.761-.523.044-1.02.106-1.508.186a4.826,4.826,0,0,0-5.837,1.348c-2.661.222-6.254,3.4-3.815,7.594a3.858,3.858,0,0,1,.781-1.3c.2,2.457,2.351,6.361,5.03,6.618.577,3.362-1.659,7.256-.887,10.769,1.144,5.065,9.687,6.21,9.687,6.21a3.7,3.7,0,0,1,.5-3.912c5.8,2.661,9.625.062,9.625.062-3.956-1.473-2.759-4.1-2.759-4.1a5.775,5.775,0,0,0,7.531-2.741,6.813,6.813,0,0,1-6.4-3.735Z" transform="translate(-304.869 -157.355)" fill="#263238"/>
      <path id="Path_49405" data-name="Path 49405" d="M324.04,174.8a4.79,4.79,0,0,1-1.331,3.433c-1.171,1.215-2.608.364-3-1.189-.346-1.4-.151-3.717,1.375-4.356a2.165,2.165,0,0,1,2.954,2.111Z" transform="translate(-305.437 -159.07)" fill="#e4897b"/>
      <path id="Path_49406" data-name="Path 49406" d="M330.84,243.894s1.685,43.787,5.7,69.5c3.229,20.776,17.573,69.318,17.573,69.318h9.066s-7.478-46.883-9.119-67.42c-4.152-51.975,6.627-63.135-3.548-73.957Z" transform="translate(-306.71 -166.836)" fill="#263238"/>
      <path id="Path_49407" data-name="Path 49407" d="M338.554,259.828s-4.1-.71-6.494,7.1c.887,14.788,2.4,34.411,4.613,48.551.488,3.149,1.233,6.946,2.147,11.106C337.09,301.6,338.554,259.828,338.554,259.828Z" transform="translate(-306.848 -168.923)" fill="#161f33"/>
      <path id="Path_49408" data-name="Path 49408" d="M321.972,244.936s-7.469,48.444-7.035,68.715c.452,21.086,8.179,69.194,8.179,69.194H332.1s-1.419-46.857-.63-67.562c.887-22.577,10.1-72.893,10.1-72.893Z" transform="translate(-304.913 -166.956)" fill="#263238"/>
      <path id="Path_49409" data-name="Path 49409" d="M367.116,400.665H355.06l-.94-4.045,12.907.089Z" transform="translate(-309.338 -184.369)" fill="#7a69d4"/>
      <path id="Path_49410" data-name="Path 49410" d="M367.116,400.665H355.06l-.94-4.045,12.907.089Z" transform="translate(-309.338 -184.369)" opacity="0.2"/>
      <path id="Path_49411" data-name="Path 49411" d="M351.676,195.548c3.469.337,8.738,10.193,8.738,10.193l-8.756,6.715s-7.248-6.361-6.387-9.936C346.167,198.8,348.349,195.237,351.676,195.548Z" transform="translate(-308.331 -161.665)" fill="#7a69d4"/>
      <path id="Path_49412" data-name="Path 49412" d="M351.676,195.548c3.469.337,8.738,10.193,8.738,10.193l-8.756,6.715s-7.248-6.361-6.387-9.936C346.167,198.8,348.349,195.237,351.676,195.548Z" transform="translate(-308.331 -161.665)" opacity="0.1"/>
      <path id="Path_49413" data-name="Path 49413" d="M349.058,200.291a8.986,8.986,0,0,0-2.715-.3,15,15,0,0,0-1.073,3.034c-.887,3.548,6.387,9.935,6.387,9.935l.648-.5Z" transform="translate(-308.331 -162.168)" fill="#7a69d4"/>
      <path id="Path_49414" data-name="Path 49414" d="M349.058,200.291a8.986,8.986,0,0,0-2.715-.3,15,15,0,0,0-1.073,3.034c-.887,3.548,6.387,9.935,6.387,9.935l.648-.5Z" transform="translate(-308.331 -162.168)" opacity="0.3"/>
      <path id="Path_49415" data-name="Path 49415" d="M317.727,210.661c-2.528,6.4-5.189,12.9-7.31,19.312-.142.408-.257.8-.381,1.2l-.3.985a1.623,1.623,0,0,0,0,.887,6.671,6.671,0,0,0,2.3,2.75,37.427,37.427,0,0,0,8.6,4.6l-.8,3.265a30.774,30.774,0,0,1-10.716-3.5,11.47,11.47,0,0,1-4.781-4.844,7.425,7.425,0,0,1-.612-4.223,4.938,4.938,0,0,1,.089-.523l.089-.373.151-.674c.106-.452.213-.887.328-1.331.887-3.548,2.023-6.919,3.22-10.264s2.448-6.644,3.859-9.936Z" transform="translate(-303.639 -163.073)" fill="#e4897b"/>
      <path id="Path_49416" data-name="Path 49416" d="M313.4,200.252s-3,1.517,8.357,39.369l26.773-3.5c-1.881-10.84-2.768-17.556-.488-40.6a80.725,80.725,0,0,0-11.532,0,84.718,84.718,0,0,0-12.162,1.6C319.215,198.265,313.4,200.252,313.4,200.252Z" transform="translate(-304.701 -161.641)" fill="#7a69d4"/>
      <path id="Path_49417" data-name="Path 49417" d="M313.4,200.252s-3,1.517,8.357,39.369l26.773-3.5c-1.881-10.84-2.768-17.556-.488-40.6a80.725,80.725,0,0,0-11.532,0,84.718,84.718,0,0,0-12.162,1.6C319.215,198.265,313.4,200.252,313.4,200.252Z" transform="translate(-304.701 -161.641)" opacity="0.1"/>
      <path id="Path_49418" data-name="Path 49418" d="M349.709,239.469l1.535,2.227c.115.177-.08.39-.381.435L322.786,245.8c-.24,0-.461-.062-.5-.213l-.55-2.369c-.044-.16.151-.328.417-.364l27.11-3.548a.488.488,0,0,1,.444.16Z" transform="translate(-305.682 -166.607)" fill="#7a69d4"/>
      <path id="Path_49419" data-name="Path 49419" d="M349.709,239.469l1.535,2.227c.115.177-.08.39-.381.435L322.786,245.8c-.24,0-.461-.062-.5-.213l-.55-2.369c-.044-.16.151-.328.417-.364l27.11-3.548a.488.488,0,0,1,.444.16Z" transform="translate(-305.682 -166.607)" opacity="0.2"/>
      <path id="Path_49420" data-name="Path 49420" d="M349.476,242.995l.727-.1c.142,0,.24-.106.222-.2l-.745-3.069a.257.257,0,0,0-.3-.124l-.727.089c-.151,0-.248.106-.222.2l.745,3.06C349.192,242.959,349.334,243.013,349.476,242.995Z" transform="translate(-308.696 -166.629)" fill="#263238"/>
      <path id="Path_49421" data-name="Path 49421" d="M329.636,245.554l.727-.1c.142,0,.248-.106.222-.2l-.745-3.069a.275.275,0,0,0-.3-.133l-.727.1c-.142,0-.248.106-.222.2l.745,3.069C329.352,245.554,329.494,245.607,329.636,245.554Z" transform="translate(-306.456 -166.918)" fill="#263238"/>
      <path id="Path_49422" data-name="Path 49422" d="M314.86,215.275c.736,3.424,1.774,7.762,3.291,13.253l.328-13.919Z" transform="translate(-304.906 -163.819)" fill="#7a69d4"/>
      <path id="Path_49423" data-name="Path 49423" d="M314.86,215.275c.736,3.424,1.774,7.762,3.291,13.253l.328-13.919Z" transform="translate(-304.906 -163.819)" opacity="0.3"/>
      <path id="Path_49424" data-name="Path 49424" d="M312.66,200.77c-3.327,1.34-6.21,12.721-6.21,12.721l11.444,5.571s5.527-13.919,3.052-16.633S316.492,199.235,312.66,200.77Z" transform="translate(-303.957 -162.159)" fill="#7a69d4"/>
      <path id="Path_49425" data-name="Path 49425" d="M312.66,200.77c-3.327,1.34-6.21,12.721-6.21,12.721l11.444,5.571s5.527-13.919,3.052-16.633S316.492,199.235,312.66,200.77Z" transform="translate(-303.957 -162.159)" opacity="0.1"/>
      <path id="Path_49426" data-name="Path 49426" d="M334.366,400.665H322.31l-.94-4.045,13.422.089Z" transform="translate(-305.641 -184.369)" fill="#7a69d4"/>
      <path id="Path_49427" data-name="Path 49427" d="M334.366,400.665H322.31l-.94-4.045,13.422.089Z" transform="translate(-305.641 -184.369)" opacity="0.2"/>
      <path id="Path_49428" data-name="Path 49428" d="M322.622,243.216l-.967-.4a1.455,1.455,0,0,0-1.987,1.561l.7,4.622a1.579,1.579,0,0,0,2.093,1.26,3.549,3.549,0,0,0,.976-.541,2.661,2.661,0,0,0,.958-2.2l-.1-1.916a2.661,2.661,0,0,0-1.677-2.386Z" transform="translate(-305.447 -166.992)" fill="#e4897b"/>
    </g>
  </g>
</svg>
