<svg xmlns="http://www.w3.org/2000/svg" width="22.506" height="24" viewBox="0 0 22.506 24">
  <g id="setup-ico" transform="translate(-21.618 -22.55)">
    <g id="Group_67867" data-name="Group 67867" transform="translate(21.618 22.55)">
      <path id="Path_46730" data-name="Path 46730" d="M64.145,39.067l1.221-2.115-1.584-.915a5.259,5.259,0,0,0,0-2.974l1.584-.914-1.221-2.115-1.586.916a5.224,5.224,0,0,0-2.575-1.488v-1.83H57.542v1.83a5.227,5.227,0,0,0-2.575,1.488l-1.585-.916L52.16,32.148l1.571.96a3.022,3.022,0,0,1,3.2-.818,2.9,2.9,0,1,1,1.1,5.073,3,3,0,0,1-2.645.774l-.214.222a5.222,5.222,0,0,0,2.366,1.279v1.83h2.441v-1.83a5.224,5.224,0,0,0,2.575-1.488ZM56.6,32.942a2.31,2.31,0,0,0-2.774,3.091L49.565,40.46A.928.928,0,0,0,50.9,41.747l4.266-4.428a2.31,2.31,0,0,0,2.985-2.887c-.389.878-1.831,2-2.653,1.206S55.742,33.363,56.6,32.942ZM58.762,22.55c-4.295,4.53-5.136,5.157-11.252,6.643a32.278,32.278,0,0,0,3.246,8.98l1.063-1.1a29.613,29.613,0,0,1-2.57-6.8c4.735-1.192,6.165-2.1,9.514-5.6,3.355,3.5,4.772,4.408,9.514,5.6-1.354,5.546-4.511,11.544-9.512,14.595a18.067,18.067,0,0,1-5.143-4.888l-1.029,1.067a19.326,19.326,0,0,0,6.168,5.509c6.463-3.692,9.714-10.314,11.255-17.357C63.889,27.7,63.067,27.081,58.762,22.55Z" transform="translate(-47.51 -22.55)" fill="#263238" fill-rule="evenodd"/>
    </g>
  </g>
</svg>
