<svg xmlns="http://www.w3.org/2000/svg" width="66.147" height="70.44" viewBox="0 0 66.147 70.44">
  <g id="signin-ico" transform="translate(-153 -1291)">
    <path id="blob" d="M-9.291-54.609c5.223,11.6,5.8,23.19.94,31.7C-13.261-14.392-23.6-9.064-34.779-8.594s-23.086-4.022-30.032-13.684c-6.894-9.663-8.722-24.5-2.768-36.561C-61.626-70.853-47.785-80.1-36.033-78.9-24.229-77.747-14.462-66.2-9.291-54.609Z" transform="translate(224.167 1370.001)" fill="#7a69d4"/>
    <g id="noun_sign_in_2386984" data-name="noun_sign in_2386984" transform="translate(166.1 1311.029)">
      <g id="Group_67866" data-name="Group 67866" transform="translate(0.9 0.971)">
        <path id="Path_46721" data-name="Path 46721" d="M1.058,52.122a.463.463,0,0,0,.106.132.8.8,0,0,0,.554.211.335.335,0,0,0,.158-.026.375.375,0,0,0,.158-.053.577.577,0,0,0,.132-.079A.463.463,0,0,0,2.3,52.2a.694.694,0,0,0,.211-.528.335.335,0,0,0-.026-.158.375.375,0,0,0-.053-.158c-.026-.053-.053-.079-.079-.132a.463.463,0,0,0-.106-.132l-.106-.106c-.053-.026-.079-.053-.132-.079s-.106-.026-.158-.053a.783.783,0,0,0-.713.211.576.576,0,0,0-.106.132c-.026.053-.053.079-.079.132s-.026.106-.053.158a.515.515,0,0,1,.026.185.335.335,0,0,0,.026.158.375.375,0,0,0,.053.158A.446.446,0,0,0,1.058,52.122Z" transform="translate(-0.9 -37.678)" fill="#fff"/>
        <path id="Path_46722" data-name="Path 46722" d="M16,41.477a.778.778,0,0,0,.792.792H24.92l-2.613,2.613a.765.765,0,0,0,0,1.108.765.765,0,0,0,1.108,0l3.959-3.959a.819.819,0,0,0,.238-.581.743.743,0,0,0-.264-.554L23.39,37.2a.784.784,0,0,0-1.082,1.135l2.481,2.322h-8A.817.817,0,0,0,16,41.477Z" transform="translate(-12.015 -27.482)" fill="#fff"/>
        <path id="Path_46723" data-name="Path 46723" d="M31.792,81a.778.778,0,0,0-.792.792V87.07a.778.778,0,0,0,.792.792H37.07a.792.792,0,0,0,0-1.583H32.583V81.792A.778.778,0,0,0,31.792,81Z" transform="translate(-23.056 -59.879)" fill="#fff"/>
        <path id="Path_46724" data-name="Path 46724" d="M32.583,7.07V2.583h12.4a.778.778,0,0,0,.792-.792A.778.778,0,0,0,44.987,1h-13.2A.778.778,0,0,0,31,1.792V7.07a.792.792,0,0,0,1.583,0Z" transform="translate(-23.056 -0.992)" fill="#fff"/>
        <path id="Path_46725" data-name="Path 46725" d="M82.771,1.084a.791.791,0,0,0-.765-.026L71.449,6.336A.8.8,0,0,0,71,7.049V33.44a.829.829,0,0,0,.369.686.774.774,0,0,0,.422.106.731.731,0,0,0,.343-.079l10.557-5.278a.8.8,0,0,0,.449-.713V1.771A.829.829,0,0,0,82.771,1.084Z" transform="translate(-52.5 -0.971)" fill="#fff"/>
      </g>
    </g>
  </g>
</svg>
