<svg xmlns="http://www.w3.org/2000/svg" width="66.147" height="70.44" viewBox="0 0 66.147 70.44">
  <g id="signup-ico" transform="translate(-155 -1011)">
    <path id="blob" d="M-9.291-54.609c5.223,11.6,5.8,23.19.94,31.7C-13.261-14.392-23.6-9.064-34.779-8.594s-23.086-4.022-30.032-13.684c-6.894-9.663-8.722-24.5-2.768-36.561C-61.626-70.853-47.785-80.1-36.033-78.9-24.229-77.747-14.462-66.2-9.291-54.609Z" transform="translate(226.167 1090.001)" fill="#7a69d4"/>
    <g id="noun_Sign_Up_3321614" data-name="noun_Sign Up_3321614" transform="translate(165 1024)">
      <ellipse id="Ellipse_1174" data-name="Ellipse 1174" cx="8.038" cy="8.36" rx="8.038" ry="8.36" transform="translate(11.788 6)" fill="#fff"/>
      <path id="Path_46726" data-name="Path 46726" d="M32.793,38.935a4.62,4.62,0,0,1-1.728-8.9.931.931,0,0,0,.314-1.506A8.241,8.241,0,0,0,25.4,26H14.315A8.315,8.315,0,0,0,6,34.315v5.543a.924.924,0,0,0,.924.924H32.793a.924.924,0,1,0,0-1.848Z" transform="translate(0 -1.522)" fill="#fff"/>
      <path id="Path_46727" data-name="Path 46727" d="M34.468,40.935a6.467,6.467,0,0,1-2.421-12.464A6.181,6.181,0,0,1,34.468,28a6.467,6.467,0,1,1,0,12.935Zm0-11.087a4.416,4.416,0,0,0-1.718.333,4.62,4.62,0,1,0,1.718-.333Z" transform="translate(-1.674 -1.674)" fill="#fff"/>
      <path id="Path_46728" data-name="Path 46728" d="M34.924,38.391A.924.924,0,0,1,34,37.467V31.924a.924.924,0,1,1,1.848,0v5.543A.924.924,0,0,1,34.924,38.391Z" transform="translate(-2.131 -1.902)" fill="#fff"/>
      <path id="Path_46729" data-name="Path 46729" d="M37.467,35.848H31.924a.924.924,0,1,1,0-1.848h5.543a.924.924,0,0,1,0,1.848Z" transform="translate(-1.902 -2.131)" fill="#fff"/>
    </g>
  </g>
</svg>
