<svg xmlns="http://www.w3.org/2000/svg" width="97.6" height="51.296" viewBox="0 0 97.6 51.296">
  <g id="tutorial-ico" transform="translate(-12 -30.05)">
    <path id="Path_10" data-name="Path 10" d="M105.859,45.753,58.93,30.05,12,45.753,58.93,61.469Zm-52.772,0A5.842,5.842,0,1,1,58.93,51.6a5.842,5.842,0,0,1-5.842-5.842Z" fill="#1da1f2"/>
    <path id="Path_11" data-name="Path 11" d="M24.18,48.86V71.8A117.844,117.844,0,0,0,55.471,76a117.817,117.817,0,0,0,31.278-4.134v-23L55.471,59.312Z" transform="translate(3.459 5.342)" fill="#1da1f2"/>
    <path id="Path_12" data-name="Path 12" d="M86.735,60.494V45.51l-3.043,1.027V60.494a6.625,6.625,0,0,0-3.518,6.343c0,3.724,2.221,6.638,5.033,6.638s5.02-2.94,5.02-6.638a6.651,6.651,0,0,0-3.492-6.343Z" transform="translate(19.355 4.39)" fill="#1da1f2"/>
  </g>
</svg>
