<?xml version="1.0" standalone="no"?>
<!DOCTYPE svg PUBLIC "-//W3C//DTD SVG 1.0//EN" "http://www.w3.org/TR/2001/REC-SVG-20010904/DTD/svg10.dtd">
<svg xmlns="http://www.w3.org/2000/svg" xmlns:xlink="http://www.w3.org/1999/xlink" id="body_1" width="40" height="40">

<g transform="matrix(0.952381 0 0 0.952381 0 0)">
	<g transform="matrix(0.07031237 0 0 0.07031237 8.803371 4.781241)">
	</g>
    <path transform="matrix(0.07031237 0 0 0.07031237 8.803371 4.781241)"  d="M173.1445 188.832C 225.2891 188.832 267.5625 146.5586 267.5625 94.41406C 267.5625 42.26953 225.2891 0 173.1445 0C 121 0 78.73047 42.27344 78.73047 94.41797C 78.78906 146.5352 121.0273 188.7734 173.1445 188.832zM173.1445 20C 214.2461 20 247.5625 53.31641 247.5625 94.41797C 247.5625 135.5156 214.2461 168.832 173.1445 168.832C 132.0469 168.832 98.73047 135.5156 98.73047 94.41797C 98.77734 53.33594 132.0664 20.04688 173.1445 20z" stroke="none" fill="#7A69D4" fill-rule="nonzero" />
	<g transform="matrix(0.07031237 0 0 0.07031237 8.803371 4.781241)">
	</g>
    <path transform="matrix(0.07031237 0 0 0.07031237 8.803371 4.781241)"  d="M175.6094 222.0898C 78.60547 222.0508 -0.0390625 300.6992 0 397.6992L0 397.6992L0 438C 0 443.5234 4.476562 448 10 448L10 448L341.2188 448C 346.7422 448 351.2188 443.5234 351.2188 438L351.2188 438L351.2188 397.6992C 351.2617 300.6992 272.6133 222.0508 175.6094 222.0898zM331.2188 428L20 428L20 397.6992C 19.85938 342.0117 49.48828 290.4961 97.69141 262.6094C 145.8945 234.7266 205.3242 234.7266 253.5313 262.6094C 301.7344 290.4961 331.3633 342.0117 331.2188 397.6992z" stroke="none" fill="#7A69D4" fill-rule="nonzero" />
</g>
</svg>