<svg xmlns="http://www.w3.org/2000/svg" width="145.57" height="139.487" viewBox="0 0 145.57 139.487">
  <g id="Work_time-pana_1_" data-name="Work time-pana (1)" transform="translate(-38.379 -40.668)">
    <g id="freepik--background-complete--inject-44" transform="translate(41.396 40.668)">
      <rect id="Rectangle_3025" data-name="Rectangle 3025" width="2.531" height="18.952" transform="translate(16.508 125.346) rotate(-90)" fill="#e0e0e0"/>
      <path id="Path_47671" data-name="Path 47671" d="M103.821,405.8a6.034,6.034,0,0,1,0,2.373,3.074,3.074,0,0,1-.121-1.185A3.023,3.023,0,0,1,103.821,405.8Z" transform="translate(-84.727 -282.885)" fill="#fafafa"/>
      <path id="Path_47672" data-name="Path 47672" d="M102.6,405.65a6.034,6.034,0,0,1,0,2.373,6.034,6.034,0,0,1,0-2.373Z" transform="translate(-83.918 -282.785)" fill="#fafafa"/>
      <path id="Path_47673" data-name="Path 47673" d="M148.1,405.8a5.87,5.87,0,0,1,0,2.373,3.036,3.036,0,0,1-.118-1.185A3.138,3.138,0,0,1,148.1,405.8Z" transform="translate(-114.101 -282.885)" fill="#fafafa"/>
      <path id="Path_47674" data-name="Path 47674" d="M146.871,405.65a6.034,6.034,0,0,1,0,2.373,3.084,3.084,0,0,1-.121-1.188A2.985,2.985,0,0,1,146.871,405.65Z" transform="translate(-113.285 -282.785)" fill="#fafafa"/>
      <path id="Path_47675" data-name="Path 47675" d="M120.645,409.248c0,.067-2.171.118-4.848.118s-4.848-.051-4.848-.118,2.171-.118,4.848-.118S120.645,409.18,120.645,409.248Z" transform="translate(-89.537 -285.094)" fill="#fafafa"/>
      <rect id="Rectangle_3026" data-name="Rectangle 3026" width="5.063" height="18.952" transform="translate(16.428 139.276) rotate(-90)" fill="#e0e0e0"/>
      <path id="Path_47676" data-name="Path 47676" d="M115.421,443.841a.6.6,0,0,1-.1.057c-.071.034-.175.084-.316.145a5.446,5.446,0,0,1-1.286.367,3.339,3.339,0,0,1-2.084-.3,2.74,2.74,0,0,1-.99-.9,2.09,2.09,0,0,1-.337-1.458,1.538,1.538,0,0,1,.337-.754.983.983,0,0,1,.8-.364,1.145,1.145,0,0,1,.8.431,1.579,1.579,0,0,1,.367.865,2.3,2.3,0,0,1-.653,1.794,2.9,2.9,0,0,1-1.821.892,4.9,4.9,0,0,1-2.114-.263,3.912,3.912,0,0,1-1.848-1.242,2.02,2.02,0,0,1-.431-1.094,1.424,1.424,0,0,1,.4-1.138.936.936,0,0,1,.592-.259,1.08,1.08,0,0,1,.619.175,1.626,1.626,0,0,1,.7,1.01,2.383,2.383,0,0,1-.747,2.232,3.723,3.723,0,0,1-2.134.868,5.255,5.255,0,0,1-2.212-.219,3.057,3.057,0,0,1-1.683-1.31,2.235,2.235,0,0,1-.209-2.02,1.047,1.047,0,0,1,.771-.653,1.225,1.225,0,0,1,.956.229,1.582,1.582,0,0,1,.451,1.707A2.956,2.956,0,0,1,102.3,444a4.275,4.275,0,0,1-2.6,1.01,4.151,4.151,0,0,1-3.131-1.262,3.237,3.237,0,0,1-.229-.263.673.673,0,0,1-.067-.1,4.848,4.848,0,0,0,1.41,1.074,4.124,4.124,0,0,0,2.02.417,4.188,4.188,0,0,0,2.5-1.01,2.8,2.8,0,0,0,.889-1.272,1.394,1.394,0,0,0-.394-1.495,1.033,1.033,0,0,0-.8-.189.838.838,0,0,0-.619.539,2.02,2.02,0,0,0,.205,1.814,2.838,2.838,0,0,0,1.569,1.205,5.049,5.049,0,0,0,2.114.2,3.525,3.525,0,0,0,2-.811,2.158,2.158,0,0,0,.673-2.02,1.4,1.4,0,0,0-.589-.872.724.724,0,0,0-.926.054,1.185,1.185,0,0,0-.337.949,1.8,1.8,0,0,0,.38.97,3.7,3.7,0,0,0,1.734,1.168,4.713,4.713,0,0,0,2.02.259,2.693,2.693,0,0,0,1.683-.815,2.1,2.1,0,0,0,.609-1.633,1.205,1.205,0,0,0-.983-1.134.818.818,0,0,0-.656.3,1.373,1.373,0,0,0-.313.673,1.915,1.915,0,0,0,.306,1.347,2.629,2.629,0,0,0,.926.865,3.279,3.279,0,0,0,2.02.32,6.06,6.06,0,0,0,1.279-.32C115.273,443.895,115.418,443.831,115.421,443.841Z" transform="translate(-79.799 -305.989)" fill="#fafafa"/>
      <rect id="Rectangle_3027" data-name="Rectangle 3027" width="8.786" height="17.259" transform="translate(18.121 134.203) rotate(-90)" fill="#ebebeb"/>
      <path id="Path_47677" data-name="Path 47677" d="M109.451,414.13a76.766,76.766,0,0,1,0,8.5,38.223,38.223,0,0,1-.121-4.252A37.265,37.265,0,0,1,109.451,414.13Z" transform="translate(-88.462 -288.411)" fill="#e0e0e0"/>
      <path id="Path_47678" data-name="Path 47678" d="M113.341,413.8a74.836,74.836,0,0,1,0,8.4,37.271,37.271,0,0,1-.121-4.2A36.338,36.338,0,0,1,113.341,413.8Z" transform="translate(-91.043 -288.192)" fill="#e0e0e0"/>
      <path id="Path_47679" data-name="Path 47679" d="M146.411,413a83.023,83.023,0,0,1,0,8.843,41.329,41.329,0,0,1-.121-4.42A40.387,40.387,0,0,1,146.411,413Z" transform="translate(-112.98 -287.661)" fill="#e0e0e0"/>
      <path id="Path_47680" data-name="Path 47680" d="M141.841,413.32a78.722,78.722,0,0,1,0,8.611,39.187,39.187,0,0,1-.121-4.306A38.205,38.205,0,0,1,141.841,413.32Z" transform="translate(-109.949 -287.873)" fill="#e0e0e0"/>
      <path id="Path_47681" data-name="Path 47681" d="M413.85,354.522a9.481,9.481,0,0,1,5.884-.717,4.885,4.885,0,0,1,2.905,1.3,2.089,2.089,0,0,1,.03,2.9,2.77,2.77,0,0,1-1.835.465c-1.555-.017-3.279-.289-4.521.646-.71.532-1.182,1.421-2.02,1.683a1.986,1.986,0,0,1-2.2-.98,3.42,3.42,0,0,1-.249-2.528A3.855,3.855,0,0,1,413.85,354.522Z" transform="translate(-289.05 -248.283)" fill="#ebebeb"/>
      <path id="Path_47682" data-name="Path 47682" d="M403.853,300.8c1.094,1.562,3.222,1.044,4.208.091a7.912,7.912,0,0,0,1.781-3.656c.868-3.009,1.74-6.17,1.1-9.237a5.1,5.1,0,0,0-1.182-2.511,2.693,2.693,0,0,0-2.542-.848A3.967,3.967,0,0,0,405,286.969a22.056,22.056,0,0,0-2.178,9.453,7.691,7.691,0,0,0,1.033,4.376" transform="translate(-283.154 -202.473)" fill="#ebebeb"/>
      <path id="Path_47683" data-name="Path 47683" d="M372.168,312.936a5.685,5.685,0,0,0,.885-5.231,10.093,10.093,0,0,0-3.1-4.5,16.686,16.686,0,0,0-5.551-3.275,5.948,5.948,0,0,0-2.494-.424,2.616,2.616,0,0,0-2.094,1.269c-.586,1.114-.024,2.464.582,3.568a42.559,42.559,0,0,0,3.642,5.548,9.947,9.947,0,0,0,4.009,3.437c1.653.636,3.4.559,4.279-.6" transform="translate(-254.461 -212.37)" fill="#ebebeb"/>
      <path id="Path_47684" data-name="Path 47684" d="M405.633,374.438a3.515,3.515,0,0,0,.1-.71c.05-.515.111-1.165.188-1.936a28.337,28.337,0,0,1,.434-2.845,21.836,21.836,0,0,1,1.033-3.366,12.456,12.456,0,0,1,1.714-3.03,6.4,6.4,0,0,1,2.165-1.8,6.217,6.217,0,0,1,1.825-.569,3.222,3.222,0,0,0,.707-.1,3.294,3.294,0,0,0-.72,0,5.531,5.531,0,0,0-1.9.495,6.4,6.4,0,0,0-2.282,1.814,12.089,12.089,0,0,0-1.777,3.1,20.493,20.493,0,0,0-1.01,3.41,24.6,24.6,0,0,0-.38,2.878c-.061.821-.084,1.488-.094,1.949A3.393,3.393,0,0,0,405.633,374.438Z" transform="translate(-285.007 -252.543)" fill="#e0e0e0"/>
      <path id="Path_47685" data-name="Path 47685" d="M405.772,335.187a1.406,1.406,0,0,0,.02-.337v-.943c0-.815,0-2,.04-3.461.074-2.922.337-6.059.811-10.5.461-4.168,1.077-9.022,1.73-12.176.138-.717.279-1.363.414-1.929s.232-1.054.337-1.448.162-.673.219-.916a1.892,1.892,0,0,0,.061-.337,1.276,1.276,0,0,0-.114.31c-.074.236-.165.535-.276.9s-.246.875-.387,1.441-.3,1.208-.454,1.926a106.711,106.711,0,0,0-1.821,11.3c-.485,4.444-.7,8.49-.724,11.419-.017,1.464,0,2.649.051,3.467.024.384.044.7.057.943A1.392,1.392,0,0,0,405.772,335.187Z" transform="translate(-285.012 -214.783)" fill="#e0e0e0"/>
      <path id="Path_47686" data-name="Path 47686" d="M385.57,332.121a6.273,6.273,0,0,0,0-.983c-.037-.633-.125-1.548-.3-2.666a35.093,35.093,0,0,0-.865-3.885,32.1,32.1,0,0,0-1.626-4.6,24.467,24.467,0,0,0-4.77-7.429,12.762,12.762,0,0,0-1.124-1.044c-.172-.145-.337-.289-.478-.4l-.434-.3a5.965,5.965,0,0,0-.831-.532,28.98,28.98,0,0,1,2.717,2.424,25.786,25.786,0,0,1,4.652,7.406,36.072,36.072,0,0,1,1.626,4.551c.428,1.427.71,2.74.926,3.844s.32,2.02.391,2.643A6.084,6.084,0,0,0,385.57,332.121Z" transform="translate(-264.789 -219.52)" fill="#e0e0e0"/>
      <path id="Path_47687" data-name="Path 47687" d="M382.17,412.53l.784,10.712h13.758l.784-10.712Z" transform="translate(-269.455 -287.349)" fill="#ebebeb"/>
      <rect id="Rectangle_3028" data-name="Rectangle 3028" width="18.296" height="4.221" transform="translate(111.385 120.959)" fill="#ebebeb"/>
      <path id="Path_47688" data-name="Path 47688" d="M378.22,443.13V444.3h18V443.13Z" transform="translate(-266.835 -307.648)" fill="#e0e0e0"/>
      <path id="Path_47689" data-name="Path 47689" d="M381.622,448.287l-.842-2.057h16.478l-.983,2.057Z" transform="translate(-268.533 -309.705)" fill="#e0e0e0"/>
      <path id="Path_47690" data-name="Path 47690" d="M397.719,420a.443.443,0,0,1-.064.1c-.057.074-.125.162-.205.273l-.8,1.027-.034.047-.034-.05c-.5-.7-1.178-1.626-1.969-2.723h.1l-1.939,2.747-.061.084-.067-.081-2.289-2.744h.131l-.125.158-2.047,2.585-.071.088-.061-.091c-.7-.986-1.347-1.912-1.942-2.744h.114l-2.39,2.723-.04.047-.034-.054-.747-1.256c-.081-.138-.141-.249-.192-.337a.066.066,0,1,1,.02-.013l.212.337.784,1.235h-.074l2.356-2.757.057-.067.054.074,1.959,2.733h-.135l2.053-2.582.125-.162.067-.081.067.081,2.292,2.74h-.128l1.959-2.733.057-.081.054.081,1.929,2.754h-.071c.353-.424.629-.757.835-1.01l.222-.259C397.688,420.028,397.715,420,397.719,420Z" transform="translate(-269.933 -291.323)" fill="#f5f5f5"/>
      <path id="Path_47691" data-name="Path 47691" d="M397.914,412.154c0,.047-3.451.084-7.7.084s-7.7-.037-7.7-.084,3.447-.084,7.7-.084S397.914,412.107,397.914,412.154Z" transform="translate(-269.681 -287.044)" fill="#f5f5f5"/>
      <path id="Path_47692" data-name="Path 47692" d="M138.141,67.865a.214.214,0,0,1-.081-.024l-.222-.088-.848-.353-3.114-1.347L123.642,61.6l-.357-.158h.074l-10.028,4.306-3.03,1.272-.828.337a1.767,1.767,0,0,1-.293.1,1.979,1.979,0,0,1,.279-.138l.815-.37,3.03-1.33,10-4.339h.074l.357.155,10.213,4.511,3.087,1.384.835.387.215.1A.286.286,0,0,1,138.141,67.865Z" transform="translate(-88.363 -54.341)" fill="#e0e0e0"/>
      <rect id="Rectangle_3029" data-name="Rectangle 3029" width="65.741" height="49.226" transform="translate(0 12.055)" fill="#e0e0e0"/>
      <rect id="Rectangle_3030" data-name="Rectangle 3030" width="61.392" height="44.914" transform="translate(2.299 14.345)" fill="#fafafa"/>
      <path id="Path_47693" data-name="Path 47693" d="M94.45,141.57s.064,7.537.448,9.84l9.456-.448s-.828-7.406-.508-9.392Z" transform="translate(-78.591 -107.603)" fill="#e0e0e0"/>
      <path id="Path_47694" data-name="Path 47694" d="M104.149,144.7h.138a2.238,2.238,0,0,1,.394.02,2.208,2.208,0,0,1,.6.178,1.989,1.989,0,0,1,.653.518,2.225,2.225,0,0,1,.454.909,2.195,2.195,0,0,1-.1,1.168,3.5,3.5,0,0,1-.266.586,5.384,5.384,0,0,0-.3.589,5.157,5.157,0,0,0-.384,1.347v.03h-1.979v-.034a2.8,2.8,0,0,0-.454-1.293c-.114-.2-.239-.374-.337-.559a5.722,5.722,0,0,1-.337-.542,1.835,1.835,0,0,1-.148-1.151,2.434,2.434,0,0,1,.367-.943,1.848,1.848,0,0,1,.613-.555,2.535,2.535,0,0,1,.969-.286h0a2.592,2.592,0,0,0-.38.074,2.33,2.33,0,0,0-.569.232,1.777,1.777,0,0,0-.6.549,2.444,2.444,0,0,0-.337.926,1.764,1.764,0,0,0,.148,1.114,6.228,6.228,0,0,0,.337.535c.118.178.242.364.357.559a2.814,2.814,0,0,1,.468,1.326l-.037-.037h1.915l-.037.034a5.2,5.2,0,0,1,.39-1.363,6.2,6.2,0,0,1,.31-.6,3.5,3.5,0,0,0,.263-.572,2.148,2.148,0,0,0,.1-1.134,2.255,2.255,0,0,0-.434-.892,1.969,1.969,0,0,0-.636-.515,2.124,2.124,0,0,0-.589-.185,2.98,2.98,0,0,0-.387-.034h-.1C104.163,144.7,104.149,144.7,104.149,144.7Z" transform="translate(-83.631 -109.666)" fill="#fff"/>
      <path id="Path_47695" data-name="Path 47695" d="M106.572,153.513a.223.223,0,0,1,0-.03V153.4c0-.077-.03-.192-.05-.337-.044-.3-.108-.72-.148-1.249,0-.131-.02-.269-.024-.414a4.068,4.068,0,0,1,0-.454,1.242,1.242,0,0,1,.1-.471.717.717,0,0,1,.364-.36.475.475,0,0,1,.515.1.337.337,0,0,1,.108.259.458.458,0,0,1-.094.269.639.639,0,0,1-.229.185,1.178,1.178,0,0,1-.279.091,3.585,3.585,0,0,1-1.2.04,1.068,1.068,0,0,1-.286-.081.737.737,0,0,1-.236-.168.545.545,0,0,1-.138-.256.421.421,0,0,1,.034-.279.37.37,0,0,1,.2-.192.337.337,0,0,1,.266,0,.5.5,0,0,1,.2.168.724.724,0,0,1,.1.236,3.067,3.067,0,0,1,.047.485l.047.865c.024.529.047.956.061,1.256v.454a.209.209,0,0,0,0-.03v-.088a2.578,2.578,0,0,0-.02-.337c0-.3-.044-.727-.074-1.256,0-.263-.03-.552-.047-.865a2.623,2.623,0,0,0-.05-.478.633.633,0,0,0-.094-.226.525.525,0,0,0-.192-.162.313.313,0,0,0-.246,0,.353.353,0,0,0-.185.178.411.411,0,0,0-.03.263.542.542,0,0,0,.131.239.862.862,0,0,0,.5.242,3.5,3.5,0,0,0,.6.027,3.435,3.435,0,0,0,.592-.067,1.084,1.084,0,0,0,.273-.091.623.623,0,0,0,.219-.175.444.444,0,0,0,.091-.252.337.337,0,0,0-.1-.239.458.458,0,0,0-.485-.094.673.673,0,0,0-.337.337,1.259,1.259,0,0,0-.1.465v.448a2.422,2.422,0,0,0,.024.417c.04.529.1.953.138,1.246.02.148.037.259.047.337v.088a.209.209,0,0,1-.013.047Z" transform="translate(-85.57 -113.228)" fill="#fff"/>
      <path id="Path_47696" data-name="Path 47696" d="M106,160.344a2.576,2.576,0,0,1,.027.313q0,.337.04.818v-.02l.64.744h-.034l.737-.04h-.03l.364-.444.185-.226v.03c0-.434-.02-.842-.027-1.212l.04.037H106a.464.464,0,0,1,.131,0l.387-.02,1.4-.054h.04v.04c0,.374.024.781.037,1.212v0h0c-.061.074-.121.151-.185.226l-.367.448h-.02l-.737.037h-.013l-.626-.744h0v-.842A2.623,2.623,0,0,1,106,160.344Z" transform="translate(-86.253 -120.008)" fill="#fff"/>
      <path id="Path_47697" data-name="Path 47697" d="M108.012,163.183a.141.141,0,0,1-.071-.03,1.969,1.969,0,0,0-.192-.074,1.832,1.832,0,0,0-.673-.1,1.868,1.868,0,0,0-.673.141l-.185.088-.067.034a.205.205,0,0,1,.061-.044,1.72,1.72,0,0,1,.185-.1,1.767,1.767,0,0,1,.673-.151,1.713,1.713,0,0,1,.673.111,1.347,1.347,0,0,1,.189.084Z" transform="translate(-86.353 -121.784)" fill="#fff"/>
      <path id="Path_47698" data-name="Path 47698" d="M108.008,162.308l-.067-.03-.192-.077a1.922,1.922,0,0,0-.673-.1,2.02,2.02,0,0,0-.673.141c-.081.034-.141.064-.185.088l-.067.034.061-.044a1.314,1.314,0,0,1,.185-.094,1.764,1.764,0,0,1,.673-.155,1.845,1.845,0,0,1,.673.111c.081.034.145.064.189.088A.529.529,0,0,1,108.008,162.308Z" transform="translate(-86.353 -121.201)" fill="#fff"/>
      <path id="Path_47699" data-name="Path 47699" d="M107.958,161.475l-.067-.027c-.047-.02-.111-.05-.192-.077a1.929,1.929,0,0,0-.673-.1,1.848,1.848,0,0,0-.673.141c-.081.034-.141.064-.185.088l-.067.034.061-.044a1.445,1.445,0,0,1,.185-.1,1.838,1.838,0,0,1,.673-.151,1.858,1.858,0,0,1,.673.111,1.5,1.5,0,0,1,.189.088A.219.219,0,0,1,107.958,161.475Z" transform="translate(-86.319 -120.651)" fill="#fff"/>
      <path id="Path_47700" data-name="Path 47700" d="M63.17,105s.064,7.541.448,9.84l9.456-.448s-.831-7.406-.512-9.392Z" transform="translate(-57.841 -83.344)" fill="#ebebeb"/>
      <path id="Path_47701" data-name="Path 47701" d="M74.329,114.34a27.464,27.464,0,0,1-3.168.283,25.993,25.993,0,0,1-3.181.1,28.39,28.39,0,0,1,3.168-.283,27.717,27.717,0,0,1,3.181-.1Z" transform="translate(-61.032 -89.533)" fill="#fff"/>
      <path id="Path_47702" data-name="Path 47702" d="M74.336,119.081a26.786,26.786,0,0,1-3.168.286,27.655,27.655,0,0,1-3.178.1,27.362,27.362,0,0,1,3.168-.283,27.266,27.266,0,0,1,3.178-.1Z" transform="translate(-61.039 -92.678)" fill="#fff"/>
      <path id="Path_47703" data-name="Path 47703" d="M74.945,123.669a9.008,9.008,0,0,1-1.8.2,8.944,8.944,0,0,1-1.811,0,8.995,8.995,0,0,1,1.8-.2A8.972,8.972,0,0,1,74.945,123.669Z" transform="translate(-63.254 -95.698)" fill="#fff"/>
      <path id="Path_47704" data-name="Path 47704" d="M61.84,170.85s.064,7.537.448,9.84l9.456-.448s-.831-7.406-.512-9.392Z" transform="translate(-56.959 -127.027)" fill="#ebebeb"/>
      <path id="Path_47705" data-name="Path 47705" d="M73.006,180.231a26.983,26.983,0,0,1-3.168.286,27.674,27.674,0,0,1-3.178.1,27.247,27.247,0,0,1,3.164-.283,27.313,27.313,0,0,1,3.181-.1Z" transform="translate(-60.156 -133.243)" fill="#fff"/>
      <path id="Path_47706" data-name="Path 47706" d="M73.006,184.98a27.26,27.26,0,0,1-3.168.283,27.656,27.656,0,0,1-3.178.1,27.359,27.359,0,0,1,3.168-.283,27.66,27.66,0,0,1,3.178-.1Z" transform="translate(-60.156 -136.394)" fill="#fff"/>
      <path id="Path_47707" data-name="Path 47707" d="M73.615,189.581a8.859,8.859,0,0,1-1.8.2A8.971,8.971,0,0,1,70,189.8a8.995,8.995,0,0,1,1.8-.2A8.813,8.813,0,0,1,73.615,189.581Z" transform="translate(-62.372 -139.425)" fill="#fff"/>
      <path id="Path_47708" data-name="Path 47708" d="M138.61,110.89l.936,21.746,27.146.327-1.219-21.787Z" transform="translate(-107.886 -87.251)" fill="#ebebeb"/>
      <rect id="Rectangle_3031" data-name="Rectangle 3031" width="26.968" height="20.363" transform="translate(30.408 23.484)" fill="#f5f5f5"/>
      <path id="Path_47709" data-name="Path 47709" d="M164.445,130.627v-1.464c0-.956,0-2.356-.02-4.12,0-3.551-.024-8.631-.04-14.778l.077.074H137.5l.094-.091V130.61l-.084-.084,19.451.04,5.534.024h1.488l-1.481.064-5.511.024-19.525.04h-.084V110.18h27.139v.077c0,6.164-.03,11.264-.04,14.812,0,1.767,0,3.151-.02,4.1v1.07C164.452,130.506,164.445,130.627,164.445,130.627Z" transform="translate(-107.07 -86.78)" fill="#e0e0e0"/>
      <rect id="Rectangle_3032" data-name="Rectangle 3032" width="10.93" height="13.758" transform="translate(33.663 27.796)" fill="#f5f5f5"/>
      <path id="Path_47710" data-name="Path 47710" d="M158.149,136.822a.226.226,0,0,1,0-.071v-.946c0-.673,0-1.619-.02-2.824,0-2.42-.027-5.847-.044-9.917l.084.084h-10.93c-.024,0,.175-.175.091-.091h0v13.751l-.074-.077,7.914.04,2.218.02h.8a1.32,1.32,0,0,1-.192,0h-.572l-2.2.02-7.961.04h-.077V123.07h0c-.084.081.111-.118.094-.094h11.015v.084c-.017,4.09-.034,7.537-.044,9.971l-.02,2.8v.922a.414.414,0,0,1-.074.064Z" transform="translate(-113.555 -95.267)" fill="#e0e0e0"/>
      <rect id="Rectangle_3033" data-name="Rectangle 3033" width="20.949" height="1.983" transform="translate(34.081 24.649)" fill="#f5f5f5"/>
      <path id="Path_47711" data-name="Path 47711" d="M169.383,115.574v-.522c0-.337,0-.831-.024-1.461l.037.037c-3.531.034-11.584.057-20.949.057h0c.185-.189.05-.054.094-.094h0v1.976l-.091-.094,14.849.04,4.457.027h1.532a.75.75,0,0,1,.111,0h-1.6l-4.437.03-14.916.037h-.091v-2.074h0l.094-.094h0c9.365,0,17.417.024,20.949.057h.04v.037c0,.636,0,1.134-.02,1.485v.374A.535.535,0,0,1,169.383,115.574Z" transform="translate(-114.353 -88.943)" fill="#e0e0e0"/>
      <rect id="Rectangle_3034" data-name="Rectangle 3034" width="9.099" height="8.291" transform="translate(45.93 27.796)" fill="#f5f5f5"/>
      <path id="Path_47712" data-name="Path 47712" d="M192.745,131.256v-.609c0-.4,0-.973-.02-1.683,0-1.461-.024-3.518-.04-5.992l.077.081h-9.089l.091-.091h0v8.288l-.084-.081,6.564.04,1.862.024h.5a1.038,1.038,0,0,1,.175,0,.862.862,0,0,1-.158,0h-.481l-1.841.02-6.618.04H183.6v-8.372h0c-.084.081.111-.114.094-.094h9.17v.077c-.017,2.494-.03,4.571-.04,6.059,0,.707-.017,1.269-.02,1.683v.434A.673.673,0,0,1,192.745,131.256Z" transform="translate(-137.715 -95.169)" fill="#e0e0e0"/>
      <rect id="Rectangle_3035" data-name="Rectangle 3035" width="9.099" height="4.168" transform="translate(45.93 37.387)" fill="#f5f5f5"/>
      <path id="Path_47713" data-name="Path 47713" d="M192.75,155.594v-.3l-.017-.835c0-.737-.02-1.764-.037-3.03l.067.067-9.089.027c-.084.084.111-.114.091-.091h0v4.164l-.091-.088,6.507.04,1.9.027h.693a.882.882,0,0,1-.162,0h-.495l-1.875.027-6.568.04h-.088V151.39h0c-.02,0,.175-.178.094-.094l9.089.024h.044v.067c0,1.283-.027,2.326-.034,3.07v.821a1.645,1.645,0,0,1-.03.316Z" transform="translate(-137.721 -114.04)" fill="#e0e0e0"/>
      <path id="Path_47714" data-name="Path 47714" d="M157.991,123.31c-3.387,4.676-7.278,9.059-10.661,13.735" transform="translate(-113.67 -95.49)" fill="#fff"/>
      <path id="Path_47715" data-name="Path 47715" d="M147.34,137.044a1.049,1.049,0,0,1,.088-.155l.286-.417c.249-.364.623-.879,1.094-1.508.939-1.266,2.282-2.976,3.79-4.844s2.865-3.565,3.828-4.807l1.141-1.471.313-.4c.074-.088.114-.135.121-.131a.8.8,0,0,1-.091.155l-.286.417c-.249.364-.623.879-1.094,1.511-.939,1.262-2.282,2.972-3.79,4.841s-2.861,3.565-3.828,4.807l-1.141,1.474-.313.4A.757.757,0,0,1,147.34,137.044Z" transform="translate(-113.677 -95.49)" fill="#e0e0e0"/>
      <line id="Line_23" data-name="Line 23" x2="10.93" y2="13.758" transform="translate(33.663 27.796)" fill="#fff"/>
      <path id="Path_47716" data-name="Path 47716" d="M158.282,137c-.04.03-2.521-3.03-5.538-6.82s-5.433-6.9-5.386-6.938,2.518,3.03,5.538,6.824S158.323,136.961,158.282,137Z" transform="translate(-113.689 -95.443)" fill="#e0e0e0"/>
      <path id="Path_47717" data-name="Path 47717" d="M134.65,119.96a1.71,1.71,0,1,1-1.71-1.71A1.71,1.71,0,0,1,134.65,119.96Z" transform="translate(-102.99 -92.133)" fill="#e0e0e0"/>
      <path id="Path_47718" data-name="Path 47718" d="M217.74,107.63a1.71,1.71,0,1,1-1.71-1.71A1.71,1.71,0,0,1,217.74,107.63Z" transform="translate(-158.109 -83.954)" fill="#e0e0e0"/>
      <rect id="Rectangle_3036" data-name="Rectangle 3036" width="19.706" height="28.567" transform="translate(106.82 35.586)" fill="#e0e0e0"/>
      <rect id="Rectangle_3037" data-name="Rectangle 3037" width="19.706" height="28.567" transform="translate(105.834 35.586)" fill="#f5f5f5"/>
      <rect id="Rectangle_3038" data-name="Rectangle 3038" width="14.812" height="22.379" transform="translate(108.281 38.68)" fill="#fff"/>
      <path id="Path_47719" data-name="Path 47719" d="M383.732,177.757v-6.265c0-3.945,0-9.533-.024-16.115l.05.051H368.92l.054-.054v22.379l-.044-.044,10.772.024h.027l-10.806.02h-.044V155.28h14.9v.047c0,6.595-.017,12.193-.024,16.158v6.127Z" transform="translate(-260.639 -116.698)" fill="#e0e0e0"/>
      <path id="Path_47720" data-name="Path 47720" d="M415.169,146.38a3.091,3.091,0,0,1-.337.512c-.229.306-.555.72-.926,1.171s-.717.848-.973,1.134a3.312,3.312,0,0,1-.434.441,3.856,3.856,0,0,1,.377-.491l.949-1.151.946-1.151A4.172,4.172,0,0,1,415.169,146.38Z" transform="translate(-289.575 -110.794)" fill="#e0e0e0"/>
      <path id="Path_47721" data-name="Path 47721" d="M413.22,221.83a18.232,18.232,0,0,0,2.582,3.232" transform="translate(-290.053 -160.845)" fill="#fff"/>
      <path id="Path_47722" data-name="Path 47722" d="M415.8,225.062a2.753,2.753,0,0,1-.448-.411,14.142,14.142,0,0,1-.976-1.1,14.568,14.568,0,0,1-.858-1.192,2.868,2.868,0,0,1-.3-.532,4.377,4.377,0,0,1,.364.488c.215.306.522.72.879,1.168s.7.835.946,1.114A3.883,3.883,0,0,1,415.8,225.062Z" transform="translate(-290.053 -160.845)" fill="#e0e0e0"/>
      <path id="Path_47723" data-name="Path 47723" d="M361.72,224.895l2.582-3.185" transform="translate(-255.889 -160.765)" fill="#fff"/>
      <path id="Path_47724" data-name="Path 47724" d="M364.275,221.71c.02,0-.539.747-1.249,1.626a19.46,19.46,0,0,1-1.347,1.559,39.013,39.013,0,0,1,2.582-3.185Z" transform="translate(-255.863 -160.765)" fill="#e0e0e0"/>
      <path id="Path_47725" data-name="Path 47725" d="M361.73,146.38a19.415,19.415,0,0,1,1.252,1.5,17.657,17.657,0,0,1,1.168,1.565,18.567,18.567,0,0,1-1.252-1.508A16.886,16.886,0,0,1,361.73,146.38Z" transform="translate(-255.896 -110.794)" fill="#e0e0e0"/>
      <rect id="Rectangle_3039" data-name="Rectangle 3039" width="4.959" height="14.081" transform="translate(113.519 43.224)" fill="#e0e0e0"/>
      <rect id="Rectangle_3040" data-name="Rectangle 3040" width="2.821" height="14.038" transform="matrix(1, -0.005, 0.005, 1, 119.165, 5.248)" fill="#e0e0e0"/>
      <rect id="Rectangle_3041" data-name="Rectangle 3041" width="7.305" height="7.749" transform="matrix(1, -0.005, 0.005, 1, 94.726, 5.31)" fill="#ebebeb"/>
      <rect id="Rectangle_3042" data-name="Rectangle 3042" width="7.305" height="7.749" transform="matrix(1, -0.005, 0.005, 1, 101.993, 5.274)" fill="#f5f5f5"/>
      <path id="Path_47726" data-name="Path 47726" d="M328.627,62.363c4.854.04,9.722,0,14.576-.067a.077.077,0,0,0,0-.155q-7.288-.04-14.576.088a.067.067,0,0,0,0,.135Z" transform="translate(-233.892 -54.906)" fill="#e0e0e0"/>
      <rect id="Rectangle_3043" data-name="Rectangle 3043" width="13.273" height="6.315" transform="matrix(1, -0.005, 0.005, 1, 90.169, 12.966)" fill="#ebebeb"/>
      <rect id="Rectangle_3044" data-name="Rectangle 3044" width="13.273" height="6.315" transform="matrix(1, -0.005, 0.005, 1, 103.381, 12.894)" fill="#f5f5f5"/>
      <path id="Path_47727" data-name="Path 47727" d="M315.087,83.8c8.82.1,17.667,0,26.483-.131a.077.077,0,0,0,0-.155c-8.82-.047-17.667-.04-26.483.151a.067.067,0,0,0,0,.135Z" transform="translate(-224.91 -69.073)" fill="#e0e0e0"/>
      <rect id="Rectangle_3045" data-name="Rectangle 3045" width="51.424" height="2.262" transform="translate(85.215 19.283)" fill="#e0e0e0"/>
      <rect id="Rectangle_3046" data-name="Rectangle 3046" width="2.087" height="7.719" transform="translate(93.634 20.37)" fill="#e0e0e0"/>
      <rect id="Rectangle_3047" data-name="Rectangle 3047" width="2.087" height="7.719" transform="translate(124.796 20.37)" fill="#e0e0e0"/>
      <rect id="Rectangle_3048" data-name="Rectangle 3048" width="2.821" height="19.306" transform="matrix(1, -0.005, 0.005, 1, 121.917, 0.015)" fill="#ebebeb"/>
      <rect id="Rectangle_3049" data-name="Rectangle 3049" width="4.383" height="15.647" transform="matrix(1, -0.005, 0.005, 1, 124.764, 3.619)" fill="#f5f5f5"/>
      <path id="Path_47728" data-name="Path 47728" d="M422.266,60.165a31.053,31.053,0,0,1-4.376,0,32.463,32.463,0,0,1,4.376,0Z" transform="translate(-293.151 -53.552)" fill="#e0e0e0"/>
      <path id="Path_47729" data-name="Path 47729" d="M422.266,58.215a31.054,31.054,0,0,1-4.376,0,32.462,32.462,0,0,1,4.376,0Z" transform="translate(-293.151 -52.259)" fill="#e0e0e0"/>
      <path id="Path_47730" data-name="Path 47730" d="M422.266,90.695a31.054,31.054,0,0,1-4.376,0A32.462,32.462,0,0,1,422.266,90.695Z" transform="translate(-293.151 -73.805)" fill="#e0e0e0"/>
      <path id="Path_47731" data-name="Path 47731" d="M422.266,88.745a31.054,31.054,0,0,1-4.376,0A32.462,32.462,0,0,1,422.266,88.745Z" transform="translate(-293.151 -72.511)" fill="#e0e0e0"/>
      <path id="Path_47732" data-name="Path 47732" d="M424.437,70.739c-.044,0-.077-1.579-.077-3.525s.034-3.525.077-3.525.074,1.579.074,3.525S424.478,70.739,424.437,70.739Z" transform="translate(-297.443 -55.94)" fill="#e0e0e0"/>
      <rect id="Rectangle_3050" data-name="Rectangle 3050" width="4.77" height="11.809" transform="translate(129.163 7.44)" fill="#ebebeb"/>
      <path id="Path_47733" data-name="Path 47733" d="M436.414,85.092a1.01,1.01,0,0,1-1.067-1.064.922.922,0,0,1,.387-.8l.108.151a.764.764,0,0,0-.313.646.885.885,0,0,0,1.771,0,.757.757,0,0,0-.316-.646l.111-.151a.936.936,0,0,1,.384.8,1.01,1.01,0,0,1-1.064,1.064Z" transform="translate(-304.73 -68.902)" fill="#fafafa"/>
      <path id="Path_47734" data-name="Path 47734" d="M437.211,79.07l-.158-.091a1.239,1.239,0,0,0,.252-.757c0-.441-.158-.619-.394-.619-.613,0-.162,1.394-.986,1.394-.316,0-.576-.266-.576-.8a1.293,1.293,0,0,1,.205-.72l.162.094a1.077,1.077,0,0,0-.189.63c0,.411.168.592.394.592.63,0,.185-1.394.986-1.394.337,0,.572.3.572.831A1.3,1.3,0,0,1,437.211,79.07Z" transform="translate(-304.733 -65.035)" fill="#fafafa"/>
      <path id="Path_47735" data-name="Path 47735" d="M437.211,73.36l-.158-.091a1.239,1.239,0,0,0,.252-.757c0-.441-.158-.619-.394-.619-.613,0-.162,1.39-.986,1.39-.316,0-.576-.263-.576-.794a1.293,1.293,0,0,1,.205-.72l.162.091a1.094,1.094,0,0,0-.189.633c0,.411.168.592.394.592.63,0,.185-1.394.986-1.394.337,0,.572.293.572.828A1.306,1.306,0,0,1,437.211,73.36Z" transform="translate(-304.733 -61.247)" fill="#fafafa"/>
      <circle id="Ellipse_1180" data-name="Ellipse 1180" cx="0.811" cy="0.811" r="0.811" transform="translate(122.474 2.492)" fill="#e0e0e0"/>
      <rect id="Rectangle_3051" data-name="Rectangle 3051" width="0.502" height="11.486" transform="translate(123.032 5.532)" fill="#e0e0e0"/>
    </g>
    <g id="freepik--Floor--inject-44" transform="translate(38.713 179.721)">
      <path id="Path_47736" data-name="Path 47736" d="M184.607,453.828c0,.047-32.515.088-72.615.088s-72.622-.034-72.622-.088,32.509-.088,72.622-.088S184.607,453.787,184.607,453.828Z" transform="translate(-39.37 -453.74)" fill="#263238"/>
    </g>
    <g id="freepik--Hourglass--inject-44" transform="translate(71.725 59.877)">
      <path id="Path_47737" data-name="Path 47737" d="M143.869,110.233a25.968,25.968,0,0,0,.855,28.435c3.935,5.44,9.836,9.089,14.522,13.889s8.247,11.886,5.773,18.128c-2.518,6.352-9.894,8.934-15.414,12.96a29.132,29.132,0,0,0-7.029,39.8h57.369s10.079-19.2-2.878-33.845-19.915-14.876-19.437-24.477,7.2-12.715,11.038-16.317,22.554-11.994,11.516-38.575Z" transform="translate(-137.56 -106.022)" fill="#fafafa"/>
      <path id="Path_47738" data-name="Path 47738" d="M143.746,110.18h15.091l41.224-.03h.044v.04a52.851,52.851,0,0,1,2.154,6.177,35.926,35.926,0,0,1,1.219,6.733,26.672,26.672,0,0,1-.364,7.127,22.914,22.914,0,0,1-2.592,6.928,24.831,24.831,0,0,1-2.161,3.134,28.637,28.637,0,0,1-2.643,2.828,38.288,38.288,0,0,1-3,2.542c-1.044.808-2.134,1.569-3.2,2.377-.532.4-1.01.852-1.528,1.3s-1.033.872-1.565,1.3c-1.06.848-2.131,1.683-3.141,2.622a16.8,16.8,0,0,0-4.713,6.76,16.494,16.494,0,0,0-.889,4.147c-.03.337-.077.707-.091,1.064a9.468,9.468,0,0,0,0,1.07,11.949,11.949,0,0,0,.215,2.134,9.739,9.739,0,0,0,1.7,3.945,21.657,21.657,0,0,0,2.972,3.222c2.178,1.989,4.491,3.891,6.7,5.945s4.376,4.194,6.463,6.46a38.306,38.306,0,0,1,2.983,3.548,24.715,24.715,0,0,1,2.407,4.009,26.372,26.372,0,0,1,2.471,9.089,33.357,33.357,0,0,1-.559,9.56,39.276,39.276,0,0,1-1.232,4.693,34.513,34.513,0,0,1-1.818,4.528l-.024.047H142.406l-.024-.037a29.573,29.573,0,0,1-4.8-13.543,28.553,28.553,0,0,1,1.986-13.667,29.758,29.758,0,0,1,7.581-10.833,34.524,34.524,0,0,1,5.177-3.777c1.791-1.111,3.6-2.141,5.305-3.265a24.386,24.386,0,0,0,4.672-3.8,12.812,12.812,0,0,0,2.888-5.009,12.489,12.489,0,0,0,.229-5.591,18.3,18.3,0,0,0-1.774-5.14,25.086,25.086,0,0,0-2.888-4.376,34.571,34.571,0,0,0-3.494-3.646c-2.427-2.235-4.915-4.191-7.15-6.2-1.121-1.01-2.181-2.02-3.161-3.053a28.865,28.865,0,0,1-2.619-3.228,24.736,24.736,0,0,1-3.282-6.8,25.52,25.52,0,0,1-1.118-6.447c-.047-.5-.027-.99-.027-1.471s0-.949.044-1.4.067-.9.1-1.347.125-.848.182-1.256a23.962,23.962,0,0,1,2.249-7.13,9.016,9.016,0,0,1,.518-1.01l.414-.7c.219-.374.337-.562.337-.562l-.337.572-.4.693a10.149,10.149,0,0,0-.512,1.01,24.079,24.079,0,0,0-2.222,7.14c-.057.4-.125.821-.175,1.249s-.067.875-.1,1.33-.034.922-.037,1.4a14.357,14.357,0,0,0,.03,1.468,25.311,25.311,0,0,0,1.128,6.423,24.574,24.574,0,0,0,3.279,6.776,28.31,28.31,0,0,0,2.616,3.211c.976,1.037,2.037,2.047,3.158,3.03,2.235,2.02,4.713,3.955,7.157,6.194a34.794,34.794,0,0,1,3.521,3.673,25.332,25.332,0,0,1,2.905,4.407,18.373,18.373,0,0,1,1.791,5.174,12.613,12.613,0,0,1-.229,5.652,12.893,12.893,0,0,1-2.915,5.066,24.7,24.7,0,0,1-4.693,3.824c-1.713,1.128-3.521,2.158-5.309,3.269a34.6,34.6,0,0,0-5.157,3.764,29.643,29.643,0,0,0-7.537,10.772,28.388,28.388,0,0,0-1.969,13.6,29.442,29.442,0,0,0,4.78,13.465l-.067-.037h57.369l-.077.047a34,34,0,0,0,1.811-4.518,39.1,39.1,0,0,0,1.225-4.672,33.151,33.151,0,0,0,.555-9.513,26.1,26.1,0,0,0-2.454-9.039,24.75,24.75,0,0,0-2.387-3.982,39.264,39.264,0,0,0-2.969-3.535q-3.114-3.39-6.453-6.45c-2.208-2.05-4.514-3.949-6.7-5.948a22.056,22.056,0,0,1-3-3.245,9.934,9.934,0,0,1-1.747-4,12.686,12.686,0,0,1-.219-2.165c-.017-.36,0-.72,0-1.081s.061-.717.088-1.074a16.724,16.724,0,0,1,.909-4.171,16.916,16.916,0,0,1,4.757-6.817c1.01-.936,2.09-1.784,3.151-2.629.532-.424,1.054-.852,1.562-1.289s1.01-.909,1.535-1.313c1.07-.808,2.158-1.569,3.2-2.373a38.768,38.768,0,0,0,2.993-2.528,29.109,29.109,0,0,0,2.629-2.811,25.548,25.548,0,0,0,2.151-3.117,22.759,22.759,0,0,0,2.579-6.881,26.506,26.506,0,0,0,.367-7.069,35.985,35.985,0,0,0-1.208-6.733,53.432,53.432,0,0,0-2.128-6.2l.057.037-41.2-.03H144.729Z" transform="translate(-137.437 -105.969)" fill="#263238"/>
      <path id="Path_47739" data-name="Path 47739" d="M208.462,146.7c8.449,1.39-4.871,16.357-12.415,22.262-4.376,3.417-9.055,7.126-11.129,12.27-2.356,5.837-.609,12.395-1.747,18.266a.815.815,0,0,1-1.616-.172,64.945,64.945,0,0,0-.673-11.5c-.906-5.386-2.972-10.7-6.733-14.644-3.08-3.222-7.116-5.359-10.4-8.369-4.794-4.393-9.719-10.059-10.2-16.542,0,0,9.2-7.406,14.314-6.48,5.972,1.094,11.849,10.308,21.1,9.254C195.4,150.309,198.662,145.091,208.462,146.7Z" transform="translate(-148.126 -126.906)" fill="#7a69d4"/>
      <path id="Path_47740" data-name="Path 47740" d="M204.611,374.9c-.212-2.114-.778-4.5-2.653-5.5a5.229,5.229,0,0,0-3.764-.212c-1.246.327-2.414.9-3.646,1.262a11.94,11.94,0,0,1-7.463-.239c-2.292-.842-4.258-2.356-6.4-3.562s-4.619-2.087-6.988-1.5c-4.087,1.01-6.214,5.938-10.254,7.126a11.178,11.178,0,0,1-5.551-.182,21.735,21.735,0,0,0-5.527-.875,6.132,6.132,0,0,0-4.019,1.565h0l-.027.03a3.976,3.976,0,0,0-.465.545,7.591,7.591,0,0,0-1.067,5.955,21.283,21.283,0,0,0,2.643,6.42,18.878,18.878,0,0,0,5.11,6.342c2.754,1.963,6.211.609,9.581.875a159.083,159.083,0,0,0,24.16.434c4.151-.337,8.039.128,11.331-2.42a13.4,13.4,0,0,0,4.551-7.325A25.169,25.169,0,0,0,204.611,374.9Z" transform="translate(-143.525 -275.004)" fill="#7a69d4"/>
      <g id="Group_67952" data-name="Group 67952" transform="translate(45.024 95.849)" opacity="0.24">
        <path id="Path_47741" data-name="Path 47741" d="M272.421,382.46a2.171,2.171,0,0,0-.205,2.276,7.413,7.413,0,0,1,1.192,2.107c.293,1.239-.454,2.451-1.01,3.6a11.463,11.463,0,0,0-1.114,6.642,9.035,9.035,0,0,0,3.3,5.8,3.2,3.2,0,0,0,2.8.791,2.744,2.744,0,0,0,1.683-2.134,8.61,8.61,0,0,0-.088-2.831,43.978,43.978,0,0,1,.337-13.156,2.66,2.66,0,0,0-.209-2.128,2.464,2.464,0,0,0-1.209-.673c-1.75-.582-3.639.064-5.453-.279" transform="translate(-271.184 -382.46)"/>
      </g>
      <path id="Path_47742" data-name="Path 47742" d="M139.828,446.2s-.158-2.632,3.275-4.1h60.341s3.148,1.6,3.535,4.04Z" transform="translate(-139.022 -326.174)" fill="#263238"/>
      <path id="Path_47743" data-name="Path 47743" d="M210.384,102.261l-.1.044-56.739-.364s-.2-.128-.5-.367a2.151,2.151,0,0,1,1.347-3.844l55.073.444A2.151,2.151,0,0,1,210.384,102.261Z" transform="translate(-147.244 -97.73)" fill="#263238"/>
      <g id="Group_67953" data-name="Group 67953" transform="translate(16.446 25.461)" opacity="0.24">
        <path id="Path_47744" data-name="Path 47744" d="M223.9,174.08c.114.219-.313.673-1.124,1.414s-2.02,1.713-3.521,2.935a46.218,46.218,0,0,1-5.723,4.04,22.96,22.96,0,0,1-3.918,1.8,18.552,18.552,0,0,1-2.252.623,15.362,15.362,0,0,1-2.434.316,12.994,12.994,0,0,1-4.891-.673,17.626,17.626,0,0,1-3.932-2.02c-1.131-.747-2.1-1.488-3.03-2.2s-1.75-1.394-2.5-2.04c-2.979-2.582-4.548-4.481-4.245-4.848s2.424.828,5.723,2.848l2.693,1.649c.966.586,2,1.235,3.057,1.835a17.113,17.113,0,0,0,3.316,1.5,10.647,10.647,0,0,0,3.649.431,19.34,19.34,0,0,0,7.265-2.094c2.171-1.05,4.137-2.276,5.841-3.232a29.425,29.425,0,0,1,4.215-2.053C223.151,173.938,223.8,173.868,223.9,174.08Z" transform="translate(-186.29 -173.364)"/>
      </g>
      <path id="Path_47745" data-name="Path 47745" d="M235.647,334.123a.976.976,0,1,1-.047.02" transform="translate(-202.178 -254.499)" fill="#7a69d4"/>
      <path id="Path_47746" data-name="Path 47746" d="M160.845,152.838a1.457,1.457,0,0,1-.2-.2l-.549-.6c-.232-.266-.539-.576-.852-.97l-1.07-1.347c-.367-.518-.781-1.077-1.2-1.683l-.616-.98c-.1-.168-.215-.337-.316-.515l-.3-.545a22.756,22.756,0,0,1-2.09-5.033,21.208,21.208,0,0,1-.794-5.386c0-.421.024-.828.03-1.229a4.217,4.217,0,0,1,.027-.586c.027-.192.04-.38.061-.566.044-.37.071-.73.121-1.074s.121-.673.178-.98c.094-.63.263-1.178.38-1.683.064-.242.114-.471.178-.673l.185-.562.259-.771a1.434,1.434,0,0,1,.1-.266,1.532,1.532,0,0,1-.067.276c-.057.2-.131.454-.229.781l-.168.562c-.057.205-.1.434-.165.673a14.682,14.682,0,0,0-.337,1.683c-.054.31-.108.636-.165.976s-.071.7-.111,1.067a5.485,5.485,0,0,1-.057.562c-.02.192,0,.387-.02.582,0,.4-.027.8-.024,1.219a21.323,21.323,0,0,0,.784,5.356,23.168,23.168,0,0,0,2.064,5c.1.182.2.364.289.545s.212.337.313.512l.606.98c.411.619.818,1.178,1.175,1.683L159.32,151c.3.4.6.714.825.99l.525.623A2.293,2.293,0,0,1,160.845,152.838Z" transform="translate(-147.668 -117.273)" fill="#263238"/>
      <path id="Path_47747" data-name="Path 47747" d="M167.09,275.255a.673.673,0,0,1,.061-.111l.2-.316c.091-.141.2-.31.337-.512l.212-.337c.084-.111.182-.222.279-.337l.673-.808c.259-.279.555-.569.869-.885A22.783,22.783,0,0,1,172.032,270c1.788-1.347,4.093-2.693,6.591-4.272a37.7,37.7,0,0,0,3.78-2.663,17.636,17.636,0,0,0,3.39-3.582,16.956,16.956,0,0,0,2.744-9.032,21.366,21.366,0,0,0-1.293-7.675,28.648,28.648,0,0,0-2.229-4.78c-.313-.542-.569-.953-.744-1.232l-.2-.316c-.044-.071-.064-.111-.064-.111a.5.5,0,0,1,.077.1l.215.31c.185.269.451.673.771,1.215a27.323,27.323,0,0,1,2.289,4.773,21.346,21.346,0,0,1,1.347,7.719,18.176,18.176,0,0,1-.185,2.269,16.575,16.575,0,0,1-.495,2.326,15.762,15.762,0,0,1-2.117,4.534,17.75,17.75,0,0,1-3.427,3.619,38.181,38.181,0,0,1-3.8,2.666c-2.508,1.565-4.817,2.9-6.6,4.235a23.709,23.709,0,0,0-2.316,1.915c-.313.313-.613.6-.875.872l-.673.791c-.1.121-.2.232-.283.337l-.219.32-.337.5-.215.306A.787.787,0,0,1,167.09,275.255Z" transform="translate(-157.108 -189.679)" fill="#263238"/>
      <path id="Path_47748" data-name="Path 47748" d="M152.145,369.61a1.063,1.063,0,0,1-.074.158l-.242.428c-.108.182-.236.411-.367.673s-.3.572-.441.926c-.074.175-.155.357-.236.545s-.148.4-.229.606c-.162.417-.29.875-.438,1.347a18.292,18.292,0,0,0-.6,6.49c.057.5.1.976.185,1.414.037.219.067.434.111.636s.091.4.135.582c.074.374.185.7.266.99s.162.539.236.741l.158.465a.576.576,0,0,1,.044.165.64.64,0,0,1-.077-.151c-.05-.125-.111-.273-.189-.454a7.256,7.256,0,0,1-.266-.734c-.091-.289-.209-.616-.293-.99-.047-.185-.094-.38-.145-.582s-.081-.421-.125-.64c-.094-.444-.141-.922-.2-1.424a17.619,17.619,0,0,1,.6-6.531c.151-.485.286-.946.458-1.363.084-.209.151-.414.239-.606l.249-.549c.148-.337.337-.65.468-.919a6.973,6.973,0,0,1,.394-.673l.269-.414C152.1,369.653,152.138,369.606,152.145,369.61Z" transform="translate(-145.293 -278.086)" fill="#263238"/>
      <path id="Path_47749" data-name="Path 47749" d="M219.952,393.649l-.067.047-.209.131-.818.491-.592.337c-.222.125-.468.239-.73.37-.532.256-1.118.582-1.811.845l-1.077.441c-.374.148-.781.266-1.192.407-.818.3-1.727.515-2.673.761a31.337,31.337,0,0,1-12.661.337c-.963-.2-1.878-.364-2.713-.619-.417-.121-.828-.215-1.212-.337l-1.1-.4c-.7-.226-1.31-.518-1.851-.747-.269-.118-.522-.222-.747-.337l-.613-.32-.842-.448-.215-.121-.071-.044a.177.177,0,0,1,.081.03l.222.1.855.417.616.3c.229.108.485.205.754.32.542.215,1.148.5,1.855.717l1.084.394c.384.128.794.219,1.212.337.831.249,1.744.407,2.693.6a32,32,0,0,0,12.6-.337c.943-.242,1.848-.448,2.666-.741.411-.138.815-.249,1.188-.4l1.077-.427c.693-.256,1.283-.572,1.814-.818.263-.128.512-.239.734-.337l.6-.337.831-.465.219-.114C219.925,393.656,219.952,393.645,219.952,393.649Z" transform="translate(-171.483 -294.032)" fill="#263238"/>
      <path id="Path_47750" data-name="Path 47750" d="M227.464,182a.357.357,0,0,1-.071.064l-.222.182c-.205.165-.491.4-.858.673-.747.592-1.831,1.451-3.2,2.474a46.283,46.283,0,0,1-5.006,3.339,22.555,22.555,0,0,1-3.225,1.485,14.7,14.7,0,0,1-3.723.828,14.139,14.139,0,0,1-7.15-1.488,24.261,24.261,0,0,1-2.764-1.643c-.821-.579-1.572-1.141-2.235-1.683-1.347-1.07-2.377-1.976-3.1-2.6l-.831-.72-.212-.189-.071-.071s.03,0,.081.054l.226.178.852.693c.741.606,1.8,1.495,3.137,2.552.673.529,1.417,1.084,2.242,1.656a24.573,24.573,0,0,0,2.75,1.616,14.088,14.088,0,0,0,7.069,1.458,14.6,14.6,0,0,0,3.679-.815,22.58,22.58,0,0,0,3.2-1.464,48.411,48.411,0,0,0,5.012-3.269c1.373-1.01,2.467-1.851,3.232-2.427l.879-.673.232-.168A.3.3,0,0,1,227.464,182Z" transform="translate(-175.483 -153.632)" fill="#263238"/>
      <g id="Group_67954" data-name="Group 67954" transform="translate(21.62 101.331)" opacity="0.24">
        <path id="Path_47751" data-name="Path 47751" d="M201.66,399.857c1.6-1.232,3.838-.936,5.81-.518s3.959,1.087,5.955.808c1.5-.212,2.885-.949,4.376-1.272s3.286-.084,4.11,1.192a31.98,31.98,0,0,1-20.242-.209" transform="translate(-201.66 -398.745)"/>
      </g>
    </g>
    <g id="freepik--Character--inject-44" transform="translate(117.243 107.927)">
      <path id="Path_47752" data-name="Path 47752" d="M309.218,326.637l-7.238-8.116-.074,9.867,2.181,6.329-21.686,3.76-.919-17.111-1.562-13.129a3.568,3.568,0,0,1,2.235-3.74l5.969-2.356,8.416,1.542,3.383,1.286a9.288,9.288,0,0,1,3.683,2.562l10.18,11.641" transform="translate(-277.457 -281.379)" fill="#7a69d4"/>
      <path id="Path_47753" data-name="Path 47753" d="M344,335.03a10.6,10.6,0,0,0,1.222-.088,4.959,4.959,0,0,0,4.077-3.757,11.253,11.253,0,0,0,.185-1.215,1.1,1.1,0,0,1,.03.337,4.1,4.1,0,0,1-.094.909,4.861,4.861,0,0,1-4.178,3.854,4.3,4.3,0,0,1-.912.02A1.048,1.048,0,0,1,344,335.03Z" transform="translate(-319.981 -299.841)" fill="#fff"/>
      <path id="Path_47754" data-name="Path 47754" d="M345.528,348.776c.051,0,.064-3.42.03-7.635s-.1-7.631-.155-7.631-.064,3.417-.03,7.635S345.478,348.776,345.528,348.776Z" transform="translate(-320.88 -302.189)" fill="#263238"/>
      <path id="Path_47755" data-name="Path 47755" d="M296.5,335.091l-13.1-5.275a3,3,0,0,1-1.868-2.548l-.959-12.563s.114-5.346-3.225-5.6l-1.889.747c-2.454,1.3-3.06,4.878-2.727,7.635.475,3.918.673,9.466,1.2,12.866.438,2.784,2.02,5.231,4.753,5.948l16.138,3.494Z" transform="translate(-272.65 -285.996)" fill="#7a69d4"/>
      <path id="Path_47756" data-name="Path 47756" d="M296.749,331.44a1.627,1.627,0,0,1,.04.286c.02.205.051.481.084.828.067.737.162,1.774.276,3.047s.242,2.824.39,4.521c.034.428.071.862.108,1.306a10.158,10.158,0,0,0,.168,1.347,2.225,2.225,0,0,0,.653,1.175,4.377,4.377,0,0,0,1.209.754c3.612,1.562,6.941,2.855,9.358,3.76l2.871,1.057.781.286a1.879,1.879,0,0,1,.266.111,1.614,1.614,0,0,1-.279-.077l-.791-.256c-.673-.229-1.683-.569-2.888-1.01-2.434-.875-5.767-2.148-9.392-3.7a4.582,4.582,0,0,1-1.256-.788,2.4,2.4,0,0,1-.7-1.266,9.821,9.821,0,0,1-.165-1.367c-.037-.448-.071-.882-.1-1.31-.131-1.683-.252-3.232-.337-4.524s-.168-2.313-.222-3.05c-.024-.337-.04-.626-.051-.831A1.713,1.713,0,0,1,296.749,331.44Z" transform="translate(-288.637 -300.816)" fill="#263238"/>
      <path id="Path_47757" data-name="Path 47757" d="M274.425,351.73a.842.842,0,0,1,.024.168l.044.485c.04.448.091,1.05.155,1.784s.165,1.646.3,2.636a25.5,25.5,0,0,0,.589,3.181,4.789,4.789,0,0,0,.64,1.518,9.261,9.261,0,0,0,.98,1.2,8.414,8.414,0,0,0,2.1,1.572,7.91,7.91,0,0,0,2.3.754.671.671,0,0,1-.172,0,3.778,3.778,0,0,1-.485-.064,6.366,6.366,0,0,1-1.7-.576,8.21,8.21,0,0,1-2.154-1.569,8.927,8.927,0,0,1-1.01-1.222,4.888,4.888,0,0,1-.673-1.565,23.811,23.811,0,0,1-.582-3.208c-.121-1.01-.2-1.892-.256-2.646s-.084-1.367-.1-1.791V351.9A.542.542,0,0,1,274.425,351.73Z" transform="translate(-273.819 -314.276)" fill="#263238"/>
      <path id="Path_47758" data-name="Path 47758" d="M291.09,371.742a1.939,1.939,0,0,1,.239-.7,4.518,4.518,0,0,1,2.659-2.272,1.9,1.9,0,0,1,.727-.125q-.33.138-.673.242a5.149,5.149,0,0,0-1.485.885,5.215,5.215,0,0,0-1.108,1.326C291.215,371.49,291.117,371.753,291.09,371.742Z" transform="translate(-284.882 -325.499)" fill="#263238"/>
      <path id="Path_47759" data-name="Path 47759" d="M298.75,323.874a.309.309,0,0,1,.081.037l.236.125a8.55,8.55,0,0,0,.936.394,7.406,7.406,0,0,0,3.673.316,7.251,7.251,0,0,0,4.565-2.838,6.029,6.029,0,0,0,1.2-2.969,4.04,4.04,0,0,0-.175-1.683,3.434,3.434,0,0,0-.943-1.444,2.891,2.891,0,0,0-1.538-.747,1.835,1.835,0,0,0-1.542.434,1.01,1.01,0,0,0-.3.7,1.218,1.218,0,0,0,.256.72,1.966,1.966,0,0,0,1.347.7,5.4,5.4,0,0,0,5.881-3.784,5.861,5.861,0,0,0,.249-1.579,6.019,6.019,0,0,0-.074-1.01c-.02-.1-.037-.192-.047-.259a.476.476,0,0,1,0-.091,4.259,4.259,0,0,1,.2,1.347,5.655,5.655,0,0,1-.222,1.606,5.541,5.541,0,0,1-6,3.915,2.117,2.117,0,0,1-1.441-.754,1.377,1.377,0,0,1-.289-.821,1.165,1.165,0,0,1,.337-.818,2.02,2.02,0,0,1,1.683-.485,3.03,3.03,0,0,1,1.633.791,3.548,3.548,0,0,1,.99,1.518,4.207,4.207,0,0,1,.182,1.75,6.164,6.164,0,0,1-1.235,3.03,7.234,7.234,0,0,1-8.392,2.491,5.211,5.211,0,0,1-1.239-.586Z" transform="translate(-289.964 -287.184)" fill="#fff"/>
      <path id="Path_47760" data-name="Path 47760" d="M273.25,335.673a1.073,1.073,0,0,1,.215-.269,4.839,4.839,0,0,1,.707-.616,5.945,5.945,0,0,1,2.9-1.027,5.6,5.6,0,0,1,1.71.071,5.2,5.2,0,0,1,1.316.465,6.056,6.056,0,0,1,.8.485,1.131,1.131,0,0,1,.263.222c-.02.027-.411-.269-1.118-.6a5.487,5.487,0,0,0-2.952-.471,6.214,6.214,0,0,0-2.848.953C273.593,335.323,273.274,335.7,273.25,335.673Z" transform="translate(-273.048 -302.332)" fill="#fff"/>
      <path id="Path_47761" data-name="Path 47761" d="M279.48,307.679a5.18,5.18,0,0,0,1.06.771,3.776,3.776,0,0,0,1.346.4,3.589,3.589,0,0,0,1.683-.236,3.535,3.535,0,0,0,1.347-1.01,3.871,3.871,0,0,0,.673-1.235,5.387,5.387,0,0,0,.205-1.3,1.179,1.179,0,0,1,.044.357,3.279,3.279,0,0,1-.131.976,3.764,3.764,0,0,1-.673,1.3,3.44,3.44,0,0,1-3.2,1.32,3.737,3.737,0,0,1-1.39-.444,3.242,3.242,0,0,1-.781-.6A.963.963,0,0,1,279.48,307.679Z" transform="translate(-277.181 -283.323)" fill="#fff"/>
      <path id="Path_47762" data-name="Path 47762" d="M313.4,364.367a1.247,1.247,0,0,1,.027-.249,2.675,2.675,0,0,1,.232-.673,3.73,3.73,0,0,1,1.959-1.7,5.74,5.74,0,0,1,3.854-.138,3.745,3.745,0,0,1,2.02,1.138,1.208,1.208,0,0,1,.148,1.232,1.953,1.953,0,0,1-.932.879,3,3,0,0,1-1.242.31,1.821,1.821,0,0,1-1.192-.37,1.522,1.522,0,0,1-.532-1.081,2.717,2.717,0,0,1,.178-1.134,5.1,5.1,0,0,1,2.693-2.733,5.319,5.319,0,0,1,2.579-.444,3.666,3.666,0,0,1,.943.2c0,.024-.337-.087-.949-.131a5.386,5.386,0,0,0-4,1.471,4.713,4.713,0,0,0-1.128,1.683,2.548,2.548,0,0,0-.165,1.067,1.346,1.346,0,0,0,.478.959,1.636,1.636,0,0,0,1.077.337,2.781,2.781,0,0,0,1.165-.289,1.8,1.8,0,0,0,.855-.8,1.047,1.047,0,0,0-.128-1.06,2.427,2.427,0,0,0-.879-.693,6.294,6.294,0,0,0-1.033-.387,5.662,5.662,0,0,0-3.764.1,3.723,3.723,0,0,0-1.946,1.619,3.6,3.6,0,0,0-.32.9Z" transform="translate(-299.682 -319.352)" fill="#fff"/>
      <path id="Path_47763" data-name="Path 47763" d="M287.48,376.26c0-.034.5-.074,1.256-.337a6.278,6.278,0,0,0,4.019-4.457c.192-.781.185-1.289.219-1.286a1.165,1.165,0,0,1,.017.353,5.107,5.107,0,0,1-.114.959,6.039,6.039,0,0,1-4.1,4.534,5.179,5.179,0,0,1-.943.212A1.228,1.228,0,0,1,287.48,376.26Z" transform="translate(-282.488 -326.515)" fill="#fff"/>
      <path id="Path_47764" data-name="Path 47764" d="M274.86,357.541a.673.673,0,0,1,.158-.064c.108-.034.263-.081.468-.135a5.783,5.783,0,0,1,1.788-.182,3.757,3.757,0,0,1,1.212.3,2.811,2.811,0,0,1,1.131.889,2.323,2.323,0,0,1,.441,1.528,1.878,1.878,0,0,1-.259.821,1.3,1.3,0,0,1-.673.572.9.9,0,0,1-.885-.175,1.182,1.182,0,0,1-.306-.815,3.507,3.507,0,0,1,.31-1.559,3.417,3.417,0,0,1,3.7-1.99,2.747,2.747,0,0,1,.475.118c.1.04.158.064.155.071a5.4,5.4,0,0,0-.64-.121,3.542,3.542,0,0,0-1.727.222,3.309,3.309,0,0,0-1.808,1.764,3.4,3.4,0,0,0-.286,1.485,1.01,1.01,0,0,0,.256.7.731.731,0,0,0,.71.135,1.145,1.145,0,0,0,.592-.5,1.737,1.737,0,0,0,.236-.744,2.185,2.185,0,0,0-.4-1.421,2.636,2.636,0,0,0-1.06-.848,3.639,3.639,0,0,0-1.165-.31,6.087,6.087,0,0,0-1.757.125C275.092,357.494,274.867,357.554,274.86,357.541Z" transform="translate(-274.116 -317.562)" fill="#fff"/>
      <g id="Group_67955" data-name="Group 67955" transform="translate(8.54 34.361)" opacity="0.3">
        <path id="Path_47765" data-name="Path 47765" d="M309.567,355.776c-1.4-.791-2.771-1.4-4.235-2.064a9.59,9.59,0,0,1-3.861-2.814c-1.808-2.437-1.6-5.955-3.451-8.359q.182,2.424.36,4.851c.111,1.481-.114,2.949.838,3.955a9.255,9.255,0,0,0,3.484,1.865c2.232.737,4.635,1.831,6.864,2.565" transform="translate(-298.02 -342.54)"/>
      </g>
      <path id="Path_47766" data-name="Path 47766" d="M395,436.71s10.964,3.03,11.405,3.191c.673.232.549,2.653-.478,2.612-.488-.017-8.416.3-9.426.236a23.961,23.961,0,0,1-4.04-1.256Z" transform="translate(-352.128 -370.649)" fill="#7a69d4"/>
      <path id="Path_47767" data-name="Path 47767" d="M413.529,444.828a9.649,9.649,0,0,1,.485-1.178,9.816,9.816,0,0,1,.774-1.01,2.424,2.424,0,0,0-1.259,2.185Z" transform="translate(-366.104 -374.582)" fill="#263238"/>
      <path id="Path_47768" data-name="Path 47768" d="M410.13,443.48c.054,0,.165-.508.458-1.081s.636-.973.6-1.01a2.744,2.744,0,0,0-1.057,2.094Z" transform="translate(-363.85 -373.753)" fill="#263238"/>
      <path id="Path_47769" data-name="Path 47769" d="M406.889,442.445a7.316,7.316,0,0,1,.256-1.158,7.7,7.7,0,0,1,.6-1.027A2.057,2.057,0,0,0,406.889,442.445Z" transform="translate(-361.662 -373.004)" fill="#263238"/>
      <path id="Path_47770" data-name="Path 47770" d="M405.833,437.523a1.957,1.957,0,0,0,.118-.815,4.041,4.041,0,0,0-.111-.9,3.568,3.568,0,0,0-.165-.508.579.579,0,0,0-.175-.269.3.3,0,0,0-.377.02.475.475,0,0,0-.145.31,1.686,1.686,0,0,0,0,.29,2.263,2.263,0,0,0,.067.535,3.265,3.265,0,0,0,.337.838,2.256,2.256,0,0,0,.491.673c.027,0-.158-.273-.377-.72a3.584,3.584,0,0,1-.286-.815,2.412,2.412,0,0,1-.054-.5c0-.168,0-.377.1-.458a.108.108,0,0,1,.145,0,.5.5,0,0,1,.121.192,4.343,4.343,0,0,1,.165.485,4.278,4.278,0,0,1,.145.855C405.853,437.21,405.8,437.52,405.833,437.523Z" transform="translate(-360.428 -369.499)" fill="#263238"/>
      <path id="Path_47771" data-name="Path 47771" d="M403.175,441.976a1.538,1.538,0,0,0-.707-.114,3.246,3.246,0,0,0-.778.094,1.886,1.886,0,0,0-.451.165.465.465,0,0,0-.246.5.556.556,0,0,0,.394.394,1.009,1.009,0,0,0,.491,0,1.838,1.838,0,0,0,.714-.337,1.906,1.906,0,0,0,.508-.5,5.385,5.385,0,0,0-.582.394,1.931,1.931,0,0,1-.673.293.834.834,0,0,1-.407,0,.37.37,0,0,1-.266-.259.286.286,0,0,1,.162-.306,1.621,1.621,0,0,1,.4-.155,3.528,3.528,0,0,1,.741-.128C402.9,441.963,403.168,442.006,403.175,441.976Z" transform="translate(-357.783 -374.063)" fill="#263238"/>
      <path id="Path_47772" data-name="Path 47772" d="M418.394,445.848a6.483,6.483,0,0,1,.219-.99,5.984,5.984,0,0,1,.535-.858A1.579,1.579,0,0,0,418.394,445.848Z" transform="translate(-369.286 -375.485)" fill="#263238"/>
      <path id="Path_47773" data-name="Path 47773" d="M395.81,450.993a1.967,1.967,0,0,0,.424.2,10.178,10.178,0,0,0,1.219.377,17.539,17.539,0,0,0,4.188.4c1.643-.02,3.124-.094,4.2-.138l1.269-.067a2.772,2.772,0,0,0,.465-.047,2.221,2.221,0,0,0-.468-.024h-1.269l-4.194.081a19.626,19.626,0,0,1-4.157-.337C396.433,451.226,395.823,450.956,395.81,450.993Z" transform="translate(-354.35 -380.121)" fill="#263238"/>
      <path id="Path_47774" data-name="Path 47774" d="M394.85,449.943c0,.024.313-.151.821-.374a3.8,3.8,0,0,1,2.074-.337,3.3,3.3,0,0,1,1.794,1.064,6.449,6.449,0,0,0,.63.646,3.367,3.367,0,0,0-.535-.734,4.376,4.376,0,0,0-.727-.673,2.605,2.605,0,0,0-1.134-.478,3.632,3.632,0,0,0-2.158.407A2.8,2.8,0,0,0,394.85,449.943Z" transform="translate(-353.714 -378.823)" fill="#263238"/>
      <path id="Path_47775" data-name="Path 47775" d="M343.805,427.72s-10.375,6.793-10.745,7.069c-.559.421.081,2.431,1.05,2.084.458-.165,9.163-2.589,10.1-2.952a24.364,24.364,0,0,0,3.457-2.4Z" transform="translate(-312.586 -364.685)" fill="#7a69d4"/>
      <path id="Path_47776" data-name="Path 47776" d="M352.565,440.33a2.427,2.427,0,0,0-1.865-1.7,9.539,9.539,0,0,1,1.047.727A10.188,10.188,0,0,1,352.565,440.33Z" transform="translate(-324.426 -371.922)" fill="#263238"/>
      <path id="Path_47777" data-name="Path 47777" d="M355.767,437.863a2.75,2.75,0,0,0-1.639-1.683c-.027.047.428.337.875.781S355.72,437.89,355.767,437.863Z" transform="translate(-326.699 -370.297)" fill="#263238"/>
      <path id="Path_47778" data-name="Path 47778" d="M358.9,435.824a2.044,2.044,0,0,0-1.461-1.814,7.986,7.986,0,0,1,.879.8A7.383,7.383,0,0,1,358.9,435.824Z" transform="translate(-328.897 -368.858)" fill="#263238"/>
      <path id="Path_47779" data-name="Path 47779" d="M358.923,430.455c.027,0-.114-.293-.232-.778a4.229,4.229,0,0,1-.125-.858,3.782,3.782,0,0,1,0-.512.421.421,0,0,1,.057-.219.1.1,0,0,1,.141-.034c.118.047.178.249.236.411a2.6,2.6,0,0,1,.1.491,3.58,3.58,0,0,1-.027.865c-.071.491-.168.791-.141.8a2.182,2.182,0,0,0,.269-.781,3.213,3.213,0,0,0,.067-.9,2.536,2.536,0,0,0-.1-.532,2.229,2.229,0,0,0-.1-.273.485.485,0,0,0-.236-.252.293.293,0,0,0-.364.1.6.6,0,0,0-.084.31,3.777,3.777,0,0,0,.162,1.421A1.979,1.979,0,0,0,358.923,430.455Z" transform="translate(-329.518 -364.777)" fill="#263238"/>
      <path id="Path_47780" data-name="Path 47780" d="M359.89,434.343c0,.027.256-.094.673-.2a3.752,3.752,0,0,1,.744-.1,1.644,1.644,0,0,1,.427.027.293.293,0,0,1,.249.242.377.377,0,0,1-.178.337.852.852,0,0,1-.384.128,1.862,1.862,0,0,1-.73-.074,4.909,4.909,0,0,0-.673-.2,1.918,1.918,0,0,0,.64.337,1.845,1.845,0,0,0,.784.118.976.976,0,0,0,.468-.148.545.545,0,0,0,.259-.491.465.465,0,0,0-.387-.4,1.8,1.8,0,0,0-.478-.02,3.309,3.309,0,0,0-.771.145A1.559,1.559,0,0,0,359.89,434.343Z" transform="translate(-330.522 -368.777)" fill="#263238"/>
      <path id="Path_47781" data-name="Path 47781" d="M338.347,448.752c0,.017.175-.1.256-.4a1.555,1.555,0,0,0-.2-1.128,4.333,4.333,0,0,0-.337-.518,2.02,2.02,0,0,0-.353-.377.612.612,0,0,0-.337-.138c-.088,0-.131.017-.131.027a.76.76,0,0,1,.377.212,2.232,2.232,0,0,1,.3.377,5.939,5.939,0,0,1,.337.5,1.6,1.6,0,0,1,.229,1.01A3.75,3.75,0,0,1,338.347,448.752Z" transform="translate(-315.504 -376.937)" fill="#263238"/>
      <path id="Path_47782" data-name="Path 47782" d="M349.059,442.518a1.269,1.269,0,0,0-.367-.993,1.249,1.249,0,0,0-.912-.535,5.91,5.91,0,0,1,.771.653A6.007,6.007,0,0,1,349.059,442.518Z" transform="translate(-322.489 -373.488)" fill="#263238"/>
      <path id="Path_47783" data-name="Path 47783" d="M347.865,440.07a3.179,3.179,0,0,0-.458.31,13.206,13.206,0,0,1-1.279.784,16.742,16.742,0,0,1-2.02.906c-.788.293-1.683.569-2.6.838-1.868.539-3.558,1.03-4.777,1.4l-1.451.454a3.178,3.178,0,0,0-.522.189,3.517,3.517,0,0,0,.542-.118l1.458-.407c1.229-.337,2.922-.808,4.79-1.347.932-.273,1.818-.555,2.606-.858a15.425,15.425,0,0,0,2.037-.949,10.264,10.264,0,0,0,1.259-.842,3.291,3.291,0,0,0,.414-.357Z" transform="translate(-313.852 -372.878)" fill="#263238"/>
      <path id="Path_47784" data-name="Path 47784" d="M365.457,439.9a2.99,2.99,0,0,0-.879-.236,3.649,3.649,0,0,0-2.181.269,2.575,2.575,0,0,0-.922.815,4.375,4.375,0,0,0-.488.869,3.27,3.27,0,0,0-.286.862,6.8,6.8,0,0,0,.4-.808,3.3,3.3,0,0,1,1.387-1.562,3.807,3.807,0,0,1,2.08-.3C365.11,439.848,365.45,439.922,365.457,439.9Z" transform="translate(-331.059 -372.565)" fill="#263238"/>
      <path id="Path_47785" data-name="Path 47785" d="M371.269,377.414a4.964,4.964,0,0,1,3.124,4.6c.027,6.682-13.506,14.051-13.506,14.051l-18.01-11.93-1.128-.458S366.072,374.549,371.269,377.414Z" transform="translate(-318.489 -330.944)" fill="#263238"/>
      <path id="Path_47786" data-name="Path 47786" d="M372.2,397.912a3.329,3.329,0,0,0,.471-.316c.293-.215.714-.532,1.229-.932,1.033-.794,2.434-1.926,3.945-3.222s2.838-2.511,3.78-3.41c.471-.448.848-.818,1.108-1.077a3.172,3.172,0,0,0,.384-.414,3.289,3.289,0,0,0-.434.364l-1.145,1.033c-.966.872-2.306,2.074-3.814,3.366s-2.9,2.437-3.9,3.259l-1.2.976A3.566,3.566,0,0,0,372.2,397.912Z" transform="translate(-338.688 -338.694)" fill="#455a64"/>
      <path id="Path_47787" data-name="Path 47787" d="M407.879,385.881a4.474,4.474,0,0,0-3.279.966c.03.05.673-.37,1.6-.633S407.879,385.938,407.879,385.881Z" transform="translate(-360.181 -336.914)" fill="#455a64"/>
      <path id="Path_47788" data-name="Path 47788" d="M406.519,382.8a2.754,2.754,0,0,0-1.629,2.02,12.8,12.8,0,0,1,.7-1.1C406.048,383.167,406.55,382.847,406.519,382.8Z" transform="translate(-360.374 -334.887)" fill="#455a64"/>
      <path id="Path_47789" data-name="Path 47789" d="M430.4,445.644c0-.02-.215-.064-.465.141a1.656,1.656,0,0,0-.518,1.044,2.05,2.05,0,0,0,.162,1.155c.128.273.269.4.286.387a3.244,3.244,0,0,0-.165-.438,2.326,2.326,0,0,1-.1-1.077,1.8,1.8,0,0,1,.424-.976C430.213,445.681,430.4,445.674,430.4,445.644Z" transform="translate(-376.628 -376.563)" fill="#263238"/>
      <path id="Path_47790" data-name="Path 47790" d="M349.068,346.06l-6.413,16.259-27.614.451-.512-1.495,9.678-.35L328.86,346.5Z" transform="translate(-300.432 -310.514)" fill="#455a64"/>
      <path id="Path_47791" data-name="Path 47791" d="M377.779,366.742a1.232,1.232,0,0,1,1.33.145,1.067,1.067,0,0,1,.259,1.175,1.161,1.161,0,0,1-1.01.7,1.05,1.05,0,0,1-1.057-.7,1.188,1.188,0,0,1,.465-1.32" transform="translate(-342.039 -324.147)" fill="#ebebeb"/>
      <path id="Path_47792" data-name="Path 47792" d="M325.665,399.868s-25.443-16.69-26.48-17.037-3.562-2-6.076-1.3-4.777,2.952-5.9,6.251a33.608,33.608,0,0,0-1.094,7.514,11.159,11.159,0,0,0,2.609,7.945,7.1,7.1,0,0,0,3.171,2.252c.266.084.542.155.825.215a11.958,11.958,0,0,0,12.455-5.231l.592-.9s16.646,6.113,16.906,6.029Z" transform="translate(-281.563 -333.931)" fill="#263238"/>
      <path id="Path_47793" data-name="Path 47793" d="M310.16,397.462a1.419,1.419,0,0,0,.138.061l.417.165,1.612.623,6,2.259c2.545.949,5.595,2.08,9.018,3.326s7.214,2.609,11.267,3.979l.071.027.037-.071,1.99-3.8,1.01-1.936.037-.074-.071-.044-19.407-12.321-5.83-3.676-1.582-.99-.414-.252c-.094-.057-.145-.081-.145-.081l.135.1.4.266,1.565,1.01,5.817,3.733L341.6,402.135l-.034-.121c-.32.616-.673,1.272-1.01,1.936l-1.986,3.8.111-.044c-4.04-1.367-7.844-2.727-11.27-3.962l-9.032-3.286-6.029-2.215-1.623-.592-.424-.148Z" transform="translate(-297.533 -336.12)" fill="#455a64"/>
      <path id="Path_47794" data-name="Path 47794" d="M308.856,242.546a3.259,3.259,0,0,1,2.609-1.976,3.9,3.9,0,0,1,3.491.9c.616.562,1.067,1.347,1.828,1.683,1.256.569,2.861-.263,4.04.434a1.777,1.777,0,0,1-1.145,3.292,1.575,1.575,0,0,1,.407,2.323,2.37,2.37,0,0,1-2.474.653,5,5,0,0,1-2.2-1.518c-.613-.673-1.151-1.4-1.818-2.02a3.868,3.868,0,0,0-2.4-1.138A3.544,3.544,0,0,0,308.2,247a9.168,9.168,0,0,0-1.06,3.488,14.93,14.93,0,0,1-.781,3.575c-.054.135-.135.279-.273.31-.205.044-.353-.182-.434-.374a17.932,17.932,0,0,1-1.434-6.834,5.578,5.578,0,0,1,.983-3.7c.845-1.067,2.794-1.73,3.646-.929" transform="translate(-293.59 -240.468)" fill="#263238"/>
      <path id="Path_47795" data-name="Path 47795" d="M305.717,251.147l-1.872,13.593a4.083,4.083,0,0,0,3.7,4.622h0a4.087,4.087,0,0,0,4.4-3.518c.138-1.01.256-1.875.279-1.979a4.158,4.158,0,0,0,4.225-3.238c.337-1.639.791-5.073,1.158-8.184a6.457,6.457,0,0,0-5.15-7.069l-.337-.064C308.542,244.8,306.118,247.558,305.717,251.147Z" transform="translate(-293.319 -243.639)" fill="#ffbe9d"/>
      <path id="Path_47796" data-name="Path 47796" d="M320.588,296.158A8.079,8.079,0,0,1,316.41,294a4.277,4.277,0,0,0,4.009,3.03Z" transform="translate(-301.679 -275.98)" fill="#eb996e"/>
      <path id="Path_47797" data-name="Path 47797" d="M338.536,271.725a.491.491,0,0,1-.566.394.468.468,0,0,1-.411-.535.491.491,0,0,1,.566-.4.471.471,0,0,1,.411.539Z" transform="translate(-315.705 -260.841)" fill="#263238"/>
      <path id="Path_47798" data-name="Path 47798" d="M337.805,269.7c-.074.054-.387-.293-.909-.4s-.959.084-1.01,0,.064-.135.256-.222a1.319,1.319,0,0,1,.815-.084,1.289,1.289,0,0,1,.707.394C337.809,269.547,337.839,269.675,337.805,269.7Z" transform="translate(-314.591 -259.37)" fill="#263238"/>
      <path id="Path_47799" data-name="Path 47799" d="M323.211,269.208a.491.491,0,0,1-.566.4.478.478,0,0,1-.414-.539.5.5,0,0,1,.566-.4.475.475,0,0,1,.414.539Z" transform="translate(-305.538 -259.172)" fill="#263238"/>
      <path id="Path_47800" data-name="Path 47800" d="M322.5,266.941c-.074.051-.387-.3-.909-.4s-.959.084-1.01,0,.064-.135.256-.222a1.36,1.36,0,0,1,1.525.31C322.5,266.81,322.529,266.917,322.5,266.941Z" transform="translate(-304.435 -257.541)" fill="#263238"/>
      <path id="Path_47801" data-name="Path 47801" d="M329.63,272.33a3.382,3.382,0,0,1,.879.017c.138,0,.269,0,.31-.077a.673.673,0,0,0,0-.411c-.061-.337-.125-.714-.192-1.1a18.169,18.169,0,0,1-.357-2.831,16.438,16.438,0,0,1,.582,2.8c.061.384.121.747.175,1.1a.774.774,0,0,1-.037.539.336.336,0,0,1-.256.148.827.827,0,0,1-.232,0A3.576,3.576,0,0,1,329.63,272.33Z" transform="translate(-310.449 -258.685)" fill="#263238"/>
      <path id="Path_47802" data-name="Path 47802" d="M324.537,281.178c.088,0-.027.579.377,1.077s1.01.559,1.01.64-.155.081-.411.037a1.451,1.451,0,0,1-.852-.5,1.263,1.263,0,0,1-.279-.9C324.409,281.293,324.5,281.165,324.537,281.178Z" transform="translate(-306.965 -267.473)" fill="#263238"/>
      <path id="Path_47803" data-name="Path 47803" d="M323.121,261.129c-.077.135-.586-.037-1.215-.088s-1.155.02-1.212-.125c-.024-.067.091-.182.316-.279a2.053,2.053,0,0,1,.943-.135,2.02,2.02,0,0,1,.909.3C323.067,260.934,323.151,261.068,323.121,261.129Z" transform="translate(-304.519 -253.753)" fill="#263238"/>
      <path id="Path_47804" data-name="Path 47804" d="M338.464,265.062c-.114.1-.448-.094-.882-.189s-.815-.077-.872-.219c-.027-.067.054-.175.239-.256a1.249,1.249,0,0,1,.757-.051,1.215,1.215,0,0,1,.656.38C338.487,264.88,338.518,265.011,338.464,265.062Z" transform="translate(-315.142 -256.285)" fill="#263238"/>
      <path id="Path_47805" data-name="Path 47805" d="M303.625,269.818c-.054-.037-2.2-1.158-2.589,1.182a1.782,1.782,0,0,0,2.053,2.181C303.1,273.113,303.625,269.818,303.625,269.818Z" transform="translate(-291.452 -259.738)" fill="#ffbe9d"/>
      <path id="Path_47806" data-name="Path 47806" d="M303.689,273.6a.611.611,0,0,1-.118.044.421.421,0,0,1-.306-.044,1.01,1.01,0,0,1-.316-.983,1.346,1.346,0,0,1,.212-.566.481.481,0,0,1,.347-.273.212.212,0,0,1,.222.155.2.2,0,0,1,0,.118s.057-.03.054-.128a.266.266,0,0,0-.067-.162.3.3,0,0,0-.215-.1.579.579,0,0,0-.485.29,1.42,1.42,0,0,0-.252.629,1.065,1.065,0,0,0,.428,1.108.441.441,0,0,0,.384,0C303.676,273.653,303.7,273.6,303.689,273.6Z" transform="translate(-292.617 -261.16)" fill="#eb996e"/>
      <path id="Path_47807" data-name="Path 47807" d="M321.2,250.931a5.009,5.009,0,0,1-4.164-1.851c-.673-.868-1.121-2-2.094-2.528a2.824,2.824,0,0,0-2.171-.135,5.484,5.484,0,0,0-1.892,1.151c.31,1.858-.515,3.7-1.32,5.386a.939.939,0,0,1-.38.481c-.316.158-.693-.091-.885-.39a2.935,2.935,0,0,1-.337-1.639,9.8,9.8,0,0,1,.774-3.764,6.641,6.641,0,0,1,2.447-2.929,6.292,6.292,0,0,1,4.649-.771,7.743,7.743,0,0,1,4.077,2.447,4.548,4.548,0,0,1,1.1,1.929" transform="translate(-296.065 -242.673)" fill="#263238"/>
    </g>
    <g id="freepik--Plant--inject-44" transform="translate(38.379 114.129)">
      <path id="Path_47808" data-name="Path 47808" d="M56.273,315.767a.673.673,0,0,1,.061-.141l.189-.407a10.4,10.4,0,0,0,.562-1.629,14.365,14.365,0,0,0-.05-6.285,33.349,33.349,0,0,0-1.165-4.225c-.495-1.5-1.067-3.087-1.535-4.807a18.643,18.643,0,0,1-.757-5.528,21.643,21.643,0,0,1,1.286-5.851,28.2,28.2,0,0,0,1.488-5.76,8.752,8.752,0,0,0-1.054-5.319c-.845-1.555-1.9-2.882-2.693-4.258a14.812,14.812,0,0,1-1.623-4.09,15.266,15.266,0,0,1-.1-6.339,11.981,11.981,0,0,1,.673-2.239.892.892,0,0,1-.037.151l-.135.428a15.132,15.132,0,0,0-.246,7.965,14.623,14.623,0,0,0,1.626,4.04c.791,1.347,1.855,2.693,2.713,4.252a8.968,8.968,0,0,1,1.074,5.42,28.485,28.485,0,0,1-1.495,5.8,21.64,21.64,0,0,0-1.279,5.793,18.515,18.515,0,0,0,.737,5.474c.461,1.71,1.03,3.3,1.515,4.8a33.116,33.116,0,0,1,1.148,4.248,14.483,14.483,0,0,1,0,6.332,9.245,9.245,0,0,1-.6,1.626c-.088.168-.158.3-.209.4a.884.884,0,0,1-.094.141Z" transform="translate(-46.484 -258.89)" fill="#263238"/>
      <path id="Path_47809" data-name="Path 47809" d="M58.867,284.344s-1.612-5.15,1.279-8.167a.178.178,0,0,1,.306.088C60.607,277.116,60.8,279.708,58.867,284.344Z" transform="translate(-51.673 -270.319)" fill="#7a69d4"/>
      <path id="Path_47810" data-name="Path 47810" d="M60.6,281.39a4.808,4.808,0,0,1-.111.949c-.1.673-.229,1.424-.367,2.272s-.256,1.619-.36,2.272a5.049,5.049,0,0,1-.172.943,4.131,4.131,0,0,1,.03-.959c.054-.589.158-1.4.3-2.286s.3-1.683.428-2.266A4.175,4.175,0,0,1,60.6,281.39Z" transform="translate(-52.44 -273.816)" fill="#263238"/>
      <path id="Path_47811" data-name="Path 47811" d="M65.37,323.6s.986-5.309,4.952-6.615a.178.178,0,0,1,.229.222C70.295,318.017,69.248,320.4,65.37,323.6Z" transform="translate(-56.284 -297.419)" fill="#7a69d4"/>
      <path id="Path_47812" data-name="Path 47812" d="M69.155,321.05a4.8,4.8,0,0,1-.542.788c-.4.532-.869,1.151-1.387,1.838l-1.394,1.841a5.193,5.193,0,0,1-.592.751,4.123,4.123,0,0,1,.475-.835c.337-.495.791-1.161,1.347-1.878s1.057-1.347,1.437-1.8A4.161,4.161,0,0,1,69.155,321.05Z" transform="translate(-56.198 -300.125)" fill="#263238"/>
      <path id="Path_47813" data-name="Path 47813" d="M62.11,360.81s-.6-5.366,2.814-7.776a.178.178,0,0,1,.283.148C65.2,354.043,64.891,356.625,62.11,360.81Z" transform="translate(-54.095 -321.319)" fill="#7a69d4"/>
      <path id="Path_47814" data-name="Path 47814" d="M64.315,357.93a4.531,4.531,0,0,1-.29.912L63.231,361l-.784,2.161a4.982,4.982,0,0,1-.337.892,4.309,4.309,0,0,1,.212-.936c.165-.569.421-1.347.734-2.188s.619-1.6.852-2.141A4.212,4.212,0,0,1,64.315,357.93Z" transform="translate(-54.122 -324.59)" fill="#263238"/>
      <path id="Path_47815" data-name="Path 47815" d="M71.031,400.827s-.407-5.386,3.09-7.668a.178.178,0,0,1,.279.155C74.357,394.171,73.96,396.74,71.031,400.827Z" transform="translate(-60.03 -347.938)" fill="#7a69d4"/>
      <path id="Path_47816" data-name="Path 47816" d="M73.417,398a4.662,4.662,0,0,1-.337.9c-.252.613-.545,1.347-.872,2.128l-.865,2.134a5.134,5.134,0,0,1-.343.862,4.077,4.077,0,0,1,.246-.926c.182-.562.468-1.326.811-2.158s.673-1.579.926-2.111A4.269,4.269,0,0,1,73.417,398Z" transform="translate(-60.019 -351.171)" fill="#263238"/>
      <path id="Path_47817" data-name="Path 47817" d="M43.257,273.588s-4.784-2.5-4.878-6.675a.178.178,0,0,1,.279-.155C39.369,267.25,41.339,268.943,43.257,273.588Z" transform="translate(-38.379 -264.089)" fill="#7a69d4"/>
      <path id="Path_47818" data-name="Path 47818" d="M41.33,271.54a4.679,4.679,0,0,1,.6.747l1.347,1.865,1.347,1.862a5.275,5.275,0,0,1,.545.784,3.814,3.814,0,0,1-.673-.7c-.38-.451-.882-1.1-1.407-1.828s-.983-1.407-1.3-1.905a4.134,4.134,0,0,1-.451-.828Z" transform="translate(-40.337 -267.282)" fill="#263238"/>
      <path id="Path_47819" data-name="Path 47819" d="M57.734,307.074s-4.925-2.2-5.275-6.366a.178.178,0,0,1,.269-.168C53.469,300.974,55.539,302.547,57.734,307.074Z" transform="translate(-47.719 -286.503)" fill="#7a69d4"/>
      <path id="Path_47820" data-name="Path 47820" d="M55.67,305.14a4.787,4.787,0,0,1,.64.71l1.461,1.781,1.464,1.774a4.881,4.881,0,0,1,.586.737,4.335,4.335,0,0,1-.7-.673c-.407-.431-.946-1.044-1.515-1.74s-1.067-1.346-1.414-1.821A4.114,4.114,0,0,1,55.67,305.14Z" transform="translate(-49.849 -289.571)" fill="#263238"/>
      <path id="Path_47821" data-name="Path 47821" d="M55.338,340.5s-3.383-4.208-1.794-8.079a.178.178,0,0,1,.316-.03C54.314,333.131,55.435,335.471,55.338,340.5Z" transform="translate(-48.157 -307.591)" fill="#7a69d4"/>
      <path id="Path_47822" data-name="Path 47822" d="M55.369,337.75a4.666,4.666,0,0,1,.246.922c.141.65.306,1.41.491,2.252s.337,1.6.495,2.245a5.275,5.275,0,0,1,.185.939,3.855,3.855,0,0,1-.337-.9c-.168-.569-.367-1.347-.555-2.242s-.337-1.683-.431-2.262A4.376,4.376,0,0,1,55.369,337.75Z" transform="translate(-49.65 -311.203)" fill="#263238"/>
      <path id="Path_47823" data-name="Path 47823" d="M59.487,386.682s-4.891-2.282-5.167-6.457a.178.178,0,0,1,.269-.165C55.322,380.522,57.366,382.127,59.487,386.682Z" transform="translate(-48.953 -339.254)" fill="#7a69d4"/>
      <path id="Path_47824" data-name="Path 47824" d="M57.45,384.73a4.714,4.714,0,0,1,.63.72c.411.522.9,1.131,1.431,1.8l1.434,1.8a5.28,5.28,0,0,1,.579.761,3.994,3.994,0,0,1-.673-.673c-.4-.434-.926-1.057-1.481-1.764s-1.06-1.36-1.4-1.841a4.491,4.491,0,0,1-.522-.808Z" transform="translate(-51.03 -342.368)" fill="#263238"/>
      <path id="Path_47825" data-name="Path 47825" d="M80.2,336.73a.522.522,0,0,1,0,.121v.337c0,.337-.034.764-.057,1.31-.064,1.151-.151,2.754-.256,4.676h0a17.736,17.736,0,0,1-2.693,6.218c-.98,1.548-2.02,2.959-2.892,4.268a30.148,30.148,0,0,0-2.171,3.585,15.052,15.052,0,0,0-1.01,2.633c-.088.32-.151.572-.189.744a1.346,1.346,0,0,1-.071.259,1.324,1.324,0,0,1,.03-.266c.024-.175.077-.431.151-.757A14.044,14.044,0,0,1,72,357.164a28.907,28.907,0,0,1,2.144-3.626c.879-1.32,1.9-2.73,2.878-4.268a18.414,18.414,0,0,0,2.693-6.147h0c.135-1.915.246-3.518.337-4.669.044-.545.081-.983.1-1.306a2.494,2.494,0,0,1,.037-.337A.377.377,0,0,1,80.2,336.73Z" transform="translate(-59.926 -310.527)" fill="#263238"/>
      <path id="Path_47826" data-name="Path 47826" d="M87.839,356.8s2.07-4.986-.535-8.251a.178.178,0,0,0-.313.061C86.745,349.448,86.317,352.024,87.839,356.8Z" transform="translate(-70.462 -318.323)" fill="#7a69d4"/>
      <path id="Path_47827" data-name="Path 47827" d="M88.8,353.86a4.376,4.376,0,0,1,.165.943c.074.586.155,1.4.219,2.3s.094,1.713.094,2.3a3.854,3.854,0,0,1-.057.956,4.952,4.952,0,0,1-.084-.949c-.044-.673-.1-1.437-.155-2.3s-.114-1.636-.158-2.3A4.861,4.861,0,0,1,88.8,353.86Z" transform="translate(-71.821 -321.89)" fill="#263238"/>
      <g id="Group_67956" data-name="Group 67956" transform="translate(16.28 30.16)" opacity="0.3">
        <path id="Path_47828" data-name="Path 47828" d="M87.839,356.8s2.07-4.986-.535-8.251a.178.178,0,0,0-.313.061C86.745,349.448,86.317,352.024,87.839,356.8Z" transform="translate(-86.742 -348.483)"/>
      </g>
      <path id="Path_47829" data-name="Path 47829" d="M67.723,392.652s1.66-5.134-1.2-8.177a.178.178,0,0,0-.306.084C66.05,385.408,65.835,388,67.723,392.652Z" transform="translate(-56.776 -342.161)" fill="#7a69d4"/>
      <path id="Path_47830" data-name="Path 47830" d="M68.21,389.69a4.262,4.262,0,0,1,.239.929c.121.576.269,1.377.407,2.269s.232,1.7.279,2.289a3.945,3.945,0,0,1,.02.959,5.333,5.333,0,0,1-.162-.943c-.1-.673-.212-1.424-.337-2.276s-.246-1.619-.337-2.276A4.875,4.875,0,0,1,68.21,389.69Z" transform="translate(-58.168 -345.658)" fill="#263238"/>
      <g id="Group_67957" data-name="Group 67957" transform="translate(9.335 42.257)" opacity="0.3">
        <path id="Path_47831" data-name="Path 47831" d="M67.723,392.652s1.66-5.134-1.2-8.177a.178.178,0,0,0-.306.084C66.05,385.408,65.835,388,67.723,392.652Z" transform="translate(-66.111 -384.418)"/>
      </g>
      <path id="Path_47832" data-name="Path 47832" d="M97.78,340.5s4.423-3.1,3.976-7.251a.178.178,0,0,0-.3-.118C100.82,333.73,99.083,335.646,97.78,340.5Z" transform="translate(-77.784 -308.109)" fill="#7a69d4"/>
      <g id="Group_67958" data-name="Group 67958" transform="translate(19.996 24.977)" opacity="0.3">
        <path id="Path_47833" data-name="Path 47833" d="M97.78,340.5s4.423-3.1,3.976-7.251a.178.178,0,0,0-.3-.118C100.82,333.73,99.083,335.646,97.78,340.5Z" transform="translate(-97.78 -333.086)"/>
      </g>
      <path id="Path_47834" data-name="Path 47834" d="M101.044,338.18a4.323,4.323,0,0,1-.367.882c-.252.535-.619,1.262-1.047,2.057s-.838,1.5-1.158,2a3.68,3.68,0,0,1-.562.774,5.359,5.359,0,0,1,.441-.848l1.1-2.02,1.1-2.02A4.657,4.657,0,0,1,101.044,338.18Z" transform="translate(-77.87 -311.488)" fill="#263238"/>
      <path id="Path_47835" data-name="Path 47835" d="M76.19,383.909s5.322-.831,6.763-4.757a.178.178,0,0,0-.215-.236C81.906,379.152,79.492,380.125,76.19,383.909Z" transform="translate(-63.462 -338.507)" fill="#7a69d4"/>
      <g id="Group_67959" data-name="Group 67959" transform="translate(12.728 40.403)" opacity="0.3">
        <path id="Path_47836" data-name="Path 47836" d="M76.19,383.909s5.322-.831,6.763-4.757a.178.178,0,0,0-.215-.236C81.906,379.152,79.492,380.125,76.19,383.909Z" transform="translate(-76.19 -378.91)"/>
      </g>
      <path id="Path_47837" data-name="Path 47837" d="M81.632,382.72a4.51,4.51,0,0,1-.714.63c-.461.37-1.111.862-1.845,1.384s-1.414.976-1.915,1.286a3.982,3.982,0,0,1-.848.448,5.265,5.265,0,0,1,.768-.569l1.882-1.326,1.875-1.347A4.551,4.551,0,0,1,81.632,382.72Z" transform="translate(-63.541 -341.035)" fill="#263238"/>
      <path id="Path_47838" data-name="Path 47838" d="M58.015,422.92,56.46,433.389h9.7L64.9,422.92Z" transform="translate(-50.374 -367.702)" fill="#455a64"/>
      <path id="Path_47839" data-name="Path 47839" d="M67.27,432.327a37.486,37.486,0,0,1-3.912.1,37.392,37.392,0,0,1-3.908-.1,38.569,38.569,0,0,1,3.908-.1A38.6,38.6,0,0,1,67.27,432.327Z" transform="translate(-52.357 -373.868)" fill="#263238"/>
      <path id="Path_47840" data-name="Path 47840" d="M67.329,434.8c0,.054-1.808.1-4.04.1s-4.04-.047-4.04-.1,1.808-.1,4.04-.1S67.329,434.754,67.329,434.8Z" transform="translate(-52.224 -375.517)" fill="#263238"/>
    </g>
  </g>
</svg>
