<svg width="552" height="380" viewBox="0 0 552 380" fill="none" xmlns="http://www.w3.org/2000/svg">
<g opacity="0.2">
<path d="M155.902 258.68L310.977 238.225L270.632 215.108L292.661 202.391L342.066 230.707L357.494 221.804L308.089 193.5L330.216 180.746L379.621 209.05L417.127 187.418L463.152 213.796L425.646 235.429L475.58 264.052L453.453 276.806L403.519 248.183L388.104 257.086L438.025 285.697L415.898 298.438L375.552 275.31L340.604 364.526L286.269 333.389L309.76 297.224C321.254 279.295 324.623 274.745 331.998 263.291L330.45 262.408C310.351 266.566 300.848 268.761 271.443 275.297L209.18 289.216L155.902 258.68Z" fill="#4C58A9"/>
<path d="M327.081 179.557L294.161 198.639C311.899 212.472 316.804 227.114 316.042 242.112L261.953 244.418C260.724 231.566 255.807 222.515 242.678 214.986C227.508 206.242 214.134 204.758 199.935 212.987C171.268 229.616 258.4 278.167 197.366 313.547C166.13 331.648 124.838 336.112 83.484 320.795L49.6784 340.416L16.217 321.15L48.3016 302.547C31.4479 290.21 16.7825 271.888 15.2827 254.719L71.6459 247.79C75.7272 264.959 84.0372 276.622 98.8871 285.169C116.614 295.372 131.168 295.887 145.084 287.818C176.038 269.877 91.4376 220.136 149.35 186.559C181.705 167.796 222.763 165.503 260.134 179.802L293.62 160.389L327.081 179.557Z" fill="#4C58A9"/>
<path d="M261.683 254.315L230.877 248.502C222.333 261.991 207.114 272.182 189.88 277.259L165.122 257.074C178.484 252.598 184.483 246.54 188.232 240.408L97.5472 223.3C93.3553 232.535 95.9614 240.776 99.8091 247.913L60.0414 254.045C50.207 241.217 50.5512 227.065 55.1242 215.305L24.0107 209.43L33.2796 193.034L65.2413 199.08C87.467 171.132 129.165 158.194 178.877 167.575C193.272 170.298 205.086 174.504 214.355 179.839C236.199 192.421 243.981 211.307 238.289 231.738L270.866 237.869L261.683 254.315ZM110.307 207.579L193.899 223.349C194.194 214.851 189.892 208.241 181.705 203.519C175.694 200.297 169.189 198.092 162.454 196.995C141.999 193.145 123.117 196.995 110.332 207.579" fill="#4C58A9"/>
</g>
<path d="M353.411 91.7471C351.819 92.6546 350.091 93.298 348.293 93.6521H348.201C347.338 93.814 346.466 93.9209 345.589 93.9721H345.008C344.108 94.0252 343.205 94.0252 342.304 93.9721L314.989 109.807H315.218C315.799 109.807 316.379 109.807 316.96 109.807H317.678H318.259C318.442 109.807 318.64 109.807 318.824 109.807C319.511 109.75 320.195 109.653 320.871 109.517H320.963C321.764 109.352 322.555 109.139 323.33 108.877H323.437C324.355 108.56 325.24 108.157 326.08 107.673L353.411 91.7471Z" fill="#DBE2F9" stroke="#424189" stroke-width="1.8" stroke-linecap="round" stroke-linejoin="round"/>
<path d="M355.763 45.3101L343.42 39.3055L316.104 55.14L328.433 61.1447L329.395 61.7086L356.71 45.8588L355.763 45.3101Z" fill="#DBE2F9" stroke="#424189" stroke-width="1.8" stroke-linecap="round" stroke-linejoin="round"/>
<path d="M386.714 87.1597C386.714 86.6873 386.714 86.1996 386.714 85.6357C386.714 84.7365 386.714 83.8373 386.714 83.0143L359.384 98.8642C359.384 99.2299 359.384 99.611 359.384 100.007C359.384 100.403 359.384 100.983 359.384 101.531C359.384 102.415 359.46 103.314 359.46 104.152C359.46 105.235 359.46 106.256 359.353 107.201C359.353 107.353 359.353 107.521 359.353 107.658C359.277 108.587 359.185 109.456 359.063 110.279V110.614C358.926 111.437 358.773 112.138 358.574 112.961C358.556 113.06 358.53 113.156 358.498 113.251C358.306 113.943 358.076 114.625 357.81 115.293C357.81 115.43 357.703 115.567 357.642 115.72C357.413 116.223 357.169 116.695 356.909 117.152C356.802 117.351 356.71 117.549 356.588 117.732C356.233 118.31 355.84 118.865 355.412 119.393L355.122 119.713C354.753 120.151 354.361 120.568 353.945 120.962L353.502 121.374C352.952 121.862 352.387 122.334 351.761 122.791V123.523L379.091 107.688V106.941C379.718 106.484 380.283 106.012 380.833 105.539L381.26 105.128C381.688 104.716 382.085 104.305 382.452 103.878C382.544 103.771 382.651 103.665 382.742 103.543C383.135 103.061 383.493 102.552 383.812 102.019C383.812 102.019 383.812 101.897 383.919 101.836L384.24 101.257C384.408 100.952 384.591 100.662 384.728 100.358C384.866 100.053 384.881 99.992 384.958 99.8091L385.141 99.3823C385.141 99.2451 385.263 99.1233 385.309 98.9861C385.462 98.5594 385.614 98.1326 385.737 97.6907L385.828 97.3554V97.0506C385.828 96.8372 385.951 96.6392 385.996 96.4258C386.042 96.2124 386.18 95.5723 386.256 95.1151C386.256 94.9931 386.256 94.856 386.256 94.7188V94.3836C386.256 94.1702 386.332 93.9568 386.348 93.7282C386.348 93.2253 386.47 92.7224 386.516 92.2042C386.516 92.0671 386.516 91.9146 386.516 91.7775C386.516 91.6403 386.516 91.4727 386.516 91.3203C386.516 91.1679 386.516 90.7411 386.516 90.4363C386.516 89.781 386.516 89.08 386.516 88.3637V88.2266C386.73 87.9522 386.714 87.6169 386.714 87.1597Z" fill="#F8CABB" stroke="#424189" stroke-width="1.8" stroke-linecap="round" stroke-linejoin="round"/>
<path d="M351.639 123.584L378.969 107.734L425.716 134.663L398.386 150.498L351.639 123.584Z" fill="#DBE2F9" stroke="#424189" stroke-width="1.8" stroke-linecap="round" stroke-linejoin="round"/>
<path d="M398.386 150.498L425.716 134.663L425.64 162.187L398.31 178.022L398.386 150.498Z" fill="#F8CABB" stroke="#424189" stroke-width="1.8" stroke-linecap="round" stroke-linejoin="round"/>
<path d="M382.513 92.2957L409.844 76.4611L409.783 96.4563L382.452 112.291L382.513 92.2957Z" fill="#F8CABB" stroke="#424189" stroke-width="1.8" stroke-linecap="round" stroke-linejoin="round"/>
<path d="M355.626 76.8116L382.956 60.9771L409.844 76.4611L382.513 92.2957L355.626 76.8116Z" fill="#DBE2F9" stroke="#424189" stroke-width="1.8" stroke-linecap="round" stroke-linejoin="round"/>
<path d="M381.795 53.8142C381.795 53.6618 381.795 53.5094 381.795 53.3723C381.642 52.2445 381.535 51.1624 381.444 50.0803C381.451 49.9382 381.451 49.7958 381.444 49.6537C381.367 48.5259 381.321 47.4438 381.321 46.3922C381.321 45.6302 381.321 44.8682 381.321 44.2282C381.313 44.1114 381.313 43.9943 381.321 43.8776C381.321 43.2222 381.428 42.6127 381.505 42.0336V41.7287C381.596 41.1496 381.703 40.6009 381.826 40.0828V39.8846C381.948 39.3817 382.101 38.9093 382.253 38.4673C382.251 38.4318 382.251 38.3962 382.253 38.3606C382.41 37.9502 382.589 37.5483 382.788 37.1567C382.85 37.0247 382.922 36.8974 383.002 36.7757C383.117 36.5698 383.244 36.3713 383.384 36.1813C383.573 35.8934 383.788 35.623 384.025 35.3735C384.12 35.255 384.222 35.143 384.331 35.0383C384.661 34.7201 385.024 34.439 385.416 34.2001L358.253 50.0498C357.865 50.2871 357.502 50.5629 357.169 50.8729L356.863 51.2081C356.634 51.4646 356.419 51.7343 356.222 52.0159C356.17 52.0856 356.114 52.1518 356.053 52.214C356.053 52.3359 355.916 52.4883 355.84 52.6103L355.626 53.0064C355.591 53.0807 355.55 53.1521 355.504 53.2198C355.366 53.5094 355.229 53.8294 355.106 54.1647C355.113 54.2051 355.113 54.2463 355.106 54.2866C355.015 54.5305 354.923 54.7896 354.847 55.0639C354.77 55.3382 354.74 55.4754 354.679 55.6887V55.9021C354.671 55.9475 354.671 55.9939 354.679 56.0393C354.602 56.3594 354.526 56.7098 354.465 57.0604C354.404 57.4109 354.465 57.3804 354.388 57.5481C354.38 57.6495 354.38 57.7514 354.388 57.8528C354.388 57.9595 354.388 58.051 354.388 58.1729C354.388 58.5539 354.312 58.9502 354.266 59.3617C354.274 59.4682 354.274 59.5751 354.266 59.6816C354.266 59.8036 354.266 59.9255 354.266 60.0474V60.6723C354.266 61.1447 354.266 61.6172 354.266 62.1201V62.2116C354.266 62.6231 354.266 63.0497 354.266 63.4764C354.266 63.9032 354.266 64.5128 354.266 65.0005C354.274 65.1426 354.274 65.2851 354.266 65.4272C354.274 65.5745 354.274 65.7219 354.266 65.8692C354.266 66.1892 354.266 66.494 354.358 66.8293C354.358 67.5608 354.51 68.3534 354.602 69.0849C354.602 69.2373 354.602 69.4049 354.602 69.5725C354.724 70.3955 354.831 71.249 354.969 72.1024C354.987 72.2409 355.012 72.3783 355.045 72.514C355.259 73.8856 355.504 75.2877 355.763 76.705L383.094 60.8552C382.834 59.4531 382.589 58.051 382.36 56.6641C382.07 55.7802 381.917 54.7896 381.795 53.8142Z" fill="#F8CABB" stroke="#424189" stroke-width="1.8" stroke-linecap="round" stroke-linejoin="round"/>
<path d="M366.518 23.7453C380.268 31.6702 390.335 43.5575 398.6 59.6969L383.186 68.46C379.03 60.3827 374.722 54.9419 369.436 51.9091C360.148 46.5598 353.884 48.861 353.854 62.2419C353.996 67.1449 354.574 72.0256 355.58 76.8268L382.467 92.3109V112.306L359.262 98.9404C359.262 100.586 359.415 102.507 359.415 104.183C359.415 113.708 357.291 118.753 351.654 122.852V123.584L398.401 150.513V178.037L315.02 130.015V109.822C325.714 110.675 334.59 104.381 334.62 89.7048C334.62 88.0589 334.467 86.291 334.315 84.5536L316.074 74.0531V55.1553L328.418 61.16L329.365 61.7086C327.857 56.1011 326.961 50.3476 326.692 44.5481C326.783 17.512 343.634 10.5625 366.518 23.7453Z" fill="#5C71C4" stroke="#424189" stroke-width="1.8" stroke-linecap="round" stroke-linejoin="round"/>
<path d="M375.99 30.2986L376.311 30.5576C377.731 31.7311 379.122 32.9656 380.451 34.261L380.68 34.4744C382.024 35.8003 383.338 37.1719 384.606 38.6045C385.859 40.0218 387.066 41.5001 388.242 43.0394C388.362 43.1801 388.475 43.3276 388.578 43.4813C389.647 44.8986 390.686 46.3617 391.71 47.8857C392.733 49.4098 393.512 50.7052 394.398 52.153C394.704 52.6711 395.025 53.1436 395.33 53.677L395.743 54.4237C396.721 56.1306 397.683 57.868 398.615 59.6664L425.93 43.8166C425.609 43.1918 425.288 42.567 424.952 41.9421C424.341 40.7991 423.715 39.7018 423.088 38.5892C422.936 38.3454 422.798 38.0863 422.661 37.8272C422.616 37.7664 422.58 37.6997 422.554 37.6291L421.729 36.3336C420.843 34.8096 419.957 33.438 419.04 32.0511C418.933 31.914 418.857 31.7616 418.765 31.6245C418.001 30.4814 417.237 29.3842 416.412 28.3021L415.908 27.6468L415.572 27.2048L414.824 26.2294C414.35 25.6198 413.861 25.0407 413.388 24.4616C412.914 23.8824 412.456 23.349 411.982 22.8156C411.539 22.3127 411.096 21.825 410.638 21.2916C410.18 20.7582 409.645 20.2248 409.11 19.7675C408.575 19.3103 408.392 19.0513 408.025 18.7008L407.812 18.4722L407.521 18.1979C406.971 17.6644 406.421 17.1463 405.856 16.6738L404.099 15.1498L403.672 14.7992L403.351 14.5402L402.297 13.6867C401.686 13.199 401.059 12.7266 400.433 12.2694C399.806 11.8122 399.501 11.5989 399.027 11.2636L398.768 11.0959L398.493 10.8977C397.836 10.4405 397.179 9.99857 396.491 9.57185C395.804 9.14512 395.101 8.70321 394.383 8.29172L393.879 7.9869L392.229 7.07252C391.526 6.69152 390.824 6.32572 390.136 5.99044L389.647 5.7618L389.235 5.56367L388.15 5.06081L386.225 4.23778L385.446 3.94821L385.034 3.79584L384.362 3.53679L382.544 2.9424L381.367 2.62232H381.062L380.771 2.53088C380.176 2.37848 379.58 2.25654 378.999 2.13462L377.472 1.87556H377.273L375.516 1.69269H373.866H373.53C372.889 1.69269 372.247 1.69268 371.621 1.78413C371.285 1.78413 370.964 1.87562 370.643 1.93658H370.032L369.574 2.01277C368.818 2.16231 368.073 2.36079 367.343 2.60706H367.144C366.183 2.91589 365.252 3.31392 364.364 3.79584L337.034 19.6457C337.921 19.1271 338.857 18.6982 339.829 18.3655H340.028C340.905 18.0706 341.804 17.8464 342.717 17.6949L343.328 17.6035C344.309 17.4568 345.299 17.3804 346.292 17.3748H346.414C347.579 17.3875 348.742 17.4741 349.897 17.634H350.019C351.244 17.8103 352.458 18.0545 353.655 18.3655L353.961 18.4569C355.152 18.777 356.374 19.158 357.627 19.6152L358.039 19.7828C359.277 20.24 360.545 20.7886 361.828 21.3983L362.241 21.5811C363.631 22.2517 365.036 22.9985 366.472 23.8215C368.168 24.7969 369.787 25.8332 371.376 26.8695L371.621 27.0524C373.164 28.0583 374.6 29.1556 375.99 30.2986Z" fill="#DBE2F9" stroke="#424189" stroke-width="1.8" stroke-linecap="round" stroke-linejoin="round"/>
<path d="M283.748 177.854L314.516 160.023L314.455 180.491L283.687 198.322L283.748 177.854Z" fill="#F8CABB" stroke="#424189" stroke-width="1.8" stroke-linecap="round" stroke-linejoin="round"/>
<path d="M312.423 132.423H312.224C311.944 132.499 311.658 132.55 311.369 132.576C311.023 132.606 310.675 132.606 310.33 132.576H310.223C309.838 132.529 309.455 132.463 309.077 132.377H308.955C308.558 132.286 308.13 132.164 307.687 132.027H307.565C307.122 131.875 306.663 131.692 306.205 131.493L305.976 131.402C305.502 131.189 305.013 130.96 304.448 130.701L304.097 130.518C303.577 130.264 303.043 129.975 302.493 129.649C301.53 129.101 300.583 128.491 299.636 127.836L299.453 127.714C298.582 127.089 297.696 126.434 296.81 125.717L296.504 125.474C295.649 124.757 294.793 123.95 293.922 123.218L293.586 122.898C292.731 122.09 291.86 121.237 291.005 120.338L290.607 119.926C289.752 119.012 288.881 118.067 288.026 117.061L287.521 116.482C286.62 115.415 285.688 114.303 284.756 113.114L284.542 112.824C283.641 111.681 282.724 110.477 281.808 109.228L281.258 108.466C280.295 107.14 279.318 105.783 278.34 104.351L247.572 122.182C248.565 123.614 249.528 124.971 250.49 126.297L251.04 127.059L251.498 127.683C252.262 128.72 253.026 129.695 253.775 130.731L254.004 131.036C254.661 131.89 255.333 132.697 255.99 133.49C256.234 133.795 256.479 134.069 256.738 134.359C256.998 134.648 257.059 134.74 257.227 134.938L257.731 135.532C258.266 136.142 258.801 136.721 259.335 137.3L259.809 137.803L260.206 138.214L260.863 138.9C261.367 139.418 261.856 139.906 262.391 140.424L262.819 140.82L263.17 141.141L263.827 141.75C264.285 142.162 264.744 142.573 265.202 142.954L265.737 143.396L266.042 143.64L266.546 144.036C266.959 144.387 267.386 144.707 267.814 145.011C268.242 145.316 268.395 145.438 268.7 145.636L268.868 145.758L269.052 145.895L270.258 146.688L271.45 147.419L271.725 147.572C272.076 147.785 272.428 147.968 272.764 148.151L273.329 148.441L273.696 148.639L273.94 148.761L274.948 149.248H275.147L275.376 149.34L275.835 149.538L276.629 149.843H276.736H276.858L277.316 149.98L277.958 150.163H278.126H278.264H278.554L279.104 150.254H279.394H279.639H280.158H280.54H280.677H281.197L281.472 150.178H281.67H281.808C282.038 150.101 282.258 149.999 282.465 149.873L313.232 132.042C312.979 132.202 312.707 132.33 312.423 132.423Z" fill="#DBE2F9" stroke="#424189" stroke-width="1.8" stroke-linecap="round" stroke-linejoin="round"/>
<path d="M268.196 68.4753L298.964 50.6442C297.314 51.5891 296.474 53.8752 296.458 57.731C296.458 75.1048 341.464 100.205 341.357 137.209C341.357 148.242 338.302 156.137 332.191 159.657L301.454 177.534C307.565 174.029 310.62 166.119 310.62 155.101C310.727 118.082 265.676 92.9815 265.721 75.6077C265.706 71.7214 266.592 69.4202 268.196 68.4753Z" fill="#F8CABB"/>
<path d="M341.342 135.776C341.342 135.258 341.342 134.755 341.266 134.252C341.189 133.749 341.266 133.246 341.143 132.728C341.021 132.21 341.052 131.753 340.991 131.204C340.93 130.655 340.853 130.259 340.792 129.787C340.731 129.314 340.624 128.842 340.548 128.369C340.471 127.897 340.364 127.44 340.257 126.982L339.921 125.717L339.555 124.331C339.433 123.873 339.295 123.416 339.158 122.959C339.02 122.502 338.867 122.06 338.714 121.603C338.562 121.145 338.424 120.734 338.256 120.292C338.088 119.85 337.935 119.423 337.767 118.997C337.599 118.57 337.431 118.143 337.248 117.716C337.065 117.29 336.897 116.863 336.698 116.436C336.499 116.009 336.24 115.4 335.995 114.912C335.751 114.424 335.506 113.891 335.247 113.388L334.467 111.864C333.795 110.63 333.108 109.41 332.375 108.191C331.641 106.972 330.847 105.829 330.129 104.655C329.11 103.07 328.01 101.516 326.829 99.992C325.963 98.8134 325.077 97.6552 324.171 96.5173C323.147 95.2219 322.109 93.9569 321.116 92.7072C319.466 90.7463 317.816 88.8362 316.166 86.9769C313.89 84.3861 311.659 81.9019 309.551 79.5244C308.222 78.0004 306.939 76.4764 305.747 75.0896C305.044 74.2564 304.372 73.4334 303.73 72.6206C303.191 71.9703 302.681 71.315 302.203 70.6546C300.972 69.0257 299.854 67.3149 298.857 65.5339L298.506 64.909L298.185 64.269C298.093 64.0556 297.986 63.8575 297.895 63.6441L297.665 63.0954C297.665 62.9583 297.543 62.8212 297.497 62.684C297.452 62.5468 297.39 62.4097 297.345 62.2725C297.299 62.1353 297.238 61.9981 297.192 61.861C297.144 61.726 297.103 61.5887 297.07 61.4496C297.02 61.3204 296.979 61.188 296.947 61.0533C296.947 60.9161 296.871 60.779 296.84 60.657L296.749 60.276C296.749 60.1541 296.749 60.0322 296.672 59.9103C296.596 59.7884 296.672 59.6664 296.672 59.5445V59.1788V58.8282C296.672 58.7063 296.672 58.5844 296.672 58.4624C296.672 58.3405 296.672 58.2339 296.672 58.1119V57.7309C296.672 57.4261 296.672 57.1366 296.672 56.8622V56.085C296.672 55.8411 296.672 55.6125 296.749 55.3839L296.84 54.7438C296.84 54.5457 296.917 54.3476 296.963 54.1494L297.1 53.6008L297.284 53.0674L297.513 52.5187C297.604 52.3206 297.711 52.1377 297.818 51.9548C298.147 51.4426 298.592 51.0147 299.117 50.7052L268.349 68.5362C267.825 68.8419 267.385 69.271 267.066 69.7859C266.941 69.9685 266.834 70.1624 266.745 70.365L266.516 70.8985L266.333 71.4319L266.195 71.9957C266.195 72.1786 266.119 72.3768 266.073 72.5749L265.981 73.2149C265.981 73.4435 265.981 73.6722 265.905 73.916V74.6933C265.905 74.9829 265.905 75.2724 265.905 75.562V75.943C265.912 76.0648 265.912 76.1869 265.905 76.3087C265.913 76.4254 265.913 76.5425 265.905 76.6592V77.025V77.3756C265.912 77.4974 265.912 77.6195 265.905 77.7413C265.912 77.8631 265.912 77.9853 265.905 78.1071L265.996 78.4881C265.996 78.6252 266.073 78.7472 266.103 78.8843C266.134 79.0215 266.103 79.1586 266.226 79.2958C266.348 79.4329 266.302 79.5549 266.348 79.692L266.501 80.1035C266.501 80.2407 266.592 80.3779 266.653 80.5151C266.714 80.6522 266.76 80.7893 266.821 80.9265C266.883 81.0636 266.974 81.2922 267.066 81.4751C267.158 81.658 267.249 81.9019 267.356 82.1C267.463 82.2981 267.555 82.5267 267.662 82.7401L268.013 83.3801C269.015 85.1578 270.133 86.8684 271.359 88.5009L272.886 90.4516C273.528 91.2746 274.2 92.0976 274.903 92.9358C276.11 94.3683 277.378 95.8467 278.707 97.3555C280.815 99.7329 283.061 102.217 285.337 104.808C286.972 106.667 288.637 108.572 290.271 110.538C291.31 111.788 292.349 113.053 293.327 114.348C294.305 115.644 295.13 116.65 296 117.823C297.131 119.347 298.231 120.871 299.285 122.502C300.064 123.66 300.812 124.834 301.531 126.038C302.249 127.242 302.967 128.461 303.623 129.695C303.883 130.198 304.158 130.701 304.403 131.219C304.647 131.737 304.907 132.225 305.151 132.743C305.396 133.261 305.64 133.764 305.869 134.267L306.419 135.547L306.923 136.828C307.091 137.269 307.259 137.696 307.412 138.123C307.565 138.55 307.733 139.007 307.886 139.449C308.038 139.891 308.176 140.348 308.313 140.805C308.451 141.262 308.588 141.704 308.711 142.177C308.833 142.649 308.97 143.091 309.077 143.549C309.184 144.006 309.306 144.478 309.398 144.935C309.49 145.393 309.597 145.865 309.688 146.337C309.78 146.81 309.856 147.267 309.933 147.74C310.009 148.212 310.07 148.684 310.131 149.157C310.193 149.629 310.254 150.132 310.299 150.681C310.345 151.23 310.376 151.687 310.422 152.205C310.468 152.723 310.422 153.226 310.422 153.729C310.422 154.232 310.422 154.689 310.422 155.253V155.375C310.422 156.086 310.422 156.787 310.422 157.478C310.422 158.164 310.422 158.834 310.299 159.49C310.177 160.145 310.177 160.785 310.101 161.425C310.024 162.065 309.933 162.675 309.826 163.285C309.719 163.894 309.597 164.504 309.459 165.098C309.322 165.693 309.154 166.317 308.986 166.912C308.818 167.506 308.604 168.146 308.39 168.725C308.176 169.304 307.87 170.021 307.58 170.615C307.236 171.339 306.849 172.041 306.419 172.718C305.149 174.759 303.404 176.464 301.332 177.686L332.283 159.657C334.355 158.434 336.1 156.73 337.37 154.689C337.8 154.012 338.187 153.31 338.531 152.586C338.821 151.992 339.081 151.351 339.326 150.696C339.57 150.041 339.753 149.507 339.937 148.867C340.12 148.227 340.257 147.694 340.41 147.069C340.563 146.444 340.655 145.865 340.762 145.24C340.869 144.615 340.96 144.021 341.052 143.381C341.143 142.741 341.189 142.116 341.25 141.461C341.312 140.805 341.342 140.135 341.373 139.449C341.403 138.763 341.373 138.062 341.373 137.346V137.209C341.357 136.736 341.357 136.248 341.342 135.776Z" fill="#F8CABB" stroke="#424189" stroke-width="1.8" stroke-linecap="round" stroke-linejoin="round"/>
<path d="M268.196 68.4753L298.964 50.6442C297.314 51.5891 296.474 53.8752 296.458 57.731C296.458 75.1048 341.464 100.205 341.357 137.209C341.357 148.242 338.302 156.137 332.191 159.657L301.454 177.534C307.565 174.029 310.62 166.119 310.62 155.101C310.727 118.082 265.676 92.9815 265.721 75.6077C265.706 71.7214 266.592 69.4202 268.196 68.4753Z" stroke="#424189" stroke-width="1.8" stroke-linecap="round" stroke-linejoin="round"/>
<path d="M249.161 40.5858L279.929 22.7547C284.313 20.2096 290.195 20.0877 297.314 22.5566L266.592 40.3724C259.427 37.9187 253.546 38.0406 249.161 40.5858Z" fill="#DBE2F9"/>
<path d="M295.817 22.0841L294.167 21.6269L292.563 21.2612L290.959 21.002C290.424 21.002 289.905 20.8801 289.431 20.8496C288.958 20.8192 288.346 20.8496 287.827 20.8496C287.308 20.8496 286.727 20.8496 286.192 20.9258C285.658 21.002 285.001 21.063 284.42 21.1697C283.71 21.3142 283.011 21.5077 282.327 21.7488C281.511 22.0349 280.723 22.3971 279.975 22.8308L249.207 40.6619C249.957 40.2309 250.744 39.8687 251.56 39.5798C252.248 39.3419 252.953 39.1535 253.668 39.0159C254.248 38.8976 254.835 38.8111 255.425 38.7569C255.959 38.7569 256.509 38.7569 257.075 38.7569C257.64 38.7569 258.129 38.7569 258.602 38.7569C259.076 38.7569 259.656 38.8483 260.13 38.9245C260.604 39.0007 261.184 39.0769 261.658 39.1836C262.131 39.2902 262.712 39.397 263.262 39.5341L264.927 39.9913L266.455 40.479L297.207 22.648C296.81 22.3736 296.321 22.2213 295.817 22.0841Z" fill="#DBE2F9" stroke="#424189" stroke-width="1.8" stroke-linecap="round" stroke-linejoin="round"/>
<path d="M249.161 40.5858L279.929 22.7547C284.313 20.2096 290.195 20.0877 297.314 22.5566L266.592 40.3724C259.427 37.9187 253.546 38.0406 249.161 40.5858Z" stroke="#424189" stroke-width="1.8" stroke-linecap="round" stroke-linejoin="round"/>
<path d="M309.597 81.018L340.364 63.187L327.104 73.1236L296.336 90.9698L309.597 81.018Z" fill="#F8CABB" stroke="#424189" stroke-width="1.8" stroke-linecap="round" stroke-linejoin="round"/>
<path d="M291.601 56.5879L291.998 56.9842C293.016 58.0002 294.035 59.067 295.053 60.1846C295.16 60.3217 295.282 60.4437 295.389 60.5656C296.382 61.6781 297.345 62.8059 298.277 63.9641L298.613 64.3756C299.483 65.4729 300.324 66.5855 301.149 67.7132L302.187 69.2373C302.661 69.9078 303.119 70.5632 303.562 71.2337C304.968 73.3369 306.312 75.4705 307.611 77.665C308.283 78.7928 308.94 79.9358 309.582 81.0941L340.364 63.2326C339.799 62.2268 339.234 61.2209 338.653 60.1846C338.562 60.0474 338.47 59.9102 338.394 59.7731C337.09 57.5785 335.741 55.4347 334.345 53.3417L333.979 52.7626C333.658 52.2902 333.307 51.8177 332.97 51.3453L331.932 49.8213C331.779 49.6231 331.641 49.3945 331.489 49.1964C330.908 48.4191 330.312 47.6724 329.716 46.8952L329.396 46.4837L329.044 46.0569L328.143 44.9444C327.654 44.35 327.135 43.7557 326.615 43.1766L326.157 42.6736L325.806 42.2926L325.072 41.4696L323.468 39.7932L322.75 39.0921L322.353 38.6959L321.772 38.1321C321.207 37.5834 320.611 37.0347 320.016 36.4861L319.068 35.6631L318.656 35.3126L318.182 34.9011L316.303 33.377L314.867 32.2798L284.1 50.1108C285.413 51.0862 286.666 52.1073 287.888 53.1589L288.301 53.5246C289.508 54.5457 290.546 55.6125 291.601 56.5879Z" fill="#DBE2F9" stroke="#424189" stroke-width="1.8" stroke-linecap="round" stroke-linejoin="round"/>
<path d="M284.176 30.1766V50.1565C295.129 58.3405 303.058 69.1306 309.658 81.0332L296.397 90.9698C290.287 81.0485 284.863 74.6781 277.958 70.7004C269.999 66.1283 265.737 66.9513 265.737 75.562C265.737 92.9358 310.742 118.036 310.635 155.055C310.635 173.983 301.683 183.676 283.794 177.915V198.383L266.134 188.202V168.756C254.025 159.848 243.698 148.754 235.687 136.05L247.45 122.136C256.28 134.984 263.781 142.939 271.603 147.435C280.907 152.799 284.97 151.001 285.001 142.573C285.001 123.797 240.148 97.4317 240.255 62.303C240.255 42.6889 250.108 34.7182 266.501 40.3723V20.0571L284.176 30.1766Z" fill="#5C71C4" stroke="#424189" stroke-width="1.8" stroke-linecap="round" stroke-linejoin="round"/>
<path d="M284.176 30.1766L314.928 12.3456L314.882 32.3255L284.115 50.1565L284.176 30.1766Z" fill="#F8CABB" stroke="#424189" stroke-width="1.8" stroke-linecap="round" stroke-linejoin="round"/>
<path d="M266.623 20.0724L297.375 2.22614L314.928 12.3456L284.176 30.1767L266.623 20.0724Z" fill="#DBE2F9" stroke="#424189" stroke-width="1.8" stroke-linecap="round" stroke-linejoin="round"/>
<path d="M467.01 161.471C460.777 171.21 458.989 173.663 454.971 179.912L454.895 209.996C458.898 203.793 460.7 201.309 466.918 191.555L479.613 171.911L479.705 141.811L467.01 161.471Z" fill="#F8CABB" stroke="#424189" stroke-width="1.8" stroke-linecap="round" stroke-linejoin="round"/>
<path d="M424.616 183.28L424.525 213.379L397.53 197.834L397.622 167.735L424.616 183.28Z" fill="#5C71C4" stroke="#424189" stroke-width="1.8" stroke-linecap="round" stroke-linejoin="round"/>
<path d="M550.192 182.411L550.116 212.495L466.261 223.621L466.338 193.521L550.192 182.411Z" fill="#F8CABB" stroke="#424189" stroke-width="1.8" stroke-linecap="round" stroke-linejoin="round"/>
<path d="M404.313 195.06L404.237 225.145L377.243 209.6L377.319 179.5L404.313 195.06Z" fill="#5C71C4" stroke="#424189" stroke-width="1.8" stroke-linecap="round" stroke-linejoin="round"/>
<path d="M449.502 197.621L449.41 227.72L441.069 232.551L441.161 202.452L449.502 197.621Z" fill="#F8CABB" stroke="#424189" stroke-width="1.8" stroke-linecap="round" stroke-linejoin="round"/>
<path d="M476.222 213.013L476.13 243.098L449.411 227.72L449.502 197.621L476.222 213.013Z" fill="#5C71C4" stroke="#424189" stroke-width="1.8" stroke-linecap="round" stroke-linejoin="round"/>
<path d="M488.153 206.094L488.076 236.178L476.13 243.098L476.222 213.013L488.153 206.094Z" fill="#F8CABB" stroke="#424189" stroke-width="1.8" stroke-linecap="round" stroke-linejoin="round"/>
<path d="M408.927 221.152L408.835 251.236L383.949 236.91L384.041 206.811L408.927 221.152Z" fill="#5C71C4" stroke="#424189" stroke-width="1.8" stroke-linecap="round" stroke-linejoin="round"/>
<path d="M429.199 209.386L429.123 239.486L408.835 251.236L408.927 221.152L429.199 209.386Z" fill="#F8CABB" stroke="#424189" stroke-width="1.8" stroke-linecap="round" stroke-linejoin="round"/>
<path d="M455.919 224.779L455.827 254.863L429.123 239.486L429.199 209.386L455.919 224.779Z" fill="#5C71C4" stroke="#424189" stroke-width="1.8" stroke-linecap="round" stroke-linejoin="round"/>
<path d="M467.881 217.844L467.789 247.944L455.827 254.863L455.919 224.779L467.881 217.844Z" fill="#F8CABB" stroke="#424189" stroke-width="1.8" stroke-linecap="round" stroke-linejoin="round"/>
<path d="M550.193 182.411L466.338 193.521L488.107 206.094L476.176 213.013L449.457 197.621L441.116 202.467L467.835 217.844L455.919 224.779L429.2 209.401L408.927 221.152L384.041 206.826L404.314 195.06L377.319 179.515L389.281 172.581L416.306 188.202L424.647 183.371L397.653 167.826L409.584 160.892L431.4 173.465L450.358 124.971L479.736 141.887L467.041 161.547C460.808 171.286 459.02 173.739 455.002 179.988L455.843 180.46C466.704 178.205 471.853 177.016 487.741 173.465L521.35 165.845L550.193 182.411Z" fill="#DBE2F9" stroke="#424189" stroke-width="1.8" stroke-linecap="round" stroke-linejoin="round"/>
<path d="M217.263 157.661L191.186 142.543L205.057 149.279L231.135 164.397L217.263 157.661Z" fill="#DBE2F9" stroke="#424189" stroke-width="1.8" stroke-linecap="round" stroke-linejoin="round"/>
<path d="M191.186 142.482C190.819 143.259 190.437 144.006 190.055 144.737L189.643 145.56C189.169 146.429 188.695 147.282 188.207 148.105L187.886 148.639C187.504 149.279 187.107 149.888 186.709 150.498C186.572 150.681 186.45 150.879 186.327 151.062C185.839 151.778 185.334 152.479 184.8 153.134L184.586 153.394C184.143 153.957 183.685 154.491 183.226 155.009L182.524 155.741C182.218 156.076 181.897 156.396 181.561 156.701C181.072 157.173 180.553 157.615 180.033 158.042L179.315 158.636C178.559 159.194 177.768 159.703 176.947 160.16C176.269 160.547 175.57 160.898 174.855 161.212L174.274 161.44C173.928 161.572 173.576 161.694 173.22 161.806L172.594 161.989L172.013 162.111C171.746 162.171 171.476 162.217 171.203 162.248H170.791C170.47 162.248 170.149 162.248 169.844 162.248H169.599C169.217 162.248 168.851 162.172 168.484 162.111H168.24C167.943 162.046 167.652 161.959 167.369 161.852H167.124C166.762 161.709 166.409 161.541 166.07 161.349L192.148 176.467H192.24C192.504 176.621 192.78 176.753 193.065 176.863H193.202L193.447 176.955L193.874 177.092L194.317 177.199H194.577H194.715C195.003 177.249 195.293 177.285 195.585 177.305H196.548H196.869H197.296H197.617C197.778 177.284 197.936 177.249 198.091 177.199C198.287 177.173 198.481 177.132 198.671 177.077H198.9C199.036 177.04 199.168 176.994 199.298 176.94L200.367 176.574L200.672 176.467L200.932 176.345C201.62 176.04 202.307 175.705 203.04 175.294C203.857 174.829 204.648 174.321 205.408 173.77C205.653 173.587 205.882 173.373 206.111 173.175C206.63 172.749 207.15 172.307 207.639 171.834C207.746 171.728 207.883 171.636 207.99 171.514C208.097 171.392 208.387 171.087 208.586 170.889C208.785 170.691 209.059 170.402 209.289 170.143L209.625 169.792C209.976 169.381 210.312 168.969 210.648 168.542L210.862 168.268C211.259 167.75 211.657 167.232 212.039 166.744L212.313 166.317L212.695 165.753L213.184 165.037L213.872 163.894L214.208 163.361L214.345 163.132C214.758 162.416 215.17 161.608 215.567 160.922C215.572 160.887 215.572 160.851 215.567 160.816L215.995 159.962C216.285 159.383 216.591 158.819 216.881 158.225L217.11 157.752L191.186 142.482Z" fill="#DBE2F9" stroke="#424189" stroke-width="1.8" stroke-linecap="round" stroke-linejoin="round"/>
<path d="M183.929 152.738L157.852 137.62L186.328 121.206L212.405 136.34L183.929 152.738Z" fill="#DBE2F9" stroke="#424189" stroke-width="1.8" stroke-linecap="round" stroke-linejoin="round"/>
<path d="M189.444 83.121L215.521 98.2851L215.827 98.4527L189.749 83.3344L189.444 83.121Z" fill="#F8CABB"/>
<path d="M215.827 98.4223L189.749 83.3039L189.444 83.121L215.521 98.2851L215.827 98.4527" fill="#F8CABB"/>
<path d="M215.827 98.4223L189.749 83.3039L189.444 83.121L215.521 98.2851L215.827 98.4527" stroke="#424189" stroke-width="1.8" stroke-linecap="round" stroke-linejoin="round"/>
<path d="M189.444 83.121L215.521 98.2851L215.827 98.4527L189.749 83.3344L189.444 83.121Z" stroke="#424189" stroke-width="1.8" stroke-linecap="round" stroke-linejoin="round"/>
<path d="M160.158 180.841L134.065 165.723C136.28 176.482 140.649 183.463 146.592 186.892L172.67 202.025C166.727 198.581 162.358 191.601 160.158 180.841Z" fill="#5C71C4" stroke="#424189" stroke-width="1.8" stroke-linecap="round" stroke-linejoin="round"/>
<path d="M185.289 128.643L159.196 113.525L192.744 94.2007L218.837 109.319L185.289 128.643Z" fill="#DBE2F9" stroke="#424189" stroke-width="1.8" stroke-linecap="round" stroke-linejoin="round"/>
<path d="M158.539 163.147C158.539 161.623 158.539 159.916 158.676 158.392L132.583 143.274C132.446 144.798 132.461 146.414 132.461 148.029C132.461 148.761 132.461 149.553 132.461 150.285C132.461 151.016 132.461 151.809 132.598 152.479L158.676 167.597C158.554 166.211 158.539 164.61 158.539 163.147Z" fill="#5C71C4" stroke="#424189" stroke-width="1.8" stroke-linecap="round" stroke-linejoin="round"/>
<path d="M149.999 186.693L123.921 171.575L123.875 158.164L149.953 173.282L149.999 186.693Z" fill="#5C71C4" stroke="#424189" stroke-width="1.8" stroke-linecap="round" stroke-linejoin="round"/>
<path d="M149.953 173.282L123.875 158.164L132.614 152.479L158.692 167.597L149.953 173.282Z" fill="#DBE2F9" stroke="#424189" stroke-width="1.8" stroke-linecap="round" stroke-linejoin="round"/>
<path d="M149.923 163.422L123.845 148.303L123.814 135.044L149.892 150.163L149.923 163.422Z" fill="#5C71C4" stroke="#424189" stroke-width="1.8" stroke-linecap="round" stroke-linejoin="round"/>
<path d="M149.892 150.163L123.814 135.044L134.096 128.141L160.173 143.274L149.892 150.163Z" fill="#DBE2F9" stroke="#424189" stroke-width="1.8" stroke-linecap="round" stroke-linejoin="round"/>
<path d="M202.903 75.76C212.65 70.1516 222.396 69.664 229.454 75.0437L215.827 98.4223C211.871 96.0296 207.639 95.3742 202.078 98.5594C193.477 103.512 187.718 114.104 185.274 128.644L218.883 109.319V123.721L183.746 143.945V147.496C183.746 149.264 183.746 151.047 183.899 152.738L212.405 136.386V150.772L185.762 166.119C188.619 176.925 194.547 180.323 203.01 175.446C208.785 172.124 213.291 165.952 217.218 157.707L231.089 164.443C223.221 180.155 213.23 191.875 201.666 198.55C181.363 210.255 165.108 205.348 160.113 180.887L149.999 186.678V173.267L158.738 167.582C158.6 166.195 158.585 164.534 158.585 163.132C158.585 161.73 158.585 159.901 158.722 158.377L149.969 163.406V150.163L160.25 143.259C165.047 113.129 181.347 88.1808 202.903 75.76Z" fill="#F8CABB" stroke="#424189" stroke-width="1.8" stroke-linecap="round" stroke-linejoin="round"/>
<path d="M162.71 131.509C162.939 130.67 163.198 129.847 163.443 129.009C163.687 128.171 163.993 127.15 164.298 126.236C164.604 125.321 165.001 124.193 165.368 123.188C165.582 122.593 165.78 121.999 166.009 121.404C166.59 119.88 167.216 118.356 167.858 116.832L168.041 116.451C168.637 115.095 169.263 113.754 169.92 112.443C170.119 112.016 170.348 111.59 170.562 111.163C171.081 110.127 171.631 109.106 172.197 108.115L172.884 106.881C173.587 105.646 174.32 104.427 175.069 103.223C175.16 103.101 175.221 102.979 175.298 102.857C176.138 101.546 177.009 100.282 177.895 99.0318C178.216 98.5746 178.567 98.1326 178.888 97.6907C179.484 96.883 180.079 96.0905 180.706 95.3132C181.332 94.536 181.76 94.0026 182.233 93.3625C182.707 92.7224 183.226 92.1585 183.761 91.5793C184.937 90.2535 186.129 88.9733 187.367 87.7389C187.473 87.6322 187.58 87.5102 187.703 87.4035C188.375 86.7482 189.062 86.1234 189.75 85.4985C190.437 84.8737 190.743 84.5537 191.277 84.0965C191.812 83.6392 192.805 82.8467 193.554 82.2371C194.043 81.8409 194.501 81.4294 194.99 81.0637C195.86 80.3931 196.762 79.7682 197.648 79.1434C198.06 78.8691 198.442 78.5643 198.855 78.2899C200.169 77.406 201.498 76.583 202.842 75.8058C203.835 75.2267 204.828 74.739 205.821 74.2818L206.585 73.9313C207.532 73.5045 208.479 73.1235 209.426 72.8035H209.701C210.496 72.5444 211.229 72.3462 212.039 72.1634C212.512 72.0414 212.986 71.95 213.444 71.8585L215.308 71.5842L216.332 71.4928C217.145 71.4396 217.962 71.4396 218.776 71.4928C218.893 71.4851 219.01 71.4851 219.127 71.4928C220.02 71.5476 220.909 71.6648 221.785 71.8434L222.473 71.9957C223.145 72.1513 223.808 72.3447 224.459 72.5749C224.673 72.6511 224.887 72.7121 225.085 72.8035C225.94 73.117 226.764 73.5098 227.545 73.9769L201.528 58.6606L201.314 58.5539C200.698 58.1995 200.06 57.884 199.405 57.609L199.069 57.487L198.442 57.2737C198.106 57.1518 197.77 57.0146 197.434 56.9232C197.098 56.8317 196.777 56.7708 196.441 56.6946C196.221 56.6277 195.996 56.5767 195.769 56.5421L195.372 56.4355C194.643 56.3149 193.909 56.2336 193.172 56.1917H192.744C192.118 56.1917 191.476 56.1917 190.819 56.1917H190.315L189.291 56.2831L188.222 56.3898L187.428 56.5574C186.969 56.6488 186.496 56.7403 186.022 56.8622C185.549 56.9841 185.472 56.9536 185.197 57.0298C184.693 57.167 184.189 57.3346 183.67 57.487L183.395 57.5785C182.707 57.8071 182.004 58.0662 181.317 58.3557L180.538 58.7063L179.789 59.0416C178.796 59.514 177.803 60.0017 176.81 60.5656C175.466 61.3428 174.137 62.1658 172.823 63.0497C172.38 63.3393 171.952 63.6746 171.509 63.9794C170.654 64.589 169.798 65.1681 168.958 65.8082L167.43 67.0427C166.697 67.637 165.902 68.2314 165.23 68.8563C164.558 69.4811 164.191 69.8164 163.703 70.3803C163.214 70.9442 162.343 71.5994 161.686 72.2395L161.411 72.5444C160.174 73.7636 158.967 75.0438 157.806 76.3697L157.363 76.8268C156.996 77.2536 156.645 77.7108 156.278 78.1527L154.674 80.0883C154.521 80.3016 154.338 80.4846 154.185 80.6979C153.727 81.277 153.299 81.8866 152.871 82.481L151.878 83.8069L151.588 84.2184C150.809 85.3157 150.06 86.4434 149.327 87.5864C149.251 87.7083 149.19 87.8303 149.113 87.937C148.502 88.9124 147.891 89.8877 147.311 90.8784C147.173 91.107 147.051 91.366 146.913 91.6099C146.776 91.8537 146.44 92.4328 146.211 92.8443C145.981 93.2558 145.661 93.8044 145.401 94.3683C145.141 94.9322 144.866 95.4504 144.591 95.9838L143.934 97.2488L143.598 97.9346C143.064 99.0319 142.559 100.16 142.071 101.287C142.021 101.412 141.965 101.534 141.902 101.653C141.322 103.01 140.757 104.381 140.222 105.768C140.222 105.905 140.13 106.042 140.069 106.179L139.428 107.963C139.153 108.755 138.847 109.487 138.572 110.355C138.496 110.584 138.435 110.812 138.374 111.026C138.068 111.94 137.793 112.87 137.518 113.815C137.319 114.455 137.106 115.095 136.922 115.75L136.785 116.299C136.265 118.219 135.776 120.155 135.364 122.121C135.331 122.21 135.306 122.302 135.288 122.395C134.89 124.209 134.554 126.068 134.249 127.943C134.239 127.967 134.239 127.994 134.249 128.019L160.326 143.137C160.632 141.237 160.983 139.362 161.381 137.513C161.4 137.4 161.426 137.289 161.457 137.178C161.783 135.319 162.2 133.429 162.71 131.509Z" fill="#5C71C4" stroke="#424189" stroke-width="1.8" stroke-linecap="round" stroke-linejoin="round"/>
<path d="M126.549 218.546L126.457 248.63L107.376 245.033L107.453 214.949L126.549 218.546Z" fill="#5C71C4" stroke="#424189" stroke-width="1.8" stroke-linecap="round" stroke-linejoin="round"/>
<path d="M204.171 211.306C203.483 210.91 202.735 210.544 201.956 210.194L201.283 209.889L200.489 209.554C200.275 209.462 200.031 209.401 199.817 209.325C199.145 209.081 198.442 208.838 197.709 208.624C197.464 208.624 197.235 208.441 196.975 208.38L196.395 208.228L194.409 207.755L193.385 207.496L192.362 207.298C191.552 207.146 190.727 207.009 189.933 206.902C189.138 206.795 188.802 206.765 188.237 206.704L187.427 206.612H186.938C186.007 206.612 185.09 206.475 184.173 206.46H181.469C180.644 206.46 179.835 206.551 179.025 206.612H178.735H178.643C177.558 206.719 176.489 206.871 175.435 207.054L174.885 207.176L174.213 207.313C172.991 207.588 171.799 207.877 170.653 208.243H170.516C169.329 208.626 168.166 209.079 167.033 209.599C166.651 209.767 166.284 209.996 165.902 210.179C165.23 210.529 164.543 210.849 163.886 211.245L163.718 211.367C162.547 212.074 161.429 212.864 160.372 213.73L160.28 243.829C161.34 242.989 162.458 242.225 163.626 241.543C164.329 241.101 165.077 240.735 165.826 240.354C166.208 240.171 166.559 239.943 166.956 239.76C168.086 239.247 169.244 238.8 170.424 238.419H170.562C171.707 238.053 172.914 237.748 174.121 237.489L174.809 237.337C176.082 237.085 177.366 236.897 178.658 236.773H178.949C180.155 236.666 181.378 236.605 182.63 236.605H183.425C184.708 236.605 186.022 236.605 187.336 236.803L188.161 236.895C189.52 237.047 190.895 237.215 192.27 237.489C192.988 237.611 193.645 237.779 194.317 237.931C194.989 238.083 195.662 238.251 196.303 238.419L197.632 238.8C198.35 239.028 199.053 239.257 199.725 239.516C200.397 239.775 200.733 239.882 201.253 240.08L201.94 240.369C202.719 240.72 203.468 241.086 204.155 241.482C209.029 244.286 211.656 248.203 211.641 253.186L211.717 223.102C211.672 218.012 209.044 214.111 204.171 211.306Z" fill="#5C71C4" stroke="#424189" stroke-width="1.8" stroke-linecap="round" stroke-linejoin="round"/>
<path d="M240.026 220.938L239.934 251.022C239.914 253.6 239.544 256.164 238.834 258.642L238.926 228.543C239.621 226.066 239.991 223.51 240.026 220.938Z" fill="#F8CABB"/>
<path d="M240.026 220.938L239.934 251.022V251.723L240.011 221.639C240.011 221.395 240.011 221.167 240.011 220.938" fill="#F8CABB"/>
<path d="M240.026 220.938L239.934 251.022V251.723L240.011 221.639C240.011 221.395 240.011 221.167 240.011 220.938" stroke="#424189" stroke-width="1.8" stroke-linecap="round" stroke-linejoin="round"/>
<path d="M240.011 221.639L239.935 251.723C239.887 253.317 239.698 254.903 239.37 256.463L239.461 226.379C239.776 224.817 239.96 223.232 240.011 221.639Z" fill="#F8CABB"/>
<path d="M240.011 221.639L239.935 251.723C239.887 253.317 239.698 254.903 239.37 256.463L239.461 226.379C239.776 224.817 239.96 223.232 240.011 221.639" stroke="#424189" stroke-width="1.8" stroke-linecap="round" stroke-linejoin="round"/>
<path d="M239.461 226.379L239.37 256.463C239.232 257.21 239.048 257.987 238.834 258.719L238.926 228.619C239.125 227.872 239.308 227.095 239.461 226.379Z" fill="#F8CABB" stroke="#424189" stroke-width="1.8" stroke-linecap="round" stroke-linejoin="round"/>
<path d="M240.026 220.938L239.934 251.022C239.914 253.6 239.544 256.164 238.834 258.642L238.926 228.543C239.621 226.066 239.991 223.51 240.026 220.938V220.938Z" stroke="#424189" stroke-width="1.8" stroke-linecap="round" stroke-linejoin="round"/>
<path d="M151.435 256.692C151.576 256.029 151.765 255.377 152 254.741C152.133 254.337 152.286 253.941 152.459 253.552L152.55 223.468C152.397 223.788 152.26 224.123 152.138 224.444C152.138 224.444 152.138 224.581 152.138 224.642C151.909 225.28 151.72 225.931 151.572 226.592C151.572 226.592 151.572 226.592 151.572 226.684C151.572 226.775 151.572 226.821 151.572 226.897C151.464 227.507 151.392 228.123 151.359 228.741C151.359 228.741 151.359 228.894 151.359 228.97C151.351 229.092 151.351 229.214 151.359 229.336L151.282 259.435C151.282 259.237 151.282 259.024 151.282 258.825C151.309 258.206 151.381 257.59 151.496 256.981C151.468 256.887 151.448 256.79 151.435 256.692Z" fill="#F8CABB" stroke="#424189" stroke-width="1.8" stroke-linecap="round" stroke-linejoin="round"/>
<path d="M208.204 233.953L208.112 264.053L152.458 253.552L152.55 223.468L208.204 233.953Z" fill="#5C71C4" stroke="#424189" stroke-width="1.8" stroke-linecap="round" stroke-linejoin="round"/>
<path d="M253.271 242.473L253.195 272.557L234.282 268.991L234.373 238.906L253.271 242.473Z" fill="#5C71C4" stroke="#424189" stroke-width="1.8" stroke-linecap="round" stroke-linejoin="round"/>
<path d="M258.923 232.384L258.832 262.483L253.194 272.557L253.271 242.473L258.923 232.384Z" fill="#F8CABB" stroke="#424189" stroke-width="1.8" stroke-linecap="round" stroke-linejoin="round"/>
<path d="M124.624 228.193L124.517 258.307C124.515 263.437 126.242 268.418 129.421 272.45L129.513 242.351C126.323 238.32 124.6 233.328 124.624 228.193Z" fill="#5C71C4" stroke="#424189" stroke-width="1.8" stroke-linecap="round" stroke-linejoin="round"/>
<path d="M153.94 238.571L153.848 268.655L129.436 272.42L129.528 242.32L153.94 238.571Z" fill="#F8CABB" stroke="#424189" stroke-width="1.8" stroke-linecap="round" stroke-linejoin="round"/>
<path d="M232.28 241.802C232.143 241.985 231.99 242.153 231.837 242.336C231.257 243.037 230.661 243.722 230.019 244.378L229.225 245.17C228.736 245.643 228.232 246.085 227.697 246.542C227.163 246.999 226.444 247.609 225.788 248.066L224.428 249.102C223.725 249.605 222.992 250.078 222.259 250.626C221.755 250.946 221.266 251.282 220.731 251.586L219.814 252.089C219.02 252.536 218.21 252.963 217.385 253.369L216.499 253.796C215.399 254.299 214.284 254.787 213.138 255.213L212.68 255.381C211.519 255.808 210.343 256.219 209.151 256.57L209.075 286.654L210.327 286.273C211.091 286.029 211.855 285.755 212.588 285.48L213.062 285.313C214.192 284.871 215.323 284.398 216.408 283.895L217.309 283.454C218.134 283.057 218.944 282.631 219.738 282.189C220.043 282.021 220.349 281.853 220.639 281.67L221.205 281.366C221.541 281.168 221.831 280.924 222.152 280.726C222.9 280.253 223.679 279.765 224.336 279.202L225.681 278.18C226.338 277.662 226.979 277.129 227.59 276.58C227.819 276.382 228.079 276.214 228.293 276.001C228.507 275.788 228.828 275.483 229.087 275.224L229.882 274.431C230.523 273.761 231.134 273.075 231.715 272.374C231.853 272.206 232.021 272.039 232.158 271.856L232.265 271.719C232.971 270.835 233.629 269.914 234.236 268.96V238.861C233.643 239.879 232.99 240.861 232.28 241.802Z" fill="#F8CABB" stroke="#424189" stroke-width="1.8" stroke-linecap="round" stroke-linejoin="round"/>
<path d="M253.27 242.473L234.357 238.906C229.117 247.197 219.783 253.446 209.196 256.555L194.011 244.164C202.215 241.421 205.896 237.702 208.188 233.969L152.549 223.468C149.968 229.122 151.572 234.136 153.924 238.571L129.481 242.32C126.891 238.989 125.248 235.024 124.724 230.84C124.2 226.657 124.814 222.41 126.502 218.545L107.406 214.949L113.043 204.875L132.674 208.578C146.362 191.418 171.875 183.478 202.428 189.239C210.054 190.523 217.412 193.068 224.198 196.767C237.611 204.494 242.378 216.077 238.894 228.619L258.953 232.399L253.27 242.473ZM160.371 213.791L211.595 223.468C211.778 218.256 209.135 214.202 204.109 211.276C200.425 209.291 196.433 207.936 192.3 207.268C179.742 204.906 168.178 207.268 160.31 213.76" fill="#DBE2F9"/>
<path d="M160.371 213.791L211.595 223.468C211.778 218.256 209.135 214.202 204.109 211.276C200.425 209.291 196.433 207.936 192.3 207.268C179.742 204.906 168.178 207.268 160.31 213.76M253.27 242.473L234.357 238.906C229.117 247.197 219.783 253.446 209.196 256.555L194.011 244.164C202.215 241.421 205.896 237.702 208.188 233.969L152.549 223.468C149.968 229.122 151.572 234.136 153.924 238.571L129.481 242.32C126.891 238.989 125.248 235.024 124.724 230.84C124.2 226.657 124.814 222.41 126.502 218.545L107.406 214.949L113.043 204.875L132.674 208.578C146.362 191.418 171.875 183.478 202.428 189.239C210.054 190.523 217.412 193.068 224.198 196.767C237.611 204.494 242.378 216.077 238.894 228.619L258.953 232.399L253.27 242.473Z" stroke="#424189" stroke-width="1.8" stroke-linecap="round" stroke-linejoin="round"/>
<path d="M209.197 256.539L209.121 286.639L193.936 274.249L194.012 244.164L209.197 256.539Z" fill="#5C71C4" stroke="#424189" stroke-width="1.8" stroke-linecap="round" stroke-linejoin="round"/>
<path d="M366.717 190.443L366.625 226.562L358.208 237.215L358.299 201.095L366.717 190.443Z" fill="#F8CABB" stroke="#424189" stroke-width="1.8" stroke-linecap="round" stroke-linejoin="round"/>
<path d="M384.881 218.18L384.789 254.299L363.096 262.224L363.203 226.105L384.881 218.18Z" fill="#F8CABB" stroke="#424189" stroke-width="1.8" stroke-linecap="round" stroke-linejoin="round"/>
<path d="M352.143 217.159C351.318 216.671 350.462 216.229 349.607 215.817L348.721 215.421C348.14 215.147 347.544 214.888 346.949 214.644L346.735 214.552L346.276 214.4C345.253 214.004 344.183 213.653 343.083 213.333L342.595 213.166L341.77 212.937C340.746 212.663 339.753 212.434 338.806 212.236H338.439L337.614 212.084L336.285 211.855C335.919 211.855 335.567 211.764 335.216 211.733H334.742H334.421C333.902 211.733 333.398 211.657 332.894 211.657H331.565L330.312 211.733L329.548 211.84H329.258H328.998C328.379 211.956 327.766 212.109 327.165 212.297C326.399 212.549 325.661 212.881 324.965 213.288H324.858C324.629 213.425 324.43 213.623 324.216 213.775C323.867 214.006 323.53 214.255 323.208 214.522C323.164 214.553 323.123 214.589 323.086 214.629C322.635 215.033 322.221 215.477 321.849 215.955C321.701 216.142 321.568 216.341 321.451 216.549C321.334 216.731 321.236 216.925 321.161 217.128C321.096 217.307 321.045 217.49 321.008 217.677C320.986 217.884 320.986 218.094 321.008 218.302L320.901 254.406C320.906 253.995 320.978 253.588 321.115 253.202C321.285 252.766 321.522 252.36 321.818 251.998C322.475 251.146 323.27 250.409 324.171 249.818C324.43 249.651 324.66 249.453 324.934 249.285C325.626 248.879 326.358 248.547 327.119 248.294C327.82 248.077 328.535 247.904 329.258 247.776H329.563C330.322 247.661 331.088 247.595 331.855 247.578H332.145C333.012 247.575 333.879 247.616 334.742 247.7H335.201C335.964 247.791 336.728 247.913 337.599 248.066L338.424 248.203C339.493 248.416 340.593 248.66 341.77 248.98C342.213 249.087 342.64 249.239 343.083 249.361C344.168 249.696 345.237 250.047 346.276 250.443L346.933 250.687C347.544 250.931 348.125 251.19 348.721 251.464L349.591 251.845C350.447 252.272 351.302 252.714 352.127 253.186C352.952 253.659 354.083 254.36 355.015 255.015C357.973 257.1 360.694 259.501 363.127 262.178L363.234 226.074C360.023 222.546 356.281 219.538 352.143 217.159Z" fill="#5C71C4" stroke="#424189" stroke-width="1.8" stroke-linecap="round" stroke-linejoin="round"/>
<path d="M319.725 249.986C319.725 242.137 289.889 232.185 289.935 217.89L289.828 253.994C289.828 262.041 299.239 268.716 307.503 274.401C313.92 278.82 319.633 282.661 319.618 286.09L319.725 249.986Z" fill="#5C71C4" stroke="#424189" stroke-width="1.8" stroke-linecap="round" stroke-linejoin="round"/>
<path d="M280.418 265.196C279.99 264.998 279.532 264.83 279.135 264.632C277.897 264.053 276.721 263.443 275.621 262.818C270.262 259.863 265.802 255.519 262.712 250.245L262.605 286.349C265.692 291.63 270.159 295.976 275.529 298.922C276.614 299.547 277.79 300.157 279.028 300.751L280.311 301.3C281.075 301.635 281.839 301.97 282.618 302.29L283.336 302.58L283.443 266.461C282.358 266.049 281.395 265.622 280.418 265.196Z" fill="#5C71C4" stroke="#424189" stroke-width="1.8" stroke-linecap="round" stroke-linejoin="round"/>
<path d="M349.958 252.424C349.958 252.607 349.958 252.805 349.958 252.988C349.835 253.596 349.661 254.192 349.439 254.771C349.439 254.969 349.255 255.152 349.179 255.35C348.98 255.777 348.797 256.204 348.553 256.646C348.308 257.088 347.865 257.697 347.483 258.17C347.361 258.322 347.3 258.46 347.178 258.612C346.674 259.237 346.154 259.846 345.65 260.425L345.085 260.989C344.718 261.355 344.352 261.721 343.97 262.071C343.278 262.707 342.554 263.307 341.8 263.87L341.678 263.976C340.868 264.571 340.013 265.135 339.142 265.668L338.531 266.019C337.507 266.613 336.453 267.162 335.353 267.68L334.834 267.924C333.627 268.457 332.359 268.929 331.061 269.356L329.976 269.707L328.234 270.194L326.921 270.53L325.087 270.926L323.835 271.155C322.521 271.383 321.207 271.581 319.847 271.718H319.114C318.121 271.81 317.113 271.886 316.059 271.917H314.73H312.239H310.834L308.038 271.779L306.816 271.688C305.487 271.566 304.143 271.429 302.783 271.246L302.691 307.35C304.051 307.548 305.38 307.685 306.709 307.792H307.045H307.931C308.879 307.792 309.81 307.914 310.727 307.944H311.369H312.133C312.973 307.944 313.798 307.944 314.623 307.944H315.478H315.952C316.975 307.944 317.984 307.838 319.007 307.746C319.206 307.746 319.42 307.746 319.618 307.746H319.74C321.105 307.614 322.434 307.431 323.728 307.198H324.125C324.415 307.198 324.69 307.076 324.98 307.015L326.814 306.634L328.143 306.298L329.884 305.795L330.572 305.597C330.706 305.559 330.839 305.513 330.969 305.46C332.268 305.018 333.52 304.546 334.727 303.936L335.246 303.692C336.334 303.194 337.394 302.639 338.424 302.031L338.837 301.833L339.05 301.681C339.921 301.147 340.761 300.599 341.571 299.989L341.709 299.882C342.462 299.324 343.18 298.729 343.863 298.099L344.092 297.916C344.397 297.627 344.688 297.307 344.993 297.002L345.558 296.453C346.108 295.859 346.643 295.249 347.086 294.624C347.193 294.487 347.269 294.335 347.376 294.198C347.758 293.711 348.11 293.202 348.43 292.674C348.66 292.262 348.828 291.851 349.011 291.439C349.194 291.028 349.21 291.058 349.286 290.875C349.501 290.326 349.669 289.761 349.79 289.184C349.805 288.991 349.805 288.797 349.79 288.605C349.861 288.253 349.902 287.896 349.912 287.538C349.912 287.538 349.912 287.385 349.912 287.309L350.004 251.19C350.015 251.602 350 252.014 349.958 252.424Z" fill="#F8CABB" stroke="#424189" stroke-width="1.8" stroke-linecap="round" stroke-linejoin="round"/>
<path d="M302.692 271.338L302.6 307.457L293.785 318.567L293.892 282.463L302.692 271.338Z" fill="#F8CABB" stroke="#424189" stroke-width="1.8" stroke-linecap="round" stroke-linejoin="round"/>
<path d="M366.717 190.458L358.299 201.126C362.859 202.739 367.266 204.754 371.468 207.146C376.626 209.916 381.185 213.676 384.881 218.21L363.203 226.135C360.006 222.588 356.275 219.559 352.143 217.159C348.891 215.293 345.402 213.873 341.77 212.937C331.672 210.24 325.469 211.337 321.818 215.985C313.691 226.257 362.256 239.501 347.056 258.658C338.562 269.326 322.078 274.005 302.63 271.353L293.831 282.463L274.735 277.388L283.382 266.461C280.68 265.459 278.064 264.241 275.56 262.818C270.201 259.863 265.741 255.519 262.651 250.245L284.619 244.439C286.8 247.53 289.611 250.127 292.869 252.059C295.268 253.407 297.837 254.432 300.507 255.107C309.169 257.393 315.142 256.829 318.839 252.059C326.386 242.549 277.026 230.006 293.067 209.767C301.271 199.404 317.296 193.856 338.669 196.584L347.545 185.383L366.717 190.458Z" fill="#DBE2F9" stroke="#424189" stroke-width="1.8" stroke-linecap="round" stroke-linejoin="round"/>
<path d="M293.892 282.463L293.785 318.567L274.704 313.492L274.796 277.373L293.892 282.463Z" fill="#5C71C4" stroke="#424189" stroke-width="1.8" stroke-linecap="round" stroke-linejoin="round"/>
</svg>
