<svg width="129" height="33" viewBox="0 0 129 33" fill="none" xmlns="http://www.w3.org/2000/svg">
<path d="M18.2745 32.5442H17.4158C16.0302 32.5442 14.7405 32.233 13.5652 31.6002L13.5567 31.5956L13.5483 31.5909C12.3728 30.9278 11.4347 30.0037 10.7446 28.8334C10.0465 27.6497 9.70312 26.3342 9.70312 24.9102V0.8349C9.70312 0.765864 9.75909 0.7099 9.82812 0.7099H12.8048C12.8739 0.7099 12.9298 0.765864 12.9298 0.8349V24.9102C12.9298 25.8018 13.1278 26.5743 13.5062 27.2512C13.918 27.9411 14.4636 28.4867 15.1536 28.8985C15.8378 29.2812 16.5857 29.4748 17.4158 29.4748H18.2745C18.3435 29.4748 18.3995 29.5308 18.3995 29.5998V32.4192C18.3995 32.4882 18.3435 32.5442 18.2745 32.5442Z" fill="#2E3192"/>
<path fill-rule="evenodd" clip-rule="evenodd" d="M36.8602 28.9393C36.8602 28.9703 36.8488 29.0001 36.828 29.0231L36.6068 29.2682C35.5559 30.4327 34.3814 31.311 33.0791 31.8733L33.0704 31.8771L33.0616 31.8807C31.7701 32.409 30.3286 32.6622 28.7541 32.6622C26.943 32.6622 25.2342 32.1776 23.644 31.2235L23.6372 31.2193C22.0832 30.2697 20.8294 29.0003 19.8831 27.4232L19.8763 27.4119C18.9518 25.8229 18.4837 24.1181 18.4837 22.3131C18.4837 20.393 18.9442 18.6416 19.8824 17.0861C20.8118 15.5192 22.0817 14.2933 23.6791 13.4221L23.6856 13.4185C25.3075 12.5496 27.0953 12.1214 29.0296 12.1214C32.0558 12.1214 34.6394 13.3302 36.7293 15.6778L37.2716 16.2869C37.3158 16.3366 37.3134 16.4122 37.2661 16.459L25.251 28.321C25.1949 28.3764 25.2035 28.4694 25.2695 28.5126C25.7049 28.7975 26.1233 29.0225 26.5248 29.1919C27.2041 29.4528 27.9949 29.5929 28.9115 29.5929C30.0963 29.5929 31.2267 29.2876 32.3172 28.6612C33.4117 28.0324 34.3232 27.1705 35.0553 26.0606L36.6309 23.6718C36.6992 23.5683 36.8602 23.6166 36.8602 23.7406V28.9393ZM32.8389 16.5162C32.8939 16.4616 32.8864 16.3706 32.8226 16.3268C32.3747 16.0192 31.9494 15.7917 31.547 15.636L31.5343 15.631L31.5217 15.6258C30.8575 15.3472 30.0226 15.1907 28.9902 15.1907C27.5403 15.1907 26.2799 15.5101 25.1834 16.1269L25.1773 16.1303C24.0975 16.7276 23.2559 17.5471 22.6376 18.6006C22.0255 19.6433 21.7104 20.8328 21.7104 22.1951C21.7104 23.7159 22.1005 25.042 22.8821 26.1999C22.9254 26.264 23.0162 26.2719 23.0711 26.2174L32.8389 16.5162Z" fill="#2E3192"/>
<path d="M42.1734 12.6399C42.1734 12.5709 42.1175 12.5149 42.0484 12.5149H39.0717C39.0027 12.5149 38.9467 12.5709 38.9467 12.6399V32.065C38.9467 32.134 39.0027 32.19 39.0717 32.19H42.0484C42.1175 32.19 42.1734 32.134 42.1734 32.065V21.29C42.1734 20.0943 42.4578 19.0567 43.0089 18.1499C43.5991 17.2218 44.376 16.5019 45.3526 15.9795L45.3597 15.9757C46.3639 15.4279 47.4603 15.1514 48.6662 15.1514C50.3037 15.1514 51.4511 15.6595 52.2513 16.5827L52.2595 16.592C53.1004 17.5381 53.585 18.9283 53.585 20.8965V32.065C53.585 32.134 53.6409 32.19 53.71 32.19H56.6867C56.7557 32.19 56.8117 32.134 56.8117 32.065V20.8965C56.8117 18.2651 56.1239 16.0815 54.6224 14.4838C53.1467 12.8587 51.1474 12.0821 48.7449 12.0821C46.9015 12.0821 45.1963 12.5302 43.6503 13.433C43.1919 13.6929 42.7693 13.9809 42.3841 14.2972C42.301 14.3655 42.1734 14.3073 42.1734 14.1998V12.6399Z" fill="#2E3192"/>
<path fill-rule="evenodd" clip-rule="evenodd" d="M63.9155 31.2262C62.3568 30.3026 61.1102 29.056 60.1866 27.4973C59.2553 25.9258 58.79 24.2043 58.79 22.3525C58.79 20.5007 59.2553 18.7792 60.1866 17.2076C61.1102 15.649 62.3568 14.4024 63.9155 13.4787L63.9223 13.4747C65.5187 12.5459 67.264 12.0821 69.139 12.0821C70.9767 12.0821 72.7218 12.58 74.3594 13.5555C74.9481 13.8968 75.4854 14.2797 75.9694 14.7042C76.0516 14.7763 76.1827 14.7189 76.1827 14.6096V0.8349C76.1827 0.765864 76.2387 0.7099 76.3077 0.7099H79.2844C79.3535 0.7099 79.4094 0.765864 79.4094 0.834899V32.065C79.4094 32.134 79.3535 32.19 79.2844 32.19H76.3077C76.2387 32.19 76.1827 32.134 76.1827 32.065V30.0449C76.1827 29.9355 76.0515 29.8781 75.9695 29.9505C75.4481 30.4109 74.8707 30.8242 74.2389 31.1902C72.6298 32.1376 70.9252 32.6229 69.139 32.6229C67.264 32.6229 65.5187 32.159 63.9223 31.2302L63.9155 31.2262ZM72.6074 28.5918C73.7307 27.9126 74.6096 27.0312 75.2589 25.9414L75.262 25.9362C75.932 24.8273 76.2614 23.6517 76.2614 22.3918C76.2614 21.132 75.932 19.9564 75.262 18.8475L75.2581 18.841L75.2543 18.8344C74.6035 17.7187 73.7244 16.8273 72.6047 16.1508L72.5968 16.146C71.5184 15.4807 70.3593 15.1514 69.0997 15.1514C67.8401 15.1514 66.6809 15.4806 65.6026 16.146L65.596 16.15L65.5895 16.1539C64.502 16.8018 63.6364 17.6775 62.9845 18.7951C62.3367 19.9055 62.0167 21.0857 62.0167 22.3525C62.0167 23.6514 62.3268 24.8455 62.9468 25.9519C63.5967 27.0392 64.4617 27.9165 65.5528 28.5919C66.6601 29.2355 67.8369 29.5535 69.0997 29.5535C70.3653 29.5535 71.5283 29.2341 72.6074 28.5918Z" fill="#2E3192"/>
<path d="M83.2477 9.74775L83.2642 9.7643L83.2815 9.78005C83.739 10.1959 84.299 10.4294 84.9271 10.4294C85.5506 10.4294 86.1088 10.1981 86.551 9.76373C87.0351 9.31509 87.2881 8.72817 87.2881 8.06838C87.2881 7.41319 87.0192 6.84568 86.5505 6.41188C86.1083 5.97779 85.5504 5.74672 84.9271 5.74672C84.299 5.74672 83.739 5.98024 83.2815 6.39605L83.2642 6.4118L83.2477 6.42835C82.803 6.87307 82.566 7.43723 82.566 8.06838C82.566 8.70522 82.7888 9.28887 83.2477 9.74775Z" fill="#2E3192"/>
<path d="M83.3137 12.6399C83.3137 12.5709 83.3697 12.5149 83.4387 12.5149H86.4154C86.4844 12.5149 86.5404 12.5709 86.5404 12.6399V32.065C86.5404 32.134 86.4844 32.19 86.4154 32.19H83.4387C83.3697 32.19 83.3137 32.134 83.3137 32.065V12.6399Z" fill="#2E3192"/>
<path d="M94.5542 31.3511L94.561 31.3549C96.1557 32.2538 97.8969 32.7016 99.766 32.7016C101.316 32.7016 102.734 32.4478 104.002 31.917L104.012 31.9126C104.969 31.4996 105.854 30.9358 106.667 30.2284C106.694 30.2048 106.709 30.1705 106.709 30.1346V25.3567C106.709 25.2324 106.548 25.1843 106.48 25.2883L105.947 26.1035C104.38 28.5006 102.343 29.6322 99.766 29.6322C98.4897 29.6322 97.3035 29.3334 96.1924 28.7338C95.1135 28.1117 94.2558 27.2653 93.6092 26.1814C92.9709 25.0856 92.6437 23.8437 92.6437 22.4312C92.6437 21.1713 92.9731 19.9957 93.6431 18.8868C94.3196 17.7671 95.211 16.8881 96.3267 16.2373L96.3321 16.2341C97.4714 15.5598 98.6633 15.2301 99.9235 15.2301C101.356 15.2301 102.469 15.5397 103.322 16.0943L103.334 16.102L103.346 16.1094C104.276 16.6765 105.15 17.5366 105.954 18.7309L106.481 19.5121C106.549 19.6144 106.709 19.5656 106.709 19.4422V14.7123C106.709 14.676 106.693 14.6415 106.666 14.6178C105.845 13.9133 104.992 13.355 104.105 12.9557C102.899 12.4129 101.495 12.1608 99.9235 12.1608C98.0015 12.1608 96.2189 12.6218 94.5953 13.5496L94.5887 13.5534C93.0041 14.4754 91.7417 15.7215 90.8157 17.2828C89.8833 18.8285 89.417 20.5252 89.417 22.3525C89.417 24.2976 89.8767 26.0737 90.8136 27.6547C91.7389 29.2161 92.9892 30.4527 94.5542 31.3511Z" fill="#2E3192"/>
<path fill-rule="evenodd" clip-rule="evenodd" d="M109.643 27.4973L109.639 27.4905C108.713 25.899 108.247 24.1808 108.247 22.3525C108.247 20.5254 108.713 18.8186 109.641 17.2506C110.566 15.6619 111.829 14.3993 113.418 13.4747C115.012 12.5473 116.744 12.0821 118.596 12.0821C120.486 12.0821 122.272 12.5931 123.939 13.5975C124.483 13.9173 124.98 14.2725 125.426 14.6633C125.508 14.7354 125.639 14.6779 125.639 14.5685V12.6399C125.639 12.5709 125.695 12.5149 125.764 12.5149H128.741C128.81 12.5149 128.866 12.5709 128.866 12.6399V32.065C128.866 32.134 128.81 32.19 128.741 32.19H125.764C125.695 32.19 125.639 32.134 125.639 32.065V30.1017C125.639 29.9915 125.506 29.9344 125.425 30.0082C124.943 30.4432 124.408 30.8356 123.822 31.1854L123.817 31.1881C122.199 32.1415 120.453 32.6229 118.596 32.6229C116.744 32.6229 115.012 32.1576 113.418 31.2302C111.833 30.3076 110.569 29.0603 109.643 27.4973ZM122.178 28.5943C123.271 27.9183 124.123 27.041 124.747 25.9549L124.75 25.9492C125.396 24.8417 125.718 23.6488 125.718 22.3525C125.718 21.0857 125.398 19.9055 124.75 18.7951C124.098 17.6775 123.233 16.8018 122.145 16.1539L122.139 16.15L122.132 16.146C121.054 15.4806 119.895 15.1514 118.635 15.1514C117.377 15.1514 116.203 15.48 115.095 16.1483C114.001 16.8242 113.117 17.7179 112.437 18.8412C111.792 19.9496 111.473 21.1276 111.473 22.3918C111.473 23.6546 111.791 24.8313 112.435 25.9386C113.11 27.0296 114.003 27.911 115.124 28.5895C116.232 29.2347 117.41 29.5535 118.674 29.5535C119.938 29.5535 121.1 29.235 122.178 28.5943Z" fill="#2E3192"/>
<circle cx="4.17324" cy="29.4182" r="3.30703" fill="#ED7A56"/>
</svg>
