<svg xmlns="http://www.w3.org/2000/svg" viewBox="0 0 1407 682" width="1407" height="682" preserveAspectRatio="xMidYMid meet" style="width: 100%; height: 100%; transform: translate3d(0px, 0px, 0px);"><defs><clipPath id="__lottie_element_186"><rect width="1407" height="682" x="0" y="0"></rect></clipPath><linearGradient id="__lottie_element_190" spreadMethod="pad" gradientUnits="userSpaceOnUse" x1="0" y1="260" x2="0" y2="-148"><stop offset="0%" stop-color="rgb(213,211,217)"></stop><stop offset="50%" stop-color="rgb(212,206,213)"></stop><stop offset="100%" stop-color="rgb(211,200,209)"></stop></linearGradient><clipPath id="__lottie_element_195"><path d="M0,0 L1407,0 L1407,682 L0,682z"></path></clipPath><clipPath id="__lottie_element_196"><path fill="#ffffff" clip-rule="nonzero" d=" M1397.1209716796875,26.00200080871582 C1397.1209716796875,26.00200080871582 1397.1209716796875,654.4320068359375 1397.1209716796875,654.4320068359375 C1397.1209716796875,663.2730102539062 1389.9610595703125,670.4320068359375 1381.1209716796875,670.4320068359375 C1381.1209716796875,670.4320068359375 26.5,670.4320068359375 26.5,670.4320068359375 C17.670000076293945,670.4320068359375 10.5,663.2730102539062 10.5,654.4320068359375 C10.5,654.4320068359375 10.5,26.00200080871582 10.5,26.00200080871582 C10.5,17.16200065612793 17.670000076293945,10.001999855041504 26.5,10.001999855041504 C26.5,10.001999855041504 1381.1209716796875,10.001999855041504 1381.1209716796875,10.001999855041504 C1389.9610595703125,10.001999855041504 1397.1209716796875,17.16200065612793 1397.1209716796875,26.00200080871582" fill-opacity="1"></path></clipPath></defs><g clip-path="url(#__lottie_element_186)"><g transform="matrix(1,0,0,1,10.19000244140625,9.90899658203125)" opacity="1" style="display: block;"><g opacity="0.2" transform="matrix(1,0,0,1,693.3099975585938,330.2170104980469)"><path fill="url(#__lottie_element_190)" fill-opacity="1" d=" M693.3109741210938,-314.2149963378906 C693.3109741210938,-314.2149963378906 693.3109741210938,314.2149963378906 693.3109741210938,314.2149963378906 C693.3109741210938,323.0559997558594 686.1510009765625,330.2149963378906 677.3109741210938,330.2149963378906 C677.3109741210938,330.2149963378906 -677.3099975585938,330.2149963378906 -677.3099975585938,330.2149963378906 C-686.1400146484375,330.2149963378906 -693.3099975585938,323.0559997558594 -693.3099975585938,314.2149963378906 C-693.3099975585938,314.2149963378906 -693.3099975585938,-314.2149963378906 -693.3099975585938,-314.2149963378906 C-693.3099975585938,-323.05499267578125 -686.1400146484375,-330.2149963378906 -677.3099975585938,-330.2149963378906 C-677.3099975585938,-330.2149963378906 -37.500999450683594,-330.2149963378906 -37.500999450683594,-330.2149963378906 C-37.500999450683594,-330.2149963378906 -9.5,-330.2149963378906 -9.5,-330.2149963378906 C-9.5,-330.2149963378906 677.3109741210938,-330.2149963378906 677.3109741210938,-330.2149963378906 C686.1510009765625,-330.2149963378906 693.3109741210938,-323.05499267578125 693.3109741210938,-314.2149963378906z"></path><g opacity="1" transform="matrix(1,0,0,1,0,0)"></g></g><g opacity="1" transform="matrix(1,0,0,1,693.3099975585938,330.2170104980469)"><path fill="rgb(234,234,234)" fill-opacity="1" d="M0 0"></path><g opacity="1" transform="matrix(1,0,0,1,0,0)"></g></g><g opacity="0.6" transform="matrix(1,0,0,1,90.52899932861328,330.2170104980469)"><path fill="rgb(14,14,44)" fill-opacity="1" d=" M-90.5260009765625,-314.2179870605469 C-90.5260009765625,-323.0539855957031 -83.36199951171875,-330.2179870605469 -74.5260009765625,-330.2179870605469 C-74.5260009765625,-330.2179870605469 90.5260009765625,-330.2179870605469 90.5260009765625,-330.2179870605469 C90.5260009765625,-330.2179870605469 90.5260009765625,330.2170104980469 90.5260009765625,330.2170104980469 C90.5260009765625,330.2170104980469 -74.5260009765625,330.2170104980469 -74.5260009765625,330.2170104980469 C-83.36199951171875,330.2170104980469 -90.5260009765625,323.0539855957031 -90.5260009765625,314.2170104980469 C-90.5260009765625,314.2170104980469 -90.5260009765625,-314.2179870605469 -90.5260009765625,-314.2179870605469z"></path><g opacity="1" transform="matrix(1,0,0,1,0,0)"></g></g><g opacity="1" transform="matrix(1,0,0,1,24.465999603271484,22.650999069213867)"><path fill="rgb(155,155,155)" fill-opacity="1" d=" M0,-5.854000091552734 C3.2330000400543213,-5.854000091552734 5.854000091552734,-3.2330000400543213 5.854000091552734,0 C5.854000091552734,3.2330000400543213 3.2330000400543213,5.854000091552734 0,5.854000091552734 C-3.2330000400543213,5.854000091552734 -5.854000091552734,3.2330000400543213 -5.854000091552734,0 C-5.854000091552734,-3.2330000400543213 -3.2330000400543213,-5.854000091552734 0,-5.854000091552734z"></path><g opacity="1" transform="matrix(1,0,0,1,0,0)"></g></g><g opacity="1" transform="matrix(1,0,0,1,43.72999954223633,22.650999069213867)"><path fill="rgb(155,155,155)" fill-opacity="1" d=" M0,-5.854000091552734 C3.2330000400543213,-5.854000091552734 5.854000091552734,-3.2330000400543213 5.854000091552734,0 C5.854000091552734,3.2330000400543213 3.2330000400543213,5.854000091552734 0,5.854000091552734 C-3.2330000400543213,5.854000091552734 -5.854000091552734,3.2330000400543213 -5.854000091552734,0 C-5.854000091552734,-3.2330000400543213 -3.2330000400543213,-5.854000091552734 0,-5.854000091552734z"></path><g opacity="1" transform="matrix(1,0,0,1,0,0)"></g></g><g opacity="1" transform="matrix(1,0,0,1,62.994998931884766,22.650999069213867)"><path fill="rgb(155,155,155)" fill-opacity="1" d=" M0,-5.854000091552734 C3.2330000400543213,-5.854000091552734 5.854000091552734,-3.2330000400543213 5.854000091552734,0 C5.854000091552734,3.2330000400543213 3.2330000400543213,5.854000091552734 0,5.854000091552734 C-3.2330000400543213,5.854000091552734 -5.854000091552734,3.2330000400543213 -5.854000091552734,0 C-5.854000091552734,-3.2330000400543213 -3.2330000400543213,-5.854000091552734 0,-5.854000091552734z"></path><g opacity="1" transform="matrix(1,0,0,1,0,0)"></g></g></g><g transform="matrix(1,0,0,1,221.0799560546875,38.41302490234375)" opacity="0.4" style="display: block;"><g opacity="1" transform="matrix(1,0,0,1,135.2010040283203,64.93800354003906)"><path fill="rgb(196,196,203)" fill-opacity="1" d=" M-113.83999633789062,-64.43800354003906 C-113.83999633789062,-64.43800354003906 113.83999633789062,-64.43800354003906 113.83999633789062,-64.43800354003906 C124.61000061035156,-64.43800354003906 133.33999633789062,-55.70800018310547 133.33999633789062,-44.9379997253418 C133.33999633789062,-44.9379997253418 133.33999633789062,44.9379997253418 133.33999633789062,44.9379997253418 C133.33999633789062,55.70800018310547 124.61000061035156,64.43800354003906 113.83999633789062,64.43800354003906 C113.83999633789062,64.43800354003906 -113.83999633789062,64.43800354003906 -113.83999633789062,64.43800354003906 C-124.61000061035156,64.43800354003906 -133.33999633789062,55.70800018310547 -133.33999633789062,44.9379997253418 C-133.33999633789062,44.9379997253418 -133.33999633789062,-44.9379997253418 -133.33999633789062,-44.9379997253418 C-133.33999633789062,-55.70800018310547 -124.61000061035156,-64.43800354003906 -113.83999633789062,-64.43800354003906z"></path><g opacity="1" transform="matrix(1,0,0,1,0,0)"></g></g><g opacity="1" transform="matrix(1,0,0,1,135.2010040283203,64.93800354003906)"><path stroke-linecap="butt" stroke-linejoin="miter" fill-opacity="0" stroke-miterlimit="4" stroke="rgb(73,73,104)" stroke-opacity="1" stroke-width="0" d=" M-113.83999633789062,-64.43800354003906 C-113.83999633789062,-64.43800354003906 113.83999633789062,-64.43800354003906 113.83999633789062,-64.43800354003906 C124.61000061035156,-64.43800354003906 133.33999633789062,-55.70800018310547 133.33999633789062,-44.9379997253418 C133.33999633789062,-44.9379997253418 133.33999633789062,44.9379997253418 133.33999633789062,44.9379997253418 C133.33999633789062,55.70800018310547 124.61000061035156,64.43800354003906 113.83999633789062,64.43800354003906 C113.83999633789062,64.43800354003906 -113.83999633789062,64.43800354003906 -113.83999633789062,64.43800354003906 C-124.61000061035156,64.43800354003906 -133.33999633789062,55.70800018310547 -133.33999633789062,44.9379997253418 C-133.33999633789062,44.9379997253418 -133.33999633789062,-44.9379997253418 -133.33999633789062,-44.9379997253418 C-133.33999633789062,-55.70800018310547 -124.61000061035156,-64.43800354003906 -113.83999633789062,-64.43800354003906z"></path></g><g opacity="1" transform="matrix(1,0,0,1,276.65301513671875,304.864013671875)"><path fill="rgb(196,196,203)" fill-opacity="1" d=" M-255.29200744628906,-158.48800659179688 C-255.29200744628906,-158.48800659179688 255.29200744628906,-158.48800659179688 255.29200744628906,-158.48800659179688 C266.06201171875,-158.48800659179688 274.7919921875,-149.75799560546875 274.7919921875,-138.98800659179688 C274.7919921875,-138.98800659179688 274.7919921875,138.98800659179688 274.7919921875,138.98800659179688 C274.7919921875,149.7570037841797 266.06201171875,158.48800659179688 255.29200744628906,158.48800659179688 C255.29200744628906,158.48800659179688 -255.29200744628906,158.48800659179688 -255.29200744628906,158.48800659179688 C-266.06201171875,158.48800659179688 -274.7919921875,149.7570037841797 -274.7919921875,138.98800659179688 C-274.7919921875,138.98800659179688 -274.7919921875,-138.98800659179688 -274.7919921875,-138.98800659179688 C-274.7919921875,-149.75799560546875 -266.06201171875,-158.48800659179688 -255.29200744628906,-158.48800659179688z"></path><g opacity="1" transform="matrix(1,0,0,1,0,0)"></g></g><g opacity="1" transform="matrix(1,0,0,1,276.65301513671875,304.864013671875)"><path stroke-linecap="butt" stroke-linejoin="miter" fill-opacity="0" stroke-miterlimit="4" stroke="rgb(73,73,104)" stroke-opacity="1" stroke-width="0" d=" M-255.29200744628906,-158.48800659179688 C-255.29200744628906,-158.48800659179688 255.29200744628906,-158.48800659179688 255.29200744628906,-158.48800659179688 C266.06201171875,-158.48800659179688 274.7919921875,-149.75799560546875 274.7919921875,-138.98800659179688 C274.7919921875,-138.98800659179688 274.7919921875,138.98800659179688 274.7919921875,138.98800659179688 C274.7919921875,149.7570037841797 266.06201171875,158.48800659179688 255.29200744628906,158.48800659179688 C255.29200744628906,158.48800659179688 -255.29200744628906,158.48800659179688 -255.29200744628906,158.48800659179688 C-266.06201171875,158.48800659179688 -274.7919921875,149.7570037841797 -274.7919921875,138.98800659179688 C-274.7919921875,138.98800659179688 -274.7919921875,-138.98800659179688 -274.7919921875,-138.98800659179688 C-274.7919921875,-149.75799560546875 -266.06201171875,-158.48800659179688 -255.29200744628906,-158.48800659179688z"></path></g><g opacity="1" transform="matrix(1,0,0,1,845.02001953125,478.5480041503906)"><path fill="rgb(196,196,203)" fill-opacity="1" d=" M274.7900085449219,-133.8800048828125 C274.7900085449219,-133.8800048828125 274.7900085449219,153.3800048828125 274.7900085449219,153.3800048828125 C274.7900085449219,153.3800048828125 -274.7900085449219,153.3800048828125 -274.7900085449219,153.3800048828125 C-274.7900085449219,153.3800048828125 -274.7900085449219,-133.8800048828125 -274.7900085449219,-133.8800048828125 C-274.7900085449219,-144.64999389648438 -266.05999755859375,-153.3800048828125 -255.2899932861328,-153.3800048828125 C-255.2899932861328,-153.3800048828125 255.2899932861328,-153.3800048828125 255.2899932861328,-153.3800048828125 C266.0610046386719,-153.3800048828125 274.7900085449219,-144.64999389648438 274.7900085449219,-133.8800048828125z"></path><g opacity="1" transform="matrix(1,0,0,1,0,0)"></g></g><g opacity="1" transform="matrix(1,0,0,1,845.02001953125,478.5480041503906)"><path stroke-linecap="butt" stroke-linejoin="miter" fill-opacity="0" stroke-miterlimit="4" stroke="rgb(73,73,104)" stroke-opacity="1" stroke-width="0" d=" M274.7900085449219,-133.8800048828125 C274.7900085449219,-133.8800048828125 274.7900085449219,153.3800048828125 274.7900085449219,153.3800048828125 C274.7900085449219,153.3800048828125 -274.7900085449219,153.3800048828125 -274.7900085449219,153.3800048828125 C-274.7900085449219,153.3800048828125 -274.7900085449219,-133.8800048828125 -274.7900085449219,-133.8800048828125 C-274.7900085449219,-144.64999389648438 -266.05999755859375,-153.3800048828125 -255.2899932861328,-153.3800048828125 C-255.2899932861328,-153.3800048828125 255.2899932861328,-153.3800048828125 255.2899932861328,-153.3800048828125 C266.0610046386719,-153.3800048828125 274.7900085449219,-144.64999389648438 274.7900085449219,-133.8800048828125z"></path></g><g opacity="1" transform="matrix(1,0,0,1,845.02197265625,227.27099609375)"><path fill="rgb(196,196,203)" fill-opacity="1" d=" M-255.29299926757812,-80.8949966430664 C-255.29299926757812,-80.8949966430664 255.29200744628906,-80.8949966430664 255.29200744628906,-80.8949966430664 C266.0610046386719,-80.8949966430664 274.7919921875,-72.16500091552734 274.7919921875,-61.39500045776367 C274.7919921875,-61.39500045776367 274.7919921875,61.39500045776367 274.7919921875,61.39500045776367 C274.7919921875,72.16500091552734 266.0610046386719,80.8949966430664 255.29200744628906,80.8949966430664 C255.29200744628906,80.8949966430664 -255.29299926757812,80.8949966430664 -255.29299926757812,80.8949966430664 C-266.06298828125,80.8949966430664 -274.7929992675781,72.16500091552734 -274.7929992675781,61.39500045776367 C-274.7929992675781,61.39500045776367 -274.7929992675781,-61.39500045776367 -274.7929992675781,-61.39500045776367 C-274.7929992675781,-72.16500091552734 -266.06298828125,-80.8949966430664 -255.29299926757812,-80.8949966430664z"></path><g opacity="1" transform="matrix(1,0,0,1,0,0)"></g></g><g opacity="1" transform="matrix(1,0,0,1,845.02197265625,227.27099609375)"><path stroke-linecap="butt" stroke-linejoin="miter" fill-opacity="0" stroke-miterlimit="4" stroke="rgb(73,73,104)" stroke-opacity="1" stroke-width="0" d=" M-255.29299926757812,-80.8949966430664 C-255.29299926757812,-80.8949966430664 255.29200744628906,-80.8949966430664 255.29200744628906,-80.8949966430664 C266.0610046386719,-80.8949966430664 274.7919921875,-72.16500091552734 274.7919921875,-61.39500045776367 C274.7919921875,-61.39500045776367 274.7919921875,61.39500045776367 274.7919921875,61.39500045776367 C274.7919921875,72.16500091552734 266.0610046386719,80.8949966430664 255.29200744628906,80.8949966430664 C255.29200744628906,80.8949966430664 -255.29299926757812,80.8949966430664 -255.29299926757812,80.8949966430664 C-266.06298828125,80.8949966430664 -274.7929992675781,72.16500091552734 -274.7929992675781,61.39500045776367 C-274.7929992675781,61.39500045776367 -274.7929992675781,-61.39500045776367 -274.7929992675781,-61.39500045776367 C-274.7929992675781,-72.16500091552734 -266.06298828125,-80.8949966430664 -255.29299926757812,-80.8949966430664z"></path></g><g opacity="1" transform="matrix(1,0,0,1,702.7160034179688,64.93800354003906)"><path fill="rgb(196,196,203)" fill-opacity="1" d=" M-113.83999633789062,-64.43800354003906 C-113.83999633789062,-64.43800354003906 113.83999633789062,-64.43800354003906 113.83999633789062,-64.43800354003906 C124.60900115966797,-64.43800354003906 133.33999633789062,-55.70800018310547 133.33999633789062,-44.9379997253418 C133.33999633789062,-44.9379997253418 133.33999633789062,44.9379997253418 133.33999633789062,44.9379997253418 C133.33999633789062,55.70800018310547 124.60900115966797,64.43800354003906 113.83999633789062,64.43800354003906 C113.83999633789062,64.43800354003906 -113.83999633789062,64.43800354003906 -113.83999633789062,64.43800354003906 C-124.61000061035156,64.43800354003906 -133.33999633789062,55.70800018310547 -133.33999633789062,44.9379997253418 C-133.33999633789062,44.9379997253418 -133.33999633789062,-44.9379997253418 -133.33999633789062,-44.9379997253418 C-133.33999633789062,-55.70800018310547 -124.61000061035156,-64.43800354003906 -113.83999633789062,-64.43800354003906z"></path><g opacity="1" transform="matrix(1,0,0,1,0,0)"></g></g><g opacity="1" transform="matrix(1,0,0,1,702.7160034179688,64.93800354003906)"><path stroke-linecap="butt" stroke-linejoin="miter" fill-opacity="0" stroke-miterlimit="4" stroke="rgb(73,73,104)" stroke-opacity="0.6" stroke-width="0" d=" M-113.83999633789062,-64.43800354003906 C-113.83999633789062,-64.43800354003906 113.83999633789062,-64.43800354003906 113.83999633789062,-64.43800354003906 C124.60900115966797,-64.43800354003906 133.33999633789062,-55.70800018310547 133.33999633789062,-44.9379997253418 C133.33999633789062,-44.9379997253418 133.33999633789062,44.9379997253418 133.33999633789062,44.9379997253418 C133.33999633789062,55.70800018310547 124.60900115966797,64.43800354003906 113.83999633789062,64.43800354003906 C113.83999633789062,64.43800354003906 -113.83999633789062,64.43800354003906 -113.83999633789062,64.43800354003906 C-124.61000061035156,64.43800354003906 -133.33999633789062,55.70800018310547 -133.33999633789062,44.9379997253418 C-133.33999633789062,44.9379997253418 -133.33999633789062,-44.9379997253418 -133.33999633789062,-44.9379997253418 C-133.33999633789062,-55.70800018310547 -124.61000061035156,-64.43800354003906 -113.83999633789062,-64.43800354003906z"></path></g><g opacity="1" transform="matrix(1,0,0,1,418.9590148925781,64.93800354003906)"><path fill="rgb(146,146,157)" fill-opacity="1" d=" M-113.83999633789062,-64.43800354003906 C-113.83999633789062,-64.43800354003906 113.83999633789062,-64.43800354003906 113.83999633789062,-64.43800354003906 C124.60900115966797,-64.43800354003906 133.33999633789062,-55.70800018310547 133.33999633789062,-44.9379997253418 C133.33999633789062,-44.9379997253418 133.33999633789062,44.9379997253418 133.33999633789062,44.9379997253418 C133.33999633789062,55.70800018310547 124.60900115966797,64.43800354003906 113.83999633789062,64.43800354003906 C113.83999633789062,64.43800354003906 -113.83999633789062,64.43800354003906 -113.83999633789062,64.43800354003906 C-124.61000061035156,64.43800354003906 -133.33999633789062,55.70800018310547 -133.33999633789062,44.9379997253418 C-133.33999633789062,44.9379997253418 -133.33999633789062,-44.9379997253418 -133.33999633789062,-44.9379997253418 C-133.33999633789062,-55.70800018310547 -124.61000061035156,-64.43800354003906 -113.83999633789062,-64.43800354003906z"></path><g opacity="1" transform="matrix(1,0,0,1,0,0)"></g></g><g opacity="1" transform="matrix(1,0,0,1,986.469970703125,64.93800354003906)"><path fill="rgb(196,196,203)" fill-opacity="1" d=" M-113.83999633789062,-64.43800354003906 C-113.83999633789062,-64.43800354003906 113.83999633789062,-64.43800354003906 113.83999633789062,-64.43800354003906 C124.60900115966797,-64.43800354003906 133.33999633789062,-55.70800018310547 133.33999633789062,-44.9379997253418 C133.33999633789062,-44.9379997253418 133.33999633789062,44.9379997253418 133.33999633789062,44.9379997253418 C133.33999633789062,55.70800018310547 124.60900115966797,64.43800354003906 113.83999633789062,64.43800354003906 C113.83999633789062,64.43800354003906 -113.83999633789062,64.43800354003906 -113.83999633789062,64.43800354003906 C-124.61000061035156,64.43800354003906 -133.33999633789062,55.70800018310547 -133.33999633789062,44.9379997253418 C-133.33999633789062,44.9379997253418 -133.33999633789062,-44.9379997253418 -133.33999633789062,-44.9379997253418 C-133.33999633789062,-55.70800018310547 -124.61000061035156,-64.43800354003906 -113.83999633789062,-64.43800354003906z"></path><g opacity="1" transform="matrix(1,0,0,1,0,0)"></g></g><g opacity="1" transform="matrix(1,0,0,1,986.469970703125,64.93800354003906)"><path stroke-linecap="butt" stroke-linejoin="miter" fill-opacity="0" stroke-miterlimit="4" stroke="rgb(73,73,104)" stroke-opacity="1" stroke-width="0" d=" M-113.83999633789062,-64.43800354003906 C-113.83999633789062,-64.43800354003906 113.83999633789062,-64.43800354003906 113.83999633789062,-64.43800354003906 C124.60900115966797,-64.43800354003906 133.33999633789062,-55.70800018310547 133.33999633789062,-44.9379997253418 C133.33999633789062,-44.9379997253418 133.33999633789062,44.9379997253418 133.33999633789062,44.9379997253418 C133.33999633789062,55.70800018310547 124.60900115966797,64.43800354003906 113.83999633789062,64.43800354003906 C113.83999633789062,64.43800354003906 -113.83999633789062,64.43800354003906 -113.83999633789062,64.43800354003906 C-124.61000061035156,64.43800354003906 -133.33999633789062,55.70800018310547 -133.33999633789062,44.9379997253418 C-133.33999633789062,44.9379997253418 -133.33999633789062,-44.9379997253418 -133.33999633789062,-44.9379997253418 C-133.33999633789062,-55.70800018310547 -124.61000061035156,-64.43800354003906 -113.83999633789062,-64.43800354003906z"></path></g><g opacity="1" transform="matrix(1,0,0,1,275.2950134277344,556.1380004882812)"><path fill="rgb(196,196,203)" fill-opacity="1" d=" M274.7950134277344,-56.290000915527344 C274.7950134277344,-56.290000915527344 274.7950134277344,75.79000091552734 274.7950134277344,75.79000091552734 C274.7950134277344,75.79000091552734 -274.7950134277344,75.79000091552734 -274.7950134277344,75.79000091552734 C-274.7950134277344,75.79000091552734 -274.7950134277344,-56.290000915527344 -274.7950134277344,-56.290000915527344 C-274.7950134277344,-67.05999755859375 -266.06500244140625,-75.79000091552734 -255.2949981689453,-75.79000091552734 C-255.2949981689453,-75.79000091552734 255.2949981689453,-75.79000091552734 255.2949981689453,-75.79000091552734 C266.0660095214844,-75.79000091552734 274.7950134277344,-67.05999755859375 274.7950134277344,-56.290000915527344z"></path><g opacity="1" transform="matrix(1,0,0,1,0,0)"></g></g><g opacity="1" transform="matrix(1,0,0,1,275.2950134277344,556.1380004882812)"><path stroke-linecap="butt" stroke-linejoin="miter" fill-opacity="0" stroke-miterlimit="4" stroke="rgb(73,73,104)" stroke-opacity="1" stroke-width="0" d=" M274.7950134277344,-56.290000915527344 C274.7950134277344,-56.290000915527344 274.7950134277344,75.79000091552734 274.7950134277344,75.79000091552734 C274.7950134277344,75.79000091552734 -274.7950134277344,75.79000091552734 -274.7950134277344,75.79000091552734 C-274.7950134277344,75.79000091552734 -274.7950134277344,-56.290000915527344 -274.7950134277344,-56.290000915527344 C-274.7950134277344,-67.05999755859375 -266.06500244140625,-75.79000091552734 -255.2949981689453,-75.79000091552734 C-255.2949981689453,-75.79000091552734 255.2949981689453,-75.79000091552734 255.2949981689453,-75.79000091552734 C266.0660095214844,-75.79000091552734 274.7950134277344,-67.05999755859375 274.7950134277344,-56.290000915527344z"></path></g></g><g clip-path="url(#__lottie_element_195)" transform="matrix(1,0,0,1,0,0)" opacity="1" style="display: block;"><g clip-path="url(#__lottie_element_196)"><g transform="matrix(1,0,0,1,1075.0699462890625,170.3730010986328)" opacity="1" style="display: block;"><g opacity="1" transform="matrix(1,0,0,1,14.25,42.71699905395508)"><path fill="rgb(221,70,23)" fill-opacity="1" d=" M-14,-38.46699905395508 C-14,-40.67599868774414 -12.210000038146973,-42.46699905395508 -10,-42.46699905395508 C-10,-42.46699905395508 14,-42.46699905395508 14,-42.46699905395508 C14,-42.46699905395508 14,42.46699905395508 14,42.46699905395508 C14,42.46699905395508 -10,42.46699905395508 -10,42.46699905395508 C-12.210000038146973,42.46699905395508 -14,40.67599868774414 -14,38.46699905395508 C-14,38.46699905395508 -14,-38.46699905395508 -14,-38.46699905395508z"></path><g opacity="1" transform="matrix(1,0,0,1,0,0)"></g></g></g><g transform="matrix(1,0,0,1,1103.3199462890625,9.659988403320312)" opacity="1" style="display: block;"><g opacity="1" transform="matrix(1,0,0,1,146.8699951171875,330.4670104980469)"><path fill="rgb(251,251,252)" fill-opacity="1" d=" M-146.6199951171875,-330.2179870605469 C-146.6199951171875,-330.2179870605469 130.6199951171875,-330.2179870605469 130.6199951171875,-330.2179870605469 C139.4600067138672,-330.2179870605469 146.6199951171875,-323.05499267578125 146.6199951171875,-314.2179870605469 C146.6199951171875,-314.2179870605469 146.6199951171875,314.2179870605469 146.6199951171875,314.2179870605469 C146.6199951171875,323.0539855957031 139.4600067138672,330.2179870605469 130.6199951171875,330.2179870605469 C130.6199951171875,330.2179870605469 -146.6199951171875,330.2179870605469 -146.6199951171875,330.2179870605469 C-146.6199951171875,330.2179870605469 -146.6199951171875,-330.2179870605469 -146.6199951171875,-330.2179870605469z"></path><g opacity="1" transform="matrix(1,0,0,1,0,0)"></g></g></g><g transform="matrix(1,0,0,1,1133.678955078125,517.5039672851562)" opacity="1" style="display: block;"><g opacity="1" transform="matrix(1,0,0,1,116.52100372314453,25.05500030517578)"><path fill="rgb(204,82,44)" fill-opacity="1" d=" M-108.27100372314453,-24.80500030517578 C-108.27100372314453,-24.80500030517578 108.27100372314453,-24.80500030517578 108.27100372314453,-24.80500030517578 C112.69000244140625,-24.80500030517578 116.27100372314453,-21.222999572753906 116.27100372314453,-16.80500030517578 C116.27100372314453,-16.80500030517578 116.27100372314453,16.80500030517578 116.27100372314453,16.80500030517578 C116.27100372314453,21.222999572753906 112.69000244140625,24.80500030517578 108.27100372314453,24.80500030517578 C108.27100372314453,24.80500030517578 -108.27100372314453,24.80500030517578 -108.27100372314453,24.80500030517578 C-112.68900299072266,24.80500030517578 -116.27100372314453,21.222999572753906 -116.27100372314453,16.80500030517578 C-116.27100372314453,16.80500030517578 -116.27100372314453,-16.80500030517578 -116.27100372314453,-16.80500030517578 C-116.27100372314453,-21.222999572753906 -112.68900299072266,-24.80500030517578 -108.27100372314453,-24.80500030517578z"></path><g opacity="1" transform="matrix(1,0,0,1,0,0)"></g></g><g opacity="1" transform="matrix(1,0,0,1,107.5199966430664,19.054000854492188)"><path fill="rgb(255,255,255)" fill-opacity="1" d=" M7,8 C7,8 7,0 7,0 C7,-1.100000023841858 6.099999904632568,-2 5,-2 C5,-2 -3,-2 -3,-2 C-3,-2 -3,-6 -3,-6 C-3,-6 7,-6 7,-6 C7,-6 7,-10 7,-10 C7,-10 2,-10 2,-10 C2,-10 2,-12 2,-12 C2,-12 -2,-12 -2,-12 C-2,-12 -2,-10 -2,-10 C-2,-10 -5,-10 -5,-10 C-6.10099983215332,-10 -7,-9.100000381469727 -7,-8 C-7,-8 -7,0 -7,0 C-7,1.1009999513626099 -6.10099983215332,2 -5,2 C-5,2 3,2 3,2 C3,2 3,6 3,6 C3,6 -7,6 -7,6 C-7,6 -7,10 -7,10 C-7,10 -2,10 -2,10 C-2,10 -2,12 -2,12 C-2,12 2,12 2,12 C2,12 2,10 2,10 C2,10 5,10 5,10 C6.099999904632568,10 7,9.10099983215332 7,8z"></path><g opacity="1" transform="matrix(1,0,0,1,0,0)"></g></g><g opacity="1" transform="matrix(1,0,0,1,121.20999908447266,34.57400131225586)"><path fill="rgb(255,255,255)" fill-opacity="1" d=" M8.489999771118164,-8.479999542236328 C8.489999771118164,-8.479999542236328 -2.8289999961853027,2.821000099182129 -2.8289999961853027,2.821000099182129 C-2.8289999961853027,2.821000099182129 -8.48900032043457,-2.8389999866485596 -8.48900032043457,-2.8389999866485596 C-8.48900032043457,-2.8389999866485596 -11.3100004196167,0 -11.3100004196167,0 C-11.3100004196167,0 -2.8289999961853027,8.479999542236328 -2.8289999961853027,8.479999542236328 C-2.8289999961853027,8.479999542236328 11.3100004196167,-5.659999847412109 11.3100004196167,-5.659999847412109 C11.3100004196167,-5.659999847412109 8.489999771118164,-8.479999542236328 8.489999771118164,-8.479999542236328z"></path><g opacity="1" transform="matrix(1,0,0,1,0,0)"></g></g></g><g transform="matrix(1,0,0,1,1133.678955078125,451.89495849609375)" opacity="1" style="display: block;"><g opacity="1" transform="matrix(1,0,0,1,116.52100372314453,25.05500030517578)"><path fill="rgb(237,237,243)" fill-opacity="1" d=" M-108.27100372314453,-24.80500030517578 C-108.27100372314453,-24.80500030517578 108.27100372314453,-24.80500030517578 108.27100372314453,-24.80500030517578 C112.69000244140625,-24.80500030517578 116.27100372314453,-21.222999572753906 116.27100372314453,-16.80500030517578 C116.27100372314453,-16.80500030517578 116.27100372314453,16.80500030517578 116.27100372314453,16.80500030517578 C116.27100372314453,21.222999572753906 112.69000244140625,24.80500030517578 108.27100372314453,24.80500030517578 C108.27100372314453,24.80500030517578 -108.27100372314453,24.80500030517578 -108.27100372314453,24.80500030517578 C-112.68900299072266,24.80500030517578 -116.27100372314453,21.222999572753906 -116.27100372314453,16.80500030517578 C-116.27100372314453,16.80500030517578 -116.27100372314453,-16.80500030517578 -116.27100372314453,-16.80500030517578 C-116.27100372314453,-21.222999572753906 -112.68900299072266,-24.80500030517578 -108.27100372314453,-24.80500030517578z"></path><g opacity="1" transform="matrix(1,0,0,1,0,0)"></g></g><g opacity="1" transform="matrix(1,0,0,1,135.35000610351562,25.496000289916992)"><path fill="rgb(251,251,252)" fill-opacity="1" d=" M-70.2300033569336,-14 C-70.2300033569336,-14 70.2300033569336,-14 70.2300033569336,-14 C77.96199798583984,-14 84.2300033569336,-7.730999946594238 84.2300033569336,0 C84.2300033569336,7.73199987411499 77.96199798583984,14 70.2300033569336,14 C70.2300033569336,14 -70.2300033569336,14 -70.2300033569336,14 C-77.96099853515625,14 -84.2300033569336,7.73199987411499 -84.2300033569336,0 C-84.2300033569336,-7.730999946594238 -77.96099853515625,-14 -70.2300033569336,-14z"></path><g opacity="1" transform="matrix(1,0,0,1,0,0)"></g></g><g opacity="1" transform="matrix(1,0,0,1,28.170000076293945,25.05500030517578)"><path fill="rgb(139,139,161)" fill-opacity="1" d=" M9.300999641418457,7.751999855041504 C9.300999641418457,7.751999855041504 -9.300999641418457,7.751999855041504 -9.300999641418457,7.751999855041504 C-9.300999641418457,7.751999855041504 -9.300999641418457,4.650000095367432 -9.300999641418457,4.650000095367432 C-9.300999641418457,4.650000095367432 9.300999641418457,4.650000095367432 9.300999641418457,4.650000095367432 C9.300999641418457,4.650000095367432 9.300999641418457,7.751999855041504 9.300999641418457,7.751999855041504z M9.300999641418457,1.5509999990463257 C9.300999641418457,1.5509999990463257 -9.300999641418457,1.5509999990463257 -9.300999641418457,1.5509999990463257 C-9.300999641418457,1.5509999990463257 -9.300999641418457,-1.5509999990463257 -9.300999641418457,-1.5509999990463257 C-9.300999641418457,-1.5509999990463257 9.300999641418457,-1.5509999990463257 9.300999641418457,-1.5509999990463257 C9.300999641418457,-1.5509999990463257 9.300999641418457,1.5509999990463257 9.300999641418457,1.5509999990463257z M9.300999641418457,-4.651000022888184 C9.300999641418457,-4.651000022888184 -9.300999641418457,-4.651000022888184 -9.300999641418457,-4.651000022888184 C-9.300999641418457,-4.651000022888184 -9.300999641418457,-7.751999855041504 -9.300999641418457,-7.751999855041504 C-9.300999641418457,-7.751999855041504 9.300999641418457,-7.751999855041504 9.300999641418457,-7.751999855041504 C9.300999641418457,-7.751999855041504 9.300999641418457,-4.651000022888184 9.300999641418457,-4.651000022888184z M-13.949000358581543,15.503000259399414 C-13.949000358581543,15.503000259399414 -11.630000114440918,13.178000450134277 -11.630000114440918,13.178000450134277 C-11.630000114440918,13.178000450134277 -9.300999641418457,15.503000259399414 -9.300999641418457,15.503000259399414 C-9.300999641418457,15.503000259399414 -6.979000091552734,13.178000450134277 -6.979000091552734,13.178000450134277 C-6.979000091552734,13.178000450134277 -4.650000095367432,15.503000259399414 -4.650000095367432,15.503000259399414 C-4.650000095367432,15.503000259399414 -2.3310000896453857,13.178000450134277 -2.3310000896453857,13.178000450134277 C-2.3310000896453857,13.178000450134277 0,15.503000259399414 0,15.503000259399414 C0,15.503000259399414 2.319999933242798,13.178000450134277 2.319999933242798,13.178000450134277 C2.319999933242798,13.178000450134277 4.651000022888184,15.503000259399414 4.651000022888184,15.503000259399414 C4.651000022888184,15.503000259399414 6.96999979019165,13.178000450134277 6.96999979019165,13.178000450134277 C6.96999979019165,13.178000450134277 9.300999641418457,15.503000259399414 9.300999641418457,15.503000259399414 C9.300999641418457,15.503000259399414 11.630000114440918,13.178000450134277 11.630000114440918,13.178000450134277 C11.630000114440918,13.178000450134277 13.949000358581543,15.503000259399414 13.949000358581543,15.503000259399414 C13.949000358581543,15.503000259399414 13.949000358581543,-15.503000259399414 13.949000358581543,-15.503000259399414 C13.949000358581543,-15.503000259399414 11.630000114440918,-13.178000450134277 11.630000114440918,-13.178000450134277 C11.630000114440918,-13.178000450134277 9.300999641418457,-15.503000259399414 9.300999641418457,-15.503000259399414 C9.300999641418457,-15.503000259399414 6.96999979019165,-13.178000450134277 6.96999979019165,-13.178000450134277 C6.96999979019165,-13.178000450134277 4.651000022888184,-15.503000259399414 4.651000022888184,-15.503000259399414 C4.651000022888184,-15.503000259399414 2.319999933242798,-13.178000450134277 2.319999933242798,-13.178000450134277 C2.319999933242798,-13.178000450134277 0,-15.503000259399414 0,-15.503000259399414 C0,-15.503000259399414 -2.3310000896453857,-13.178000450134277 -2.3310000896453857,-13.178000450134277 C-2.3310000896453857,-13.178000450134277 -4.650000095367432,-15.503000259399414 -4.650000095367432,-15.503000259399414 C-4.650000095367432,-15.503000259399414 -6.979000091552734,-13.178000450134277 -6.979000091552734,-13.178000450134277 C-6.979000091552734,-13.178000450134277 -9.300999641418457,-15.503000259399414 -9.300999641418457,-15.503000259399414 C-9.300999641418457,-15.503000259399414 -11.630000114440918,-13.178000450134277 -11.630000114440918,-13.178000450134277 C-11.630000114440918,-13.178000450134277 -13.949000358581543,-15.503000259399414 -13.949000358581543,-15.503000259399414 C-13.949000358581543,-15.503000259399414 -13.949000358581543,15.503000259399414 -13.949000358581543,15.503000259399414z"></path><g opacity="1" transform="matrix(1,0,0,1,0,0)"></g></g></g><g transform="matrix(1,0,0,1,1133.678955078125,395.8590087890625)" opacity="1" style="display: block;"><g opacity="1" transform="matrix(1,0,0,1,116.52100372314453,25.054000854492188)"><path fill="rgb(237,237,243)" fill-opacity="1" d=" M-108.27100372314453,-24.804000854492188 C-108.27100372314453,-24.804000854492188 108.27100372314453,-24.804000854492188 108.27100372314453,-24.804000854492188 C112.69000244140625,-24.804000854492188 116.27100372314453,-21.222999572753906 116.27100372314453,-16.804000854492188 C116.27100372314453,-16.804000854492188 116.27100372314453,16.804000854492188 116.27100372314453,16.804000854492188 C116.27100372314453,21.222999572753906 112.69000244140625,24.804000854492188 108.27100372314453,24.804000854492188 C108.27100372314453,24.804000854492188 -108.27100372314453,24.804000854492188 -108.27100372314453,24.804000854492188 C-112.68900299072266,24.804000854492188 -116.27100372314453,21.222999572753906 -116.27100372314453,16.804000854492188 C-116.27100372314453,16.804000854492188 -116.27100372314453,-16.804000854492188 -116.27100372314453,-16.804000854492188 C-116.27100372314453,-21.222999572753906 -112.68900299072266,-24.804000854492188 -108.27100372314453,-24.804000854492188z"></path><g opacity="1" transform="matrix(1,0,0,1,0,0)"></g></g><g opacity="1" transform="matrix(1,0,0,1,135.35000610351562,25.5310001373291)"><path fill="rgb(251,251,252)" fill-opacity="1" d=" M-70.2300033569336,-14 C-70.2300033569336,-14 70.2300033569336,-14 70.2300033569336,-14 C77.96199798583984,-14 84.2300033569336,-7.730999946594238 84.2300033569336,0 C84.2300033569336,7.73199987411499 77.96199798583984,14 70.2300033569336,14 C70.2300033569336,14 -70.2300033569336,14 -70.2300033569336,14 C-77.96099853515625,14 -84.2300033569336,7.73199987411499 -84.2300033569336,0 C-84.2300033569336,-7.730999946594238 -77.96099853515625,-14 -70.2300033569336,-14z"></path><g opacity="1" transform="matrix(1,0,0,1,0,0)"></g></g><g opacity="1" transform="matrix(1,0,0,1,28.170000076293945,25.054000854492188)"><path fill="rgb(139,139,161)" fill-opacity="1" d=" M9.300999641418457,7.750999927520752 C9.300999641418457,7.750999927520752 -9.300999641418457,7.750999927520752 -9.300999641418457,7.750999927520752 C-9.300999641418457,7.750999927520752 -9.300999641418457,4.651000022888184 -9.300999641418457,4.651000022888184 C-9.300999641418457,4.651000022888184 9.300999641418457,4.651000022888184 9.300999641418457,4.651000022888184 C9.300999641418457,4.651000022888184 9.300999641418457,7.750999927520752 9.300999641418457,7.750999927520752z M9.300999641418457,1.5499999523162842 C9.300999641418457,1.5499999523162842 -9.300999641418457,1.5499999523162842 -9.300999641418457,1.5499999523162842 C-9.300999641418457,1.5499999523162842 -9.300999641418457,-1.5499999523162842 -9.300999641418457,-1.5499999523162842 C-9.300999641418457,-1.5499999523162842 9.300999641418457,-1.5499999523162842 9.300999641418457,-1.5499999523162842 C9.300999641418457,-1.5499999523162842 9.300999641418457,1.5499999523162842 9.300999641418457,1.5499999523162842z M9.300999641418457,-4.651000022888184 C9.300999641418457,-4.651000022888184 -9.300999641418457,-4.651000022888184 -9.300999641418457,-4.651000022888184 C-9.300999641418457,-4.651000022888184 -9.300999641418457,-7.750999927520752 -9.300999641418457,-7.750999927520752 C-9.300999641418457,-7.750999927520752 9.300999641418457,-7.750999927520752 9.300999641418457,-7.750999927520752 C9.300999641418457,-7.750999927520752 9.300999641418457,-4.651000022888184 9.300999641418457,-4.651000022888184z M-13.949000358581543,15.503000259399414 C-13.949000358581543,15.503000259399414 -11.630000114440918,13.177000045776367 -11.630000114440918,13.177000045776367 C-11.630000114440918,13.177000045776367 -9.300999641418457,15.503000259399414 -9.300999641418457,15.503000259399414 C-9.300999641418457,15.503000259399414 -6.979000091552734,13.177000045776367 -6.979000091552734,13.177000045776367 C-6.979000091552734,13.177000045776367 -4.650000095367432,15.503000259399414 -4.650000095367432,15.503000259399414 C-4.650000095367432,15.503000259399414 -2.3310000896453857,13.177000045776367 -2.3310000896453857,13.177000045776367 C-2.3310000896453857,13.177000045776367 0,15.503000259399414 0,15.503000259399414 C0,15.503000259399414 2.319999933242798,13.177000045776367 2.319999933242798,13.177000045776367 C2.319999933242798,13.177000045776367 4.651000022888184,15.503000259399414 4.651000022888184,15.503000259399414 C4.651000022888184,15.503000259399414 6.96999979019165,13.177000045776367 6.96999979019165,13.177000045776367 C6.96999979019165,13.177000045776367 9.300999641418457,15.503000259399414 9.300999641418457,15.503000259399414 C9.300999641418457,15.503000259399414 11.630000114440918,13.177000045776367 11.630000114440918,13.177000045776367 C11.630000114440918,13.177000045776367 13.949000358581543,15.503000259399414 13.949000358581543,15.503000259399414 C13.949000358581543,15.503000259399414 13.949000358581543,-15.503000259399414 13.949000358581543,-15.503000259399414 C13.949000358581543,-15.503000259399414 11.630000114440918,-13.177000045776367 11.630000114440918,-13.177000045776367 C11.630000114440918,-13.177000045776367 9.300999641418457,-15.503000259399414 9.300999641418457,-15.503000259399414 C9.300999641418457,-15.503000259399414 6.96999979019165,-13.177000045776367 6.96999979019165,-13.177000045776367 C6.96999979019165,-13.177000045776367 4.651000022888184,-15.503000259399414 4.651000022888184,-15.503000259399414 C4.651000022888184,-15.503000259399414 2.319999933242798,-13.177000045776367 2.319999933242798,-13.177000045776367 C2.319999933242798,-13.177000045776367 0,-15.503000259399414 0,-15.503000259399414 C0,-15.503000259399414 -2.3310000896453857,-13.177000045776367 -2.3310000896453857,-13.177000045776367 C-2.3310000896453857,-13.177000045776367 -4.650000095367432,-15.503000259399414 -4.650000095367432,-15.503000259399414 C-4.650000095367432,-15.503000259399414 -6.979000091552734,-13.177000045776367 -6.979000091552734,-13.177000045776367 C-6.979000091552734,-13.177000045776367 -9.300999641418457,-15.503000259399414 -9.300999641418457,-15.503000259399414 C-9.300999641418457,-15.503000259399414 -11.630000114440918,-13.177000045776367 -11.630000114440918,-13.177000045776367 C-11.630000114440918,-13.177000045776367 -13.949000358581543,-15.503000259399414 -13.949000358581543,-15.503000259399414 C-13.949000358581543,-15.503000259399414 -13.949000358581543,15.503000259399414 -13.949000358581543,15.503000259399414z"></path><g opacity="1" transform="matrix(1,0,0,1,0,0)"></g></g></g><g transform="matrix(1,0,0,1,1133.678955078125,339.822998046875)" opacity="1" style="display: block;"><g opacity="1" transform="matrix(1,0,0,1,116.52100372314453,25.054000854492188)"><path fill="rgb(237,237,243)" fill-opacity="1" d=" M-108.27100372314453,-24.804000854492188 C-108.27100372314453,-24.804000854492188 108.27100372314453,-24.804000854492188 108.27100372314453,-24.804000854492188 C112.69000244140625,-24.804000854492188 116.27100372314453,-21.222999572753906 116.27100372314453,-16.804000854492188 C116.27100372314453,-16.804000854492188 116.27100372314453,16.804000854492188 116.27100372314453,16.804000854492188 C116.27100372314453,21.222999572753906 112.69000244140625,24.804000854492188 108.27100372314453,24.804000854492188 C108.27100372314453,24.804000854492188 -108.27100372314453,24.804000854492188 -108.27100372314453,24.804000854492188 C-112.68900299072266,24.804000854492188 -116.27100372314453,21.222999572753906 -116.27100372314453,16.804000854492188 C-116.27100372314453,16.804000854492188 -116.27100372314453,-16.804000854492188 -116.27100372314453,-16.804000854492188 C-116.27100372314453,-21.222999572753906 -112.68900299072266,-24.804000854492188 -108.27100372314453,-24.804000854492188z"></path><g opacity="1" transform="matrix(1,0,0,1,0,0)"></g></g><g opacity="1" transform="matrix(1,0,0,1,135.35000610351562,24.566999435424805)"><path fill="rgb(251,251,252)" fill-opacity="1" d=" M-70.2300033569336,-14 C-70.2300033569336,-14 70.2300033569336,-14 70.2300033569336,-14 C77.96199798583984,-14 84.2300033569336,-7.730999946594238 84.2300033569336,0 C84.2300033569336,7.73199987411499 77.96199798583984,14 70.2300033569336,14 C70.2300033569336,14 -70.2300033569336,14 -70.2300033569336,14 C-77.96099853515625,14 -84.2300033569336,7.73199987411499 -84.2300033569336,0 C-84.2300033569336,-7.730999946594238 -77.96099853515625,-14 -70.2300033569336,-14z"></path><g opacity="1" transform="matrix(1,0,0,1,0,0)"></g></g><g opacity="1" transform="matrix(1,0,0,1,28.170000076293945,25.05299949645996)"><path fill="rgb(139,139,161)" fill-opacity="1" d=" M9.300999641418457,7.751999855041504 C9.300999641418457,7.751999855041504 -9.300999641418457,7.751999855041504 -9.300999641418457,7.751999855041504 C-9.300999641418457,7.751999855041504 -9.300999641418457,4.650000095367432 -9.300999641418457,4.650000095367432 C-9.300999641418457,4.650000095367432 9.300999641418457,4.650000095367432 9.300999641418457,4.650000095367432 C9.300999641418457,4.650000095367432 9.300999641418457,7.751999855041504 9.300999641418457,7.751999855041504z M9.300999641418457,1.5499999523162842 C9.300999641418457,1.5499999523162842 -9.300999641418457,1.5499999523162842 -9.300999641418457,1.5499999523162842 C-9.300999641418457,1.5499999523162842 -9.300999641418457,-1.5499999523162842 -9.300999641418457,-1.5499999523162842 C-9.300999641418457,-1.5499999523162842 9.300999641418457,-1.5499999523162842 9.300999641418457,-1.5499999523162842 C9.300999641418457,-1.5499999523162842 9.300999641418457,1.5499999523162842 9.300999641418457,1.5499999523162842z M9.300999641418457,-4.650000095367432 C9.300999641418457,-4.650000095367432 -9.300999641418457,-4.650000095367432 -9.300999641418457,-4.650000095367432 C-9.300999641418457,-4.650000095367432 -9.300999641418457,-7.751999855041504 -9.300999641418457,-7.751999855041504 C-9.300999641418457,-7.751999855041504 9.300999641418457,-7.751999855041504 9.300999641418457,-7.751999855041504 C9.300999641418457,-7.751999855041504 9.300999641418457,-4.650000095367432 9.300999641418457,-4.650000095367432z M-13.949000358581543,15.501999855041504 C-13.949000358581543,15.501999855041504 -11.630000114440918,13.178000450134277 -11.630000114440918,13.178000450134277 C-11.630000114440918,13.178000450134277 -9.300999641418457,15.501999855041504 -9.300999641418457,15.501999855041504 C-9.300999641418457,15.501999855041504 -6.979000091552734,13.178000450134277 -6.979000091552734,13.178000450134277 C-6.979000091552734,13.178000450134277 -4.650000095367432,15.501999855041504 -4.650000095367432,15.501999855041504 C-4.650000095367432,15.501999855041504 -2.3310000896453857,13.178000450134277 -2.3310000896453857,13.178000450134277 C-2.3310000896453857,13.178000450134277 0,15.501999855041504 0,15.501999855041504 C0,15.501999855041504 2.319999933242798,13.178000450134277 2.319999933242798,13.178000450134277 C2.319999933242798,13.178000450134277 4.651000022888184,15.501999855041504 4.651000022888184,15.501999855041504 C4.651000022888184,15.501999855041504 6.96999979019165,13.178000450134277 6.96999979019165,13.178000450134277 C6.96999979019165,13.178000450134277 9.300999641418457,15.501999855041504 9.300999641418457,15.501999855041504 C9.300999641418457,15.501999855041504 11.630000114440918,13.178000450134277 11.630000114440918,13.178000450134277 C11.630000114440918,13.178000450134277 13.949000358581543,15.501999855041504 13.949000358581543,15.501999855041504 C13.949000358581543,15.501999855041504 13.949000358581543,-15.501999855041504 13.949000358581543,-15.501999855041504 C13.949000358581543,-15.501999855041504 11.630000114440918,-13.178000450134277 11.630000114440918,-13.178000450134277 C11.630000114440918,-13.178000450134277 9.300999641418457,-15.501999855041504 9.300999641418457,-15.501999855041504 C9.300999641418457,-15.501999855041504 6.96999979019165,-13.178000450134277 6.96999979019165,-13.178000450134277 C6.96999979019165,-13.178000450134277 4.651000022888184,-15.501999855041504 4.651000022888184,-15.501999855041504 C4.651000022888184,-15.501999855041504 2.319999933242798,-13.178000450134277 2.319999933242798,-13.178000450134277 C2.319999933242798,-13.178000450134277 0,-15.501999855041504 0,-15.501999855041504 C0,-15.501999855041504 -2.3310000896453857,-13.178000450134277 -2.3310000896453857,-13.178000450134277 C-2.3310000896453857,-13.178000450134277 -4.650000095367432,-15.501999855041504 -4.650000095367432,-15.501999855041504 C-4.650000095367432,-15.501999855041504 -6.979000091552734,-13.178000450134277 -6.979000091552734,-13.178000450134277 C-6.979000091552734,-13.178000450134277 -9.300999641418457,-15.501999855041504 -9.300999641418457,-15.501999855041504 C-9.300999641418457,-15.501999855041504 -11.630000114440918,-13.178000450134277 -11.630000114440918,-13.178000450134277 C-11.630000114440918,-13.178000450134277 -13.949000358581543,-15.501999855041504 -13.949000358581543,-15.501999855041504 C-13.949000358581543,-15.501999855041504 -13.949000358581543,15.501999855041504 -13.949000358581543,15.501999855041504z"></path><g opacity="1" transform="matrix(1,0,0,1,0,0)"></g></g></g><g transform="matrix(1,0,0,1,1133.678955078125,283.7860107421875)" opacity="1" style="display: block;"><g opacity="1" transform="matrix(1,0,0,1,116.52100372314453,25.054000854492188)"><path fill="rgb(237,237,243)" fill-opacity="1" d=" M-108.27100372314453,-24.80500030517578 C-108.27100372314453,-24.80500030517578 108.27100372314453,-24.80500030517578 108.27100372314453,-24.80500030517578 C112.69000244140625,-24.80500030517578 116.27100372314453,-21.222999572753906 116.27100372314453,-16.80500030517578 C116.27100372314453,-16.80500030517578 116.27100372314453,16.80500030517578 116.27100372314453,16.80500030517578 C116.27100372314453,21.222999572753906 112.69000244140625,24.80500030517578 108.27100372314453,24.80500030517578 C108.27100372314453,24.80500030517578 -108.27100372314453,24.80500030517578 -108.27100372314453,24.80500030517578 C-112.68900299072266,24.80500030517578 -116.27100372314453,21.222999572753906 -116.27100372314453,16.80500030517578 C-116.27100372314453,16.80500030517578 -116.27100372314453,-16.80500030517578 -116.27100372314453,-16.80500030517578 C-116.27100372314453,-21.222999572753906 -112.68900299072266,-24.80500030517578 -108.27100372314453,-24.80500030517578z"></path><g opacity="1" transform="matrix(1,0,0,1,0,0)"></g></g><g opacity="1" transform="matrix(1,0,0,1,135.35000610351562,24.606000900268555)"><path fill="rgb(251,251,252)" fill-opacity="1" d=" M-70.2300033569336,-14 C-70.2300033569336,-14 70.2300033569336,-14 70.2300033569336,-14 C77.96199798583984,-14 84.2300033569336,-7.73199987411499 84.2300033569336,0 C84.2300033569336,7.73199987411499 77.96199798583984,14 70.2300033569336,14 C70.2300033569336,14 -70.2300033569336,14 -70.2300033569336,14 C-77.96099853515625,14 -84.2300033569336,7.73199987411499 -84.2300033569336,0 C-84.2300033569336,-7.73199987411499 -77.96099853515625,-14 -70.2300033569336,-14z"></path><g opacity="1" transform="matrix(1,0,0,1,0,0)"></g></g><g opacity="1" transform="matrix(1,0,0,1,28.170000076293945,25.05500030517578)"><path fill="rgb(139,139,161)" fill-opacity="1" d=" M9.300999641418457,7.751999855041504 C9.300999641418457,7.751999855041504 -9.300999641418457,7.751999855041504 -9.300999641418457,7.751999855041504 C-9.300999641418457,7.751999855041504 -9.300999641418457,4.651000022888184 -9.300999641418457,4.651000022888184 C-9.300999641418457,4.651000022888184 9.300999641418457,4.651000022888184 9.300999641418457,4.651000022888184 C9.300999641418457,4.651000022888184 9.300999641418457,7.751999855041504 9.300999641418457,7.751999855041504z M9.300999641418457,1.5499999523162842 C9.300999641418457,1.5499999523162842 -9.300999641418457,1.5499999523162842 -9.300999641418457,1.5499999523162842 C-9.300999641418457,1.5499999523162842 -9.300999641418457,-1.5499999523162842 -9.300999641418457,-1.5499999523162842 C-9.300999641418457,-1.5499999523162842 9.300999641418457,-1.5499999523162842 9.300999641418457,-1.5499999523162842 C9.300999641418457,-1.5499999523162842 9.300999641418457,1.5499999523162842 9.300999641418457,1.5499999523162842z M9.300999641418457,-4.651000022888184 C9.300999641418457,-4.651000022888184 -9.300999641418457,-4.651000022888184 -9.300999641418457,-4.651000022888184 C-9.300999641418457,-4.651000022888184 -9.300999641418457,-7.750999927520752 -9.300999641418457,-7.750999927520752 C-9.300999641418457,-7.750999927520752 9.300999641418457,-7.750999927520752 9.300999641418457,-7.750999927520752 C9.300999641418457,-7.750999927520752 9.300999641418457,-4.651000022888184 9.300999641418457,-4.651000022888184z M-13.949000358581543,15.503000259399414 C-13.949000358581543,15.503000259399414 -11.630000114440918,13.178000450134277 -11.630000114440918,13.178000450134277 C-11.630000114440918,13.178000450134277 -9.300999641418457,15.503000259399414 -9.300999641418457,15.503000259399414 C-9.300999641418457,15.503000259399414 -6.979000091552734,13.178000450134277 -6.979000091552734,13.178000450134277 C-6.979000091552734,13.178000450134277 -4.650000095367432,15.503000259399414 -4.650000095367432,15.503000259399414 C-4.650000095367432,15.503000259399414 -2.3310000896453857,13.178000450134277 -2.3310000896453857,13.178000450134277 C-2.3310000896453857,13.178000450134277 0,15.503000259399414 0,15.503000259399414 C0,15.503000259399414 2.319999933242798,13.178000450134277 2.319999933242798,13.178000450134277 C2.319999933242798,13.178000450134277 4.651000022888184,15.503000259399414 4.651000022888184,15.503000259399414 C4.651000022888184,15.503000259399414 6.96999979019165,13.178000450134277 6.96999979019165,13.178000450134277 C6.96999979019165,13.178000450134277 9.300999641418457,15.503000259399414 9.300999641418457,15.503000259399414 C9.300999641418457,15.503000259399414 11.630000114440918,13.178000450134277 11.630000114440918,13.178000450134277 C11.630000114440918,13.178000450134277 13.949000358581543,15.503000259399414 13.949000358581543,15.503000259399414 C13.949000358581543,15.503000259399414 13.949000358581543,-15.503000259399414 13.949000358581543,-15.503000259399414 C13.949000358581543,-15.503000259399414 11.630000114440918,-13.177000045776367 11.630000114440918,-13.177000045776367 C11.630000114440918,-13.177000045776367 9.300999641418457,-15.503000259399414 9.300999641418457,-15.503000259399414 C9.300999641418457,-15.503000259399414 6.96999979019165,-13.177000045776367 6.96999979019165,-13.177000045776367 C6.96999979019165,-13.177000045776367 4.651000022888184,-15.503000259399414 4.651000022888184,-15.503000259399414 C4.651000022888184,-15.503000259399414 2.319999933242798,-13.177000045776367 2.319999933242798,-13.177000045776367 C2.319999933242798,-13.177000045776367 0,-15.503000259399414 0,-15.503000259399414 C0,-15.503000259399414 -2.3310000896453857,-13.177000045776367 -2.3310000896453857,-13.177000045776367 C-2.3310000896453857,-13.177000045776367 -4.650000095367432,-15.503000259399414 -4.650000095367432,-15.503000259399414 C-4.650000095367432,-15.503000259399414 -6.979000091552734,-13.177000045776367 -6.979000091552734,-13.177000045776367 C-6.979000091552734,-13.177000045776367 -9.300999641418457,-15.503000259399414 -9.300999641418457,-15.503000259399414 C-9.300999641418457,-15.503000259399414 -11.630000114440918,-13.177000045776367 -11.630000114440918,-13.177000045776367 C-11.630000114440918,-13.177000045776367 -13.949000358581543,-15.503000259399414 -13.949000358581543,-15.503000259399414 C-13.949000358581543,-15.503000259399414 -13.949000358581543,15.503000259399414 -13.949000358581543,15.503000259399414z"></path><g opacity="1" transform="matrix(1,0,0,1,0,0)"></g></g></g><g transform="matrix(1,0,0,1,1133.678955078125,227.7480010986328)" opacity="1" style="display: block;"><g opacity="1" transform="matrix(1,0,0,1,116.52100372314453,25.05500030517578)"><path fill="rgb(237,237,243)" fill-opacity="1" d=" M-108.27100372314453,-24.80500030517578 C-108.27100372314453,-24.80500030517578 108.27100372314453,-24.80500030517578 108.27100372314453,-24.80500030517578 C112.69000244140625,-24.80500030517578 116.27100372314453,-21.222999572753906 116.27100372314453,-16.80500030517578 C116.27100372314453,-16.80500030517578 116.27100372314453,16.80500030517578 116.27100372314453,16.80500030517578 C116.27100372314453,21.222999572753906 112.69000244140625,24.80500030517578 108.27100372314453,24.80500030517578 C108.27100372314453,24.80500030517578 -108.27100372314453,24.80500030517578 -108.27100372314453,24.80500030517578 C-112.68900299072266,24.80500030517578 -116.27100372314453,21.222999572753906 -116.27100372314453,16.80500030517578 C-116.27100372314453,16.80500030517578 -116.27100372314453,-16.80500030517578 -116.27100372314453,-16.80500030517578 C-116.27100372314453,-21.222999572753906 -112.68900299072266,-24.80500030517578 -108.27100372314453,-24.80500030517578z"></path><g opacity="1" transform="matrix(1,0,0,1,0,0)"></g></g><g opacity="1" transform="matrix(1,0,0,1,135.35000610351562,24.642000198364258)"><path fill="rgb(251,251,252)" fill-opacity="1" d=" M-70.2300033569336,-14 C-70.2300033569336,-14 70.2300033569336,-14 70.2300033569336,-14 C77.96199798583984,-14 84.2300033569336,-7.73199987411499 84.2300033569336,0 C84.2300033569336,7.73199987411499 77.96199798583984,14 70.2300033569336,14 C70.2300033569336,14 -70.2300033569336,14 -70.2300033569336,14 C-77.96099853515625,14 -84.2300033569336,7.73199987411499 -84.2300033569336,0 C-84.2300033569336,-7.73199987411499 -77.96099853515625,-14 -70.2300033569336,-14z"></path><g opacity="1" transform="matrix(1,0,0,1,0,0)"></g></g><g opacity="1" transform="matrix(1,0,0,1,28.170000076293945,25.05500030517578)"><path fill="rgb(139,139,161)" fill-opacity="1" d=" M9.300999641418457,7.751999855041504 C9.300999641418457,7.751999855041504 -9.300999641418457,7.751999855041504 -9.300999641418457,7.751999855041504 C-9.300999641418457,7.751999855041504 -9.300999641418457,4.650000095367432 -9.300999641418457,4.650000095367432 C-9.300999641418457,4.650000095367432 9.300999641418457,4.650000095367432 9.300999641418457,4.650000095367432 C9.300999641418457,4.650000095367432 9.300999641418457,7.751999855041504 9.300999641418457,7.751999855041504z M9.300999641418457,1.5499999523162842 C9.300999641418457,1.5499999523162842 -9.300999641418457,1.5499999523162842 -9.300999641418457,1.5499999523162842 C-9.300999641418457,1.5499999523162842 -9.300999641418457,-1.5499999523162842 -9.300999641418457,-1.5499999523162842 C-9.300999641418457,-1.5499999523162842 9.300999641418457,-1.5499999523162842 9.300999641418457,-1.5499999523162842 C9.300999641418457,-1.5499999523162842 9.300999641418457,1.5499999523162842 9.300999641418457,1.5499999523162842z M9.300999641418457,-4.650000095367432 C9.300999641418457,-4.650000095367432 -9.300999641418457,-4.650000095367432 -9.300999641418457,-4.650000095367432 C-9.300999641418457,-4.650000095367432 -9.300999641418457,-7.751999855041504 -9.300999641418457,-7.751999855041504 C-9.300999641418457,-7.751999855041504 9.300999641418457,-7.751999855041504 9.300999641418457,-7.751999855041504 C9.300999641418457,-7.751999855041504 9.300999641418457,-4.650000095367432 9.300999641418457,-4.650000095367432z M-13.949000358581543,15.501999855041504 C-13.949000358581543,15.501999855041504 -11.630000114440918,13.178000450134277 -11.630000114440918,13.178000450134277 C-11.630000114440918,13.178000450134277 -9.300999641418457,15.501999855041504 -9.300999641418457,15.501999855041504 C-9.300999641418457,15.501999855041504 -6.979000091552734,13.178000450134277 -6.979000091552734,13.178000450134277 C-6.979000091552734,13.178000450134277 -4.650000095367432,15.501999855041504 -4.650000095367432,15.501999855041504 C-4.650000095367432,15.501999855041504 -2.3310000896453857,13.178000450134277 -2.3310000896453857,13.178000450134277 C-2.3310000896453857,13.178000450134277 0,15.501999855041504 0,15.501999855041504 C0,15.501999855041504 2.319999933242798,13.178000450134277 2.319999933242798,13.178000450134277 C2.319999933242798,13.178000450134277 4.651000022888184,15.501999855041504 4.651000022888184,15.501999855041504 C4.651000022888184,15.501999855041504 6.96999979019165,13.178000450134277 6.96999979019165,13.178000450134277 C6.96999979019165,13.178000450134277 9.300999641418457,15.501999855041504 9.300999641418457,15.501999855041504 C9.300999641418457,15.501999855041504 11.630000114440918,13.178000450134277 11.630000114440918,13.178000450134277 C11.630000114440918,13.178000450134277 13.949000358581543,15.501999855041504 13.949000358581543,15.501999855041504 C13.949000358581543,15.501999855041504 13.949000358581543,-15.501999855041504 13.949000358581543,-15.501999855041504 C13.949000358581543,-15.501999855041504 11.630000114440918,-13.178000450134277 11.630000114440918,-13.178000450134277 C11.630000114440918,-13.178000450134277 9.300999641418457,-15.501999855041504 9.300999641418457,-15.501999855041504 C9.300999641418457,-15.501999855041504 6.96999979019165,-13.178000450134277 6.96999979019165,-13.178000450134277 C6.96999979019165,-13.178000450134277 4.651000022888184,-15.501999855041504 4.651000022888184,-15.501999855041504 C4.651000022888184,-15.501999855041504 2.319999933242798,-13.178000450134277 2.319999933242798,-13.178000450134277 C2.319999933242798,-13.178000450134277 0,-15.501999855041504 0,-15.501999855041504 C0,-15.501999855041504 -2.3310000896453857,-13.178000450134277 -2.3310000896453857,-13.178000450134277 C-2.3310000896453857,-13.178000450134277 -4.650000095367432,-15.501999855041504 -4.650000095367432,-15.501999855041504 C-4.650000095367432,-15.501999855041504 -6.979000091552734,-13.178000450134277 -6.979000091552734,-13.178000450134277 C-6.979000091552734,-13.178000450134277 -9.300999641418457,-15.501999855041504 -9.300999641418457,-15.501999855041504 C-9.300999641418457,-15.501999855041504 -11.630000114440918,-13.178000450134277 -11.630000114440918,-13.178000450134277 C-11.630000114440918,-13.178000450134277 -13.949000358581543,-15.501999855041504 -13.949000358581543,-15.501999855041504 C-13.949000358581543,-15.501999855041504 -13.949000358581543,15.501999855041504 -13.949000358581543,15.501999855041504z"></path><g opacity="1" transform="matrix(1,0,0,1,0,0)"></g></g></g><g transform="matrix(1,0,0,1,1133.678955078125,114.33599853515625)" opacity="1" style="display: block;"><g opacity="1" transform="matrix(1,0,0,1,116.52100372314453,25.054000854492188)"><path fill="rgb(237,237,243)" fill-opacity="1" d=" M-108.27100372314453,-24.80500030517578 C-108.27100372314453,-24.80500030517578 108.27100372314453,-24.80500030517578 108.27100372314453,-24.80500030517578 C112.69000244140625,-24.80500030517578 116.27100372314453,-21.222999572753906 116.27100372314453,-16.80500030517578 C116.27100372314453,-16.80500030517578 116.27100372314453,16.80500030517578 116.27100372314453,16.80500030517578 C116.27100372314453,21.222999572753906 112.69000244140625,24.80500030517578 108.27100372314453,24.80500030517578 C108.27100372314453,24.80500030517578 -108.27100372314453,24.80500030517578 -108.27100372314453,24.80500030517578 C-112.68900299072266,24.80500030517578 -116.27100372314453,21.222999572753906 -116.27100372314453,16.80500030517578 C-116.27100372314453,16.80500030517578 -116.27100372314453,-16.80500030517578 -116.27100372314453,-16.80500030517578 C-116.27100372314453,-21.222999572753906 -112.68900299072266,-24.80500030517578 -108.27100372314453,-24.80500030517578z"></path><g opacity="1" transform="matrix(1,0,0,1,0,0)"></g></g><g opacity="1" transform="matrix(1,0,0,1,135.35000610351562,25.05500030517578)"><path fill="rgb(251,251,252)" fill-opacity="1" d=" M-70.2300033569336,-14 C-70.2300033569336,-14 70.2300033569336,-14 70.2300033569336,-14 C77.96199798583984,-14 84.2300033569336,-7.73199987411499 84.2300033569336,0 C84.2300033569336,7.73199987411499 77.96199798583984,14 70.2300033569336,14 C70.2300033569336,14 -70.2300033569336,14 -70.2300033569336,14 C-77.96099853515625,14 -84.2300033569336,7.73199987411499 -84.2300033569336,0 C-84.2300033569336,-7.73199987411499 -77.96099853515625,-14 -70.2300033569336,-14z"></path><g opacity="1" transform="matrix(1,0,0,1,0,0)"></g></g><g opacity="1" transform="matrix(1,0,0,1,28.170000076293945,25.05500030517578)"><path fill="rgb(139,139,161)" fill-opacity="1" d=" M9.300999641418457,7.750999927520752 C9.300999641418457,7.750999927520752 -9.300999641418457,7.750999927520752 -9.300999641418457,7.750999927520752 C-9.300999641418457,7.750999927520752 -9.300999641418457,4.651000022888184 -9.300999641418457,4.651000022888184 C-9.300999641418457,4.651000022888184 9.300999641418457,4.651000022888184 9.300999641418457,4.651000022888184 C9.300999641418457,4.651000022888184 9.300999641418457,7.750999927520752 9.300999641418457,7.750999927520752z M9.300999641418457,1.5499999523162842 C9.300999641418457,1.5499999523162842 -9.300999641418457,1.5499999523162842 -9.300999641418457,1.5499999523162842 C-9.300999641418457,1.5499999523162842 -9.300999641418457,-1.5499999523162842 -9.300999641418457,-1.5499999523162842 C-9.300999641418457,-1.5499999523162842 9.300999641418457,-1.5499999523162842 9.300999641418457,-1.5499999523162842 C9.300999641418457,-1.5499999523162842 9.300999641418457,1.5499999523162842 9.300999641418457,1.5499999523162842z M9.300999641418457,-4.651000022888184 C9.300999641418457,-4.651000022888184 -9.300999641418457,-4.651000022888184 -9.300999641418457,-4.651000022888184 C-9.300999641418457,-4.651000022888184 -9.300999641418457,-7.750999927520752 -9.300999641418457,-7.750999927520752 C-9.300999641418457,-7.750999927520752 9.300999641418457,-7.750999927520752 9.300999641418457,-7.750999927520752 C9.300999641418457,-7.750999927520752 9.300999641418457,-4.651000022888184 9.300999641418457,-4.651000022888184z M-13.949000358581543,15.503000259399414 C-13.949000358581543,15.503000259399414 -11.630000114440918,13.177000045776367 -11.630000114440918,13.177000045776367 C-11.630000114440918,13.177000045776367 -9.300999641418457,15.503000259399414 -9.300999641418457,15.503000259399414 C-9.300999641418457,15.503000259399414 -6.979000091552734,13.177000045776367 -6.979000091552734,13.177000045776367 C-6.979000091552734,13.177000045776367 -4.650000095367432,15.503000259399414 -4.650000095367432,15.503000259399414 C-4.650000095367432,15.503000259399414 -2.3310000896453857,13.177000045776367 -2.3310000896453857,13.177000045776367 C-2.3310000896453857,13.177000045776367 0,15.503000259399414 0,15.503000259399414 C0,15.503000259399414 2.319999933242798,13.177000045776367 2.319999933242798,13.177000045776367 C2.319999933242798,13.177000045776367 4.651000022888184,15.503000259399414 4.651000022888184,15.503000259399414 C4.651000022888184,15.503000259399414 6.96999979019165,13.177000045776367 6.96999979019165,13.177000045776367 C6.96999979019165,13.177000045776367 9.300999641418457,15.503000259399414 9.300999641418457,15.503000259399414 C9.300999641418457,15.503000259399414 11.630000114440918,13.177000045776367 11.630000114440918,13.177000045776367 C11.630000114440918,13.177000045776367 13.949000358581543,15.503000259399414 13.949000358581543,15.503000259399414 C13.949000358581543,15.503000259399414 13.949000358581543,-15.503000259399414 13.949000358581543,-15.503000259399414 C13.949000358581543,-15.503000259399414 11.630000114440918,-13.177000045776367 11.630000114440918,-13.177000045776367 C11.630000114440918,-13.177000045776367 9.300999641418457,-15.503000259399414 9.300999641418457,-15.503000259399414 C9.300999641418457,-15.503000259399414 6.96999979019165,-13.177000045776367 6.96999979019165,-13.177000045776367 C6.96999979019165,-13.177000045776367 4.651000022888184,-15.503000259399414 4.651000022888184,-15.503000259399414 C4.651000022888184,-15.503000259399414 2.319999933242798,-13.177000045776367 2.319999933242798,-13.177000045776367 C2.319999933242798,-13.177000045776367 0,-15.503000259399414 0,-15.503000259399414 C0,-15.503000259399414 -2.3310000896453857,-13.177000045776367 -2.3310000896453857,-13.177000045776367 C-2.3310000896453857,-13.177000045776367 -4.650000095367432,-15.503000259399414 -4.650000095367432,-15.503000259399414 C-4.650000095367432,-15.503000259399414 -6.979000091552734,-13.177000045776367 -6.979000091552734,-13.177000045776367 C-6.979000091552734,-13.177000045776367 -9.300999641418457,-15.503000259399414 -9.300999641418457,-15.503000259399414 C-9.300999641418457,-15.503000259399414 -11.630000114440918,-13.177000045776367 -11.630000114440918,-13.177000045776367 C-11.630000114440918,-13.177000045776367 -13.949000358581543,-15.503000259399414 -13.949000358581543,-15.503000259399414 C-13.949000358581543,-15.503000259399414 -13.949000358581543,15.503000259399414 -13.949000358581543,15.503000259399414z"></path><g opacity="1" transform="matrix(1,0,0,1,0,0)"></g></g></g><g transform="matrix(1.1398226022720337,0,0,1.1398226022720337,1117.38671875,167.3328857421875)" opacity="0.0018145724754440097" style="display: none;"><g opacity="1" transform="matrix(1,0,0,1,116.52100372314453,25.054000854492188)"><path fill="rgb(237,237,243)" fill-opacity="1" d=" M-108.27100372314453,-24.80500030517578 C-108.27100372314453,-24.80500030517578 108.27100372314453,-24.80500030517578 108.27100372314453,-24.80500030517578 C112.69000244140625,-24.80500030517578 116.27100372314453,-21.222999572753906 116.27100372314453,-16.80500030517578 C116.27100372314453,-16.80500030517578 116.27100372314453,16.80500030517578 116.27100372314453,16.80500030517578 C116.27100372314453,21.222999572753906 112.69000244140625,24.80500030517578 108.27100372314453,24.80500030517578 C108.27100372314453,24.80500030517578 -108.27100372314453,24.80500030517578 -108.27100372314453,24.80500030517578 C-112.68900299072266,24.80500030517578 -116.27100372314453,21.222999572753906 -116.27100372314453,16.80500030517578 C-116.27100372314453,16.80500030517578 -116.27100372314453,-16.80500030517578 -116.27100372314453,-16.80500030517578 C-116.27100372314453,-21.222999572753906 -112.68900299072266,-24.80500030517578 -108.27100372314453,-24.80500030517578z"></path><g opacity="1" transform="matrix(1,0,0,1,0,0)"></g></g><g opacity="1" transform="matrix(1,0,0,1,135.35000610351562,25.05500030517578)"><path fill="rgb(251,251,252)" fill-opacity="1" d=" M-70.2300033569336,-14 C-70.2300033569336,-14 70.2300033569336,-14 70.2300033569336,-14 C77.96199798583984,-14 84.2300033569336,-7.73199987411499 84.2300033569336,0 C84.2300033569336,7.73199987411499 77.96199798583984,14 70.2300033569336,14 C70.2300033569336,14 -70.2300033569336,14 -70.2300033569336,14 C-77.96099853515625,14 -84.2300033569336,7.73199987411499 -84.2300033569336,0 C-84.2300033569336,-7.73199987411499 -77.96099853515625,-14 -70.2300033569336,-14z"></path><g opacity="1" transform="matrix(1,0,0,1,0,0)"></g></g><g opacity="1" transform="matrix(1,0,0,1,28.170000076293945,25.05500030517578)"><path fill="rgb(139,139,161)" fill-opacity="1" d=" M9.300999641418457,7.750999927520752 C9.300999641418457,7.750999927520752 -9.300999641418457,7.750999927520752 -9.300999641418457,7.750999927520752 C-9.300999641418457,7.750999927520752 -9.300999641418457,4.651000022888184 -9.300999641418457,4.651000022888184 C-9.300999641418457,4.651000022888184 9.300999641418457,4.651000022888184 9.300999641418457,4.651000022888184 C9.300999641418457,4.651000022888184 9.300999641418457,7.750999927520752 9.300999641418457,7.750999927520752z M9.300999641418457,1.5499999523162842 C9.300999641418457,1.5499999523162842 -9.300999641418457,1.5499999523162842 -9.300999641418457,1.5499999523162842 C-9.300999641418457,1.5499999523162842 -9.300999641418457,-1.5499999523162842 -9.300999641418457,-1.5499999523162842 C-9.300999641418457,-1.5499999523162842 9.300999641418457,-1.5499999523162842 9.300999641418457,-1.5499999523162842 C9.300999641418457,-1.5499999523162842 9.300999641418457,1.5499999523162842 9.300999641418457,1.5499999523162842z M9.300999641418457,-4.651000022888184 C9.300999641418457,-4.651000022888184 -9.300999641418457,-4.651000022888184 -9.300999641418457,-4.651000022888184 C-9.300999641418457,-4.651000022888184 -9.300999641418457,-7.750999927520752 -9.300999641418457,-7.750999927520752 C-9.300999641418457,-7.750999927520752 9.300999641418457,-7.750999927520752 9.300999641418457,-7.750999927520752 C9.300999641418457,-7.750999927520752 9.300999641418457,-4.651000022888184 9.300999641418457,-4.651000022888184z M-13.949000358581543,15.503000259399414 C-13.949000358581543,15.503000259399414 -11.630000114440918,13.177000045776367 -11.630000114440918,13.177000045776367 C-11.630000114440918,13.177000045776367 -9.300999641418457,15.503000259399414 -9.300999641418457,15.503000259399414 C-9.300999641418457,15.503000259399414 -6.979000091552734,13.177000045776367 -6.979000091552734,13.177000045776367 C-6.979000091552734,13.177000045776367 -4.650000095367432,15.503000259399414 -4.650000095367432,15.503000259399414 C-4.650000095367432,15.503000259399414 -2.3310000896453857,13.177000045776367 -2.3310000896453857,13.177000045776367 C-2.3310000896453857,13.177000045776367 0,15.503000259399414 0,15.503000259399414 C0,15.503000259399414 2.319999933242798,13.177000045776367 2.319999933242798,13.177000045776367 C2.319999933242798,13.177000045776367 4.651000022888184,15.503000259399414 4.651000022888184,15.503000259399414 C4.651000022888184,15.503000259399414 6.96999979019165,13.177000045776367 6.96999979019165,13.177000045776367 C6.96999979019165,13.177000045776367 9.300999641418457,15.503000259399414 9.300999641418457,15.503000259399414 C9.300999641418457,15.503000259399414 11.630000114440918,13.177000045776367 11.630000114440918,13.177000045776367 C11.630000114440918,13.177000045776367 13.949000358581543,15.503000259399414 13.949000358581543,15.503000259399414 C13.949000358581543,15.503000259399414 13.949000358581543,-15.503000259399414 13.949000358581543,-15.503000259399414 C13.949000358581543,-15.503000259399414 11.630000114440918,-13.177000045776367 11.630000114440918,-13.177000045776367 C11.630000114440918,-13.177000045776367 9.300999641418457,-15.503000259399414 9.300999641418457,-15.503000259399414 C9.300999641418457,-15.503000259399414 6.96999979019165,-13.177000045776367 6.96999979019165,-13.177000045776367 C6.96999979019165,-13.177000045776367 4.651000022888184,-15.503000259399414 4.651000022888184,-15.503000259399414 C4.651000022888184,-15.503000259399414 2.319999933242798,-13.177000045776367 2.319999933242798,-13.177000045776367 C2.319999933242798,-13.177000045776367 0,-15.503000259399414 0,-15.503000259399414 C0,-15.503000259399414 -2.3310000896453857,-13.177000045776367 -2.3310000896453857,-13.177000045776367 C-2.3310000896453857,-13.177000045776367 -4.650000095367432,-15.503000259399414 -4.650000095367432,-15.503000259399414 C-4.650000095367432,-15.503000259399414 -6.979000091552734,-13.177000045776367 -6.979000091552734,-13.177000045776367 C-6.979000091552734,-13.177000045776367 -9.300999641418457,-15.503000259399414 -9.300999641418457,-15.503000259399414 C-9.300999641418457,-15.503000259399414 -11.630000114440918,-13.177000045776367 -11.630000114440918,-13.177000045776367 C-11.630000114440918,-13.177000045776367 -13.949000358581543,-15.503000259399414 -13.949000358581543,-15.503000259399414 C-13.949000358581543,-15.503000259399414 -13.949000358581543,15.503000259399414 -13.949000358581543,15.503000259399414z"></path><g opacity="1" transform="matrix(1,0,0,1,0,0)"></g></g></g><g transform="matrix(1.0000065565109253,0,0,1.0000065565109253,1126.7391357421875,170.3738250732422)" opacity="1" style="display: block;"><g opacity="1" transform="matrix(1,0,0,1,123.45800018310547,25.724000930786133)"><path fill="rgb(73,73,104)" fill-opacity="1" d=" M-115.20800018310547,-25.474000930786133 C-115.20800018310547,-25.474000930786133 115.20800018310547,-25.474000930786133 115.20800018310547,-25.474000930786133 C119.6259994506836,-25.474000930786133 123.20800018310547,-21.892000198364258 123.20800018310547,-17.474000930786133 C123.20800018310547,-17.474000930786133 123.20800018310547,17.474000930786133 123.20800018310547,17.474000930786133 C123.20800018310547,21.89299964904785 119.6259994506836,25.474000930786133 115.20800018310547,25.474000930786133 C115.20800018310547,25.474000930786133 -115.20800018310547,25.474000930786133 -115.20800018310547,25.474000930786133 C-119.62699890136719,25.474000930786133 -123.20800018310547,21.89299964904785 -123.20800018310547,17.474000930786133 C-123.20800018310547,17.474000930786133 -123.20800018310547,-17.474000930786133 -123.20800018310547,-17.474000930786133 C-123.20800018310547,-21.892000198364258 -119.62699890136719,-25.474000930786133 -115.20800018310547,-25.474000930786133z"></path><g opacity="1" transform="matrix(1,0,0,1,0,0)"></g></g><g opacity="1" transform="matrix(1,0,0,1,215.78399658203125,25.724000930786133)"><path fill="rgb(240,240,242)" fill-opacity="1" d=" M12.404999732971191,-8.458000183105469 C12.404999732971191,-8.458000183105469 -1.7549999952316284,5.704999923706055 -1.7549999952316284,5.704999923706055 C-1.7549999952316284,5.704999923706055 -7.005000114440918,0.44699999690055847 -7.005000114440918,0.44699999690055847 C-7.005000114440918,0.44699999690055847 -5.264999866485596,-1.3020000457763672 -5.264999866485596,-1.3020000457763672 C-5.264999866485596,-1.3020000457763672 -1.7549999952316284,2.2079999446868896 -1.7549999952316284,2.2079999446868896 C-1.7549999952316284,2.2079999446868896 10.654999732971191,-10.194000244140625 10.654999732971191,-10.194000244140625 C10.654999732971191,-10.194000244140625 12.404999732971191,-8.458000183105469 12.404999732971191,-8.458000183105469z M9.654999732971191,-2.2070000171661377 C9.824999809265137,-1.5 9.925999641418457,-0.7559999823570251 9.925999641418457,0 C9.925999641418457,5.48199987411499 5.485000133514404,9.92199993133545 -0.004999999888241291,9.92199993133545 C-5.485000133514404,9.92199993133545 -9.925000190734863,5.48199987411499 -9.925000190734863,0 C-9.925000190734863,-5.48199987411499 -5.485000133514404,-9.92199993133545 -0.004999999888241291,-9.92199993133545 C1.9559999704360962,-9.92199993133545 3.765000104904175,-9.35099983215332 5.304999828338623,-8.371000289916992 C5.304999828338623,-8.371000289916992 7.09499979019165,-10.156999588012695 7.09499979019165,-10.156999588012695 C5.085999965667725,-11.571000099182129 2.6449999809265137,-12.402000427246094 -0.004999999888241291,-12.402000427246094 C-6.84499979019165,-12.402000427246094 -12.404999732971191,-6.8460001945495605 -12.404999732971191,0 C-12.404999732971191,6.8460001945495605 -6.84499979019165,12.402000427246094 -0.004999999888241291,12.402000427246094 C6.84499979019165,12.402000427246094 12.404999732971191,6.8460001945495605 12.404999732971191,0 C12.404999732971191,-1.4759999513626099 12.12600040435791,-2.890000104904175 11.654999732971191,-4.203999996185303 C11.654999732971191,-4.203999996185303 9.654999732971191,-2.2070000171661377 9.654999732971191,-2.2070000171661377z"></path><g opacity="1" transform="matrix(1,0,0,1,0,0)"></g></g><g opacity="1" transform="matrix(1,0,0,1,27.719999313354492,25.725000381469727)"><path fill="rgb(255,255,255)" fill-opacity="1" d=" M9.5600004196167,7.960000038146973 C9.5600004196167,7.960000038146973 -9.548999786376953,7.960000038146973 -9.548999786376953,7.960000038146973 C-9.548999786376953,7.960000038146973 -9.548999786376953,4.7769999504089355 -9.548999786376953,4.7769999504089355 C-9.548999786376953,4.7769999504089355 9.5600004196167,4.7769999504089355 9.5600004196167,4.7769999504089355 C9.5600004196167,4.7769999504089355 9.5600004196167,7.960000038146973 9.5600004196167,7.960000038146973z M9.5600004196167,1.5920000076293945 C9.5600004196167,1.5920000076293945 -9.548999786376953,1.5920000076293945 -9.548999786376953,1.5920000076293945 C-9.548999786376953,1.5920000076293945 -9.548999786376953,-1.5920000076293945 -9.548999786376953,-1.5920000076293945 C-9.548999786376953,-1.5920000076293945 9.5600004196167,-1.5920000076293945 9.5600004196167,-1.5920000076293945 C9.5600004196167,-1.5920000076293945 9.5600004196167,1.5920000076293945 9.5600004196167,1.5920000076293945z M9.5600004196167,-4.7769999504089355 C9.5600004196167,-4.7769999504089355 -9.548999786376953,-4.7769999504089355 -9.548999786376953,-4.7769999504089355 C-9.548999786376953,-4.7769999504089355 -9.548999786376953,-7.960000038146973 -9.548999786376953,-7.960000038146973 C-9.548999786376953,-7.960000038146973 9.5600004196167,-7.960000038146973 9.5600004196167,-7.960000038146973 C9.5600004196167,-7.960000038146973 9.5600004196167,-4.7769999504089355 9.5600004196167,-4.7769999504089355z M-14.329999923706055,15.920999526977539 C-14.329999923706055,15.920999526977539 -11.9399995803833,13.532999992370605 -11.9399995803833,13.532999992370605 C-11.9399995803833,13.532999992370605 -9.550000190734863,15.920999526977539 -9.550000190734863,15.920999526977539 C-9.550000190734863,15.920999526977539 -7.159999847412109,13.532999992370605 -7.159999847412109,13.532999992370605 C-7.159999847412109,13.532999992370605 -4.769999980926514,15.920999526977539 -4.769999980926514,15.920999526977539 C-4.769999980926514,15.920999526977539 -2.390000104904175,13.532999992370605 -2.390000104904175,13.532999992370605 C-2.390000104904175,13.532999992370605 0,15.920999526977539 0,15.920999526977539 C0,15.920999526977539 2.390000104904175,13.532999992370605 2.390000104904175,13.532999992370605 C2.390000104904175,13.532999992370605 4.78000020980835,15.920999526977539 4.78000020980835,15.920999526977539 C4.78000020980835,15.920999526977539 7.170000076293945,13.532999992370605 7.170000076293945,13.532999992370605 C7.170000076293945,13.532999992370605 9.5600004196167,15.920999526977539 9.5600004196167,15.920999526977539 C9.5600004196167,15.920999526977539 11.940999984741211,13.532999992370605 11.940999984741211,13.532999992370605 C11.940999984741211,13.532999992370605 14.329999923706055,15.920999526977539 14.329999923706055,15.920999526977539 C14.329999923706055,15.920999526977539 14.329999923706055,-15.920999526977539 14.329999923706055,-15.920999526977539 C14.329999923706055,-15.920999526977539 11.940999984741211,-13.532999992370605 11.940999984741211,-13.532999992370605 C11.940999984741211,-13.532999992370605 9.5600004196167,-15.920999526977539 9.5600004196167,-15.920999526977539 C9.5600004196167,-15.920999526977539 7.170000076293945,-13.532999992370605 7.170000076293945,-13.532999992370605 C7.170000076293945,-13.532999992370605 4.78000020980835,-15.920999526977539 4.78000020980835,-15.920999526977539 C4.78000020980835,-15.920999526977539 2.390000104904175,-13.532999992370605 2.390000104904175,-13.532999992370605 C2.390000104904175,-13.532999992370605 0,-15.920999526977539 0,-15.920999526977539 C0,-15.920999526977539 -2.390000104904175,-13.532999992370605 -2.390000104904175,-13.532999992370605 C-2.390000104904175,-13.532999992370605 -4.769999980926514,-15.920999526977539 -4.769999980926514,-15.920999526977539 C-4.769999980926514,-15.920999526977539 -7.159999847412109,-13.532999992370605 -7.159999847412109,-13.532999992370605 C-7.159999847412109,-13.532999992370605 -9.550000190734863,-15.920999526977539 -9.550000190734863,-15.920999526977539 C-9.550000190734863,-15.920999526977539 -11.9399995803833,-13.532999992370605 -11.9399995803833,-13.532999992370605 C-11.9399995803833,-13.532999992370605 -14.329999923706055,-15.920999526977539 -14.329999923706055,-15.920999526977539 C-14.329999923706055,-15.920999526977539 -14.329999923706055,15.920999526977539 -14.329999923706055,15.920999526977539z"></path><g opacity="1" transform="matrix(1,0,0,1,0,0)"></g></g><g opacity="1" transform="matrix(1,0,0,1,123.46099853515625,25.724000930786133)"><path fill="rgb(140,140,159)" fill-opacity="1" d=" M-52.941001892089844,-14 C-52.941001892089844,-14 52.941001892089844,-14 52.941001892089844,-14 C60.67300033569336,-14 66.94100189208984,-7.73199987411499 66.94100189208984,0 C66.94100189208984,7.73199987411499 60.67300033569336,14 52.941001892089844,14 C52.941001892089844,14 -52.941001892089844,14 -52.941001892089844,14 C-60.672000885009766,14 -66.94100189208984,7.73199987411499 -66.94100189208984,0 C-66.94100189208984,-7.73199987411499 -60.672000885009766,-14 -52.941001892089844,-14z"></path><g opacity="1" transform="matrix(1,0,0,1,0,0)"></g></g></g></g></g></g></svg>