<svg xmlns="http://www.w3.org/2000/svg" width="187.335" height="139.587" viewBox="0 0 187.335 139.587">
  <g id="File_searching-rafiki" data-name="File searching-rafiki" transform="translate(0 -55)">
    <g id="freepik--background-complete--inject-75" transform="translate(0 55)">
      <rect id="Rectangle_3139" data-name="Rectangle 3139" width="187.335" height="0.094" transform="translate(0 122.667)" fill="#ebebeb"/>
      <rect id="Rectangle_3140" data-name="Rectangle 3140" width="12.409" height="0.094" transform="translate(156.155 128.695)" fill="#ebebeb"/>
      <rect id="Rectangle_3141" data-name="Rectangle 3141" width="26.53" height="0.094" transform="translate(124.907 128.695)" fill="#ebebeb"/>
      <rect id="Rectangle_3142" data-name="Rectangle 3142" width="7.19" height="0.094" transform="translate(103.087 125.218)" fill="#ebebeb"/>
      <rect id="Rectangle_3143" data-name="Rectangle 3143" width="12.847" height="0.094" transform="translate(19.655 125.848)" fill="#ebebeb"/>
      <rect id="Rectangle_3144" data-name="Rectangle 3144" width="23.361" height="0.094" transform="translate(35.837 125.848)" fill="#ebebeb"/>
      <rect id="Rectangle_3145" data-name="Rectangle 3145" width="13.792" height="0.094" transform="translate(70.562 127.429)" fill="#ebebeb"/>
      <path id="Path_48885" data-name="Path 48885" d="M112.691,160.957H40.346a2.139,2.139,0,0,1-2.136-2.139V57.121A2.139,2.139,0,0,1,40.346,55h72.345a2.139,2.139,0,0,1,2.139,2.139V158.817A2.139,2.139,0,0,1,112.691,160.957ZM40.346,55.075A2.046,2.046,0,0,0,38.3,57.121v101.7a2.046,2.046,0,0,0,2.042,2.046h72.345a2.049,2.049,0,0,0,2.046-2.046V57.121a2.049,2.049,0,0,0-2.046-2.046Z" transform="translate(-23.894 -55)" fill="#ebebeb"/>
      <path id="Path_48886" data-name="Path 48886" d="M328.988,160.957H256.639a2.143,2.143,0,0,1-2.139-2.139V57.121A2.143,2.143,0,0,1,256.639,55h72.349a2.139,2.139,0,0,1,2.132,2.121v101.7A2.139,2.139,0,0,1,328.988,160.957ZM256.639,55.075a2.049,2.049,0,0,0-2.046,2.046v101.7a2.049,2.049,0,0,0,2.046,2.046h72.349a2.049,2.049,0,0,0,2.046-2.046V57.121a2.049,2.049,0,0,0-2.046-2.046Z" transform="translate(-159.146 -55)" fill="#ebebeb"/>
      <rect id="Rectangle_3146" data-name="Rectangle 3146" width="50.843" height="44.05" transform="translate(79.258 51.787) rotate(180)" fill="#e6e6e6"/>
      <rect id="Rectangle_3147" data-name="Rectangle 3147" width="50.843" height="44.05" transform="translate(78.122 51.787) rotate(180)" fill="#f5f5f5"/>
      <rect id="Rectangle_3148" data-name="Rectangle 3148" width="40.903" height="46.785" transform="translate(76.095 9.311) rotate(90)" fill="#fafafa"/>
      <path id="Path_48887" data-name="Path 48887" d="M123.423,120.753l8.479-40.9H114.165l-8.475,40.9Z" transform="translate(-66.091 -70.539)" fill="#fff"/>
      <rect id="Rectangle_3149" data-name="Rectangle 3149" width="40.903" height="0.854" transform="translate(30.165 9.314) rotate(90)" fill="#e6e6e6"/>
      <rect id="Rectangle_3150" data-name="Rectangle 3150" width="49.164" height="2.113" transform="translate(77.283 42.881) rotate(180)" fill="#f5f5f5"/>
      <rect id="Rectangle_3151" data-name="Rectangle 3151" width="8.119" height="35.208" transform="translate(85.016 120.438) rotate(180)" fill="#f0f0f0"/>
      <rect id="Rectangle_3152" data-name="Rectangle 3152" width="59.584" height="2.229" transform="translate(83.461 122.667) rotate(180)" fill="#f0f0f0"/>
      <rect id="Rectangle_3153" data-name="Rectangle 3153" width="54.582" height="35.208" transform="translate(22.315 85.226)" fill="#f5f5f5"/>
      <rect id="Rectangle_3154" data-name="Rectangle 3154" width="48.201" height="11.547" transform="translate(25.508 89.561)" fill="#f0f0f0"/>
      <rect id="Rectangle_3155" data-name="Rectangle 3155" width="48.201" height="11.547" transform="translate(25.508 104.555)" fill="#f0f0f0"/>
      <path id="Path_48888" data-name="Path 48888" d="M96.411,308.915h25.983a.794.794,0,0,0,.791-.791h0a.8.8,0,0,0-.791-.794H96.411a.8.8,0,0,0-.791.794h0A.794.794,0,0,0,96.411,308.915Z" transform="translate(-59.794 -212.79)" fill="#f5f5f5"/>
      <path id="Path_48889" data-name="Path 48889" d="M96.411,348.935h25.983a.794.794,0,0,0,.791-.791h0a.794.794,0,0,0-.791-.794H96.411a.794.794,0,0,0-.791.794h0a.794.794,0,0,0,.791.791Z" transform="translate(-59.794 -237.815)" fill="#f5f5f5"/>
      <path id="Path_48890" data-name="Path 48890" d="M422.478,115.257c4.623-1.274,6.2-9.663-5.478-13.087C419.578,110.608,414.418,117.468,422.478,115.257Z" transform="translate(-260.763 -84.497)" fill="#ebebeb"/>
      <path id="Path_48891" data-name="Path 48891" d="M412.77,130.026c3.646-3.938.2-12.847-12.93-9.206C407.266,127.318,406.419,136.894,412.77,130.026Z" transform="translate(-250.032 -95.624)" fill="#e0e0e0"/>
      <path id="Path_48892" data-name="Path 48892" d="M423.155,132.951c-3.05-3.02,1.319-13.529,11.39-8.659C428.838,129.758,428.494,138.215,423.155,132.951Z" transform="translate(-264.014 -97.537)" fill="#fafafa"/>
      <path id="Path_48893" data-name="Path 48893" d="M415.517,155.2h8.876l.671-6.006H414.85Z" transform="translate(-259.418 -113.9)" fill="#e6e6e6"/>
      <path id="Path_48894" data-name="Path 48894" d="M413.473,149.846h10.416a.663.663,0,0,0,.663-.663h0a.663.663,0,0,0-.663-.663H413.473a.663.663,0,0,0-.663.663h0A.663.663,0,0,0,413.473,149.846Z" transform="translate(-258.143 -113.481)" fill="#e6e6e6"/>
      <path id="Path_48895" data-name="Path 48895" d="M203.165,236.419h0V226.246h8.471V216.078h8.475V205.905h8.471V195.733h8.475V185.565h8.471V175.392H254V165.22H309.08v81.371H194.69V236.419Z" transform="translate(-121.746 -123.924)" fill="#fafafa"/>
      <path id="Path_48896" data-name="Path 48896" d="M327.551,236.419h0V226.246h8.475V216.078H344.5V205.905h8.475V195.733h8.471V185.565h8.475V175.392h8.471V165.22h8.475v81.371H319.08V236.419Z" transform="translate(-199.53 -123.924)" fill="#e0e0e0"/>
      <rect id="Rectangle_3156" data-name="Rectangle 3156" width="47.104" height="3.05" transform="translate(72.446 112.495)" fill="#ebebeb"/>
      <rect id="Rectangle_3157" data-name="Rectangle 3157" width="47.104" height="3.05" transform="translate(80.921 102.322)" fill="#ebebeb"/>
      <rect id="Rectangle_3158" data-name="Rectangle 3158" width="47.104" height="3.05" transform="translate(89.393 92.154)" fill="#ebebeb"/>
      <rect id="Rectangle_3159" data-name="Rectangle 3159" width="47.104" height="3.05" transform="translate(97.868 81.982)" fill="#ebebeb"/>
      <rect id="Rectangle_3160" data-name="Rectangle 3160" width="47.104" height="3.05" transform="translate(106.339 71.809)" fill="#ebebeb"/>
      <rect id="Rectangle_3161" data-name="Rectangle 3161" width="47.104" height="3.05" transform="translate(114.814 61.641)" fill="#ebebeb"/>
      <rect id="Rectangle_3162" data-name="Rectangle 3162" width="47.104" height="3.05" transform="translate(123.285 51.468)" fill="#ebebeb"/>
      <rect id="Rectangle_3163" data-name="Rectangle 3163" width="47.104" height="3.05" transform="translate(131.76 41.296)" fill="#ebebeb"/>
    </g>
    <g id="freepik--Shadow--inject-75" transform="translate(21.023 186.105)">
      <ellipse id="freepik--path--inject-75" cx="72.645" cy="4.241" rx="72.645" ry="4.241" transform="translate(0 0)" fill="#f5f5f5"/>
    </g>
    <g id="freepik--Character--inject-75" transform="translate(68.106 57.05)">
      <path id="Path_48897" data-name="Path 48897" d="M311.356,158.267c-.067,1.124-.2,2.154-.345,3.222s-.345,2.113-.57,3.162a35.216,35.216,0,0,1-1.892,6.208l-.341.749-.082.187-.03.1-.06.12a3,3,0,0,1-.431.652,2.589,2.589,0,0,1-.719.566,2.541,2.541,0,0,1-.854.27,3.267,3.267,0,0,1-1.36-.142,6.62,6.62,0,0,1-1.738-.9,13.7,13.7,0,0,1-1.33-1.068,30.726,30.726,0,0,1-4.234-4.844l1.24-1.053c.749.693,1.5,1.394,2.248,2.057a29.83,29.83,0,0,0,2.33,1.873,12.363,12.363,0,0,0,1.184.749,4.122,4.122,0,0,0,1.057.453c.127.026.217,0,.176,0a.412.412,0,0,0-.236.109h0l.12-.311.262-.682a39.469,39.469,0,0,0,1.517-5.755c.2-.982.337-1.982.487-2.975s.255-2.016.341-2.964Z" transform="translate(-254.06 -121.491)" fill="#ffc3bd"/>
      <path id="Path_48898" data-name="Path 48898" d="M324.675,147.234c-1.4.356-2.375,6.1-2.375,6.1l3.848,2.623s3.691-5.8,2.623-7.332C327.647,147.021,326.714,146.717,324.675,147.234Z" transform="translate(-269.65 -114.583)" fill="#7a69d4"/>
      <path id="Path_48899" data-name="Path 48899" d="M324.675,147.234c-1.4.356-2.375,6.1-2.375,6.1l3.848,2.623s3.691-5.8,2.623-7.332C327.647,147.021,326.714,146.717,324.675,147.234Z" transform="translate(-269.65 -114.583)" fill="#7a69d4"/>
      <path id="Path_48900" data-name="Path 48900" d="M324.675,147.234c-1.4.356-2.375,6.1-2.375,6.1l3.848,2.623s3.691-5.8,2.623-7.332C327.647,147.021,326.714,146.717,324.675,147.234Z" transform="translate(-269.65 -114.583)" opacity="0.4"/>
      <path id="Path_48901" data-name="Path 48901" d="M327.182,151.05l-1.072,5.789,2.162,1.469Z" transform="translate(-272.032 -117.113)" opacity="0.3"/>
      <path id="Path_48902" data-name="Path 48902" d="M296.085,172.462l-1.817-2.892-1.038,3.286s1.5,1.574,2.859,1.2Z" transform="translate(-251.471 -128.694)" fill="#ffc3bd"/>
      <path id="Path_48903" data-name="Path 48903" d="M287.6,167.02l-.719,2.8,2.364,1.446,1.038-3.286Z" transform="translate(-247.5 -127.1)" fill="#ffc3bd"/>
      <path id="Path_48904" data-name="Path 48904" d="M342.766,392.656h-3.387l-.229-7.846h3.391Z" transform="translate(-280.186 -263.29)" fill="#ffc3bd"/>
      <path id="Path_48905" data-name="Path 48905" d="M414.42,354.952l-2.581,2.2-5.909-5.275,2.582-2.192Z" transform="translate(-321.946 -241.322)" fill="#ffc3bd"/>
      <path id="Path_48906" data-name="Path 48906" d="M417.665,363.964l2.507-2.87a.27.27,0,0,1,.352-.049l2.552,1.652a.543.543,0,0,1,.1.806c-.892.985-1.371,1.416-2.473,2.675-.674.776-1.585,1.982-2.521,3.05s-2.046.206-1.75-.326a6.638,6.638,0,0,0,1.023-4.376A.884.884,0,0,1,417.665,363.964Z" transform="translate(-328.48 -248.402)" fill="#263238"/>
      <path id="Path_48907" data-name="Path 48907" d="M330.228,404.71h3.807a.27.27,0,0,1,.27.232l.435,3a.543.543,0,0,1-.558.626c-1.326-.023-1.967-.1-3.642-.1-1.03,0-3.158.109-4.582.109s-1.5-1.409-.9-1.532a9.2,9.2,0,0,0,4.593-2.113A.884.884,0,0,1,330.228,404.71Z" transform="translate(-271.151 -275.734)" fill="#263238"/>
      <path id="Path_48908" data-name="Path 48908" d="M339.16,384.82l.116,4.043h3.387l-.116-4.043Z" transform="translate(-280.193 -263.297)" opacity="0.2"/>
      <path id="Path_48909" data-name="Path 48909" d="M408.515,349.68l-2.585,2.192,3.05,2.72,2.581-2.2Z" transform="translate(-321.946 -241.322)" opacity="0.2"/>
      <path id="Path_48910" data-name="Path 48910" d="M327.967,145.984s-1.615.57,1.619,20.449h13.758c-.229-5.6-.236-9.056,2.439-20.547a40.973,40.973,0,0,0-5.841-.772,43.967,43.967,0,0,0-6.249,0C331.009,145.377,327.967,145.984,327.967,145.984Z" transform="translate(-272.941 -113.332)" fill="#7a69d4"/>
      <path id="Path_48911" data-name="Path 48911" d="M327.967,145.984s-1.615.57,1.619,20.449h13.758c-.229-5.6-.236-9.056,2.439-20.547a40.973,40.973,0,0,0-5.841-.772,43.967,43.967,0,0,0-6.249,0C331.009,145.377,327.967,145.984,327.967,145.984Z" transform="translate(-272.941 -113.332)" opacity="0.4"/>
      <path id="Path_48912" data-name="Path 48912" d="M348,145.114a43.966,43.966,0,0,0-6.249,0c-.337.03-.682.067-1.023.109a1.667,1.667,0,0,0-.187,1.461c.438,1.09,2.02,1.218,3.173,1.218,4.26,0,4.979-2.488,5.009-2.593l.041-.15C348.524,145.144,348.254,145.126,348,145.114Z" transform="translate(-280.999 -113.332)" fill="#fff"/>
      <path id="Path_48913" data-name="Path 48913" d="M348.659,126.53c-.4,2.008-.787,5.691.618,7.033,0,0-.551,2.042-4.286,2.042-4.121,0-1.963-2.038-1.963-2.038,2.248-.536,2.184-2.2,1.795-3.747Z" transform="translate(-282.258 -101.78)" fill="#ffc3bd"/>
      <path id="Path_48914" data-name="Path 48914" d="M350.98,130.09l-2.271,1.937a6.491,6.491,0,0,1,.195,1.124,2.774,2.774,0,0,0,2.124-1.96A2.975,2.975,0,0,0,350.98,130.09Z" transform="translate(-286.165 -104.006)" opacity="0.2"/>
      <path id="Path_48915" data-name="Path 48915" d="M352.3,79.148c-.348-1.18-.641-3.039,1.457-3.878a3.261,3.261,0,0,1,0-4.013,2.7,2.7,0,0,1,2.548-.708s.45-2.739,3.78-2.248,1.847,2.683,1.847,2.683,4.545-.9,4.848,3.372-2.3,3.747-2.3,3.747,2.027,1.7.9,3.571-3.72,1.225-3.72,1.225-1.221,3.3-4.1,1.424A23.824,23.824,0,0,1,352.3,79.148Z" transform="translate(-288.256 -65.331)" fill="#263238"/>
      <path id="Path_48916" data-name="Path 48916" d="M333.627,100.338a2.542,2.542,0,0,0,.375,3.747c2.417,1.544,5.912-4.931,5-5.706S334.751,98.881,333.627,100.338Z" transform="translate(-276.331 -84.03)" fill="#263238"/>
      <path id="Path_48917" data-name="Path 48917" d="M355.32,94.339a2.983,2.983,0,0,0-3.7,1c-1.225,2.357,4.339,6.6,5.95,3.657C358.524,97.243,356.957,95,355.32,94.339Z" transform="translate(-287.874 -81.492)" fill="#7a69d4"/>
      <path id="Path_48918" data-name="Path 48918" d="M344.229,106.521c.116,3.372.236,4.781-1.289,6.658-2.289,2.821-6.444,2.229-7.561-1.03-1-2.934-1.023-7.936,2.121-9.577a4.586,4.586,0,0,1,6.729,3.949Z" transform="translate(-277.453 -86.465)" fill="#ffc3bd"/>
      <path id="Path_48919" data-name="Path 48919" d="M344.382,104.2a2.7,2.7,0,0,1-1.634-3c-.749-.03-2.387-.3-3-1.229-1.169.749-3.638,1.5-3.9.251s3.458-4.455,6.276-4.7c3.35-.292,6.654,3,5.8,6.148S344.382,104.2,344.382,104.2Z" transform="translate(-278.113 -82.377)" fill="#263238"/>
      <path id="Path_48920" data-name="Path 48920" d="M328.889,202.2s-2.671,26.1-2.45,36.429c.232,10.746,4.17,35.253,4.17,35.253h4.578s-.723-23.881-.318-34.432c.442-11.506,4.1-37.25,4.1-37.25Z" transform="translate(-272.229 -149.099)" fill="#263238"/>
      <path id="Path_48921" data-name="Path 48921" d="M341.2,390.752h-5.373l-.4-1.712,6.021-.21Z" transform="translate(-277.86 -265.804)" fill="#7a69d4"/>
      <path id="Path_48922" data-name="Path 48922" d="M346.069,216.836c-3.372,6.8-.678,19.2.517,23.814.611-6.931,1.645-15.4,2.45-21.622C348.527,215.513,347.642,213.7,346.069,216.836Z" transform="translate(-283.49 -157.242)" opacity="0.2"/>
      <path id="Path_48923" data-name="Path 48923" d="M342.66,202.187s3.117,27.13,5.47,35.841c2.8,10.341,20.153,24.26,20.153,24.26l3.522-3s-12.581-15.122-14.721-20.569c-4.56-11.615-.656-28.954-4.3-36.542Z" transform="translate(-282.381 -149.086)" fill="#263238"/>
      <path id="Path_48924" data-name="Path 48924" d="M411.932,351.086l-4.369,3.709-1.634-.978,4.942-4.6Z" transform="translate(-321.946 -241.035)" fill="#7a69d4"/>
      <path id="Path_48925" data-name="Path 48925" d="M345.6,116.989c.026.273-.1.506-.273.525s-.345-.191-.375-.461.1-.51.277-.525S345.575,116.7,345.6,116.989Z" transform="translate(-283.812 -95.525)" fill="#263238"/>
      <path id="Path_48926" data-name="Path 48926" d="M337.393,117.78c.026.27-.1.506-.277.525s-.341-.191-.375-.465.1-.506.273-.521S337.367,117.506,337.393,117.78Z" transform="translate(-278.677 -96.02)" fill="#263238"/>
      <path id="Path_48927" data-name="Path 48927" d="M336.591,117.127,335.92,117S336.325,117.48,336.591,117.127Z" transform="translate(-278.167 -95.821)" fill="#263238"/>
      <path id="Path_48928" data-name="Path 48928" d="M339.432,119.59a7.31,7.31,0,0,1-.8,1.828,1.188,1.188,0,0,0,.989.09Z" transform="translate(-279.861 -97.44)" fill="#ed847e"/>
      <path id="Path_48929" data-name="Path 48929" d="M344.4,125.211a2.643,2.643,0,0,1-.453.082.079.079,0,0,1-.086-.071.082.082,0,0,1,.071-.09,2.173,2.173,0,0,0,1.679-1.008.075.075,0,0,1,.109-.034.082.082,0,0,1,.034.109A2.248,2.248,0,0,1,344.4,125.211Z" transform="translate(-283.131 -100.248)" fill="#263238"/>
      <path id="Path_48930" data-name="Path 48930" d="M358.156,118.034a2.458,2.458,0,0,1-.929,1.63c-.686.525-1.345,0-1.424-.821-.067-.749.2-1.873,1.019-2.091a1.124,1.124,0,0,1,1.334,1.281Z" transform="translate(-290.594 -95.652)" fill="#ffc3bd"/>
      <path id="Path_48931" data-name="Path 48931" d="M345.049,111.718a.161.161,0,0,1-.124-.019,1.278,1.278,0,0,0-1.154-.112.169.169,0,0,1-.217-.075.161.161,0,0,1,.075-.214,1.592,1.592,0,0,1,1.461.127.157.157,0,0,1,.052.217A.165.165,0,0,1,345.049,111.718Z" transform="translate(-282.931 -92.18)" fill="#263238"/>
      <path id="Path_48932" data-name="Path 48932" d="M334.133,113.314a.168.168,0,0,1-.12,0,.165.165,0,0,1-.064-.217,1.585,1.585,0,0,1,1.188-.858.157.157,0,0,1,.172.146.161.161,0,0,1-.146.172,1.281,1.281,0,0,0-.933.689A.146.146,0,0,1,334.133,113.314Z" transform="translate(-276.923 -92.843)" fill="#263238"/>
      <path id="Path_48933" data-name="Path 48933" d="M372.117,157.11a54.308,54.308,0,0,1,1.974,5.721,35.926,35.926,0,0,1,1.244,5.995c.064.517.082,1.06.1,1.6v.3a2.123,2.123,0,0,1-.034.318,4.687,4.687,0,0,1-.127.555,5.453,5.453,0,0,1-.375.9,13.184,13.184,0,0,1-1.9,2.656,32.553,32.553,0,0,1-4.5,4.1l-1.083-1.2a56.61,56.61,0,0,0,3.574-4.5,12.22,12.22,0,0,0,1.311-2.248,3.5,3.5,0,0,0,.15-.472,1.164,1.164,0,0,0,.019-.165.2.2,0,0,0,0-.049h0v-.052c-.049-.442-.082-.884-.165-1.338a40.934,40.934,0,0,0-1.345-5.466c-.573-1.813-1.214-3.653-1.873-5.406Z" transform="translate(-297.871 -120.903)" fill="#ffc3bd"/>
      <path id="Path_48934" data-name="Path 48934" d="M369.85,147.233c1.379.42,3.035,5.167,3.035,5.167l-5.354,3.822s-1.952-3.96-1.371-5.744C366.782,148.623,368.28,146.753,369.85,147.233Z" transform="translate(-297.009 -114.679)" fill="#7a69d4"/>
      <path id="Path_48935" data-name="Path 48935" d="M369.85,147.233c1.379.42,3.035,5.167,3.035,5.167l-5.354,3.822s-1.952-3.96-1.371-5.744C366.782,148.623,368.28,146.753,369.85,147.233Z" transform="translate(-297.009 -114.679)" opacity="0.4"/>
      <path id="Path_48936" data-name="Path 48936" d="M416.615,371.193a.461.461,0,0,1-.356-.184.277.277,0,0,1-.067-.27c.127-.412,1.3-.749,1.439-.787a.071.071,0,0,1,.082.026.079.079,0,0,1,0,.086c-.21.4-.626,1.075-1.053,1.124Zm.869-1.03c-.465.15-1.072.408-1.124.626a.116.116,0,0,0,.034.116.3.3,0,0,0,.27.127C416.881,371.006,417.185,370.684,417.484,370.163Z" transform="translate(-328.356 -253.997)" fill="#7a69d4"/>
      <path id="Path_48937" data-name="Path 48937" d="M416.931,369.2a1.387,1.387,0,0,1-.982-.277.281.281,0,0,1,0-.348.412.412,0,0,1,.3-.187c.487-.06,1.225.577,1.255.6a.083.083,0,0,1-.026.139A1.873,1.873,0,0,1,416.931,369.2Zm-.6-.656h-.052a.266.266,0,0,0-.191.116c-.056.086-.037.131,0,.161a1.7,1.7,0,0,0,1.218.187A2.035,2.035,0,0,0,416.335,368.541Z" transform="translate(-328.173 -253.016)" fill="#7a69d4"/>
      <path id="Path_48938" data-name="Path 48938" d="M334.434,404.881a1.267,1.267,0,0,1-.821-.21.453.453,0,0,1-.146-.375.262.262,0,0,1,.139-.214c.416-.229,1.765.461,1.918.543a.083.083,0,0,1,.041.082.079.079,0,0,1-.064.067A5.876,5.876,0,0,1,334.434,404.881Zm-.6-.7a.3.3,0,0,0-.15.03.094.094,0,0,0-.052.086.292.292,0,0,0,.094.255,2.108,2.108,0,0,0,1.5.094A4.313,4.313,0,0,0,333.83,404.18Z" transform="translate(-276.632 -275.313)" fill="#7a69d4"/>
      <path id="Path_48939" data-name="Path 48939" d="M336.919,403.45h-.034c-.4-.184-1.2-.914-1.124-1.3,0-.09.079-.206.3-.229a.592.592,0,0,1,.446.139,2.283,2.283,0,0,1,.506,1.308.079.079,0,0,1-.034.071A.071.071,0,0,1,336.919,403.45Zm-.809-1.375h-.045c-.15,0-.157.075-.161.094-.037.229.506.806.918,1.053a1.873,1.873,0,0,0-.435-1.045.428.428,0,0,0-.277-.112Z" transform="translate(-278.064 -273.991)" fill="#7a69d4"/>
      <path id="Path_48940" data-name="Path 48940" d="M346.211,199.83l.352,1.233c.049.094-.064.191-.225.191H332.18c-.124,0-.229-.06-.236-.139l-.124-1.229c0-.086.1-.157.236-.157H345.99A.247.247,0,0,1,346.211,199.83Z" transform="translate(-275.603 -147.553)" fill="#7a69d4"/>
      <path id="Path_48941" data-name="Path 48941" d="M346.211,199.83l.352,1.233c.049.094-.064.191-.225.191H332.18c-.124,0-.229-.06-.236-.139l-.124-1.229c0-.086.1-.157.236-.157H345.99A.247.247,0,0,1,346.211,199.83Z" transform="translate(-275.603 -147.553)" fill="#fff" opacity="0.3"/>
      <path id="Path_48942" data-name="Path 48942" d="M364.707,201.242h.375c.071,0,.127-.037.124-.086l-.176-1.6c0-.045-.067-.086-.142-.086h-.375c-.075,0-.131.041-.124.086l.172,1.6C364.569,201.2,364.617,201.242,364.707,201.242Z" transform="translate(-295.969 -147.392)" fill="#263238"/>
      <path id="Path_48943" data-name="Path 48943" d="M335.048,201.242h.375c.075,0,.131-.037.127-.086l-.176-1.6c0-.045-.071-.086-.142-.086h-.375c-.075,0-.131.041-.127.086l.176,1.6C334.909,201.2,334.973,201.242,335.048,201.242Z" transform="translate(-277.422 -147.392)" fill="#263238"/>
      <path id="Path_48944" data-name="Path 48944" d="M349.884,201.242h.375c.075,0,.131-.037.127-.086l-.176-1.6c0-.045-.067-.086-.142-.086h-.375c-.075,0-.131.041-.124.086l.161,1.611C349.73,201.2,349.809,201.242,349.884,201.242Z" transform="translate(-286.701 -147.392)" fill="#263238"/>
      <path id="Path_48945" data-name="Path 48945" d="M344.8,116.337l-.671-.127S344.512,116.69,344.8,116.337Z" transform="translate(-283.301 -95.327)" fill="#263238"/>
      <path id="Path_48946" data-name="Path 48946" d="M234.526,132.839a34.432,34.432,0,1,1,19.625-44.567,34.432,34.432,0,0,1-19.625,44.567Z" transform="translate(-185.427 -64.118)" fill="#7a69d4" opacity="0.2"/>
      <path id="Path_48947" data-name="Path 48947" d="M237.8,66.889,210.8,128.222c-.416-.315-.828-.641-1.233-.97a34.024,34.024,0,0,1-6.744-7.527h0l23.327-52.978a34.073,34.073,0,0,1,11.656.142Z" transform="translate(-194.935 -64.125)" fill="#fff" opacity="0.1"/>
      <path id="Path_48948" data-name="Path 48948" d="M279.663,81.5,254.272,139.17a34.387,34.387,0,0,1-15.212-3.529L266.786,72.67A34.47,34.47,0,0,1,279.663,81.5Z" transform="translate(-217.597 -68.1)" fill="#fff" opacity="0.1"/>
      <path id="Path_48949" data-name="Path 48949" d="M190.057,73.9a36.628,36.628,0,1,1,5.148,51.543A36.628,36.628,0,0,1,190.057,73.9Zm54.372,44.5a33.63,33.63,0,1,0-47.328,4.732,33.63,33.63,0,0,0,47.328-4.732Z" transform="translate(-181.775 -60.472)" fill="#7a69d4"/>
      <path id="Path_48950" data-name="Path 48950" d="M352.125,214.219c3.608,2.154,7.04,4.522,10.412,6.965s6.658,4.987,9.891,7.6,6.407,5.3,9.468,8.119q2.3,2.113,4.5,4.339c1.469,1.5,2.911,3,4.271,4.623a2.109,2.109,0,0,1-2.623,3.207c-1.873-1.012-3.627-2.128-5.377-3.271s-3.458-2.334-5.144-3.559c-3.372-2.443-6.635-5.017-9.831-7.673s-6.343-5.373-9.4-8.2-6.062-5.717-8.887-8.827a2.169,2.169,0,0,1,2.72-3.323Z" transform="translate(-286.238 -156.419)" fill="#7a69d4"/>
      <path id="Path_48951" data-name="Path 48951" d="M362.349,212l-3.619.551,2.589,2.271s2.046-.749,2.248-2.136Z" transform="translate(-292.43 -155.227)" fill="#ffc3bd"/>
      <path id="Path_48952" data-name="Path 48952" d="M353.51,215.562l2.274,1.783,2.776-1.813-3.095-2.042Z" transform="translate(-289.166 -156.159)" fill="#ffc3bd"/>
    </g>
    <g id="freepik--Folder--inject-75" transform="translate(30.615 116.446)">
      <path id="Path_48953" data-name="Path 48953" d="M185.732,224.337h0a4.758,4.758,0,0,1,4.387-3.121h29.992a3.544,3.544,0,0,1,3.642,4.039l-7.748,65.009a4.713,4.713,0,0,1-4.6,4.02H116.242a3.537,3.537,0,0,1-3.638-4.02l6.5-54.619a4.713,4.713,0,0,1,4.6-4.02h51.787A11.116,11.116,0,0,0,185.732,224.337Z" transform="translate(-101.009 -220.384)" fill="#7a69d4"/>
      <path id="Path_48954" data-name="Path 48954" d="M117.23,296.579h99.441l5.665-66.909H122.9Z" transform="translate(-103.922 -225.672)" fill="#f0f0f0"/>
      <path id="Path_48955" data-name="Path 48955" d="M117.23,296.579h99.441l4.1-66.909H122.9Z" transform="translate(-103.922 -225.672)" fill="#e0e0e0"/>
      <path id="Path_48956" data-name="Path 48956" d="M117.23,293.033h99.441L220.088,224H120.651Z" transform="translate(-103.922 -222.127)" fill="#f0f0f0"/>
      <path id="Path_48957" data-name="Path 48957" d="M117.23,293.033h99.441L218.024,224H120.651Z" transform="translate(-103.922 -222.127)" fill="#e0e0e0"/>
      <path id="Path_48958" data-name="Path 48958" d="M117.23,289.906h99.441L217.263,219H117.826Z" transform="translate(-103.922 -219)" fill="#f0f0f0"/>
      <path id="Path_48959" data-name="Path 48959" d="M114.9,292.145h99.441L212.3,222.58H113.5Z" transform="translate(-101.59 -221.239)" fill="#e0e0e0"/>
      <path id="Path_48960" data-name="Path 48960" d="M112.309,293.033H211.75L208.8,224H109.36Z" transform="translate(-99.001 -222.127)" fill="#f0f0f0"/>
      <path id="Path_48961" data-name="Path 48961" d="M109.388,294.771h99.441l-4.7-67.991H104.69Z" transform="translate(-96.081 -223.865)" fill="#e0e0e0"/>
      <path id="Path_48962" data-name="Path 48962" d="M108.138,295.741h99.441l-5.451-67.411H102.69Z" transform="translate(-94.83 -224.834)" fill="#f0f0f0"/>
      <path id="Path_48963" data-name="Path 48963" d="M144.817,235.48h0a3.241,3.241,0,0,1,3.391-3.2H178.2a5.245,5.245,0,0,1,4.923,4.121l11.851,60.7a3.3,3.3,0,0,1-3.316,4.121H96.492a5.244,5.244,0,0,1-4.927-4.121L81.79,247.065a3.3,3.3,0,0,1,3.316-4.121H136.9A7.566,7.566,0,0,0,144.817,235.48Z" transform="translate(-81.712 -227.305)" fill="#7a69d4"/>
      <path id="Path_48964" data-name="Path 48964" d="M144.817,235.48h0a3.241,3.241,0,0,1,3.391-3.2H178.2a5.245,5.245,0,0,1,4.923,4.121l11.851,60.7a3.3,3.3,0,0,1-3.316,4.121H96.492a5.244,5.244,0,0,1-4.927-4.121L81.79,247.065a3.3,3.3,0,0,1,3.316-4.121H136.9A7.566,7.566,0,0,0,144.817,235.48Z" transform="translate(-81.712 -227.305)" opacity="0.2"/>
    </g>
  </g>
</svg>
