<svg xmlns="http://www.w3.org/2000/svg" width="47.096" height="51.296" viewBox="0 0 47.096 51.296">
  <g id="noun_Share_3233417" transform="translate(-12.208 -102.026)">
    <g id="Group_67964" data-name="Group 67964" transform="translate(42.525 102.026)">
      <path id="Path_47843" data-name="Path 47843" d="M650.015,124.457A7.457,7.457,0,1,1,642.557,117,7.456,7.456,0,0,1,650.015,124.457Z" transform="translate(-634.174 -116.063)" fill="#7a69d4"/>
      <g id="Group_67963" data-name="Group 67963" transform="translate(0 0)">
        <path id="Path_47844" data-name="Path 47844" d="M635.194,110.42q0,.263-.019.526c-.006.088-.012.175-.025.257a.938.938,0,0,0-.012.131c-.019.15.025-.144,0,.006a7.81,7.81,0,0,1-.25,1.07c-.05.163-.106.319-.169.475-.013.038-.031.075-.044.119.006-.013.056-.131.012-.031s-.081.175-.125.263a7.79,7.79,0,0,1-.513.888,2.33,2.33,0,0,1-.144.2c-.025.031-.05.069-.075.1.006-.013.088-.113.019-.025-.113.138-.225.275-.344.407a7.718,7.718,0,0,1-.77.732c-.044.038-.194.15-.069.056-.069.05-.131.1-.2.144-.144.1-.294.2-.451.288s-.288.163-.432.238c-.075.038-.15.075-.225.106-.05.025-.275.119-.119.056a7.11,7.11,0,0,1-.995.325c-.175.044-.357.081-.538.113-.063.013-.257.038-.088.019-.1.013-.2.025-.3.031a7.679,7.679,0,0,1-1.139.013c-.094-.006-.188-.013-.282-.025-.044-.006-.269-.038-.125-.013-.2-.031-.4-.069-.594-.119a7.434,7.434,0,0,1-1.095-.35c.138.056-.113-.05-.15-.069-.081-.038-.163-.081-.244-.119a5.076,5.076,0,0,1-.507-.294c-.15-.094-.3-.2-.444-.3s.031.031-.094-.075c-.081-.069-.163-.131-.238-.2a7.269,7.269,0,0,1-.782-.8c-.025-.031-.163-.2-.075-.094-.056-.069-.106-.144-.163-.219-.119-.169-.238-.35-.344-.532a5.642,5.642,0,0,1-.288-.544,4.039,4.039,0,0,1-.206-.507,6.342,6.342,0,0,1-.394-2.471q.009-.282.037-.563c.006-.063.038-.257.013-.094.019-.1.031-.194.05-.294a8.155,8.155,0,0,1,.269-1.02c.025-.081.056-.156.088-.238.019-.056.094-.231.031-.081.075-.163.15-.325.231-.482a6.991,6.991,0,0,1,.538-.876c.025-.031.05-.069.075-.1.081-.119-.088.106,0-.006.05-.063.1-.125.156-.188q.169-.206.357-.394a4.549,4.549,0,0,1,.357-.338c.063-.056.125-.106.188-.163l.094-.075c.013-.013.15-.113.069-.056s.106-.075.138-.1c.069-.05.138-.094.2-.138a4.915,4.915,0,0,1,.457-.275c.144-.081.288-.156.438-.225.075-.038.15-.069.225-.1-.163.069.1-.038.163-.063a8.066,8.066,0,0,1,1.007-.294c.081-.019.169-.038.25-.05.037-.006.263-.044.169-.031a1.385,1.385,0,0,0,.175-.019c.1-.013.2-.019.3-.025a7.11,7.11,0,0,1,1.095.019c.088.006.169.019.257.025.113.013-.019,0-.038-.006l.125.019c.194.031.388.075.582.125a8.029,8.029,0,0,1,.995.325c-.15-.063.025.013.081.038.075.038.15.069.225.106.163.081.319.169.469.256a4.672,4.672,0,0,1,.413.269c.069.044.131.094.2.144.088.063-.013-.013-.025-.025.044.031.088.069.125.1a7.1,7.1,0,0,1,.77.732c.113.119.213.244.319.375s-.05-.075.05.069c.056.081.113.156.163.238a6.968,6.968,0,0,1,.513.888c.038.075.069.15.106.225.075.163-.025-.088.037.081s.125.338.181.513a7.81,7.81,0,0,1,.25,1.07c.019.113,0-.019-.006-.038a.938.938,0,0,1,.013.131c.012.088.019.175.025.257a4.605,4.605,0,0,1,.038.576.938.938,0,1,0,1.877,0,8.453,8.453,0,1,0-.119,1.37,10.121,10.121,0,0,0,.119-1.376.949.949,0,0,0-.938-.938A.963.963,0,0,0,635.194,110.42Z" transform="translate(-620.292 -102.026)" fill="#7a69d4"/>
      </g>
    </g>
    <g id="Group_67966" data-name="Group 67966" transform="translate(12.208 119.283)">
      <path id="Path_47845" data-name="Path 47845" d="M165.514,400.257a7.453,7.453,0,1,1-.976-3.691A7.436,7.436,0,0,1,165.514,400.257Z" transform="translate(-149.667 -391.866)" fill="#7a69d4"/>
      <g id="Group_67965" data-name="Group 67965" transform="translate(0 0)">
        <path id="Path_47846" data-name="Path 47846" d="M150.6,386.256a6.638,6.638,0,0,1-.488,2.5,7.117,7.117,0,0,1-.5.951,5,5,0,0,1-.544.751,6.124,6.124,0,0,1-1.583,1.358,7.887,7.887,0,0,1-.882.463c.169-.075-.106.044-.113.044l-.257.094c-.206.069-.413.131-.619.181-.181.044-.363.075-.551.113-.294.056.181-.012-.125.019-.094.013-.188.019-.282.025a8.089,8.089,0,0,1-1.1.006c-.088-.006-.175-.013-.257-.025-.025,0-.307-.044-.094-.013-.169-.025-.338-.056-.5-.094a7.448,7.448,0,0,1-1.045-.313c-.025-.006-.275-.119-.081-.031-.075-.031-.15-.069-.225-.1-.125-.056-.244-.119-.369-.188a7.031,7.031,0,0,1-.895-.576c.169.125-.05-.038-.069-.056-.063-.05-.125-.106-.188-.156a4.556,4.556,0,0,1-.357-.338c-.113-.113-.225-.238-.338-.357-.044-.05-.088-.106-.131-.156-.025-.031-.2-.263-.081-.1a8.133,8.133,0,0,1-.538-.826c-.081-.144-.156-.288-.225-.438-.038-.075-.069-.15-.1-.225.081.194-.05-.125-.063-.163a8.451,8.451,0,0,1-.269-.882c-.038-.169-.069-.332-.1-.5-.05-.275.013.188-.013-.088-.013-.113-.025-.232-.031-.344a7.367,7.367,0,0,1,0-1.051c.006-.088.013-.175.025-.256,0-.025.044-.307.013-.094.031-.181.063-.363.106-.544a6.837,6.837,0,0,1,.275-.926c.031-.075.056-.156.094-.232-.081.194.025-.056.038-.081.081-.175.169-.344.263-.513a8.129,8.129,0,0,1,.538-.826c-.106.144,0,0,.031-.038s.088-.106.131-.156c.125-.144.257-.288.388-.419.113-.113.238-.225.357-.338.063-.056.125-.106.188-.156.019-.013.231-.181.069-.056a7.5,7.5,0,0,1,.895-.576,4.09,4.09,0,0,1,.369-.188c.075-.038.15-.069.225-.1-.194.088.063-.025.081-.031a6.7,6.7,0,0,1,1.045-.313c.169-.038.332-.069.5-.094-.213.038.069-.006.094-.013.088-.006.175-.019.256-.025a7.188,7.188,0,0,1,1.1.006,6.605,6.605,0,0,1,4.048,1.9c.15.15.288.3.425.463.006.006.194.238.075.094.075.094.144.194.213.294a9,9,0,0,1,.626,1.095,6.575,6.575,0,0,1,.544,2.64.938.938,0,1,0,1.877,0,8.4,8.4,0,1,0-7.639,8.358,8.592,8.592,0,0,0,4.792-2.065,8.331,8.331,0,0,0,2.684-4.68,8.764,8.764,0,0,0,.156-1.614.945.945,0,0,0-.938-.938A.961.961,0,0,0,150.6,386.256Z" transform="translate(-135.69 -377.864)" fill="#7a69d4"/>
      </g>
    </g>
    <g id="Group_67968" data-name="Group 67968" transform="translate(42.505 136.536)">
      <path id="Path_47847" data-name="Path 47847" d="M649.921,676.057a7.462,7.462,0,1,1-7.464-7.457A7.456,7.456,0,0,1,649.921,676.057Z" transform="translate(-634.06 -667.665)" fill="#7a69d4"/>
      <g id="Group_67967" data-name="Group 67967">
        <path id="Path_47848" data-name="Path 47848" d="M634.893,662.045q0,.263-.019.526c-.006.088-.013.175-.025.256a.939.939,0,0,0-.012.131c-.019.15.025-.144,0,.006a7.83,7.83,0,0,1-.25,1.07c-.05.163-.106.319-.169.475-.013.038-.031.075-.044.119.006-.013.056-.131.013-.031s-.081.175-.125.263a7.8,7.8,0,0,1-.513.888,2.332,2.332,0,0,1-.144.2c-.025.031-.05.069-.075.1.006-.013.088-.113.019-.025-.113.138-.225.275-.344.407a7.716,7.716,0,0,1-.769.732c-.044.038-.194.15-.069.056-.069.05-.131.1-.2.144-.144.1-.294.2-.45.288s-.288.163-.432.238c-.075.038-.15.075-.225.106-.05.025-.275.119-.119.056a7.118,7.118,0,0,1-.995.325c-.175.044-.357.081-.538.113-.062.013-.256.038-.088.019-.1.013-.2.025-.3.031a8,8,0,0,1-1.095.019c-.175-.013-.344-.025-.519-.05.163.019-.031-.006-.088-.019l-.294-.056a7.762,7.762,0,0,1-1.007-.294c-.031-.013-.275-.113-.2-.075s-.119-.056-.15-.069c-.163-.075-.319-.156-.475-.244s-.281-.169-.419-.257c-.069-.044-.138-.094-.206-.138a.966.966,0,0,0-.1-.069c-.013-.012-.15-.113-.069-.05s-.1-.081-.131-.106c-.063-.05-.125-.106-.188-.163-.131-.119-.263-.238-.388-.369s-.225-.238-.332-.363c-.056-.063-.106-.125-.156-.188-.113-.138-.025-.031-.006-.006l-.094-.131a6.987,6.987,0,0,1-.538-.876c-.075-.144-.15-.294-.219-.444-.044-.1.006.019.013.031a.674.674,0,0,1-.044-.119c-.038-.094-.069-.181-.1-.275a6.99,6.99,0,0,1-.269-1.02c-.019-.081-.031-.169-.044-.25-.019-.113,0,.019.006.038l-.019-.169q-.028-.281-.038-.563c-.006-.2-.006-.407.006-.607a5.1,5.1,0,0,1,.056-.569,7.713,7.713,0,0,1,.332-1.295,4.467,4.467,0,0,1,.188-.457,6.57,6.57,0,0,1,.313-.588c.1-.169.206-.332.319-.494.05-.075.106-.144.156-.219s0,0-.006.013c.037-.044.075-.094.113-.138a6.759,6.759,0,0,1,.782-.8c.069-.056.138-.119.206-.175l.106-.088c-.013.013-.1.075-.013.013.156-.113.319-.225.482-.332s.313-.188.469-.269c.081-.044.163-.081.244-.125.044-.019.332-.15.194-.094a7.426,7.426,0,0,1,1.095-.35c.181-.044.363-.075.551-.106.113-.019.006,0-.019,0l.144-.019c.113-.012.219-.019.332-.031a7.7,7.7,0,0,1,1.139.012c.088.006.169.019.257.025.113.013-.019,0-.038-.006l.125.019c.194.031.388.075.582.125a8.012,8.012,0,0,1,.995.325c-.15-.063.025.012.081.037.075.038.15.069.225.106.163.081.319.169.469.257a4.665,4.665,0,0,1,.413.269c.069.044.131.094.2.144.088.063-.013-.012-.025-.025.044.031.088.069.125.1a7.09,7.09,0,0,1,.77.732c.113.119.213.244.319.375s-.05-.075.05.069c.056.081.113.156.163.238a6.958,6.958,0,0,1,.513.888c.038.075.069.15.106.225.075.163-.025-.088.038.081s.125.338.181.513a7.826,7.826,0,0,1,.25,1.07c.019.113,0-.019-.006-.038a.939.939,0,0,1,.012.131c.013.088.019.175.025.257.019.2.019.388.025.582a.938.938,0,0,0,1.877,0,8.4,8.4,0,1,0-16.8.175,8.359,8.359,0,0,0,1.539,4.673,8.389,8.389,0,0,0,15.133-3.472,10.121,10.121,0,0,0,.119-1.376.935.935,0,1,0-1.871,0Z" transform="translate(-619.97 -653.653)" fill="#7a69d4"/>
      </g>
    </g>
    <g id="Group_67970" data-name="Group 67970" transform="translate(25.826 112.865)">
      <g id="Group_67969" data-name="Group 67969" transform="translate(0 0)">
        <path id="Path_47849" data-name="Path 47849" d="M355.249,287.477q2.928-1.67,5.862-3.341,4.673-2.656,9.34-5.318l2.133-1.214a1.253,1.253,0,0,0-1.264-2.165q-2.928,1.67-5.862,3.341-4.673,2.656-9.34,5.318l-2.133,1.214a1.269,1.269,0,0,0-.45,1.714,1.282,1.282,0,0,0,1.714.45Z" transform="translate(-353.364 -275.276)" fill="#7a69d4"/>
      </g>
    </g>
    <g id="Group_67972" data-name="Group 67972" transform="translate(25.846 130.122)">
      <g id="Group_67971" data-name="Group 67971">
        <path id="Path_47850" data-name="Path 47850" d="M372.9,561.156q-2.928-1.67-5.862-3.341-4.673-2.656-9.34-5.318l-2.133-1.214a1.253,1.253,0,0,0-1.264,2.165q2.928,1.67,5.862,3.341,4.673,2.656,9.34,5.318l2.133,1.214a1.253,1.253,0,1,0,1.264-2.165Z" transform="translate(-353.689 -551.122)" fill="#7a69d4"/>
      </g>
    </g>
  </g>
</svg>
