<svg xmlns="http://www.w3.org/2000/svg" width="27.584" height="27.584" viewBox="0 0 27.584 27.584">
  <g id="noun_dashboard_3052999" transform="translate(0.5 0.5)">
    <g id="Group_67912" data-name="Group 67912" transform="translate(0 0)">
      <path id="Path_47572" data-name="Path 47572" d="M3.319,2.117A3.333,3.333,0,0,0,0,5.436v5.537A3.343,3.343,0,0,0,3.319,14.3H8.864a3.343,3.343,0,0,0,3.319-3.33V5.436A3.333,3.333,0,0,0,8.864,2.117Zm14.4,0A3.333,3.333,0,0,0,14.4,5.436v5.537A3.343,3.343,0,0,0,17.72,14.3h5.545a3.343,3.343,0,0,0,3.319-3.33V5.436a3.333,3.333,0,0,0-3.319-3.319ZM3.319,4.332H8.864a1.075,1.075,0,0,1,1.1,1.1v5.537a1.082,1.082,0,0,1-1.1,1.112H3.319a1.082,1.082,0,0,1-1.1-1.112V5.436a1.075,1.075,0,0,1,1.1-1.1Zm14.4,0h5.545a1.075,1.075,0,0,1,1.1,1.1v5.537a1.082,1.082,0,0,1-1.1,1.112H17.72a1.082,1.082,0,0,1-1.1-1.112V5.436a1.075,1.075,0,0,1,1.1-1.1ZM3.319,16.518A3.333,3.333,0,0,0,0,19.837v5.545A3.333,3.333,0,0,0,3.319,28.7H8.864a3.333,3.333,0,0,0,3.319-3.319V19.837a3.333,3.333,0,0,0-3.319-3.319Zm14.4,0A3.333,3.333,0,0,0,14.4,19.837v5.545A3.333,3.333,0,0,0,17.72,28.7h5.545a3.333,3.333,0,0,0,3.319-3.319V19.837a3.333,3.333,0,0,0-3.319-3.319Zm-14.4,2.216H8.864a1.075,1.075,0,0,1,1.1,1.1v5.545a1.075,1.075,0,0,1-1.1,1.1H3.319a1.075,1.075,0,0,1-1.1-1.1V19.837a1.075,1.075,0,0,1,1.1-1.1Zm14.4,0h5.545a1.075,1.075,0,0,1,1.1,1.1v5.545a1.075,1.075,0,0,1-1.1,1.1H17.72a1.075,1.075,0,0,1-1.1-1.1V19.837a1.075,1.075,0,0,1,1.1-1.1Z" transform="translate(0 -2.117)" stroke="#fff" stroke-width="1"/>
    </g>
  </g>
</svg>
