<svg xmlns="http://www.w3.org/2000/svg" width="29.651" height="51.296" viewBox="0 0 29.651 51.296">
  <g id="noun_send_3749025" transform="translate(-26.3 -9)">
    <g id="Group_67974" data-name="Group 67974" transform="translate(26.3 9)">
      <path id="Path_47853" data-name="Path 47853" d="M53.505,9H28.746A2.451,2.451,0,0,0,26.3,11.452V57.843A2.451,2.451,0,0,0,28.746,60.3h24.76a2.451,2.451,0,0,0,2.446-2.452V11.452A2.451,2.451,0,0,0,53.505,9ZM41.126,57.668a1.639,1.639,0,1,1,1.639-1.639A1.637,1.637,0,0,1,41.126,57.668ZM27.551,14.311H54.7V51.744H27.551Z" transform="translate(-26.3 -9)" fill="#7a69d4"/>
      <path id="Path_47854" data-name="Path 47854" d="M35.59,43.265,42.1,46.2,52.286,39.43Z" transform="translate(-29.779 -20.394)" fill="#7a69d4"/>
      <path id="Path_47855" data-name="Path 47855" d="M46.346,46.847l-.106,7.106L56.474,40.11Z" transform="translate(-33.766 -20.649)" fill="#7a69d4"/>
    </g>
  </g>
</svg>
