<svg xmlns="http://www.w3.org/2000/svg" width="43.549" height="51.296" viewBox="0 0 43.549 51.296">
  <g id="noun_device_1050072" transform="translate(-10.687 -3.694)">
    <path id="Path_48860" data-name="Path 48860" d="M70.186,27.131H53.227a2.094,2.094,0,0,0-2.094,2.094V63.351a2.094,2.094,0,0,0,2.094,2.094H70.186a2.093,2.093,0,0,0,2.094-2.094V29.225A2.093,2.093,0,0,0,70.186,27.131Zm-11.9,1.4h6.839a.454.454,0,0,1,0,.908H58.287a.454.454,0,0,1,0-.908Zm3.419,36.209a1.081,1.081,0,1,1,1.082-1.081A1.081,1.081,0,0,1,61.706,64.735Zm8.724-2.954H52.982V30.795H70.43Z" transform="translate(-18.044 -10.456)" fill="#7a69d4"/>
    <path id="Path_48861" data-name="Path 48861" d="M32.043,52.9V49.754H13.165V8.929H44.849v6.7h2.478V6.207a2.513,2.513,0,0,0-2.512-2.513H13.2a2.513,2.513,0,0,0-2.512,2.513v46.27A2.513,2.513,0,0,0,13.2,54.989H32.849A3.123,3.123,0,0,1,32.043,52.9ZM23.825,5.474H34.189a.628.628,0,1,1,0,1.256H23.825a.628.628,0,1,1,0-1.256Zm5.182,48.433a1.5,1.5,0,1,1,1.5-1.5A1.5,1.5,0,0,1,29.007,53.907Z" fill="#7a69d4"/>
  </g>
</svg>
