<svg xmlns="http://www.w3.org/2000/svg" width="52.09" height="51.296" viewBox="0 0 52.09 51.296">
  <g id="noun_storage_1867267" transform="translate(-1.5 -2)">
    <g id="Group_68112" data-name="Group 68112" transform="translate(1.5 2)">
      <path id="Path_49120" data-name="Path 49120" d="M47.666,17.027a7.535,7.535,0,0,0-5.78-6.864A9.13,9.13,0,0,0,25.7,5.4a12.716,12.716,0,0,0-5.635-1.373A12.411,12.411,0,0,0,7.713,16.449v.506A7.575,7.575,0,0,0,9.086,31.983H12.7v-11.7H42.392V32.055H46a7.585,7.585,0,0,0,7.586-7.586A7.805,7.805,0,0,0,47.666,17.027Z" transform="translate(-1.5 -2)" fill="#7a69d4"/>
      <path id="Path_49121" data-name="Path 49121" d="M18.9,39.2H45.7V29.3H18.9ZM40.719,33.49h1.445v1.445H40.719ZM29.376,32.334h1.445v3.829H29.376Zm-3.4,0h1.445v3.829H25.98Zm-3.468,0h1.445v3.829H22.512Z" transform="translate(-6.329 -9.576)" fill="#7a69d4"/>
      <rect id="Rectangle_3137" data-name="Rectangle 3137" width="1.445" height="1.445" transform="translate(44.938 37.135)" fill="#7a69d4"/>
      <rect id="Rectangle_3138" data-name="Rectangle 3138" width="1.445" height="1.445" transform="translate(44.938 40.386)" fill="#7a69d4"/>
      <rect id="Rectangle_3139" data-name="Rectangle 3139" width="1.445" height="1.445" transform="translate(44.938 43.71)" fill="#7a69d4"/>
      <rect id="Rectangle_3140" data-name="Rectangle 3140" width="1.445" height="1.445" transform="translate(44.938 46.961)" fill="#7a69d4"/>
      <rect id="Rectangle_3141" data-name="Rectangle 3141" width="1.445" height="1.445" transform="translate(5.563 37.135)" fill="#7a69d4"/>
      <rect id="Rectangle_3142" data-name="Rectangle 3142" width="1.445" height="1.445" transform="translate(5.563 40.386)" fill="#7a69d4"/>
      <rect id="Rectangle_3143" data-name="Rectangle 3143" width="1.445" height="1.445" transform="translate(5.563 43.71)" fill="#7a69d4"/>
      <rect id="Rectangle_3144" data-name="Rectangle 3144" width="1.445" height="1.445" transform="translate(5.563 46.961)" fill="#7a69d4"/>
      <path id="Path_49122" data-name="Path 49122" d="M18.9,69.2H45.7V59.3H18.9ZM40.719,63.49h1.445v1.445H40.719ZM29.376,62.334h1.445v3.829H29.376Zm-3.4,0h1.445v3.829H25.98Zm-3.468,0h1.445v3.829H22.512Z" transform="translate(-6.329 -17.902)" fill="#7a69d4"/>
      <path id="Path_49123" data-name="Path 49123" d="M18.9,53.886H45.7V45H18.9Zm21.819-5.2h1.445V50.13H40.719ZM29.376,47.529h1.445v3.829H29.376Zm-3.4,0h1.445v3.829H25.98Zm-3.468,0h1.445v3.829H22.512Z" transform="translate(-6.329 -13.934)" fill="#7a69d4"/>
    </g>
  </g>
</svg>
