<svg id="SvgjsSvg1194" width="4145" height="5000" xmlns="http://www.w3.org/2000/svg" version="1.1" xmlns:xlink="http://www.w3.org/1999/xlink" xmlns:svgjs="http://svgjs.com/svgjs" viewBox="0 0 46 55.47916793823242"><defs id="SvgjsDefs1195"></defs><g id="SvgjsG1197" transform="rotate(0 23 19.40625)"><svg width="46" viewBox="0 0 66 55.70000076293945" xmlns="http://www.w3.org/2000/svg" version="1.1" xmlns:xlink="http://www.w3.org/1999/xlink" xmlns:svgjs="http://svgjs.com/svgjs" preserveAspectRatio="none" height="38.8125" x="0" y="0"><g><svg data-color="1" xmlns="http://www.w3.org/2000/svg" xmlns:xlink="http://www.w3.org/1999/xlink" version="1.1" x="0px" y="0px" viewBox="17 23.200000762939453 66 55.70000076293945" style="enable-background:new 0 0 100 100;" xml:space="preserve" width="66" height="55.70000076293945" fill="#3c4adb"><g><g><path d="M77.6,23.2H62.4c-3,0-6.4,1.5-8,5.3c0,0-0.7,2.8-5.4,3.3H22.4c-3,0-5.4,2.3-5.4,5.2v36.6c0,2.9,2.4,5.3,5.4,5.3h55.2    c3,0,5.4-2.4,5.4-5.3v-45C83,25.6,80.6,23.2,77.6,23.2z M63.7,57.2c0,1.6,0,2.6,0,2.6h-11v10.8c0,0-1,0-2.7,0c-1.7,0-2.7,0-2.7,0    V59.8h-11c0,0,0-0.9,0-2.6c0-1.6,0-2.6,0-2.6h11V43.8c0,0,1,0,2.7,0c1.7,0,2.7,0,2.7,0v10.8h11C63.7,54.6,63.7,55.5,63.7,57.2z"></path></g></g></svg></g><defs id="SvgjsDefs1196"></defs></svg></g><g id="SvgjsG1199" transform="rotate(0 22.500001430511475 47.65625)"><svg xmlns="http://www.w3.org/2000/svg" xmlns:xlink="http://www.w3.org/1999/xlink" width="44.020835876464844" viewBox="0.10000000149011612 3.5399999618530273 44.03000259399414 10.319999694824219" overflow="visible" style="overflow: visible;" transform="" version="1.1" xmlns:svgjs="http://svgjs.com/svgjs" preserveAspectRatio="none" height="10.3125" x="0.48958349227905273" y="42.5" fill="#000000" stroke="none"><path stroke="none" fill="#3c4adb" d="M7.41 13.45L7.41 13.45L7.55 13.45L7.56 13.59L3.60 13.59L3.60 13.45L3.75 13.45L3.75 13.45Q4.06 13.45 4.28 13.24L4.28 13.24L4.28 13.24Q4.51 13.03 4.52 12.73L4.52 12.73L4.52 10.63L0.10 10.63L0.10 10.49L6.50 3.60L6.62 3.60L6.62 9.42L7.24 9.42L7.24 9.42Q7.60 9.42 7.78 9.32L7.78 9.32L7.78 9.32Q7.95 9.21 8.09 8.97L8.09 8.97L8.23 8.97L7.84 10.63L6.62 10.63L6.62 12.71L6.62 12.71Q6.64 13.02 6.86 13.24L6.86 13.24L6.86 13.24Q7.08 13.45 7.41 13.45ZM1.95 9.42L4.52 9.42L4.52 6.66L1.95 9.42ZM14.83 4.40L12.43 4.40L12.43 8.47L14.28 8.47L14.28 8.47Q14.80 8.46 15.13 8.12L15.13 8.12L15.13 8.12Q15.47 7.78 15.47 7.27L15.47 7.27L15.47 7.14L15.61 7.14L15.61 10.37L15.47 10.37L15.47 10.26L15.47 10.26Q15.47 9.74 15.14 9.41L15.14 9.41L15.14 9.41Q14.81 9.07 14.31 9.06L14.31 9.06L12.43 9.06L12.43 12.57L12.43 12.57Q12.43 12.94 12.70 13.20L12.70 13.20L12.70 13.20Q12.96 13.45 13.33 13.45L13.33 13.45L13.50 13.45L13.51 13.59L9.25 13.59L9.25 13.45L9.44 13.45L9.44 13.45Q9.80 13.45 10.06 13.20L10.06 13.20L10.06 13.20Q10.32 12.94 10.33 12.57L10.33 12.57L10.33 4.77L10.33 4.77Q10.33 4.28 9.87 4.05L9.87 4.05L9.87 4.05Q9.67 3.93 9.44 3.93L9.44 3.93L9.25 3.93L9.25 3.79L14.62 3.79L14.62 3.79Q15.05 3.79 15.57 3.71L15.57 3.71L15.57 3.71Q16.09 3.63 16.30 3.54L16.30 3.54L16.30 5.91L16.16 5.91L16.16 5.77L16.16 5.77Q16.16 5.15 15.80 4.78L15.80 4.78L15.80 4.78Q15.44 4.41 14.83 4.40L14.83 4.40ZM17.25 13.59L17.25 13.45L17.42 13.45L17.42 13.45Q17.75 13.45 17.99 13.24L17.99 13.24L17.99 13.24Q18.23 13.02 18.23 12.71L18.23 12.71L18.23 6.08L18.23 6.08Q18.23 5.77 17.99 5.55L17.99 5.55L17.99 5.55Q17.75 5.33 17.42 5.33L17.42 5.33L17.25 5.33L17.25 5.19L21.22 5.19L21.22 5.33L21.06 5.33L21.06 5.33Q20.73 5.33 20.50 5.54L20.50 5.54L20.50 5.54Q20.26 5.75 20.24 6.06L20.24 6.06L20.24 12.71L20.24 12.71Q20.26 13.03 20.50 13.24L20.50 13.24L20.50 13.24Q20.73 13.45 21.06 13.45L21.06 13.45L21.22 13.45L21.22 13.59L17.25 13.59ZM33.71 13.45L33.71 13.45L33.91 13.45L33.91 13.59L30.02 13.59L30.02 13.45L30.21 13.45L30.21 13.45Q30.48 13.45 30.60 13.27L30.60 13.27L30.60 13.27Q30.72 13.09 30.69 12.89L30.69 12.89L30.14 8.89L27.92 12.43L27.92 12.43Q27.41 13.23 27.41 13.86L27.41 13.86L27.29 13.86L24.05 8.96L23.58 12.89L23.58 12.89Q23.55 13.09 23.67 13.27L23.67 13.27L23.67 13.27Q23.80 13.45 24.05 13.45L24.05 13.45L24.25 13.45L24.25 13.59L21.59 13.59L21.59 13.45L21.78 13.45L21.78 13.45Q22.13 13.45 22.39 13.25L22.39 13.25L22.39 13.25Q22.65 13.05 22.69 12.70L22.69 12.70L23.79 5.01L23.90 5.01L27.86 10.93L31.57 5.01L31.70 5.01L32.82 12.77L32.82 12.77Q32.89 13.09 33.14 13.27L33.14 13.27L33.14 13.27Q33.39 13.45 33.71 13.45ZM34.22 9.39L34.22 9.39L34.22 9.39Q34.22 7.38 35.57 6.19L35.57 6.19L35.57 6.19Q36.92 5.01 39.17 5.01L39.17 5.01L39.17 5.01Q41.41 5.01 42.77 6.19L42.77 6.19L42.77 6.19Q44.13 7.38 44.13 9.39L44.13 9.39L44.13 9.39Q44.13 11.41 42.77 12.59L42.77 12.59L42.77 12.59Q41.41 13.78 39.17 13.78L39.17 13.78L39.17 13.78Q36.93 13.78 35.57 12.59L35.57 12.59L35.57 12.59Q34.22 11.41 34.22 9.39ZM36.36 9.39L36.36 9.39L36.36 9.39Q36.36 11.16 37.12 12.19L37.12 12.19L37.12 12.19Q37.88 13.22 39.17 13.22L39.17 13.22L39.17 13.22Q40.45 13.22 41.21 12.19L41.21 12.19L41.21 12.19Q41.97 11.16 41.97 9.39L41.97 9.39L41.97 9.39Q41.97 7.63 41.21 6.60L41.21 6.60L41.21 6.60Q40.45 5.57 39.17 5.57L39.17 5.57L39.17 5.57Q37.88 5.57 37.12 6.60L37.12 6.60L37.12 6.60Q36.36 7.63 36.36 9.39Z" transform="rotate(0 22.115001298487186 8.699999809265137)"></path><defs id="SvgjsDefs1198"></defs></svg></g></svg>