<svg xmlns="http://www.w3.org/2000/svg" width="66.147" height="70.44" viewBox="0 0 66.147 70.44">
  <g id="phone-web-ico" transform="translate(-157 -2288)">
    <path id="blob" d="M-9.291-54.609c5.223,11.6,5.8,23.19.94,31.7C-13.261-14.392-23.6-9.064-34.779-8.594s-23.086-4.022-30.032-13.684c-6.894-9.663-8.722-24.5-2.768-36.561C-61.626-70.853-47.785-80.1-36.033-78.9-24.229-77.747-14.462-66.2-9.291-54.609Z" transform="translate(228.167 2367.001)" fill="#7a69d4"/>
    <g id="img_consult_mange" transform="translate(169 2307)">
      <g id="video" transform="translate(12)">
        <path id="Combined_Shape" data-name="Combined Shape" d="M3.075,33.328A3.026,3.026,0,0,1,0,30.353V3.174A3.126,3.126,0,0,1,3.075,0h12.3a3.126,3.126,0,0,1,3.075,3.174V30.353a3.026,3.026,0,0,1-3.075,2.975Zm14.184-5.356V4.761H1.19V27.972Z" transform="translate(0)" fill="#fff"/>
        <path id="Path" d="M2.306,1.116A1.135,1.135,0,0,0,1.153,0,1.135,1.135,0,0,0,0,1.116,1.135,1.135,0,0,0,1.153,2.232,1.135,1.135,0,0,0,2.306,1.116Z" transform="translate(8.072 29.534)" fill="#fff"/>
      </g>
    </g>
  </g>
</svg>
