<svg id="Icon" xmlns="http://www.w3.org/2000/svg" width="20" height="20" viewBox="0 0 20 20">
  <g id="ic_search_normal">
    <path id="Fill" d="M18.948,20a1.041,1.041,0,0,1-.751-.305l-3.054-3.042a9.406,9.406,0,1,1,1.5-1.484L19.688,18.2a1.065,1.065,0,0,1,.011,1.495A1.092,1.092,0,0,1,18.948,20ZM9.363,2.105a7.221,7.221,0,1,0,7.25,7.222A7.244,7.244,0,0,0,9.363,2.105Zm4.5,7.292a1,1,0,0,1-.969-.756,3.513,3.513,0,0,0-2.707-2.574,1,1,0,1,1,.391-1.961,5.521,5.521,0,0,1,4.256,4.046,1,1,0,0,1-.725,1.214A1,1,0,0,1,13.863,9.4Z" fill="#9393aa"/>
  </g>
</svg>
