<svg width="76" height="94" viewBox="0 0 76 94" fill="none" xmlns="http://www.w3.org/2000/svg">
<g clip-path="url(#clip0)">
<path d="M5.35315 68.596L46.6332 92.396L58.1132 85.776L16.8332 61.966L5.35315 68.596ZM46.6332 93.306L46.4432 93.236L3.7832 68.646L16.7832 61.116L16.9732 61.226L59.6232 85.826L46.6232 93.356L46.6332 93.306Z" fill="#42438A" stroke="#DBE2F9" stroke-width="0.8" stroke-linecap="round" stroke-linejoin="round"/>
<path d="M22.2332 72.036C22.1298 72.036 22.0306 71.9949 21.9575 71.9218C21.8843 71.8486 21.8433 71.7494 21.8433 71.646V49.646C21.858 49.5545 21.9049 49.4713 21.9754 49.4113C22.0459 49.3512 22.1356 49.3183 22.2282 49.3183C22.3209 49.3183 22.4105 49.3512 22.481 49.4113C22.5516 49.4713 22.5984 49.5545 22.6132 49.646V71.646C22.6133 71.7477 22.5736 71.8454 22.5026 71.9183C22.4316 71.9912 22.3349 72.0334 22.2332 72.036Z" fill="#434088" stroke="#42438A" stroke-width="0.8" stroke-linecap="round" stroke-linejoin="round"/>
<path d="M24.1732 56.996H20.3032V48.486H24.1732V56.996Z" fill="#7993CC" stroke="#42438A" stroke-width="0.8" stroke-linecap="round" stroke-linejoin="round"/>
<path d="M24.0231 56.486C24.0096 56.6546 23.9502 56.8164 23.8516 56.9538C23.7529 57.0913 23.6186 57.1992 23.4631 57.266C23.0444 57.477 22.582 57.5869 22.1131 57.5869C21.6442 57.5869 21.1819 57.477 20.7631 57.266C20.6019 57.199 20.4634 57.0869 20.3641 56.9433C20.2648 56.7996 20.2089 56.6305 20.2031 56.456" fill="#7993CC"/>
<path d="M24.0231 56.486C24.0096 56.6546 23.9502 56.8164 23.8516 56.9538C23.7529 57.0913 23.6186 57.1992 23.4631 57.266C23.0444 57.477 22.582 57.5869 22.1131 57.5869C21.6442 57.5869 21.1819 57.477 20.7631 57.266C20.6019 57.199 20.4634 57.0869 20.3641 56.9433C20.2648 56.7996 20.2089 56.6305 20.2031 56.456" stroke="#42438A" stroke-width="0.8" stroke-linecap="round" stroke-linejoin="round"/>
<path d="M24.9434 50.026H18.7534V36.866H24.9434V50.026Z" fill="#7993CC" stroke="#42438A" stroke-width="0.8" stroke-linecap="round" stroke-linejoin="round"/>
<path d="M20.293 49.566V52.396C20.9057 52.6531 21.5635 52.7856 22.228 52.7856C22.8924 52.7856 23.5503 52.6531 24.163 52.396V49.566C23.5503 49.3089 22.8924 49.1764 22.228 49.1764C21.5635 49.1764 20.9057 49.3089 20.293 49.566Z" fill="#434088" stroke="#42438A" stroke-width="0.8" stroke-linecap="round" stroke-linejoin="round"/>
<path d="M21.1332 47.9659C22.2092 47.7497 23.3267 47.9048 24.3032 48.406C24.5656 48.4976 24.793 48.6687 24.9539 48.8953C25.1147 49.122 25.2012 49.393 25.2012 49.671C25.2012 49.9489 25.1147 50.22 24.9539 50.4466C24.793 50.6732 24.5656 50.8443 24.3032 50.936C23.6247 51.2811 22.8743 51.461 22.1132 51.461C21.352 51.461 20.6016 51.2811 19.9232 50.936C19.6643 50.8243 19.4419 50.6425 19.2811 50.411C19.1202 50.1794 19.0275 49.9075 19.0132 49.626" fill="#7993CC"/>
<path d="M21.1332 47.9659C22.2092 47.7497 23.3267 47.9048 24.3032 48.406C24.5656 48.4976 24.793 48.6687 24.9539 48.8953C25.1147 49.122 25.2012 49.393 25.2012 49.671C25.2012 49.9489 25.1147 50.22 24.9539 50.4466C24.793 50.6732 24.5656 50.8443 24.3032 50.936V50.936C23.6247 51.2811 22.8743 51.461 22.1132 51.461C21.352 51.461 20.6016 51.2811 19.9232 50.936C19.6643 50.8243 19.4419 50.6425 19.2811 50.411C19.1202 50.1794 19.0275 49.9075 19.0132 49.626" stroke="#42438A" stroke-width="0.8" stroke-linecap="round" stroke-linejoin="round"/>
<path d="M43.913 84.126C43.8096 84.126 43.7104 84.0849 43.6373 84.0117C43.5641 83.9386 43.5231 83.8394 43.5231 83.736V61.736C43.514 61.6802 43.5173 61.6232 43.5325 61.5688C43.5477 61.5144 43.5745 61.4639 43.6111 61.4209C43.6477 61.3779 43.6932 61.3434 43.7445 61.3197C43.7958 61.296 43.8516 61.2837 43.9081 61.2837C43.9646 61.2837 44.0203 61.296 44.0716 61.3197C44.1229 61.3434 44.1684 61.3779 44.205 61.4209C44.2416 61.4639 44.2685 61.5144 44.2837 61.5688C44.2989 61.6232 44.302 61.6802 44.293 61.736V83.736C44.2931 83.8377 44.2534 83.9354 44.1824 84.0083C44.1114 84.0811 44.0147 84.1234 43.913 84.126Z" fill="#434088" stroke="#42438A" stroke-width="0.8" stroke-linecap="round" stroke-linejoin="round"/>
<path d="M45.8531 68.616H41.9731V60.096H45.8531V68.616Z" fill="#7993CC" stroke="#42438A" stroke-width="0.8" stroke-linecap="round" stroke-linejoin="round"/>
<path d="M42.0634 67.916C41.5034 68.356 41.5634 68.966 42.2434 69.356C42.6635 69.5686 43.1277 69.6794 43.5985 69.6794C44.0693 69.6794 44.5334 69.5686 44.9535 69.356C45.1111 69.2867 45.2467 69.1755 45.3455 69.0344C45.4442 68.8933 45.5023 68.7278 45.5135 68.556L45.9434 67.736" fill="#7993CC"/>
<path d="M42.0634 67.916C41.5034 68.356 41.5634 68.966 42.2434 69.356C42.6635 69.5686 43.1277 69.6794 43.5985 69.6794C44.0693 69.6794 44.5334 69.5686 44.9535 69.356C45.1111 69.2867 45.2467 69.1755 45.3455 69.0344C45.4442 68.8933 45.5023 68.7278 45.5135 68.556L45.9434 67.736" stroke="#42438A" stroke-width="0.8" stroke-linecap="round" stroke-linejoin="round"/>
<path d="M46.6231 61.646H40.4331V48.486H46.6231V61.646Z" fill="#7993CC" stroke="#42438A" stroke-width="0.8" stroke-linecap="round" stroke-linejoin="round"/>
<path d="M41.9731 61.656V64.486C42.5858 64.7431 43.2437 64.8756 43.9081 64.8756C44.5726 64.8756 45.2304 64.7431 45.8431 64.486V61.656C45.2304 61.3988 44.5726 61.2664 43.9081 61.2664C43.2437 61.2664 42.5858 61.3988 41.9731 61.656Z" fill="#434088" stroke="#42438A" stroke-width="0.8" stroke-linecap="round" stroke-linejoin="round"/>
<path d="M42.0533 60.236C43.2893 59.835 44.6338 59.9392 45.7933 60.526C46.0557 60.6176 46.2831 60.7887 46.444 61.0153C46.6049 61.242 46.6913 61.513 46.6913 61.791C46.6913 62.0689 46.6049 62.34 46.444 62.5667C46.2831 62.7933 46.0557 62.9643 45.7933 63.056C45.1131 63.4012 44.3611 63.5811 43.5983 63.5811C42.8355 63.5811 42.0835 63.4012 41.4033 63.056C41.1219 62.9407 40.8842 62.7392 40.7244 62.4806C40.5645 62.2219 40.4906 61.9192 40.5133 61.616" fill="#7993CC"/>
<path d="M42.0533 60.236C43.2893 59.835 44.6338 59.9392 45.7933 60.526C46.0557 60.6176 46.2831 60.7887 46.444 61.0153C46.6049 61.242 46.6913 61.513 46.6913 61.791C46.6913 62.0689 46.6049 62.34 46.444 62.5667C46.2831 62.7933 46.0557 62.9643 45.7933 63.056V63.056C45.1131 63.4012 44.3611 63.5811 43.5983 63.5811C42.8355 63.5811 42.0835 63.4012 41.4033 63.056C41.1219 62.9407 40.8842 62.7392 40.7244 62.4806C40.5645 62.2219 40.4906 61.9192 40.5133 61.616" stroke="#42438A" stroke-width="0.8" stroke-linecap="round" stroke-linejoin="round"/>
<path d="M64.4932 70.296L72.8132 65.396L64.8832 55.516L62.8032 58.916L64.4932 70.296Z" fill="#7993CC" stroke="#42438A" stroke-width="0.8" stroke-linecap="round" stroke-linejoin="round"/>
<path d="M4.09326 16.036L17.3733 8.40601L16.8733 16.036L9.25326 18.396L4.09326 16.036Z" fill="#7993CC" stroke="#42438A" stroke-width="0.8" stroke-linecap="round" stroke-linejoin="round"/>
<path d="M66.8033 45.436C71.4433 48.116 75.2034 54.636 75.2034 59.996C75.2034 63.206 73.8534 65.276 71.7734 65.846L66.2433 68.906L64.9434 59.736" fill="#7993CC"/>
<path d="M66.8033 45.436C71.4433 48.116 75.2034 54.636 75.2034 59.996C75.2034 63.206 73.8534 65.276 71.7734 65.846L66.2433 68.906L64.9434 59.736" stroke="#42438A" stroke-width="0.8" stroke-linecap="round" stroke-linejoin="round"/>
<path d="M66.8033 45.436C65.9192 44.9108 64.9466 44.5515 63.9333 44.376C62.5933 37.376 57.6933 29.876 51.8633 26.506C50.3621 25.5856 48.6744 25.0117 46.9233 24.826C46.1233 16.306 40.1933 6.61596 32.9933 2.45596C29.2333 0.285956 25.8233 0.0359904 23.3033 1.36599L23.1733 1.436L22.9833 1.54598L15.1534 6.16598L17.7634 8.22598C15.4234 9.22598 13.9434 11.866 13.9434 15.736C13.9434 22.866 18.9434 31.546 25.1434 35.116L66.7933 64.856" fill="#7993CC"/>
<path d="M66.8033 45.436C65.9192 44.9108 64.9466 44.5515 63.9333 44.376C62.5933 37.376 57.6933 29.876 51.8633 26.506C50.3621 25.5856 48.6744 25.0117 46.9233 24.826C46.1233 16.306 40.1933 6.61596 32.9933 2.45596C29.2333 0.285956 25.8233 0.0359904 23.3033 1.36599L23.1733 1.436L22.9833 1.54598L15.1534 6.16598L17.7634 8.22598C15.4234 9.22598 13.9434 11.866 13.9434 15.736C13.9434 22.866 18.9434 31.546 25.1434 35.116L66.7933 64.856" stroke="#42438A" stroke-width="0.8" stroke-linecap="round" stroke-linejoin="round"/>
<path d="M14.3433 12.576L32.3433 2.08596C28.8533 0.265957 25.7033 0.0859866 23.3433 1.36599L23.2133 1.43599L23.0233 1.54598L15.1932 6.16597L17.8032 8.22597C16.9345 8.63964 16.1729 9.24834 15.578 10.0046C14.9831 10.7609 14.5708 11.6442 14.3732 12.586L14.3433 12.576Z" fill="#7993CC" stroke="#42438A" stroke-width="0.8" stroke-linecap="round" stroke-linejoin="round"/>
<path d="M47.5233 43.456L60.6332 35.766C58.5432 31.985 55.5251 28.7983 51.8632 26.506C51.4267 26.2505 50.976 26.0201 50.5132 25.816L33.8433 35.566L47.5233 43.456Z" fill="#7993CC" stroke="#42438A" stroke-width="0.8" stroke-linecap="round" stroke-linejoin="round"/>
<path d="M18.8633 7.01602L24.7033 10.386L35.4033 4.08597C34.6349 3.49273 33.8299 2.94832 32.9933 2.45596C31.825 1.76978 30.5707 1.24188 29.2633 0.886017L18.8633 7.01602Z" fill="#DBE2F9" stroke="#42438A" stroke-width="0.8" stroke-linecap="round" stroke-linejoin="round"/>
<path d="M59.1831 33.506L48.7231 39.666L52.3631 43.726L61.8631 38.116C61.1072 36.5035 60.2104 34.9608 59.1831 33.506Z" fill="#DBE2F9" stroke="#42438A" stroke-width="0.8" stroke-linecap="round" stroke-linejoin="round"/>
<path d="M58.5831 50.236C57.699 49.7108 56.7264 49.3516 55.7131 49.176C54.3731 42.176 49.4731 34.676 43.6431 31.306C42.1435 30.3839 40.4547 29.813 38.7031 29.636C37.9031 21.106 31.9731 11.416 24.7831 7.26604C17.0331 2.78604 10.7831 6.41601 10.7831 15.356C10.7831 15.656 10.7831 15.966 10.7831 16.266C5.12314 13.646 0.703125 16.606 0.703125 23.266C0.703125 30.406 5.70313 39.086 11.8931 42.656L58.5831 69.656C63.2231 72.336 66.9831 70.156 66.9831 64.796C66.9831 59.436 63.2231 52.916 58.5831 50.236Z" fill="#DBE2F9"/>
<path d="M58.5831 50.236C57.699 49.7108 56.7264 49.3516 55.7131 49.176C54.3731 42.176 49.4731 34.676 43.6431 31.306C42.1435 30.3839 40.4547 29.813 38.7031 29.636C37.9031 21.106 31.9731 11.416 24.7831 7.26604C17.0331 2.78604 10.7831 6.41601 10.7831 15.356C10.7831 15.656 10.7831 15.966 10.7831 16.266C5.12314 13.646 0.703125 16.606 0.703125 23.266C0.703125 30.406 5.70313 39.086 11.8931 42.656L58.5831 69.656C63.2231 72.336 66.9831 70.156 66.9831 64.796C66.9831 59.436 63.2231 52.916 58.5831 50.236" stroke="#42438A" stroke-width="0.8" stroke-linecap="round" stroke-linejoin="round"/>
<path d="M10.7832 16.306C10.7832 16.006 10.7832 15.696 10.7832 15.396C7.6532 14.176 4.9632 14.706 3.2832 16.656C5.1132 15.156 7.77316 14.946 10.8032 16.346L10.7832 16.306Z" fill="white" stroke="#42438A" stroke-width="0.8" stroke-linecap="round" stroke-linejoin="round"/>
<path d="M59.2633 49.616C58.3782 49.0909 57.4062 48.7285 56.3933 48.546C55.0533 41.546 50.1633 34.046 44.3233 30.676C42.8209 29.7597 41.1335 29.1893 39.3833 29.006C38.5933 20.476 32.6633 10.786 25.4633 6.63603C20.6433 3.84603 16.3833 4.20599 13.8633 7.03599C16.4333 4.83599 20.3633 4.75601 24.7833 7.30601C31.9733 11.456 37.9033 21.146 38.7033 29.676C40.4549 29.8529 42.1437 30.4238 43.6433 31.346C49.4433 34.716 54.3733 42.236 55.7133 49.236C56.7266 49.4115 57.6992 49.7708 58.5833 50.296C63.2233 52.976 66.9833 59.496 66.9833 64.856C67.0718 66.4567 66.5978 68.038 65.6433 69.326C66.9033 68.326 67.6433 66.606 67.6433 64.196C67.6433 58.836 63.8733 52.316 59.2333 49.636" fill="white"/>
<path d="M59.2633 49.616C58.3782 49.0909 57.4062 48.7285 56.3933 48.546C55.0533 41.546 50.1633 34.046 44.3233 30.676C42.8209 29.7597 41.1335 29.1893 39.3833 29.006C38.5933 20.476 32.6633 10.786 25.4633 6.63603C20.6433 3.84603 16.3833 4.20599 13.8633 7.03599C16.4333 4.83599 20.3633 4.75601 24.7833 7.30601C31.9733 11.456 37.9033 21.146 38.7033 29.676C40.4549 29.8529 42.1437 30.4238 43.6433 31.346C49.4433 34.716 54.3733 42.236 55.7133 49.236C56.7266 49.4115 57.6992 49.7708 58.5833 50.296C63.2233 52.976 66.9833 59.496 66.9833 64.856C67.0718 66.4567 66.5978 68.038 65.6433 69.326C66.9033 68.326 67.6433 66.606 67.6433 64.196C67.6433 58.836 63.8733 52.316 59.2333 49.636" stroke="#42438A" stroke-width="0.8" stroke-linecap="round" stroke-linejoin="round"/>
<path d="M9.79327 18.436L13.3033 20.066L13.1333 16.206C13.1333 15.926 13.1333 15.656 13.1333 15.396C13.1333 11.946 14.1333 9.44596 16.0633 8.39596C17.9933 7.34596 20.6433 7.64596 23.6233 9.39596C30.0533 13.106 35.6233 22.136 36.3833 29.946L36.5733 31.946L38.5733 32.106C39.9745 32.2609 41.3237 32.7255 42.5233 33.466C47.6233 36.466 52.2233 43.256 53.4533 49.746L53.7633 51.366L55.3933 51.626C56.1257 51.7555 56.8276 52.0199 57.4633 52.406C61.3833 54.666 64.6933 60.406 64.6933 64.926C64.6933 66.626 64.2233 67.866 63.4033 68.336C62.5833 68.806 61.2733 68.596 59.8033 67.746L13.1133 40.796C7.68328 37.656 3.11328 29.706 3.11328 23.436C3.11328 20.976 3.84328 19.106 5.11328 18.296C5.67679 17.9558 6.3252 17.7824 6.98328 17.796C7.98737 17.8324 8.97236 18.0812 9.87329 18.526" fill="#F4AF9A"/>
<path d="M33.4631 47.696L34.3331 47.076L32.6831 46.166L33.4631 47.696Z" fill="#5C71C4" stroke="#42438A" stroke-width="0.8" stroke-linecap="round" stroke-linejoin="round"/>
<path d="M29.4033 31.446L30.6033 30.456L30.6233 30.676L29.4033 31.446Z" fill="#5793CE" stroke="#42438A" stroke-width="0.8" stroke-linecap="round" stroke-linejoin="round"/>
<path d="M36.6134 43.806L37.8634 43.176L35.4634 40.896L36.6134 43.806Z" fill="#5C71C4" stroke="#42438A" stroke-width="0.8" stroke-linecap="round" stroke-linejoin="round"/>
<path d="M33.6732 47.076L27.8032 43.626C27.6411 43.5133 27.5078 43.364 27.414 43.1903C27.3202 43.0166 27.2686 42.8233 27.2632 42.626V35.826L34.2132 39.926V46.716C34.2132 47.086 33.9732 47.246 33.6732 47.066V47.076Z" fill="#5C71C4" stroke="#42438A" stroke-width="0.8" stroke-linecap="round" stroke-linejoin="round"/>
<path d="M30.5834 30.466L24.2834 34.466C24.0134 34.636 24.2334 35.286 24.6434 35.516L31.0733 39.306L37.5033 43.096C37.9133 43.336 38.1333 42.956 37.8633 42.466L31.6133 31.016C31.3433 30.526 30.8533 30.236 30.6133 30.416L30.5834 30.466Z" fill="#5C71C4" stroke="#42438A" stroke-width="0.8" stroke-linecap="round" stroke-linejoin="round"/>
<path d="M36.6131 43.146L30.3631 31.696C30.0931 31.206 29.6031 30.916 29.3631 31.096L23.0632 35.096C22.7932 35.266 23.0131 35.916 23.4231 36.146L26.5332 37.986V43.236C26.539 43.4321 26.5897 43.6244 26.6816 43.7978C26.7735 43.9712 26.9041 44.1211 27.0632 44.236L32.9332 47.686C33.2332 47.866 33.4731 47.686 33.4831 47.336V42.106L36.2832 43.756C36.6632 44.016 36.8831 43.626 36.6131 43.146Z" fill="#DBE2F9" stroke="#42438A" stroke-width="0.8" stroke-linecap="round" stroke-linejoin="round"/>
<path d="M21.523 55.056C21.523 55.436 21.253 55.586 20.933 55.396C20.7631 55.2864 20.6206 55.1392 20.5166 54.9659C20.4126 54.7925 20.3497 54.5975 20.333 54.396C20.333 54.016 20.603 53.866 20.933 54.056C21.1005 54.1672 21.2407 54.315 21.3429 54.4882C21.4451 54.6614 21.5067 54.8556 21.523 55.056Z" fill="#DBE2F9" stroke="#42438A" stroke-width="0.8" stroke-linecap="round" stroke-linejoin="round"/>
<path d="M43.063 67.326C43.063 67.696 42.7931 67.856 42.4731 67.666C42.3032 67.5564 42.1607 67.4092 42.0566 67.2359C41.9526 67.0625 41.8898 66.8675 41.873 66.666C41.873 66.286 42.1431 66.126 42.4731 66.316C42.6406 66.4272 42.7807 66.575 42.8829 66.7482C42.9851 66.9214 43.0467 67.1155 43.063 67.316V67.326Z" fill="#DBE2F9" stroke="#42438A" stroke-width="0.8" stroke-linecap="round" stroke-linejoin="round"/>
</g>
<defs>
<clipPath id="clip0">
<rect width="75.31" height="93.56" fill="white" transform="translate(0.303223 0.145996)"/>
</clipPath>
</defs>
</svg>
